%TF.GenerationSoftware,KiCad,Pcbnew,6.0.4+dfsg-1+b1*%
%TF.CreationDate,2022-04-28T11:11:36+08:00*%
%TF.ProjectId,gpioexp,6770696f-6578-4702-9e6b-696361645f70,c*%
%TF.SameCoordinates,Original*%
%TF.FileFunction,Copper,L1,Top*%
%TF.FilePolarity,Positive*%
%FSLAX46Y46*%
G04 Gerber Fmt 4.6, Leading zero omitted, Abs format (unit mm)*
G04 Created by KiCad (PCBNEW 6.0.4+dfsg-1+b1) date 2022-04-28 11:11:36*
%MOMM*%
%LPD*%
G01*
G04 APERTURE LIST*
G04 Aperture macros list*
%AMRoundRect*
0 Rectangle with rounded corners*
0 $1 Rounding radius*
0 $2 $3 $4 $5 $6 $7 $8 $9 X,Y pos of 4 corners*
0 Add a 4 corners polygon primitive as box body*
4,1,4,$2,$3,$4,$5,$6,$7,$8,$9,$2,$3,0*
0 Add four circle primitives for the rounded corners*
1,1,$1+$1,$2,$3*
1,1,$1+$1,$4,$5*
1,1,$1+$1,$6,$7*
1,1,$1+$1,$8,$9*
0 Add four rect primitives between the rounded corners*
20,1,$1+$1,$2,$3,$4,$5,0*
20,1,$1+$1,$4,$5,$6,$7,0*
20,1,$1+$1,$6,$7,$8,$9,0*
20,1,$1+$1,$8,$9,$2,$3,0*%
G04 Aperture macros list end*
%TA.AperFunction,SMDPad,CuDef*%
%ADD10RoundRect,0.200000X0.200000X0.275000X-0.200000X0.275000X-0.200000X-0.275000X0.200000X-0.275000X0*%
%TD*%
%TA.AperFunction,SMDPad,CuDef*%
%ADD11RoundRect,0.225000X0.225000X0.250000X-0.225000X0.250000X-0.225000X-0.250000X0.225000X-0.250000X0*%
%TD*%
%TA.AperFunction,SMDPad,CuDef*%
%ADD12RoundRect,0.062500X0.350000X0.062500X-0.350000X0.062500X-0.350000X-0.062500X0.350000X-0.062500X0*%
%TD*%
%TA.AperFunction,SMDPad,CuDef*%
%ADD13RoundRect,0.062500X0.062500X0.350000X-0.062500X0.350000X-0.062500X-0.350000X0.062500X-0.350000X0*%
%TD*%
%TA.AperFunction,SMDPad,CuDef*%
%ADD14R,2.600000X2.600000*%
%TD*%
%TA.AperFunction,ComponentPad*%
%ADD15R,1.700000X1.700000*%
%TD*%
%TA.AperFunction,ComponentPad*%
%ADD16O,1.700000X1.700000*%
%TD*%
%TA.AperFunction,ViaPad*%
%ADD17C,0.700000*%
%TD*%
%TA.AperFunction,Conductor*%
%ADD18C,0.304800*%
%TD*%
%TA.AperFunction,Conductor*%
%ADD19C,0.381000*%
%TD*%
%TA.AperFunction,Conductor*%
%ADD20C,0.228600*%
%TD*%
G04 APERTURE END LIST*
D10*
%TO.P,R1,1*%
%TO.N,VCC*%
X141160000Y-100965000D03*
%TO.P,R1,2*%
%TO.N,SCL*%
X139510000Y-100965000D03*
%TD*%
%TO.P,R2,1*%
%TO.N,VCC*%
X141160000Y-102870000D03*
%TO.P,R2,2*%
%TO.N,SDA*%
X139510000Y-102870000D03*
%TD*%
D11*
%TO.P,C1,1*%
%TO.N,VCC*%
X141110000Y-96520000D03*
%TO.P,C1,2*%
%TO.N,GND*%
X139560000Y-96520000D03*
%TD*%
%TO.P,C2,1*%
%TO.N,VCC*%
X141110000Y-104775000D03*
%TO.P,C2,2*%
%TO.N,GND*%
X139560000Y-104775000D03*
%TD*%
D12*
%TO.P,U1,1,P1_0*%
%TO.N,P1_0*%
X144177500Y-93325000D03*
%TO.P,U1,2,P1_1*%
%TO.N,P1_1*%
X144177500Y-92825000D03*
%TO.P,U1,3,P1_2*%
%TO.N,P1_2*%
X144177500Y-92325000D03*
%TO.P,U1,4,P1_3*%
%TO.N,P1_3*%
X144177500Y-91825000D03*
%TO.P,U1,5,P0_0*%
%TO.N,P0_0*%
X144177500Y-91325000D03*
%TO.P,U1,6,P0_1*%
%TO.N,P0_1*%
X144177500Y-90825000D03*
D13*
%TO.P,U1,7,P0_2*%
%TO.N,P0_2*%
X143490000Y-90137500D03*
%TO.P,U1,8,P0_3*%
%TO.N,P0_3*%
X142990000Y-90137500D03*
%TO.P,U1,9,GND*%
%TO.N,GND*%
X142490000Y-90137500D03*
%TO.P,U1,10,P0_4*%
%TO.N,P0_4*%
X141990000Y-90137500D03*
%TO.P,U1,11,P0_5*%
%TO.N,P0_5*%
X141490000Y-90137500D03*
%TO.P,U1,12,P0_6*%
%TO.N,P0_6*%
X140990000Y-90137500D03*
D12*
%TO.P,U1,13,P0_7*%
%TO.N,P0_7*%
X140302500Y-90825000D03*
%TO.P,U1,14,P1_4*%
%TO.N,P1_4*%
X140302500Y-91325000D03*
%TO.P,U1,15,P1_5*%
%TO.N,P1_5*%
X140302500Y-91825000D03*
%TO.P,U1,16,P1_6*%
%TO.N,P1_6*%
X140302500Y-92325000D03*
%TO.P,U1,17,P1_7*%
%TO.N,P1_7*%
X140302500Y-92825000D03*
%TO.P,U1,18,AD0*%
%TO.N,AD0*%
X140302500Y-93325000D03*
D13*
%TO.P,U1,19,SCL*%
%TO.N,SCL*%
X140990000Y-94012500D03*
%TO.P,U1,20,SDA*%
%TO.N,SDA*%
X141490000Y-94012500D03*
%TO.P,U1,21,VCC*%
%TO.N,VCC*%
X141990000Y-94012500D03*
%TO.P,U1,22,INT*%
%TO.N,INT*%
X142490000Y-94012500D03*
%TO.P,U1,23,~{RST}*%
%TO.N,NRST*%
X142990000Y-94012500D03*
%TO.P,U1,24,AD1*%
%TO.N,AD1*%
X143490000Y-94012500D03*
D14*
%TO.P,U1,25,GND*%
%TO.N,GND*%
X142240000Y-92075000D03*
%TD*%
D15*
%TO.P,J1,1,Pin_1*%
%TO.N,P1_0*%
X134620000Y-81280000D03*
D16*
%TO.P,J1,2,Pin_2*%
%TO.N,P1_1*%
X134620000Y-83820000D03*
%TO.P,J1,3,Pin_3*%
%TO.N,P1_2*%
X134620000Y-86360000D03*
%TO.P,J1,4,Pin_4*%
%TO.N,P1_3*%
X134620000Y-88900000D03*
%TO.P,J1,5,Pin_5*%
%TO.N,P1_4*%
X134620000Y-91440000D03*
%TO.P,J1,6,Pin_6*%
%TO.N,P1_5*%
X134620000Y-93980000D03*
%TO.P,J1,7,Pin_7*%
%TO.N,P1_6*%
X134620000Y-96520000D03*
%TO.P,J1,8,Pin_8*%
%TO.N,P1_7*%
X134620000Y-99060000D03*
%TO.P,J1,9,Pin_9*%
%TO.N,SCL*%
X134620000Y-101600000D03*
%TO.P,J1,10,Pin_10*%
%TO.N,SDA*%
X134620000Y-104140000D03*
%TO.P,J1,11,Pin_11*%
%TO.N,VCC*%
X134620000Y-106680000D03*
%TO.P,J1,12,Pin_12*%
%TO.N,GND*%
X134620000Y-109220000D03*
%TD*%
D15*
%TO.P,J2,1,Pin_1*%
%TO.N,P0_7*%
X149860000Y-81280000D03*
D16*
%TO.P,J2,2,Pin_2*%
%TO.N,P0_6*%
X149860000Y-83820000D03*
%TO.P,J2,3,Pin_3*%
%TO.N,P0_5*%
X149860000Y-86360000D03*
%TO.P,J2,4,Pin_4*%
%TO.N,P0_4*%
X149860000Y-88900000D03*
%TO.P,J2,5,Pin_5*%
%TO.N,P0_3*%
X149860000Y-91440000D03*
%TO.P,J2,6,Pin_6*%
%TO.N,P0_2*%
X149860000Y-93980000D03*
%TO.P,J2,7,Pin_7*%
%TO.N,P0_1*%
X149860000Y-96520000D03*
%TO.P,J2,8,Pin_8*%
%TO.N,P0_0*%
X149860000Y-99060000D03*
%TO.P,J2,9,Pin_9*%
%TO.N,NRST*%
X149860000Y-101600000D03*
%TO.P,J2,10,Pin_10*%
%TO.N,INT*%
X149860000Y-104140000D03*
%TO.P,J2,11,Pin_11*%
%TO.N,VCC*%
X149860000Y-106680000D03*
%TO.P,J2,12,Pin_12*%
%TO.N,GND*%
X149860000Y-109220000D03*
%TD*%
D17*
%TO.N,GND*%
X142240000Y-80010000D03*
X144145000Y-101600000D03*
X147320000Y-80010000D03*
X137160000Y-99695000D03*
X140970000Y-97790000D03*
X140970000Y-99695000D03*
X144780000Y-80010000D03*
X142240000Y-92075000D03*
X137160000Y-110490000D03*
X145415000Y-110490000D03*
X139065000Y-99695000D03*
X137160000Y-80010000D03*
X139700000Y-80010000D03*
X139065000Y-110490000D03*
X144145000Y-103505000D03*
X147320000Y-110490000D03*
%TO.N,AD0*%
X137160000Y-97155000D03*
%TO.N,AD1*%
X146685000Y-99695000D03*
%TO.N,P1_3*%
X146685000Y-92075000D03*
%TO.N,P1_2*%
X146685000Y-93980000D03*
%TO.N,P1_1*%
X146685000Y-95885000D03*
%TO.N,P1_0*%
X146685000Y-97790000D03*
%TD*%
D18*
%TO.N,GND*%
X142490000Y-90137500D02*
X142490000Y-91825000D01*
X142490000Y-91825000D02*
X142240000Y-92075000D01*
%TO.N,VCC*%
X141990000Y-96480000D02*
X141990000Y-100097500D01*
D19*
X141122500Y-104775000D02*
X141122500Y-102870000D01*
D18*
X141990000Y-96480000D02*
X141162500Y-96480000D01*
D19*
X141250000Y-106680000D02*
X149860000Y-106680000D01*
X134620000Y-106680000D02*
X141250000Y-106680000D01*
D18*
X141990000Y-94012500D02*
X141990000Y-96480000D01*
D19*
X141250000Y-104902500D02*
X141122500Y-104775000D01*
X141122500Y-102870000D02*
X141122500Y-100965000D01*
X141250000Y-106680000D02*
X141250000Y-104902500D01*
D18*
X141990000Y-100097500D02*
X141122500Y-100965000D01*
X141162500Y-96480000D02*
X141122500Y-96520000D01*
D20*
%TO.N,AD0*%
X140302500Y-93325000D02*
X137160000Y-96467500D01*
X137160000Y-96467500D02*
X137160000Y-97155000D01*
%TO.N,AD1*%
X143490000Y-96500000D02*
X146685000Y-99695000D01*
X143490000Y-94012500D02*
X143490000Y-96500000D01*
%TO.N,SCL*%
X135255000Y-100965000D02*
X134620000Y-101600000D01*
X138205000Y-100965000D02*
X138205000Y-96162124D01*
X140354624Y-94012500D02*
X140990000Y-94012500D01*
X138205000Y-96162124D02*
X138462279Y-95904845D01*
X138205000Y-100965000D02*
X135255000Y-100965000D01*
X138462279Y-95904845D02*
X140354624Y-94012500D01*
X139547500Y-100965000D02*
X138465000Y-100965000D01*
X138465000Y-100965000D02*
X138205000Y-100965000D01*
%TO.N,SDA*%
X140251710Y-99081710D02*
X138843290Y-97673290D01*
X138843290Y-96062664D02*
X140189244Y-94716710D01*
X141223290Y-94716710D02*
X141490000Y-94450000D01*
X140251710Y-102165790D02*
X140251710Y-99081710D01*
X141490000Y-94450000D02*
X141490000Y-94012500D01*
X137130000Y-102870000D02*
X135860000Y-104140000D01*
X138843290Y-97673290D02*
X138843290Y-96062664D01*
X140189244Y-94716710D02*
X141223290Y-94716710D01*
X139547500Y-102870000D02*
X140251710Y-102165790D01*
X135860000Y-104140000D02*
X134620000Y-104140000D01*
X139547500Y-102870000D02*
X137130000Y-102870000D01*
%TO.N,NRST*%
X147677280Y-101600000D02*
X149860000Y-101600000D01*
X142990000Y-94012500D02*
X142990000Y-96912720D01*
X142990000Y-96912720D02*
X147677280Y-101600000D01*
%TO.N,INT*%
X142490000Y-94012500D02*
X142490000Y-97972081D01*
X142490000Y-97972081D02*
X148657919Y-104140000D01*
X148657919Y-104140000D02*
X149860000Y-104140000D01*
%TO.N,P1_7*%
X139777340Y-92825000D02*
X135736701Y-96865639D01*
X135736701Y-97943299D02*
X134620000Y-99060000D01*
X140302500Y-92825000D02*
X139777340Y-92825000D01*
X135736701Y-96865639D02*
X135736701Y-97943299D01*
%TO.N,P1_6*%
X138815000Y-92325000D02*
X134620000Y-96520000D01*
X140302500Y-92325000D02*
X138815000Y-92325000D01*
%TO.N,P1_5*%
X136775000Y-91825000D02*
X134620000Y-93980000D01*
X140302500Y-91825000D02*
X136775000Y-91825000D01*
%TO.N,P1_4*%
X134735000Y-91325000D02*
X134620000Y-91440000D01*
X140302500Y-91325000D02*
X134735000Y-91325000D01*
%TO.N,P0_7*%
X140302500Y-90825000D02*
X140302500Y-89011010D01*
X140302500Y-89011010D02*
X148033510Y-81280000D01*
X148033510Y-81280000D02*
X149860000Y-81280000D01*
%TO.N,P0_6*%
X140990000Y-90137500D02*
X140990000Y-88862340D01*
X146032340Y-83820000D02*
X149860000Y-83820000D01*
X140990000Y-88862340D02*
X146032340Y-83820000D01*
%TO.N,P0_5*%
X144031170Y-86360000D02*
X149860000Y-86360000D01*
X141490000Y-90137500D02*
X141490000Y-88901170D01*
X141490000Y-88901170D02*
X144031170Y-86360000D01*
%TO.N,P0_4*%
X149860000Y-88900000D02*
X148900000Y-87940000D01*
X142990000Y-87940000D02*
X141990000Y-88940000D01*
X148900000Y-87940000D02*
X142990000Y-87940000D01*
X141990000Y-88940000D02*
X141990000Y-90137500D01*
%TO.N,P0_3*%
X147853290Y-89433290D02*
X149860000Y-91440000D01*
X143256710Y-89433290D02*
X147853290Y-89433290D01*
X142990000Y-90137500D02*
X142990000Y-89700000D01*
X142990000Y-89700000D02*
X143256710Y-89433290D01*
%TO.N,P0_2*%
X143490000Y-90137500D02*
X146737878Y-90137500D01*
X146737878Y-90137500D02*
X149860000Y-93259622D01*
X149860000Y-93259622D02*
X149860000Y-93980000D01*
%TO.N,P0_1*%
X146886548Y-90825000D02*
X148743299Y-92681751D01*
X148743299Y-92681751D02*
X148743299Y-95403299D01*
X148743299Y-95403299D02*
X149860000Y-96520000D01*
X144177500Y-90825000D02*
X146886548Y-90825000D01*
%TO.N,P0_0*%
X146847718Y-91325000D02*
X148362288Y-92839570D01*
X148362288Y-92839570D02*
X148362288Y-97562288D01*
X148362288Y-97562288D02*
X149860000Y-99060000D01*
X144177500Y-91325000D02*
X146847718Y-91325000D01*
%TO.N,P1_3*%
X144177500Y-91825000D02*
X146435000Y-91825000D01*
X146435000Y-91825000D02*
X146685000Y-92075000D01*
%TO.N,P1_2*%
X145030000Y-92325000D02*
X146685000Y-93980000D01*
X144177500Y-92325000D02*
X145030000Y-92325000D01*
%TO.N,P1_1*%
X146685000Y-94895000D02*
X146685000Y-95885000D01*
X144615000Y-92825000D02*
X146685000Y-94895000D01*
X144177500Y-92825000D02*
X144615000Y-92825000D01*
%TO.N,P1_0*%
X144177500Y-93325000D02*
X144177500Y-95282500D01*
X144177500Y-95282500D02*
X146685000Y-97790000D01*
%TD*%
%TA.AperFunction,Conductor*%
%TO.N,GND*%
G36*
X151754430Y-78895462D02*
G01*
X151765000Y-78898294D01*
X151774562Y-78895732D01*
X151781581Y-78895732D01*
X151791397Y-78896375D01*
X151879962Y-78908035D01*
X151898924Y-78913116D01*
X151996905Y-78953701D01*
X152013906Y-78963517D01*
X152098042Y-79028077D01*
X152111923Y-79041958D01*
X152176483Y-79126094D01*
X152186299Y-79143095D01*
X152226884Y-79241076D01*
X152231965Y-79260038D01*
X152243625Y-79348603D01*
X152244268Y-79358419D01*
X152244268Y-79365438D01*
X152241706Y-79375000D01*
X152244268Y-79384561D01*
X152244538Y-79385569D01*
X152247100Y-79405032D01*
X152247100Y-111094968D01*
X152244538Y-111114430D01*
X152241706Y-111125000D01*
X152244268Y-111134562D01*
X152244268Y-111141581D01*
X152243625Y-111151397D01*
X152231965Y-111239962D01*
X152226884Y-111258924D01*
X152186299Y-111356905D01*
X152176483Y-111373906D01*
X152111923Y-111458042D01*
X152098042Y-111471923D01*
X152013906Y-111536483D01*
X151996905Y-111546299D01*
X151898924Y-111586884D01*
X151879962Y-111591965D01*
X151791397Y-111603625D01*
X151781581Y-111604268D01*
X151774562Y-111604268D01*
X151765000Y-111601706D01*
X151754431Y-111604538D01*
X151734968Y-111607100D01*
X132745032Y-111607100D01*
X132725569Y-111604538D01*
X132715000Y-111601706D01*
X132705438Y-111604268D01*
X132698419Y-111604268D01*
X132688603Y-111603625D01*
X132600038Y-111591965D01*
X132581076Y-111586884D01*
X132483095Y-111546299D01*
X132466094Y-111536483D01*
X132381958Y-111471923D01*
X132368077Y-111458042D01*
X132303517Y-111373906D01*
X132293701Y-111356905D01*
X132253116Y-111258924D01*
X132248035Y-111239962D01*
X132236375Y-111151397D01*
X132235732Y-111141581D01*
X132235732Y-111134562D01*
X132238294Y-111125000D01*
X132235462Y-111114430D01*
X132232900Y-111094968D01*
X132232900Y-109380318D01*
X133627492Y-109380318D01*
X133628990Y-109398160D01*
X133630312Y-109405364D01*
X133682470Y-109587261D01*
X133685164Y-109594063D01*
X133771657Y-109762363D01*
X133775623Y-109768518D01*
X133893164Y-109916817D01*
X133898240Y-109922074D01*
X134042355Y-110044725D01*
X134048353Y-110048894D01*
X134213537Y-110141211D01*
X134220250Y-110144144D01*
X134400210Y-110202616D01*
X134407358Y-110204188D01*
X134454434Y-110209802D01*
X134464957Y-110207334D01*
X134467600Y-110203801D01*
X134467600Y-110200421D01*
X134772400Y-110200421D01*
X134776097Y-110210578D01*
X134780403Y-110213064D01*
X134791238Y-110212230D01*
X134798449Y-110210959D01*
X134980701Y-110160073D01*
X134987534Y-110157422D01*
X135156428Y-110072108D01*
X135162611Y-110068184D01*
X135311720Y-109951687D01*
X135317023Y-109946637D01*
X135440664Y-109803397D01*
X135444886Y-109797412D01*
X135538354Y-109632880D01*
X135541328Y-109626200D01*
X135601059Y-109446641D01*
X135602680Y-109439508D01*
X135609495Y-109385556D01*
X135608305Y-109380318D01*
X148867492Y-109380318D01*
X148868990Y-109398160D01*
X148870312Y-109405364D01*
X148922470Y-109587261D01*
X148925164Y-109594063D01*
X149011657Y-109762363D01*
X149015623Y-109768518D01*
X149133164Y-109916817D01*
X149138240Y-109922074D01*
X149282355Y-110044725D01*
X149288353Y-110048894D01*
X149453537Y-110141211D01*
X149460250Y-110144144D01*
X149640210Y-110202616D01*
X149647358Y-110204188D01*
X149694434Y-110209802D01*
X149704957Y-110207334D01*
X149707600Y-110203801D01*
X149707600Y-110200421D01*
X150012400Y-110200421D01*
X150016097Y-110210578D01*
X150020403Y-110213064D01*
X150031238Y-110212230D01*
X150038449Y-110210959D01*
X150220701Y-110160073D01*
X150227534Y-110157422D01*
X150396428Y-110072108D01*
X150402611Y-110068184D01*
X150551720Y-109951687D01*
X150557023Y-109946637D01*
X150680664Y-109803397D01*
X150684886Y-109797412D01*
X150778354Y-109632880D01*
X150781328Y-109626200D01*
X150841059Y-109446641D01*
X150842680Y-109439508D01*
X150849495Y-109385556D01*
X150847100Y-109375014D01*
X150843656Y-109372400D01*
X150025659Y-109372400D01*
X150015502Y-109376097D01*
X150012400Y-109381469D01*
X150012400Y-110200421D01*
X149707600Y-110200421D01*
X149707600Y-109385659D01*
X149703903Y-109375502D01*
X149698531Y-109372400D01*
X148880086Y-109372400D01*
X148869929Y-109376097D01*
X148867492Y-109380318D01*
X135608305Y-109380318D01*
X135607100Y-109375014D01*
X135603656Y-109372400D01*
X134785659Y-109372400D01*
X134775502Y-109376097D01*
X134772400Y-109381469D01*
X134772400Y-110200421D01*
X134467600Y-110200421D01*
X134467600Y-109385659D01*
X134463903Y-109375502D01*
X134458531Y-109372400D01*
X133640086Y-109372400D01*
X133629929Y-109376097D01*
X133627492Y-109380318D01*
X132232900Y-109380318D01*
X132232900Y-109054421D01*
X133629843Y-109054421D01*
X133632386Y-109064930D01*
X133636007Y-109067600D01*
X134454341Y-109067600D01*
X134464498Y-109063903D01*
X134467600Y-109058531D01*
X134467600Y-109054341D01*
X134772400Y-109054341D01*
X134776097Y-109064498D01*
X134781469Y-109067600D01*
X135599048Y-109067600D01*
X135609205Y-109063903D01*
X135611547Y-109059847D01*
X135611015Y-109054421D01*
X148869843Y-109054421D01*
X148872386Y-109064930D01*
X148876007Y-109067600D01*
X149694341Y-109067600D01*
X149704498Y-109063903D01*
X149707600Y-109058531D01*
X149707600Y-109054341D01*
X150012400Y-109054341D01*
X150016097Y-109064498D01*
X150021469Y-109067600D01*
X150839048Y-109067600D01*
X150849205Y-109063903D01*
X150851547Y-109059847D01*
X150848427Y-109028024D01*
X150847001Y-109020828D01*
X150792312Y-108839688D01*
X150789524Y-108832922D01*
X150700684Y-108665839D01*
X150696639Y-108659751D01*
X150577041Y-108513109D01*
X150571878Y-108507910D01*
X150426078Y-108387294D01*
X150420016Y-108383205D01*
X150253557Y-108293201D01*
X150246813Y-108290366D01*
X150066047Y-108234410D01*
X150058880Y-108232939D01*
X150025587Y-108229440D01*
X150015100Y-108232055D01*
X150012400Y-108235771D01*
X150012400Y-109054341D01*
X149707600Y-109054341D01*
X149707600Y-108240543D01*
X149703903Y-108230386D01*
X149699766Y-108227997D01*
X149674918Y-108230258D01*
X149667732Y-108231629D01*
X149486208Y-108285055D01*
X149479421Y-108287797D01*
X149311721Y-108375468D01*
X149305603Y-108379472D01*
X149158128Y-108498044D01*
X149152903Y-108503161D01*
X149031266Y-108648122D01*
X149027132Y-108654160D01*
X148935975Y-108819975D01*
X148933088Y-108826711D01*
X148875874Y-109007074D01*
X148874351Y-109014239D01*
X148869843Y-109054421D01*
X135611015Y-109054421D01*
X135608427Y-109028024D01*
X135607001Y-109020828D01*
X135552312Y-108839688D01*
X135549524Y-108832922D01*
X135460684Y-108665839D01*
X135456639Y-108659751D01*
X135337041Y-108513109D01*
X135331878Y-108507910D01*
X135186078Y-108387294D01*
X135180016Y-108383205D01*
X135013557Y-108293201D01*
X135006813Y-108290366D01*
X134826047Y-108234410D01*
X134818880Y-108232939D01*
X134785587Y-108229440D01*
X134775100Y-108232055D01*
X134772400Y-108235771D01*
X134772400Y-109054341D01*
X134467600Y-109054341D01*
X134467600Y-108240543D01*
X134463903Y-108230386D01*
X134459766Y-108227997D01*
X134434918Y-108230258D01*
X134427732Y-108231629D01*
X134246208Y-108285055D01*
X134239421Y-108287797D01*
X134071721Y-108375468D01*
X134065603Y-108379472D01*
X133918128Y-108498044D01*
X133912903Y-108503161D01*
X133791266Y-108648122D01*
X133787132Y-108654160D01*
X133695975Y-108819975D01*
X133693088Y-108826711D01*
X133635874Y-109007074D01*
X133634351Y-109014239D01*
X133629843Y-109054421D01*
X132232900Y-109054421D01*
X132232900Y-106665930D01*
X133612345Y-106665930D01*
X133612653Y-106669598D01*
X133612653Y-106669601D01*
X133615889Y-106708138D01*
X133628803Y-106861919D01*
X133683015Y-107050979D01*
X133772916Y-107225908D01*
X133895083Y-107380044D01*
X133897877Y-107382422D01*
X133897878Y-107382423D01*
X133932691Y-107412051D01*
X134044862Y-107507516D01*
X134048063Y-107509305D01*
X134048066Y-107509307D01*
X134086656Y-107530874D01*
X134216547Y-107603467D01*
X134220044Y-107604603D01*
X134220048Y-107604605D01*
X134312615Y-107634681D01*
X134403600Y-107664244D01*
X134510984Y-107677049D01*
X134595237Y-107687096D01*
X134595239Y-107687096D01*
X134598895Y-107687532D01*
X134794994Y-107672443D01*
X134909061Y-107640595D01*
X134980883Y-107620542D01*
X134980885Y-107620541D01*
X134984428Y-107619552D01*
X135159981Y-107530874D01*
X135314966Y-107409786D01*
X135443480Y-107260901D01*
X135540628Y-107089890D01*
X135541790Y-107086398D01*
X135545628Y-107074862D01*
X135577580Y-107034550D01*
X135616983Y-107023400D01*
X148862939Y-107023400D01*
X148911277Y-107040993D01*
X148929823Y-107064226D01*
X149012916Y-107225908D01*
X149135083Y-107380044D01*
X149137877Y-107382422D01*
X149137878Y-107382423D01*
X149172691Y-107412051D01*
X149284862Y-107507516D01*
X149288063Y-107509305D01*
X149288066Y-107509307D01*
X149326656Y-107530874D01*
X149456547Y-107603467D01*
X149460044Y-107604603D01*
X149460048Y-107604605D01*
X149552615Y-107634681D01*
X149643600Y-107664244D01*
X149750984Y-107677049D01*
X149835237Y-107687096D01*
X149835239Y-107687096D01*
X149838895Y-107687532D01*
X150034994Y-107672443D01*
X150149061Y-107640595D01*
X150220883Y-107620542D01*
X150220885Y-107620541D01*
X150224428Y-107619552D01*
X150399981Y-107530874D01*
X150554966Y-107409786D01*
X150683480Y-107260901D01*
X150780628Y-107089890D01*
X150842710Y-106903266D01*
X150867360Y-106708138D01*
X150867753Y-106680000D01*
X150867548Y-106677907D01*
X150848921Y-106487927D01*
X150848920Y-106487922D01*
X150848561Y-106484260D01*
X150791714Y-106295975D01*
X150699379Y-106122318D01*
X150575072Y-105969903D01*
X150423528Y-105844535D01*
X150250520Y-105750990D01*
X150062637Y-105692830D01*
X149939766Y-105679916D01*
X149870690Y-105672656D01*
X149870689Y-105672656D01*
X149867035Y-105672272D01*
X149769101Y-105681184D01*
X149674824Y-105689764D01*
X149674823Y-105689764D01*
X149671166Y-105690097D01*
X149667641Y-105691134D01*
X149667638Y-105691135D01*
X149486019Y-105744589D01*
X149482489Y-105745628D01*
X149308192Y-105836748D01*
X149154912Y-105959988D01*
X149028489Y-106110653D01*
X148933739Y-106283004D01*
X148932627Y-106286509D01*
X148931177Y-106289892D01*
X148929501Y-106289173D01*
X148901995Y-106324892D01*
X148861699Y-106336600D01*
X141668600Y-106336600D01*
X141620262Y-106319007D01*
X141594542Y-106274458D01*
X141593400Y-106261400D01*
X141593400Y-105332194D01*
X141610993Y-105283856D01*
X141615379Y-105279066D01*
X141621895Y-105272538D01*
X141646908Y-105247482D01*
X141649637Y-105241898D01*
X141649639Y-105241896D01*
X141699595Y-105139695D01*
X141702157Y-105134454D01*
X141712900Y-105060815D01*
X141712899Y-104489186D01*
X141701966Y-104414905D01*
X141699391Y-104409660D01*
X141649257Y-104307550D01*
X141649256Y-104307549D01*
X141646519Y-104301974D01*
X141642124Y-104297586D01*
X141642122Y-104297584D01*
X141602161Y-104257694D01*
X141557482Y-104213092D01*
X141551898Y-104210363D01*
X141551896Y-104210361D01*
X141508076Y-104188942D01*
X141472375Y-104151908D01*
X141465900Y-104121381D01*
X141465900Y-103533028D01*
X141483493Y-103484690D01*
X141507957Y-103465526D01*
X141562691Y-103438652D01*
X141562695Y-103438649D01*
X141568272Y-103435911D01*
X141572660Y-103431516D01*
X141572662Y-103431514D01*
X141609724Y-103394386D01*
X141651274Y-103352764D01*
X141674850Y-103304535D01*
X141700305Y-103252460D01*
X141700306Y-103252458D01*
X141702869Y-103247214D01*
X141712900Y-103178452D01*
X141712900Y-102561548D01*
X141707462Y-102524605D01*
X141703541Y-102497967D01*
X141703540Y-102497965D01*
X141702690Y-102492188D01*
X141650911Y-102386728D01*
X141646516Y-102382340D01*
X141646514Y-102382338D01*
X141596138Y-102332051D01*
X141567764Y-102303726D01*
X141562182Y-102300997D01*
X141562180Y-102300996D01*
X141508075Y-102274549D01*
X141472375Y-102237515D01*
X141465900Y-102206989D01*
X141465900Y-101628028D01*
X141483493Y-101579690D01*
X141507957Y-101560526D01*
X141562691Y-101533652D01*
X141562695Y-101533649D01*
X141568272Y-101530911D01*
X141572660Y-101526516D01*
X141572662Y-101526514D01*
X141634510Y-101464557D01*
X141651274Y-101447764D01*
X141658469Y-101433046D01*
X141700305Y-101347460D01*
X141700306Y-101347458D01*
X141702869Y-101342214D01*
X141712900Y-101273452D01*
X141712900Y-100837507D01*
X141730493Y-100789169D01*
X141734926Y-100784333D01*
X142166677Y-100352582D01*
X142170898Y-100348938D01*
X142175180Y-100346845D01*
X142183854Y-100337495D01*
X142209688Y-100309645D01*
X142211646Y-100307613D01*
X142225956Y-100293303D01*
X142227918Y-100290442D01*
X142230133Y-100287777D01*
X142230275Y-100287895D01*
X142232860Y-100284665D01*
X142247805Y-100268554D01*
X142252528Y-100263463D01*
X142255100Y-100257016D01*
X142255102Y-100257013D01*
X142257909Y-100249976D01*
X142265742Y-100235306D01*
X142273956Y-100223332D01*
X142280635Y-100195189D01*
X142283953Y-100184698D01*
X142294673Y-100157827D01*
X142295300Y-100151432D01*
X142295300Y-100142194D01*
X142297332Y-100124830D01*
X142298614Y-100119427D01*
X142300217Y-100112673D01*
X142295987Y-100081591D01*
X142295300Y-100071450D01*
X142295300Y-98336807D01*
X142312893Y-98288469D01*
X142357442Y-98262749D01*
X142408100Y-98271682D01*
X142423674Y-98283633D01*
X148445131Y-104305090D01*
X148454481Y-104316482D01*
X148465278Y-104332641D01*
X148487590Y-104347549D01*
X148553663Y-104391697D01*
X148560923Y-104393141D01*
X148560925Y-104393142D01*
X148650655Y-104410991D01*
X148657919Y-104412436D01*
X148665183Y-104410991D01*
X148676977Y-104408645D01*
X148691648Y-104407200D01*
X148836590Y-104407200D01*
X148884928Y-104424793D01*
X148908877Y-104461673D01*
X148917549Y-104491915D01*
X148923015Y-104510979D01*
X149012916Y-104685908D01*
X149135083Y-104840044D01*
X149137877Y-104842422D01*
X149137878Y-104842423D01*
X149172691Y-104872051D01*
X149284862Y-104967516D01*
X149288063Y-104969305D01*
X149288066Y-104969307D01*
X149326656Y-104990874D01*
X149456547Y-105063467D01*
X149460044Y-105064603D01*
X149460048Y-105064605D01*
X149552615Y-105094681D01*
X149643600Y-105124244D01*
X149750984Y-105137049D01*
X149835237Y-105147096D01*
X149835239Y-105147096D01*
X149838895Y-105147532D01*
X150034994Y-105132443D01*
X150149061Y-105100595D01*
X150220883Y-105080542D01*
X150220885Y-105080541D01*
X150224428Y-105079552D01*
X150399981Y-104990874D01*
X150554966Y-104869786D01*
X150683480Y-104720901D01*
X150780628Y-104549890D01*
X150842710Y-104363266D01*
X150867360Y-104168138D01*
X150867753Y-104140000D01*
X150867548Y-104137907D01*
X150848921Y-103947927D01*
X150848920Y-103947922D01*
X150848561Y-103944260D01*
X150791714Y-103755975D01*
X150699379Y-103582318D01*
X150575072Y-103429903D01*
X150423528Y-103304535D01*
X150250520Y-103210990D01*
X150062637Y-103152830D01*
X149939766Y-103139916D01*
X149870690Y-103132656D01*
X149870689Y-103132656D01*
X149867035Y-103132272D01*
X149769101Y-103141184D01*
X149674824Y-103149764D01*
X149674823Y-103149764D01*
X149671166Y-103150097D01*
X149667641Y-103151134D01*
X149667638Y-103151135D01*
X149565586Y-103181171D01*
X149482489Y-103205628D01*
X149308192Y-103296748D01*
X149154912Y-103419988D01*
X149028489Y-103570653D01*
X148933739Y-103743004D01*
X148929624Y-103755975D01*
X148909207Y-103820338D01*
X148877821Y-103861094D01*
X148837527Y-103872800D01*
X148799745Y-103872800D01*
X148751407Y-103855207D01*
X148746571Y-103850774D01*
X142779226Y-97883429D01*
X142757486Y-97836809D01*
X142757200Y-97830255D01*
X142757200Y-97239346D01*
X142774793Y-97191008D01*
X142819342Y-97165288D01*
X142870000Y-97174221D01*
X142885574Y-97186172D01*
X147464492Y-101765090D01*
X147473844Y-101776485D01*
X147484639Y-101792641D01*
X147506951Y-101807549D01*
X147573024Y-101851697D01*
X147580284Y-101853141D01*
X147580286Y-101853142D01*
X147670016Y-101870991D01*
X147677280Y-101872436D01*
X147684544Y-101870991D01*
X147696338Y-101868645D01*
X147711009Y-101867200D01*
X148836590Y-101867200D01*
X148884928Y-101884793D01*
X148908877Y-101921672D01*
X148923015Y-101970979D01*
X149012916Y-102145908D01*
X149015201Y-102148791D01*
X149038113Y-102177699D01*
X149135083Y-102300044D01*
X149137877Y-102302422D01*
X149137878Y-102302423D01*
X149172691Y-102332051D01*
X149284862Y-102427516D01*
X149288063Y-102429305D01*
X149288066Y-102429307D01*
X149326656Y-102450874D01*
X149456547Y-102523467D01*
X149460044Y-102524603D01*
X149460048Y-102524605D01*
X149552615Y-102554681D01*
X149643600Y-102584244D01*
X149750984Y-102597049D01*
X149835237Y-102607096D01*
X149835239Y-102607096D01*
X149838895Y-102607532D01*
X150034994Y-102592443D01*
X150155386Y-102558829D01*
X150220883Y-102540542D01*
X150220885Y-102540541D01*
X150224428Y-102539552D01*
X150318193Y-102492188D01*
X150396697Y-102452533D01*
X150396698Y-102452532D01*
X150399981Y-102450874D01*
X150554966Y-102329786D01*
X150683480Y-102180901D01*
X150701721Y-102148791D01*
X150778810Y-102013091D01*
X150778812Y-102013088D01*
X150780628Y-102009890D01*
X150842710Y-101823266D01*
X150867360Y-101628138D01*
X150867753Y-101600000D01*
X150867018Y-101592500D01*
X150848921Y-101407927D01*
X150848920Y-101407922D01*
X150848561Y-101404260D01*
X150791714Y-101215975D01*
X150699379Y-101042318D01*
X150575072Y-100889903D01*
X150423528Y-100764535D01*
X150250520Y-100670990D01*
X150062637Y-100612830D01*
X149939766Y-100599916D01*
X149870690Y-100592656D01*
X149870689Y-100592656D01*
X149867035Y-100592272D01*
X149769100Y-100601185D01*
X149674824Y-100609764D01*
X149674823Y-100609764D01*
X149671166Y-100610097D01*
X149667641Y-100611134D01*
X149667638Y-100611135D01*
X149513340Y-100656548D01*
X149482489Y-100665628D01*
X149308192Y-100756748D01*
X149154912Y-100879988D01*
X149028489Y-101030653D01*
X148933739Y-101203004D01*
X148929624Y-101215975D01*
X148909207Y-101280338D01*
X148877821Y-101321094D01*
X148837527Y-101332800D01*
X147819106Y-101332800D01*
X147770768Y-101315207D01*
X147765932Y-101310774D01*
X146765994Y-100310836D01*
X146744254Y-100264216D01*
X146757568Y-100214529D01*
X146799388Y-100185110D01*
X146886779Y-100161285D01*
X146946152Y-100124830D01*
X147004970Y-100088716D01*
X147004973Y-100088714D01*
X147009539Y-100085910D01*
X147106210Y-99979110D01*
X147110120Y-99971041D01*
X147166682Y-99854296D01*
X147166682Y-99854295D01*
X147169020Y-99849470D01*
X147192919Y-99707413D01*
X147193071Y-99695000D01*
X147192659Y-99692120D01*
X147173409Y-99557704D01*
X147173408Y-99557700D01*
X147172649Y-99552401D01*
X147113026Y-99421266D01*
X147109528Y-99417206D01*
X147022487Y-99316190D01*
X147022484Y-99316187D01*
X147018993Y-99312136D01*
X146968819Y-99279615D01*
X146902604Y-99236697D01*
X146902603Y-99236697D01*
X146898111Y-99233785D01*
X146821912Y-99210997D01*
X146765232Y-99194045D01*
X146765229Y-99194045D01*
X146760098Y-99192510D01*
X146754743Y-99192477D01*
X146754741Y-99192477D01*
X146689524Y-99192079D01*
X146616047Y-99191630D01*
X146610895Y-99193102D01*
X146605591Y-99193829D01*
X146605255Y-99191377D01*
X146563300Y-99188399D01*
X146540784Y-99172906D01*
X143779226Y-96411348D01*
X143757486Y-96364728D01*
X143757200Y-96358174D01*
X143757200Y-95302656D01*
X143763866Y-95284339D01*
X143758075Y-95273783D01*
X143757200Y-95262344D01*
X143757200Y-94444913D01*
X143758645Y-94430242D01*
X143761345Y-94416668D01*
X143788030Y-94372692D01*
X143836740Y-94356157D01*
X143884683Y-94374801D01*
X143909425Y-94419899D01*
X143910300Y-94431339D01*
X143910300Y-95248771D01*
X143908855Y-95263443D01*
X143906155Y-95277016D01*
X143904055Y-95280476D01*
X143906155Y-95287983D01*
X143925803Y-95386757D01*
X143954441Y-95429617D01*
X143984859Y-95475141D01*
X143993739Y-95481074D01*
X144001014Y-95485935D01*
X144012410Y-95495288D01*
X146166659Y-97649537D01*
X146188399Y-97696157D01*
X146187790Y-97714280D01*
X146176967Y-97783793D01*
X146177661Y-97789100D01*
X146177661Y-97789103D01*
X146183352Y-97832621D01*
X146195645Y-97926630D01*
X146237580Y-98021935D01*
X146251098Y-98052656D01*
X146253662Y-98058484D01*
X146257107Y-98062582D01*
X146257108Y-98062584D01*
X146266797Y-98074110D01*
X146346354Y-98168755D01*
X146374298Y-98187356D01*
X146418454Y-98216748D01*
X146466270Y-98248577D01*
X146603769Y-98291535D01*
X146677871Y-98292893D01*
X146742436Y-98294077D01*
X146742438Y-98294077D01*
X146747798Y-98294175D01*
X146752969Y-98292765D01*
X146752971Y-98292765D01*
X146830303Y-98271682D01*
X146886779Y-98256285D01*
X146941334Y-98222788D01*
X147004970Y-98183716D01*
X147004973Y-98183714D01*
X147009539Y-98180910D01*
X147027125Y-98161482D01*
X147102612Y-98078085D01*
X147106210Y-98074110D01*
X147111795Y-98062584D01*
X147166682Y-97949296D01*
X147166682Y-97949295D01*
X147169020Y-97944470D01*
X147192919Y-97802413D01*
X147193071Y-97790000D01*
X147192659Y-97787120D01*
X147173409Y-97652704D01*
X147173408Y-97652700D01*
X147172649Y-97647401D01*
X147161416Y-97622694D01*
X147118148Y-97527532D01*
X147113026Y-97516266D01*
X147102667Y-97504244D01*
X147022487Y-97411190D01*
X147022484Y-97411187D01*
X147018993Y-97407136D01*
X146898111Y-97328785D01*
X146815852Y-97304184D01*
X146765232Y-97289045D01*
X146765229Y-97289045D01*
X146760098Y-97287510D01*
X146754743Y-97287477D01*
X146754741Y-97287477D01*
X146689524Y-97287079D01*
X146616047Y-97286630D01*
X146610895Y-97288102D01*
X146605591Y-97288829D01*
X146605255Y-97286377D01*
X146563300Y-97283399D01*
X146540784Y-97267906D01*
X144466726Y-95193848D01*
X144444986Y-95147228D01*
X144444700Y-95140674D01*
X144444700Y-93678099D01*
X144462293Y-93629761D01*
X144506842Y-93604041D01*
X144519900Y-93602899D01*
X144548714Y-93602899D01*
X144552337Y-93602178D01*
X144552341Y-93602178D01*
X144604280Y-93591847D01*
X144611545Y-93590402D01*
X144682795Y-93542795D01*
X144730402Y-93471545D01*
X144731602Y-93465513D01*
X144765868Y-93428117D01*
X144816867Y-93421401D01*
X144853767Y-93441645D01*
X146395774Y-94983652D01*
X146417514Y-95030272D01*
X146417800Y-95036826D01*
X146417800Y-95417437D01*
X146400207Y-95465775D01*
X146382728Y-95481035D01*
X146360241Y-95495223D01*
X146360234Y-95495229D01*
X146355709Y-95498084D01*
X146348550Y-95506190D01*
X146263897Y-95602041D01*
X146263895Y-95602044D01*
X146260351Y-95606057D01*
X146199129Y-95736454D01*
X146176967Y-95878793D01*
X146177661Y-95884100D01*
X146177661Y-95884103D01*
X146180510Y-95905891D01*
X146195645Y-96021630D01*
X146206797Y-96046974D01*
X146241795Y-96126513D01*
X146253662Y-96153484D01*
X146257107Y-96157582D01*
X146257108Y-96157584D01*
X146282277Y-96187526D01*
X146346354Y-96263755D01*
X146466270Y-96343577D01*
X146603769Y-96386535D01*
X146677871Y-96387893D01*
X146742436Y-96389077D01*
X146742438Y-96389077D01*
X146747798Y-96389175D01*
X146752969Y-96387765D01*
X146752971Y-96387765D01*
X146837470Y-96364728D01*
X146886779Y-96351285D01*
X146958955Y-96306969D01*
X147004970Y-96278716D01*
X147004973Y-96278714D01*
X147009539Y-96275910D01*
X147023985Y-96259951D01*
X147102612Y-96173085D01*
X147106210Y-96169110D01*
X147110360Y-96160546D01*
X147166682Y-96044296D01*
X147166682Y-96044295D01*
X147169020Y-96039470D01*
X147192919Y-95897413D01*
X147193071Y-95885000D01*
X147192659Y-95882120D01*
X147173409Y-95747704D01*
X147173408Y-95747700D01*
X147172649Y-95742401D01*
X147113026Y-95611266D01*
X147108538Y-95606057D01*
X147022487Y-95506190D01*
X147022484Y-95506187D01*
X147018993Y-95502136D01*
X146986498Y-95481074D01*
X146955505Y-95440019D01*
X146952200Y-95417970D01*
X146952200Y-94928725D01*
X146953645Y-94914054D01*
X146955990Y-94902265D01*
X146955990Y-94902264D01*
X146957435Y-94895000D01*
X146955990Y-94887735D01*
X146938142Y-94798007D01*
X146936697Y-94790743D01*
X146892549Y-94724671D01*
X146884117Y-94712051D01*
X146881756Y-94708517D01*
X146881755Y-94708516D01*
X146877641Y-94702359D01*
X146861485Y-94691564D01*
X146850090Y-94682212D01*
X146764203Y-94596325D01*
X146742463Y-94549705D01*
X146755777Y-94500018D01*
X146797597Y-94470599D01*
X146858748Y-94453927D01*
X146886779Y-94446285D01*
X146973414Y-94393091D01*
X147004970Y-94373716D01*
X147004973Y-94373714D01*
X147009539Y-94370910D01*
X147040496Y-94336710D01*
X147102612Y-94268085D01*
X147106210Y-94264110D01*
X147154009Y-94165454D01*
X147166682Y-94139296D01*
X147166682Y-94139295D01*
X147169020Y-94134470D01*
X147192919Y-93992413D01*
X147193071Y-93980000D01*
X147192659Y-93977120D01*
X147173409Y-93842704D01*
X147173408Y-93842700D01*
X147172649Y-93837401D01*
X147148488Y-93784260D01*
X147135242Y-93755128D01*
X147113026Y-93706266D01*
X147088756Y-93678099D01*
X147022487Y-93601190D01*
X147022484Y-93601187D01*
X147018993Y-93597136D01*
X146954608Y-93555404D01*
X146902604Y-93521697D01*
X146902603Y-93521697D01*
X146898111Y-93518785D01*
X146821912Y-93495997D01*
X146765232Y-93479045D01*
X146765229Y-93479045D01*
X146760098Y-93477510D01*
X146754743Y-93477477D01*
X146754741Y-93477477D01*
X146689524Y-93477079D01*
X146616047Y-93476630D01*
X146610895Y-93478102D01*
X146605591Y-93478829D01*
X146605255Y-93476377D01*
X146563300Y-93473399D01*
X146540784Y-93457906D01*
X145303452Y-92220574D01*
X145281712Y-92173954D01*
X145295026Y-92124267D01*
X145337163Y-92094762D01*
X145356626Y-92092200D01*
X146114021Y-92092200D01*
X146162359Y-92109793D01*
X146188586Y-92157649D01*
X146190718Y-92173954D01*
X146195645Y-92211630D01*
X146253662Y-92343484D01*
X146257107Y-92347582D01*
X146257108Y-92347584D01*
X146270138Y-92363085D01*
X146346354Y-92453755D01*
X146466270Y-92533577D01*
X146603769Y-92576535D01*
X146677871Y-92577893D01*
X146742436Y-92579077D01*
X146742438Y-92579077D01*
X146747798Y-92579175D01*
X146752969Y-92577765D01*
X146752971Y-92577765D01*
X146881240Y-92542795D01*
X146886779Y-92541285D01*
X146939871Y-92508686D01*
X147004970Y-92468716D01*
X147004973Y-92468714D01*
X147009539Y-92465910D01*
X147061311Y-92408714D01*
X147102612Y-92363085D01*
X147106210Y-92359110D01*
X147111795Y-92347584D01*
X147166682Y-92234296D01*
X147166682Y-92234295D01*
X147169020Y-92229470D01*
X147174386Y-92197575D01*
X147199756Y-92152827D01*
X147247954Y-92134854D01*
X147296428Y-92152068D01*
X147301718Y-92156878D01*
X148073062Y-92928222D01*
X148094802Y-92974842D01*
X148095088Y-92981396D01*
X148095088Y-97528559D01*
X148093643Y-97543230D01*
X148089852Y-97562288D01*
X148110591Y-97666545D01*
X148127334Y-97691602D01*
X148169647Y-97754929D01*
X148175803Y-97759042D01*
X148185802Y-97765723D01*
X148197198Y-97775076D01*
X148947517Y-98525395D01*
X148969257Y-98572015D01*
X148960243Y-98614794D01*
X148933739Y-98663004D01*
X148874269Y-98850476D01*
X148852345Y-99045930D01*
X148852653Y-99049598D01*
X148852653Y-99049601D01*
X148856065Y-99090228D01*
X148868803Y-99241919D01*
X148923015Y-99430979D01*
X149012916Y-99605908D01*
X149135083Y-99760044D01*
X149137877Y-99762422D01*
X149137878Y-99762423D01*
X149172691Y-99792051D01*
X149284862Y-99887516D01*
X149288063Y-99889305D01*
X149288066Y-99889307D01*
X149326656Y-99910874D01*
X149456547Y-99983467D01*
X149460044Y-99984603D01*
X149460048Y-99984605D01*
X149552615Y-100014681D01*
X149643600Y-100044244D01*
X149750984Y-100057049D01*
X149835237Y-100067096D01*
X149835239Y-100067096D01*
X149838895Y-100067532D01*
X150034994Y-100052443D01*
X150149061Y-100020595D01*
X150220883Y-100000542D01*
X150220885Y-100000541D01*
X150224428Y-99999552D01*
X150399981Y-99910874D01*
X150554966Y-99789786D01*
X150683480Y-99640901D01*
X150780628Y-99469890D01*
X150842710Y-99283266D01*
X150867360Y-99088138D01*
X150867753Y-99060000D01*
X150867548Y-99057907D01*
X150848921Y-98867927D01*
X150848920Y-98867922D01*
X150848561Y-98864260D01*
X150791714Y-98675975D01*
X150699379Y-98502318D01*
X150575072Y-98349903D01*
X150423528Y-98224535D01*
X150250520Y-98130990D01*
X150062637Y-98072830D01*
X149926140Y-98058484D01*
X149870690Y-98052656D01*
X149870689Y-98052656D01*
X149867035Y-98052272D01*
X149798775Y-98058484D01*
X149674824Y-98069764D01*
X149674823Y-98069764D01*
X149671166Y-98070097D01*
X149667641Y-98071134D01*
X149667638Y-98071135D01*
X149486018Y-98124589D01*
X149486015Y-98124590D01*
X149482489Y-98125628D01*
X149479230Y-98127332D01*
X149479227Y-98127333D01*
X149454896Y-98140053D01*
X149415408Y-98160697D01*
X149413906Y-98161482D01*
X149362918Y-98168286D01*
X149325892Y-98148014D01*
X148651514Y-97473636D01*
X148629774Y-97427016D01*
X148629488Y-97420462D01*
X148629488Y-95848914D01*
X148647081Y-95800576D01*
X148691630Y-95774856D01*
X148742288Y-95783789D01*
X148757862Y-95795740D01*
X148947517Y-95985395D01*
X148969257Y-96032015D01*
X148960243Y-96074794D01*
X148933739Y-96123004D01*
X148874269Y-96310476D01*
X148852345Y-96505930D01*
X148852653Y-96509598D01*
X148852653Y-96509601D01*
X148862977Y-96632538D01*
X148868803Y-96701919D01*
X148890100Y-96776190D01*
X148918236Y-96874311D01*
X148923015Y-96890979D01*
X149012916Y-97065908D01*
X149135083Y-97220044D01*
X149137877Y-97222422D01*
X149137878Y-97222423D01*
X149197261Y-97272962D01*
X149284862Y-97347516D01*
X149288063Y-97349305D01*
X149288066Y-97349307D01*
X149326656Y-97370874D01*
X149456547Y-97443467D01*
X149460044Y-97444603D01*
X149460048Y-97444605D01*
X149549398Y-97473636D01*
X149643600Y-97504244D01*
X149750984Y-97517049D01*
X149835237Y-97527096D01*
X149835239Y-97527096D01*
X149838895Y-97527532D01*
X150034994Y-97512443D01*
X150173985Y-97473636D01*
X150220883Y-97460542D01*
X150220885Y-97460541D01*
X150224428Y-97459552D01*
X150399981Y-97370874D01*
X150508215Y-97286312D01*
X150552067Y-97252051D01*
X150554966Y-97249786D01*
X150683480Y-97100901D01*
X150705218Y-97062636D01*
X150778810Y-96933091D01*
X150778812Y-96933088D01*
X150780628Y-96929890D01*
X150842710Y-96743266D01*
X150867360Y-96548138D01*
X150867753Y-96520000D01*
X150867548Y-96517907D01*
X150848921Y-96327927D01*
X150848920Y-96327922D01*
X150848561Y-96324260D01*
X150791714Y-96135975D01*
X150699379Y-95962318D01*
X150575072Y-95809903D01*
X150423528Y-95684535D01*
X150250520Y-95590990D01*
X150062637Y-95532830D01*
X149939766Y-95519916D01*
X149870690Y-95512656D01*
X149870689Y-95512656D01*
X149867035Y-95512272D01*
X149769100Y-95521185D01*
X149674824Y-95529764D01*
X149674823Y-95529764D01*
X149671166Y-95530097D01*
X149667641Y-95531134D01*
X149667638Y-95531135D01*
X149486018Y-95584589D01*
X149486015Y-95584590D01*
X149482489Y-95585628D01*
X149479230Y-95587332D01*
X149479227Y-95587333D01*
X149440228Y-95607721D01*
X149415408Y-95620697D01*
X149413906Y-95621482D01*
X149362918Y-95628286D01*
X149325892Y-95608014D01*
X149032525Y-95314647D01*
X149010785Y-95268027D01*
X149010499Y-95261473D01*
X149010499Y-94736644D01*
X149028092Y-94688306D01*
X149072641Y-94662586D01*
X149123299Y-94671519D01*
X149134734Y-94680454D01*
X149135083Y-94680044D01*
X149284862Y-94807516D01*
X149288063Y-94809305D01*
X149288066Y-94809307D01*
X149326656Y-94830874D01*
X149456547Y-94903467D01*
X149460044Y-94904603D01*
X149460048Y-94904605D01*
X149520538Y-94924259D01*
X149643600Y-94964244D01*
X149750984Y-94977049D01*
X149835237Y-94987096D01*
X149835239Y-94987096D01*
X149838895Y-94987532D01*
X150034994Y-94972443D01*
X150149061Y-94940595D01*
X150220883Y-94920542D01*
X150220885Y-94920541D01*
X150224428Y-94919552D01*
X150399981Y-94830874D01*
X150554966Y-94709786D01*
X150683480Y-94560901D01*
X150706031Y-94521205D01*
X150778810Y-94393091D01*
X150778812Y-94393088D01*
X150780628Y-94389890D01*
X150811669Y-94296578D01*
X150841548Y-94206760D01*
X150841549Y-94206757D01*
X150842710Y-94203266D01*
X150867360Y-94008138D01*
X150867620Y-93989500D01*
X150867724Y-93982099D01*
X150867724Y-93982093D01*
X150867753Y-93980000D01*
X150867471Y-93977120D01*
X150848921Y-93787927D01*
X150848920Y-93787922D01*
X150848561Y-93784260D01*
X150791714Y-93595975D01*
X150699379Y-93422318D01*
X150575072Y-93269903D01*
X150542695Y-93243118D01*
X150426359Y-93146877D01*
X150423528Y-93144535D01*
X150250520Y-93050990D01*
X150062637Y-92992830D01*
X150028276Y-92989219D01*
X149986816Y-92984861D01*
X149941502Y-92963247D01*
X149507942Y-92529687D01*
X149486202Y-92483067D01*
X149499516Y-92433380D01*
X149541653Y-92403875D01*
X149584351Y-92404993D01*
X149643600Y-92424244D01*
X149750984Y-92437049D01*
X149835237Y-92447096D01*
X149835239Y-92447096D01*
X149838895Y-92447532D01*
X150034994Y-92432443D01*
X150149061Y-92400595D01*
X150220883Y-92380542D01*
X150220885Y-92380541D01*
X150224428Y-92379552D01*
X150399981Y-92290874D01*
X150554966Y-92169786D01*
X150683480Y-92020901D01*
X150747211Y-91908715D01*
X150778810Y-91853091D01*
X150778812Y-91853088D01*
X150780628Y-91849890D01*
X150828827Y-91705000D01*
X150841548Y-91666760D01*
X150841549Y-91666757D01*
X150842710Y-91663266D01*
X150867360Y-91468138D01*
X150867753Y-91440000D01*
X150867548Y-91437907D01*
X150848921Y-91247927D01*
X150848920Y-91247922D01*
X150848561Y-91244260D01*
X150791714Y-91055975D01*
X150699379Y-90882318D01*
X150575072Y-90729903D01*
X150423528Y-90604535D01*
X150250520Y-90510990D01*
X150062637Y-90452830D01*
X149939766Y-90439916D01*
X149870690Y-90432656D01*
X149870689Y-90432656D01*
X149867035Y-90432272D01*
X149769101Y-90441184D01*
X149674824Y-90449764D01*
X149674823Y-90449764D01*
X149671166Y-90450097D01*
X149667641Y-90451134D01*
X149667638Y-90451135D01*
X149486018Y-90504589D01*
X149486015Y-90504590D01*
X149482489Y-90505628D01*
X149479230Y-90507332D01*
X149479227Y-90507333D01*
X149413906Y-90541482D01*
X149362918Y-90548286D01*
X149325892Y-90528014D01*
X148066078Y-89268200D01*
X148056725Y-89256804D01*
X148050046Y-89246808D01*
X148045931Y-89240649D01*
X147990559Y-89203651D01*
X147957547Y-89181593D01*
X147950285Y-89180148D01*
X147950284Y-89180148D01*
X147860554Y-89162299D01*
X147853290Y-89160854D01*
X147846026Y-89162299D01*
X147834232Y-89164645D01*
X147819561Y-89166090D01*
X143290439Y-89166090D01*
X143275768Y-89164645D01*
X143263974Y-89162299D01*
X143256710Y-89160854D01*
X143249446Y-89162299D01*
X143159716Y-89180148D01*
X143159714Y-89180149D01*
X143152454Y-89181593D01*
X143064069Y-89240649D01*
X143059956Y-89246805D01*
X143053275Y-89256804D01*
X143043922Y-89268200D01*
X142824910Y-89487212D01*
X142813515Y-89496564D01*
X142797359Y-89507359D01*
X142782451Y-89529671D01*
X142753543Y-89572934D01*
X142712062Y-89603351D01*
X142660732Y-89599987D01*
X142649240Y-89593682D01*
X142642509Y-89589185D01*
X142629086Y-89583624D01*
X142628005Y-89583409D01*
X142617321Y-89585054D01*
X142615028Y-89587668D01*
X142615000Y-89587816D01*
X142615000Y-90187300D01*
X142597407Y-90235638D01*
X142552858Y-90261358D01*
X142539800Y-90262500D01*
X142440200Y-90262500D01*
X142391862Y-90244907D01*
X142366142Y-90200358D01*
X142365000Y-90187300D01*
X142365000Y-89594082D01*
X142361303Y-89583925D01*
X142358290Y-89582185D01*
X142358141Y-89582187D01*
X142347067Y-89584389D01*
X142296226Y-89576561D01*
X142262312Y-89537885D01*
X142257200Y-89510633D01*
X142257200Y-89081826D01*
X142274793Y-89033488D01*
X142279226Y-89028652D01*
X143078652Y-88229226D01*
X143125272Y-88207486D01*
X143131826Y-88207200D01*
X148758174Y-88207200D01*
X148806512Y-88224793D01*
X148811348Y-88229226D01*
X148947517Y-88365395D01*
X148969257Y-88412015D01*
X148960243Y-88454794D01*
X148933739Y-88503004D01*
X148874269Y-88690476D01*
X148852345Y-88885930D01*
X148852653Y-88889598D01*
X148852653Y-88889601D01*
X148868241Y-89075222D01*
X148868803Y-89081919D01*
X148923015Y-89270979D01*
X149012916Y-89445908D01*
X149135083Y-89600044D01*
X149137877Y-89602422D01*
X149137878Y-89602423D01*
X149172691Y-89632051D01*
X149284862Y-89727516D01*
X149288063Y-89729305D01*
X149288066Y-89729307D01*
X149326656Y-89750874D01*
X149456547Y-89823467D01*
X149460044Y-89824603D01*
X149460048Y-89824605D01*
X149546539Y-89852707D01*
X149643600Y-89884244D01*
X149750984Y-89897049D01*
X149835237Y-89907096D01*
X149835239Y-89907096D01*
X149838895Y-89907532D01*
X150034994Y-89892443D01*
X150177312Y-89852707D01*
X150220883Y-89840542D01*
X150220885Y-89840541D01*
X150224428Y-89839552D01*
X150314917Y-89793843D01*
X150396697Y-89752533D01*
X150396698Y-89752532D01*
X150399981Y-89750874D01*
X150554966Y-89629786D01*
X150683480Y-89480901D01*
X150780628Y-89309890D01*
X150815969Y-89203651D01*
X150841548Y-89126760D01*
X150841549Y-89126757D01*
X150842710Y-89123266D01*
X150867360Y-88928138D01*
X150867753Y-88900000D01*
X150867548Y-88897907D01*
X150848921Y-88707927D01*
X150848920Y-88707922D01*
X150848561Y-88704260D01*
X150791714Y-88515975D01*
X150699379Y-88342318D01*
X150575072Y-88189903D01*
X150423528Y-88064535D01*
X150250520Y-87970990D01*
X150062637Y-87912830D01*
X149939766Y-87899916D01*
X149870690Y-87892656D01*
X149870689Y-87892656D01*
X149867035Y-87892272D01*
X149769101Y-87901184D01*
X149674824Y-87909764D01*
X149674823Y-87909764D01*
X149671166Y-87910097D01*
X149667641Y-87911134D01*
X149667638Y-87911135D01*
X149486018Y-87964589D01*
X149486015Y-87964590D01*
X149482489Y-87965628D01*
X149479230Y-87967332D01*
X149479227Y-87967333D01*
X149413906Y-88001482D01*
X149362918Y-88008286D01*
X149325892Y-87988014D01*
X149112788Y-87774910D01*
X149103435Y-87763514D01*
X149096754Y-87753515D01*
X149092641Y-87747359D01*
X149086484Y-87743245D01*
X149057748Y-87724045D01*
X149057746Y-87724044D01*
X149004257Y-87688303D01*
X148900000Y-87667564D01*
X148892736Y-87669009D01*
X148880942Y-87671355D01*
X148866271Y-87672800D01*
X143277796Y-87672800D01*
X143229458Y-87655207D01*
X143203738Y-87610658D01*
X143212671Y-87560000D01*
X143224622Y-87544426D01*
X144119822Y-86649226D01*
X144166442Y-86627486D01*
X144172996Y-86627200D01*
X148836590Y-86627200D01*
X148884928Y-86644793D01*
X148908877Y-86681672D01*
X148923015Y-86730979D01*
X149012916Y-86905908D01*
X149135083Y-87060044D01*
X149137877Y-87062422D01*
X149137878Y-87062423D01*
X149172691Y-87092051D01*
X149284862Y-87187516D01*
X149288063Y-87189305D01*
X149288066Y-87189307D01*
X149326656Y-87210874D01*
X149456547Y-87283467D01*
X149460044Y-87284603D01*
X149460048Y-87284605D01*
X149552615Y-87314681D01*
X149643600Y-87344244D01*
X149750984Y-87357049D01*
X149835237Y-87367096D01*
X149835239Y-87367096D01*
X149838895Y-87367532D01*
X150034994Y-87352443D01*
X150149061Y-87320595D01*
X150220883Y-87300542D01*
X150220885Y-87300541D01*
X150224428Y-87299552D01*
X150399981Y-87210874D01*
X150554966Y-87089786D01*
X150683480Y-86940901D01*
X150780628Y-86769890D01*
X150842710Y-86583266D01*
X150867360Y-86388138D01*
X150867753Y-86360000D01*
X150867548Y-86357907D01*
X150848921Y-86167927D01*
X150848920Y-86167922D01*
X150848561Y-86164260D01*
X150791714Y-85975975D01*
X150699379Y-85802318D01*
X150575072Y-85649903D01*
X150423528Y-85524535D01*
X150250520Y-85430990D01*
X150062637Y-85372830D01*
X149939766Y-85359916D01*
X149870690Y-85352656D01*
X149870689Y-85352656D01*
X149867035Y-85352272D01*
X149769101Y-85361184D01*
X149674824Y-85369764D01*
X149674823Y-85369764D01*
X149671166Y-85370097D01*
X149667641Y-85371134D01*
X149667638Y-85371135D01*
X149486019Y-85424589D01*
X149482489Y-85425628D01*
X149308192Y-85516748D01*
X149154912Y-85639988D01*
X149028489Y-85790653D01*
X148933739Y-85963004D01*
X148929624Y-85975975D01*
X148909207Y-86040338D01*
X148877821Y-86081094D01*
X148837527Y-86092800D01*
X144318966Y-86092800D01*
X144270628Y-86075207D01*
X144244908Y-86030658D01*
X144253841Y-85980000D01*
X144265792Y-85964426D01*
X146120992Y-84109226D01*
X146167612Y-84087486D01*
X146174166Y-84087200D01*
X148836590Y-84087200D01*
X148884928Y-84104793D01*
X148908877Y-84141672D01*
X148923015Y-84190979D01*
X149012916Y-84365908D01*
X149135083Y-84520044D01*
X149137877Y-84522422D01*
X149137878Y-84522423D01*
X149172691Y-84552051D01*
X149284862Y-84647516D01*
X149288063Y-84649305D01*
X149288066Y-84649307D01*
X149326656Y-84670874D01*
X149456547Y-84743467D01*
X149460044Y-84744603D01*
X149460048Y-84744605D01*
X149552615Y-84774681D01*
X149643600Y-84804244D01*
X149750984Y-84817049D01*
X149835237Y-84827096D01*
X149835239Y-84827096D01*
X149838895Y-84827532D01*
X150034994Y-84812443D01*
X150149061Y-84780595D01*
X150220883Y-84760542D01*
X150220885Y-84760541D01*
X150224428Y-84759552D01*
X150399981Y-84670874D01*
X150554966Y-84549786D01*
X150683480Y-84400901D01*
X150780628Y-84229890D01*
X150842710Y-84043266D01*
X150867360Y-83848138D01*
X150867753Y-83820000D01*
X150867548Y-83817907D01*
X150848921Y-83627927D01*
X150848920Y-83627922D01*
X150848561Y-83624260D01*
X150791714Y-83435975D01*
X150699379Y-83262318D01*
X150575072Y-83109903D01*
X150423528Y-82984535D01*
X150250520Y-82890990D01*
X150062637Y-82832830D01*
X149939766Y-82819916D01*
X149870690Y-82812656D01*
X149870689Y-82812656D01*
X149867035Y-82812272D01*
X149769101Y-82821184D01*
X149674824Y-82829764D01*
X149674823Y-82829764D01*
X149671166Y-82830097D01*
X149667641Y-82831134D01*
X149667638Y-82831135D01*
X149486019Y-82884589D01*
X149482489Y-82885628D01*
X149308192Y-82976748D01*
X149154912Y-83099988D01*
X149028489Y-83250653D01*
X148933739Y-83423004D01*
X148929624Y-83435975D01*
X148909207Y-83500338D01*
X148877821Y-83541094D01*
X148837527Y-83552800D01*
X146320135Y-83552800D01*
X146271797Y-83535207D01*
X146246077Y-83490658D01*
X146255010Y-83440000D01*
X146266961Y-83424426D01*
X148122161Y-81569226D01*
X148168781Y-81547486D01*
X148175335Y-81547200D01*
X148781901Y-81547200D01*
X148830239Y-81564793D01*
X148855959Y-81609342D01*
X148857101Y-81622400D01*
X148857101Y-82145056D01*
X148865972Y-82189658D01*
X148899766Y-82240234D01*
X148905923Y-82244348D01*
X148944183Y-82269913D01*
X148944184Y-82269914D01*
X148950342Y-82274028D01*
X148994943Y-82282900D01*
X149859882Y-82282900D01*
X150725056Y-82282899D01*
X150769658Y-82274028D01*
X150820234Y-82240234D01*
X150854028Y-82189658D01*
X150862900Y-82145057D01*
X150862899Y-80414944D01*
X150854028Y-80370342D01*
X150820234Y-80319766D01*
X150775818Y-80290088D01*
X150775816Y-80290086D01*
X150769658Y-80285972D01*
X150725057Y-80277100D01*
X149860118Y-80277100D01*
X148994944Y-80277101D01*
X148950342Y-80285972D01*
X148899766Y-80319766D01*
X148865972Y-80370342D01*
X148857100Y-80414943D01*
X148857100Y-80937600D01*
X148839507Y-80985938D01*
X148794958Y-81011658D01*
X148781900Y-81012800D01*
X148067235Y-81012800D01*
X148052564Y-81011355D01*
X148040775Y-81009010D01*
X148040774Y-81009010D01*
X148033510Y-81007565D01*
X147929253Y-81028303D01*
X147905067Y-81044464D01*
X147840869Y-81087359D01*
X147836756Y-81093515D01*
X147830073Y-81103517D01*
X147820720Y-81114913D01*
X140137410Y-88798222D01*
X140126015Y-88807574D01*
X140109859Y-88818369D01*
X140105745Y-88824526D01*
X140105744Y-88824527D01*
X140094952Y-88840679D01*
X140094951Y-88840681D01*
X140056714Y-88897907D01*
X140050803Y-88906753D01*
X140030064Y-89011010D01*
X140031509Y-89018274D01*
X140033855Y-89030068D01*
X140035300Y-89044739D01*
X140035300Y-90471901D01*
X140017707Y-90520239D01*
X139973158Y-90545959D01*
X139960100Y-90547101D01*
X139931286Y-90547101D01*
X139927663Y-90547822D01*
X139927659Y-90547822D01*
X139883372Y-90556631D01*
X139868455Y-90559598D01*
X139850575Y-90571545D01*
X139803816Y-90602788D01*
X139797205Y-90607205D01*
X139749598Y-90678455D01*
X139737100Y-90741285D01*
X139737101Y-90908714D01*
X139737822Y-90912337D01*
X139737822Y-90912341D01*
X139748879Y-90967930D01*
X139741053Y-91018771D01*
X139702378Y-91052687D01*
X139675124Y-91057800D01*
X135597869Y-91057800D01*
X135549531Y-91040207D01*
X135531471Y-91017904D01*
X135459379Y-90882318D01*
X135335072Y-90729903D01*
X135183528Y-90604535D01*
X135010520Y-90510990D01*
X134822637Y-90452830D01*
X134699766Y-90439916D01*
X134630690Y-90432656D01*
X134630689Y-90432656D01*
X134627035Y-90432272D01*
X134529101Y-90441184D01*
X134434824Y-90449764D01*
X134434823Y-90449764D01*
X134431166Y-90450097D01*
X134427641Y-90451134D01*
X134427638Y-90451135D01*
X134246019Y-90504589D01*
X134242489Y-90505628D01*
X134068192Y-90596748D01*
X134010921Y-90642795D01*
X133948021Y-90693368D01*
X133914912Y-90719988D01*
X133788489Y-90870653D01*
X133786718Y-90873875D01*
X133786717Y-90873876D01*
X133767565Y-90908714D01*
X133693739Y-91043004D01*
X133634269Y-91230476D01*
X133612345Y-91425930D01*
X133612653Y-91429598D01*
X133612653Y-91429601D01*
X133624863Y-91575000D01*
X133628803Y-91621919D01*
X133683015Y-91810979D01*
X133772916Y-91985908D01*
X133895083Y-92140044D01*
X133897877Y-92142422D01*
X133897878Y-92142423D01*
X133932691Y-92172051D01*
X134044862Y-92267516D01*
X134048063Y-92269305D01*
X134048066Y-92269307D01*
X134086656Y-92290874D01*
X134216547Y-92363467D01*
X134220044Y-92364603D01*
X134220048Y-92364605D01*
X134312615Y-92394681D01*
X134403600Y-92424244D01*
X134510984Y-92437049D01*
X134595237Y-92447096D01*
X134595239Y-92447096D01*
X134598895Y-92447532D01*
X134794994Y-92432443D01*
X134909061Y-92400595D01*
X134980883Y-92380542D01*
X134980885Y-92380541D01*
X134984428Y-92379552D01*
X135159981Y-92290874D01*
X135314966Y-92169786D01*
X135443480Y-92020901D01*
X135507211Y-91908715D01*
X135538810Y-91853091D01*
X135538812Y-91853088D01*
X135540628Y-91849890D01*
X135588827Y-91705000D01*
X135601548Y-91666760D01*
X135601549Y-91666757D01*
X135602710Y-91663266D01*
X135603378Y-91657979D01*
X135603674Y-91657404D01*
X135603986Y-91656029D01*
X135604339Y-91656109D01*
X135626887Y-91612227D01*
X135677985Y-91592200D01*
X136448375Y-91592200D01*
X136496713Y-91609793D01*
X136522433Y-91654342D01*
X136513500Y-91705000D01*
X136501549Y-91720574D01*
X135154401Y-93067721D01*
X135107781Y-93089461D01*
X135065463Y-93080698D01*
X135010520Y-93050990D01*
X134822637Y-92992830D01*
X134699766Y-92979916D01*
X134630690Y-92972656D01*
X134630689Y-92972656D01*
X134627035Y-92972272D01*
X134529101Y-92981184D01*
X134434824Y-92989764D01*
X134434823Y-92989764D01*
X134431166Y-92990097D01*
X134427641Y-92991134D01*
X134427638Y-92991135D01*
X134246019Y-93044589D01*
X134242489Y-93045628D01*
X134068192Y-93136748D01*
X134031177Y-93166509D01*
X133917783Y-93257680D01*
X133914912Y-93259988D01*
X133788489Y-93410653D01*
X133786718Y-93413875D01*
X133786717Y-93413876D01*
X133726329Y-93523722D01*
X133693739Y-93583004D01*
X133634269Y-93770476D01*
X133612345Y-93965930D01*
X133612653Y-93969598D01*
X133612653Y-93969601D01*
X133615889Y-94008138D01*
X133628803Y-94161919D01*
X133683015Y-94350979D01*
X133772916Y-94525908D01*
X133895083Y-94680044D01*
X133897877Y-94682422D01*
X133897878Y-94682423D01*
X133997848Y-94767504D01*
X134044862Y-94807516D01*
X134048063Y-94809305D01*
X134048066Y-94809307D01*
X134086656Y-94830874D01*
X134216547Y-94903467D01*
X134220044Y-94904603D01*
X134220048Y-94904605D01*
X134280538Y-94924259D01*
X134403600Y-94964244D01*
X134510984Y-94977049D01*
X134595237Y-94987096D01*
X134595239Y-94987096D01*
X134598895Y-94987532D01*
X134794994Y-94972443D01*
X134909061Y-94940595D01*
X134980883Y-94920542D01*
X134980885Y-94920541D01*
X134984428Y-94919552D01*
X135159981Y-94830874D01*
X135314966Y-94709786D01*
X135443480Y-94560901D01*
X135466031Y-94521205D01*
X135538810Y-94393091D01*
X135538812Y-94393088D01*
X135540628Y-94389890D01*
X135571669Y-94296578D01*
X135601548Y-94206760D01*
X135601549Y-94206757D01*
X135602710Y-94203266D01*
X135627360Y-94008138D01*
X135627620Y-93989500D01*
X135627724Y-93982099D01*
X135627724Y-93982093D01*
X135627753Y-93980000D01*
X135627471Y-93977120D01*
X135608921Y-93787927D01*
X135608920Y-93787922D01*
X135608561Y-93784260D01*
X135551714Y-93595975D01*
X135518890Y-93534241D01*
X135511731Y-93483303D01*
X135532114Y-93445764D01*
X136863651Y-92114226D01*
X136910271Y-92092486D01*
X136916825Y-92092200D01*
X138488374Y-92092200D01*
X138536712Y-92109793D01*
X138562432Y-92154342D01*
X138553499Y-92205000D01*
X138541548Y-92220574D01*
X135154401Y-95607721D01*
X135107781Y-95629461D01*
X135065463Y-95620698D01*
X135010520Y-95590990D01*
X134822637Y-95532830D01*
X134699766Y-95519916D01*
X134630690Y-95512656D01*
X134630689Y-95512656D01*
X134627035Y-95512272D01*
X134529100Y-95521185D01*
X134434824Y-95529764D01*
X134434823Y-95529764D01*
X134431166Y-95530097D01*
X134427641Y-95531134D01*
X134427638Y-95531135D01*
X134246019Y-95584589D01*
X134242489Y-95585628D01*
X134068192Y-95676748D01*
X134065328Y-95679051D01*
X133935060Y-95783789D01*
X133914912Y-95799988D01*
X133788489Y-95950653D01*
X133786718Y-95953875D01*
X133786717Y-95953876D01*
X133729548Y-96057867D01*
X133693739Y-96123004D01*
X133634269Y-96310476D01*
X133612345Y-96505930D01*
X133612653Y-96509598D01*
X133612653Y-96509601D01*
X133622977Y-96632538D01*
X133628803Y-96701919D01*
X133650100Y-96776190D01*
X133678236Y-96874311D01*
X133683015Y-96890979D01*
X133772916Y-97065908D01*
X133895083Y-97220044D01*
X133897877Y-97222422D01*
X133897878Y-97222423D01*
X133957261Y-97272962D01*
X134044862Y-97347516D01*
X134048063Y-97349305D01*
X134048066Y-97349307D01*
X134086656Y-97370874D01*
X134216547Y-97443467D01*
X134220044Y-97444603D01*
X134220048Y-97444605D01*
X134309398Y-97473636D01*
X134403600Y-97504244D01*
X134510984Y-97517049D01*
X134595237Y-97527096D01*
X134595239Y-97527096D01*
X134598895Y-97527532D01*
X134794994Y-97512443D01*
X134933985Y-97473636D01*
X134980883Y-97460542D01*
X134980885Y-97460541D01*
X134984428Y-97459552D01*
X135159981Y-97370874D01*
X135268215Y-97286312D01*
X135312067Y-97252051D01*
X135314966Y-97249786D01*
X135337375Y-97223825D01*
X135382278Y-97198729D01*
X135432807Y-97208368D01*
X135465318Y-97248231D01*
X135469501Y-97272962D01*
X135469501Y-97801473D01*
X135451908Y-97849811D01*
X135447475Y-97854647D01*
X135154401Y-98147721D01*
X135107781Y-98169461D01*
X135065463Y-98160698D01*
X135010520Y-98130990D01*
X134822637Y-98072830D01*
X134686140Y-98058484D01*
X134630690Y-98052656D01*
X134630689Y-98052656D01*
X134627035Y-98052272D01*
X134558775Y-98058484D01*
X134434824Y-98069764D01*
X134434823Y-98069764D01*
X134431166Y-98070097D01*
X134427641Y-98071134D01*
X134427638Y-98071135D01*
X134246019Y-98124589D01*
X134242489Y-98125628D01*
X134068192Y-98216748D01*
X134065328Y-98219051D01*
X133975176Y-98291535D01*
X133914912Y-98339988D01*
X133788489Y-98490653D01*
X133786718Y-98493875D01*
X133786717Y-98493876D01*
X133769187Y-98525764D01*
X133693739Y-98663004D01*
X133634269Y-98850476D01*
X133612345Y-99045930D01*
X133612653Y-99049598D01*
X133612653Y-99049601D01*
X133616065Y-99090228D01*
X133628803Y-99241919D01*
X133683015Y-99430979D01*
X133772916Y-99605908D01*
X133895083Y-99760044D01*
X133897877Y-99762422D01*
X133897878Y-99762423D01*
X133932691Y-99792051D01*
X134044862Y-99887516D01*
X134048063Y-99889305D01*
X134048066Y-99889307D01*
X134086656Y-99910874D01*
X134216547Y-99983467D01*
X134220044Y-99984603D01*
X134220048Y-99984605D01*
X134312615Y-100014681D01*
X134403600Y-100044244D01*
X134510984Y-100057049D01*
X134595237Y-100067096D01*
X134595239Y-100067096D01*
X134598895Y-100067532D01*
X134794994Y-100052443D01*
X134909061Y-100020595D01*
X134980883Y-100000542D01*
X134980885Y-100000541D01*
X134984428Y-99999552D01*
X135159981Y-99910874D01*
X135314966Y-99789786D01*
X135443480Y-99640901D01*
X135540628Y-99469890D01*
X135602710Y-99283266D01*
X135627360Y-99088138D01*
X135627753Y-99060000D01*
X135627548Y-99057907D01*
X135608921Y-98867927D01*
X135608920Y-98867922D01*
X135608561Y-98864260D01*
X135551714Y-98675975D01*
X135518890Y-98614241D01*
X135511731Y-98563303D01*
X135532114Y-98525764D01*
X135901791Y-98156087D01*
X135913187Y-98146734D01*
X135923186Y-98140053D01*
X135929342Y-98135940D01*
X135988398Y-98047555D01*
X135998345Y-97997549D01*
X136009137Y-97943299D01*
X136005346Y-97924241D01*
X136003901Y-97909570D01*
X136003901Y-97007465D01*
X136021494Y-96959127D01*
X136025927Y-96954291D01*
X139610157Y-93370061D01*
X139656777Y-93348321D01*
X139706464Y-93361635D01*
X139735969Y-93403772D01*
X139736882Y-93408758D01*
X139737101Y-93408714D01*
X139743996Y-93443377D01*
X139746482Y-93455878D01*
X139738656Y-93506719D01*
X139725901Y-93523722D01*
X136994913Y-96254710D01*
X136983516Y-96264064D01*
X136967359Y-96274859D01*
X136963245Y-96281016D01*
X136963244Y-96281017D01*
X136952452Y-96297169D01*
X136952451Y-96297171D01*
X136915352Y-96352694D01*
X136908303Y-96363243D01*
X136887564Y-96467500D01*
X136889009Y-96474764D01*
X136891355Y-96486558D01*
X136892800Y-96501229D01*
X136892800Y-96687437D01*
X136875207Y-96735775D01*
X136857728Y-96751035D01*
X136835241Y-96765223D01*
X136835234Y-96765229D01*
X136830709Y-96768084D01*
X136823550Y-96776190D01*
X136738897Y-96872041D01*
X136738895Y-96872044D01*
X136735351Y-96876057D01*
X136731363Y-96884551D01*
X136678763Y-96996585D01*
X136674129Y-97006454D01*
X136673305Y-97011744D01*
X136673305Y-97011745D01*
X136665942Y-97059037D01*
X136651967Y-97148793D01*
X136652661Y-97154100D01*
X136652661Y-97154103D01*
X136659757Y-97208368D01*
X136670645Y-97291630D01*
X136705513Y-97370874D01*
X136723253Y-97411190D01*
X136728662Y-97423484D01*
X136732107Y-97427582D01*
X136732108Y-97427584D01*
X136745138Y-97443085D01*
X136821354Y-97533755D01*
X136941270Y-97613577D01*
X137078769Y-97656535D01*
X137152871Y-97657893D01*
X137217436Y-97659077D01*
X137217438Y-97659077D01*
X137222798Y-97659175D01*
X137227969Y-97657765D01*
X137227971Y-97657765D01*
X137303695Y-97637120D01*
X137361779Y-97621285D01*
X137421464Y-97584638D01*
X137479970Y-97548716D01*
X137479973Y-97548714D01*
X137484539Y-97545910D01*
X137506954Y-97521147D01*
X137577612Y-97443085D01*
X137581210Y-97439110D01*
X137586795Y-97427584D01*
X137641682Y-97314296D01*
X137641682Y-97314295D01*
X137644020Y-97309470D01*
X137667919Y-97167413D01*
X137668071Y-97155000D01*
X137667659Y-97152120D01*
X137648409Y-97017704D01*
X137648408Y-97017700D01*
X137647649Y-97012401D01*
X137638593Y-96992482D01*
X137590245Y-96886147D01*
X137588026Y-96881266D01*
X137583538Y-96876057D01*
X137497487Y-96776190D01*
X137497484Y-96776187D01*
X137493993Y-96772136D01*
X137461498Y-96751074D01*
X137430505Y-96710019D01*
X137427200Y-96687970D01*
X137427200Y-96609326D01*
X137444793Y-96560988D01*
X137449226Y-96556152D01*
X137809426Y-96195952D01*
X137856046Y-96174212D01*
X137905733Y-96187526D01*
X137935238Y-96229663D01*
X137937800Y-96249126D01*
X137937800Y-100622600D01*
X137920207Y-100670938D01*
X137875658Y-100696658D01*
X137862600Y-100697800D01*
X135288729Y-100697800D01*
X135274058Y-100696355D01*
X135262264Y-100694009D01*
X135255000Y-100692564D01*
X135150744Y-100713303D01*
X135148012Y-100715129D01*
X135098971Y-100717271D01*
X135085814Y-100711701D01*
X135050420Y-100692564D01*
X135010520Y-100670990D01*
X134822637Y-100612830D01*
X134699766Y-100599916D01*
X134630690Y-100592656D01*
X134630689Y-100592656D01*
X134627035Y-100592272D01*
X134529100Y-100601185D01*
X134434824Y-100609764D01*
X134434823Y-100609764D01*
X134431166Y-100610097D01*
X134427641Y-100611134D01*
X134427638Y-100611135D01*
X134273340Y-100656548D01*
X134242489Y-100665628D01*
X134068192Y-100756748D01*
X133914912Y-100879988D01*
X133788489Y-101030653D01*
X133693739Y-101203004D01*
X133634269Y-101390476D01*
X133612345Y-101585930D01*
X133612653Y-101589598D01*
X133612653Y-101589601D01*
X133615880Y-101628028D01*
X133628803Y-101781919D01*
X133683015Y-101970979D01*
X133772916Y-102145908D01*
X133775201Y-102148791D01*
X133798113Y-102177699D01*
X133895083Y-102300044D01*
X133897877Y-102302422D01*
X133897878Y-102302423D01*
X133932691Y-102332051D01*
X134044862Y-102427516D01*
X134048063Y-102429305D01*
X134048066Y-102429307D01*
X134086656Y-102450874D01*
X134216547Y-102523467D01*
X134220044Y-102524603D01*
X134220048Y-102524605D01*
X134312615Y-102554681D01*
X134403600Y-102584244D01*
X134510984Y-102597049D01*
X134595237Y-102607096D01*
X134595239Y-102607096D01*
X134598895Y-102607532D01*
X134794994Y-102592443D01*
X134915386Y-102558829D01*
X134980883Y-102540542D01*
X134980885Y-102540541D01*
X134984428Y-102539552D01*
X135078193Y-102492188D01*
X135156697Y-102452533D01*
X135156698Y-102452532D01*
X135159981Y-102450874D01*
X135314966Y-102329786D01*
X135443480Y-102180901D01*
X135461721Y-102148791D01*
X135538810Y-102013091D01*
X135538812Y-102013088D01*
X135540628Y-102009890D01*
X135602710Y-101823266D01*
X135627360Y-101628138D01*
X135627753Y-101600000D01*
X135627018Y-101592500D01*
X135608921Y-101407927D01*
X135608920Y-101407922D01*
X135608561Y-101404260D01*
X135585879Y-101329134D01*
X135588750Y-101277776D01*
X135623963Y-101240278D01*
X135657869Y-101232200D01*
X138171275Y-101232200D01*
X138185946Y-101233645D01*
X138197735Y-101235990D01*
X138197736Y-101235990D01*
X138205000Y-101237435D01*
X138212264Y-101235990D01*
X138212265Y-101235990D01*
X138224054Y-101233645D01*
X138238725Y-101232200D01*
X138886087Y-101232200D01*
X138934425Y-101249793D01*
X138960485Y-101296448D01*
X138967310Y-101342812D01*
X139019089Y-101448272D01*
X139023484Y-101452660D01*
X139023486Y-101452662D01*
X139035402Y-101464557D01*
X139102236Y-101531274D01*
X139107818Y-101534003D01*
X139107820Y-101534004D01*
X139202540Y-101580305D01*
X139202542Y-101580306D01*
X139207786Y-101582869D01*
X139213563Y-101583712D01*
X139213564Y-101583712D01*
X139226271Y-101585566D01*
X139276548Y-101592900D01*
X139743452Y-101592900D01*
X139746168Y-101592500D01*
X139746171Y-101592500D01*
X139807033Y-101583541D01*
X139807035Y-101583540D01*
X139812812Y-101582690D01*
X139818057Y-101580115D01*
X139876168Y-101551584D01*
X139927311Y-101546073D01*
X139970032Y-101574726D01*
X139984510Y-101619087D01*
X139984510Y-102023964D01*
X139966917Y-102072302D01*
X139962484Y-102077138D01*
X139817324Y-102222298D01*
X139770704Y-102244038D01*
X139753295Y-102243536D01*
X139743452Y-102242100D01*
X139276548Y-102242100D01*
X139273832Y-102242500D01*
X139273829Y-102242500D01*
X139212967Y-102251459D01*
X139212965Y-102251460D01*
X139207188Y-102252310D01*
X139161893Y-102274549D01*
X139107304Y-102301351D01*
X139107303Y-102301352D01*
X139101728Y-102304089D01*
X139097340Y-102308484D01*
X139097338Y-102308486D01*
X139078856Y-102327001D01*
X139018726Y-102387236D01*
X139015997Y-102392818D01*
X139015996Y-102392820D01*
X138969695Y-102487540D01*
X138967131Y-102492786D01*
X138966288Y-102498563D01*
X138966288Y-102498564D01*
X138960469Y-102538455D01*
X138936083Y-102583747D01*
X138886057Y-102602800D01*
X137163725Y-102602800D01*
X137149054Y-102601355D01*
X137137265Y-102599010D01*
X137137264Y-102599010D01*
X137130000Y-102597565D01*
X137025743Y-102618303D01*
X137001557Y-102634464D01*
X136937359Y-102677359D01*
X136933246Y-102683515D01*
X136926563Y-102693517D01*
X136917210Y-102704913D01*
X135771348Y-103850774D01*
X135724728Y-103872514D01*
X135718174Y-103872800D01*
X135642834Y-103872800D01*
X135594496Y-103855207D01*
X135570844Y-103819336D01*
X135552776Y-103759494D01*
X135551714Y-103755975D01*
X135459379Y-103582318D01*
X135335072Y-103429903D01*
X135183528Y-103304535D01*
X135010520Y-103210990D01*
X134822637Y-103152830D01*
X134699766Y-103139916D01*
X134630690Y-103132656D01*
X134630689Y-103132656D01*
X134627035Y-103132272D01*
X134529101Y-103141184D01*
X134434824Y-103149764D01*
X134434823Y-103149764D01*
X134431166Y-103150097D01*
X134427641Y-103151134D01*
X134427638Y-103151135D01*
X134325586Y-103181171D01*
X134242489Y-103205628D01*
X134068192Y-103296748D01*
X133914912Y-103419988D01*
X133788489Y-103570653D01*
X133693739Y-103743004D01*
X133634269Y-103930476D01*
X133612345Y-104125930D01*
X133612653Y-104129598D01*
X133612653Y-104129601D01*
X133627830Y-104310328D01*
X133628803Y-104321919D01*
X133683015Y-104510979D01*
X133772916Y-104685908D01*
X133895083Y-104840044D01*
X133897877Y-104842422D01*
X133897878Y-104842423D01*
X133932691Y-104872051D01*
X134044862Y-104967516D01*
X134048063Y-104969305D01*
X134048066Y-104969307D01*
X134086656Y-104990874D01*
X134216547Y-105063467D01*
X134220044Y-105064603D01*
X134220048Y-105064605D01*
X134312615Y-105094681D01*
X134403600Y-105124244D01*
X134510984Y-105137049D01*
X134595237Y-105147096D01*
X134595239Y-105147096D01*
X134598895Y-105147532D01*
X134794994Y-105132443D01*
X134909061Y-105100595D01*
X134980883Y-105080542D01*
X134980885Y-105080541D01*
X134984428Y-105079552D01*
X135027058Y-105058018D01*
X138957601Y-105058018D01*
X138958002Y-105063488D01*
X138967669Y-105129168D01*
X138971095Y-105140193D01*
X139021155Y-105242155D01*
X139028289Y-105252120D01*
X139108415Y-105332104D01*
X139118397Y-105339225D01*
X139220449Y-105389109D01*
X139231463Y-105392513D01*
X139296530Y-105402006D01*
X139301963Y-105402400D01*
X139394341Y-105402400D01*
X139404498Y-105398703D01*
X139407600Y-105393331D01*
X139407600Y-105389140D01*
X139712400Y-105389140D01*
X139716097Y-105399297D01*
X139721469Y-105402399D01*
X139818018Y-105402399D01*
X139823488Y-105401998D01*
X139889168Y-105392331D01*
X139900193Y-105388905D01*
X140002155Y-105338845D01*
X140012120Y-105331711D01*
X140092104Y-105251585D01*
X140099225Y-105241603D01*
X140149109Y-105139551D01*
X140152513Y-105128537D01*
X140162006Y-105063467D01*
X140162400Y-105058037D01*
X140162400Y-104940659D01*
X140158703Y-104930502D01*
X140153331Y-104927400D01*
X139725659Y-104927400D01*
X139715502Y-104931097D01*
X139712400Y-104936469D01*
X139712400Y-105389140D01*
X139407600Y-105389140D01*
X139407600Y-104940659D01*
X139403903Y-104930502D01*
X139398531Y-104927400D01*
X138970860Y-104927400D01*
X138960703Y-104931097D01*
X138957601Y-104936469D01*
X138957601Y-105058018D01*
X135027058Y-105058018D01*
X135159981Y-104990874D01*
X135314966Y-104869786D01*
X135443480Y-104720901D01*
X135506855Y-104609341D01*
X138957600Y-104609341D01*
X138961297Y-104619498D01*
X138966669Y-104622600D01*
X139394341Y-104622600D01*
X139404498Y-104618903D01*
X139407600Y-104613531D01*
X139407600Y-104609341D01*
X139712400Y-104609341D01*
X139716097Y-104619498D01*
X139721469Y-104622600D01*
X140149140Y-104622600D01*
X140159297Y-104618903D01*
X140162399Y-104613531D01*
X140162399Y-104491982D01*
X140161998Y-104486512D01*
X140152331Y-104420832D01*
X140148905Y-104409807D01*
X140098845Y-104307845D01*
X140091711Y-104297880D01*
X140011585Y-104217896D01*
X140001603Y-104210775D01*
X139899551Y-104160891D01*
X139888537Y-104157487D01*
X139823470Y-104147994D01*
X139818037Y-104147600D01*
X139725659Y-104147600D01*
X139715502Y-104151297D01*
X139712400Y-104156669D01*
X139712400Y-104609341D01*
X139407600Y-104609341D01*
X139407600Y-104160860D01*
X139403903Y-104150703D01*
X139398531Y-104147601D01*
X139301982Y-104147601D01*
X139296512Y-104148002D01*
X139230832Y-104157669D01*
X139219807Y-104161095D01*
X139117845Y-104211155D01*
X139107880Y-104218289D01*
X139027896Y-104298415D01*
X139020775Y-104308397D01*
X138970891Y-104410449D01*
X138967487Y-104421463D01*
X138957994Y-104486530D01*
X138957600Y-104491963D01*
X138957600Y-104609341D01*
X135506855Y-104609341D01*
X135540628Y-104549890D01*
X135570976Y-104458660D01*
X135602926Y-104418350D01*
X135642330Y-104407200D01*
X135826271Y-104407200D01*
X135840942Y-104408645D01*
X135860000Y-104412436D01*
X135867264Y-104410991D01*
X135956993Y-104393142D01*
X135964257Y-104391697D01*
X136030329Y-104347549D01*
X136052641Y-104332641D01*
X136063438Y-104316482D01*
X136072791Y-104305087D01*
X137218651Y-103159226D01*
X137265271Y-103137486D01*
X137271825Y-103137200D01*
X138886087Y-103137200D01*
X138934425Y-103154793D01*
X138960485Y-103201448D01*
X138967310Y-103247812D01*
X139019089Y-103353272D01*
X139023484Y-103357660D01*
X139023486Y-103357662D01*
X139060614Y-103394724D01*
X139102236Y-103436274D01*
X139107818Y-103439003D01*
X139107820Y-103439004D01*
X139202540Y-103485305D01*
X139202542Y-103485306D01*
X139207786Y-103487869D01*
X139213563Y-103488712D01*
X139213564Y-103488712D01*
X139226271Y-103490566D01*
X139276548Y-103497900D01*
X139743452Y-103497900D01*
X139746168Y-103497500D01*
X139746171Y-103497500D01*
X139807033Y-103488541D01*
X139807035Y-103488540D01*
X139812812Y-103487690D01*
X139864357Y-103462382D01*
X139912696Y-103438649D01*
X139912697Y-103438648D01*
X139918272Y-103435911D01*
X139922660Y-103431516D01*
X139922662Y-103431514D01*
X139959724Y-103394386D01*
X140001274Y-103352764D01*
X140024850Y-103304535D01*
X140050305Y-103252460D01*
X140050306Y-103252458D01*
X140052869Y-103247214D01*
X140062900Y-103178452D01*
X140062900Y-102763626D01*
X140080493Y-102715288D01*
X140084926Y-102710452D01*
X140416800Y-102378578D01*
X140428196Y-102369225D01*
X140438195Y-102362544D01*
X140444351Y-102358431D01*
X140463491Y-102329786D01*
X140483362Y-102300046D01*
X140483363Y-102300044D01*
X140489640Y-102290650D01*
X140503407Y-102270047D01*
X140524145Y-102165790D01*
X140520355Y-102146736D01*
X140518910Y-102132065D01*
X140518910Y-101466188D01*
X140536503Y-101417850D01*
X140581052Y-101392130D01*
X140631710Y-101401063D01*
X140661613Y-101433046D01*
X140669089Y-101448272D01*
X140673484Y-101452660D01*
X140673486Y-101452662D01*
X140752236Y-101531274D01*
X140751337Y-101532175D01*
X140776704Y-101569083D01*
X140779100Y-101587913D01*
X140779100Y-102247100D01*
X140761507Y-102295438D01*
X140752657Y-102303633D01*
X140751728Y-102304089D01*
X140668726Y-102387236D01*
X140665997Y-102392818D01*
X140665996Y-102392820D01*
X140619695Y-102487540D01*
X140617131Y-102492786D01*
X140607100Y-102561548D01*
X140607100Y-103178452D01*
X140607500Y-103181168D01*
X140607500Y-103181171D01*
X140611890Y-103210990D01*
X140617310Y-103247812D01*
X140669089Y-103353272D01*
X140673484Y-103357660D01*
X140673486Y-103357662D01*
X140752236Y-103436274D01*
X140751337Y-103437175D01*
X140776704Y-103474083D01*
X140779100Y-103492913D01*
X140779100Y-104109121D01*
X140761507Y-104157459D01*
X140737042Y-104176624D01*
X140667552Y-104210742D01*
X140667551Y-104210743D01*
X140661974Y-104213481D01*
X140657586Y-104217876D01*
X140657584Y-104217878D01*
X140657174Y-104218289D01*
X140573092Y-104302518D01*
X140570363Y-104308102D01*
X140570361Y-104308104D01*
X140543398Y-104363266D01*
X140517843Y-104415546D01*
X140507100Y-104489185D01*
X140507101Y-105060814D01*
X140518034Y-105135095D01*
X140573481Y-105248026D01*
X140577876Y-105252414D01*
X140577878Y-105252416D01*
X140604575Y-105279066D01*
X140662518Y-105336908D01*
X140668102Y-105339637D01*
X140668104Y-105339639D01*
X140746554Y-105377986D01*
X140775546Y-105392157D01*
X140842256Y-105401889D01*
X140887547Y-105426276D01*
X140906600Y-105476301D01*
X140906600Y-106261400D01*
X140889007Y-106309738D01*
X140844458Y-106335458D01*
X140831400Y-106336600D01*
X135618412Y-106336600D01*
X135570074Y-106319007D01*
X135552804Y-106295396D01*
X135551714Y-106295975D01*
X135461103Y-106125561D01*
X135459379Y-106122318D01*
X135335072Y-105969903D01*
X135183528Y-105844535D01*
X135010520Y-105750990D01*
X134822637Y-105692830D01*
X134699766Y-105679916D01*
X134630690Y-105672656D01*
X134630689Y-105672656D01*
X134627035Y-105672272D01*
X134529101Y-105681184D01*
X134434824Y-105689764D01*
X134434823Y-105689764D01*
X134431166Y-105690097D01*
X134427641Y-105691134D01*
X134427638Y-105691135D01*
X134246019Y-105744589D01*
X134242489Y-105745628D01*
X134068192Y-105836748D01*
X133914912Y-105959988D01*
X133788489Y-106110653D01*
X133693739Y-106283004D01*
X133634269Y-106470476D01*
X133612345Y-106665930D01*
X132232900Y-106665930D01*
X132232900Y-88885930D01*
X133612345Y-88885930D01*
X133612653Y-88889598D01*
X133612653Y-88889601D01*
X133628241Y-89075222D01*
X133628803Y-89081919D01*
X133683015Y-89270979D01*
X133772916Y-89445908D01*
X133895083Y-89600044D01*
X133897877Y-89602422D01*
X133897878Y-89602423D01*
X133932691Y-89632051D01*
X134044862Y-89727516D01*
X134048063Y-89729305D01*
X134048066Y-89729307D01*
X134086656Y-89750874D01*
X134216547Y-89823467D01*
X134220044Y-89824603D01*
X134220048Y-89824605D01*
X134306539Y-89852707D01*
X134403600Y-89884244D01*
X134510984Y-89897049D01*
X134595237Y-89907096D01*
X134595239Y-89907096D01*
X134598895Y-89907532D01*
X134794994Y-89892443D01*
X134937312Y-89852707D01*
X134980883Y-89840542D01*
X134980885Y-89840541D01*
X134984428Y-89839552D01*
X135074917Y-89793843D01*
X135156697Y-89752533D01*
X135156698Y-89752532D01*
X135159981Y-89750874D01*
X135314966Y-89629786D01*
X135443480Y-89480901D01*
X135540628Y-89309890D01*
X135575969Y-89203651D01*
X135601548Y-89126760D01*
X135601549Y-89126757D01*
X135602710Y-89123266D01*
X135627360Y-88928138D01*
X135627753Y-88900000D01*
X135627548Y-88897907D01*
X135608921Y-88707927D01*
X135608920Y-88707922D01*
X135608561Y-88704260D01*
X135551714Y-88515975D01*
X135459379Y-88342318D01*
X135335072Y-88189903D01*
X135183528Y-88064535D01*
X135010520Y-87970990D01*
X134822637Y-87912830D01*
X134699766Y-87899916D01*
X134630690Y-87892656D01*
X134630689Y-87892656D01*
X134627035Y-87892272D01*
X134529101Y-87901184D01*
X134434824Y-87909764D01*
X134434823Y-87909764D01*
X134431166Y-87910097D01*
X134427641Y-87911134D01*
X134427638Y-87911135D01*
X134246019Y-87964589D01*
X134242489Y-87965628D01*
X134068192Y-88056748D01*
X133914912Y-88179988D01*
X133788489Y-88330653D01*
X133786718Y-88333875D01*
X133786717Y-88333876D01*
X133747441Y-88405319D01*
X133693739Y-88503004D01*
X133634269Y-88690476D01*
X133612345Y-88885930D01*
X132232900Y-88885930D01*
X132232900Y-86345930D01*
X133612345Y-86345930D01*
X133612653Y-86349598D01*
X133612653Y-86349601D01*
X133615889Y-86388138D01*
X133628803Y-86541919D01*
X133683015Y-86730979D01*
X133772916Y-86905908D01*
X133895083Y-87060044D01*
X133897877Y-87062422D01*
X133897878Y-87062423D01*
X133932691Y-87092051D01*
X134044862Y-87187516D01*
X134048063Y-87189305D01*
X134048066Y-87189307D01*
X134086656Y-87210874D01*
X134216547Y-87283467D01*
X134220044Y-87284603D01*
X134220048Y-87284605D01*
X134312615Y-87314681D01*
X134403600Y-87344244D01*
X134510984Y-87357049D01*
X134595237Y-87367096D01*
X134595239Y-87367096D01*
X134598895Y-87367532D01*
X134794994Y-87352443D01*
X134909061Y-87320595D01*
X134980883Y-87300542D01*
X134980885Y-87300541D01*
X134984428Y-87299552D01*
X135159981Y-87210874D01*
X135314966Y-87089786D01*
X135443480Y-86940901D01*
X135540628Y-86769890D01*
X135602710Y-86583266D01*
X135627360Y-86388138D01*
X135627753Y-86360000D01*
X135627548Y-86357907D01*
X135608921Y-86167927D01*
X135608920Y-86167922D01*
X135608561Y-86164260D01*
X135551714Y-85975975D01*
X135459379Y-85802318D01*
X135335072Y-85649903D01*
X135183528Y-85524535D01*
X135010520Y-85430990D01*
X134822637Y-85372830D01*
X134699766Y-85359916D01*
X134630690Y-85352656D01*
X134630689Y-85352656D01*
X134627035Y-85352272D01*
X134529101Y-85361184D01*
X134434824Y-85369764D01*
X134434823Y-85369764D01*
X134431166Y-85370097D01*
X134427641Y-85371134D01*
X134427638Y-85371135D01*
X134246019Y-85424589D01*
X134242489Y-85425628D01*
X134068192Y-85516748D01*
X133914912Y-85639988D01*
X133788489Y-85790653D01*
X133693739Y-85963004D01*
X133634269Y-86150476D01*
X133612345Y-86345930D01*
X132232900Y-86345930D01*
X132232900Y-83805930D01*
X133612345Y-83805930D01*
X133612653Y-83809598D01*
X133612653Y-83809601D01*
X133615889Y-83848138D01*
X133628803Y-84001919D01*
X133683015Y-84190979D01*
X133772916Y-84365908D01*
X133895083Y-84520044D01*
X133897877Y-84522422D01*
X133897878Y-84522423D01*
X133932691Y-84552051D01*
X134044862Y-84647516D01*
X134048063Y-84649305D01*
X134048066Y-84649307D01*
X134086656Y-84670874D01*
X134216547Y-84743467D01*
X134220044Y-84744603D01*
X134220048Y-84744605D01*
X134312615Y-84774681D01*
X134403600Y-84804244D01*
X134510984Y-84817049D01*
X134595237Y-84827096D01*
X134595239Y-84827096D01*
X134598895Y-84827532D01*
X134794994Y-84812443D01*
X134909061Y-84780595D01*
X134980883Y-84760542D01*
X134980885Y-84760541D01*
X134984428Y-84759552D01*
X135159981Y-84670874D01*
X135314966Y-84549786D01*
X135443480Y-84400901D01*
X135540628Y-84229890D01*
X135602710Y-84043266D01*
X135627360Y-83848138D01*
X135627753Y-83820000D01*
X135627548Y-83817907D01*
X135608921Y-83627927D01*
X135608920Y-83627922D01*
X135608561Y-83624260D01*
X135551714Y-83435975D01*
X135459379Y-83262318D01*
X135335072Y-83109903D01*
X135183528Y-82984535D01*
X135010520Y-82890990D01*
X134822637Y-82832830D01*
X134699766Y-82819916D01*
X134630690Y-82812656D01*
X134630689Y-82812656D01*
X134627035Y-82812272D01*
X134529101Y-82821184D01*
X134434824Y-82829764D01*
X134434823Y-82829764D01*
X134431166Y-82830097D01*
X134427641Y-82831134D01*
X134427638Y-82831135D01*
X134246019Y-82884589D01*
X134242489Y-82885628D01*
X134068192Y-82976748D01*
X133914912Y-83099988D01*
X133788489Y-83250653D01*
X133693739Y-83423004D01*
X133634269Y-83610476D01*
X133612345Y-83805930D01*
X132232900Y-83805930D01*
X132232900Y-80414943D01*
X133617100Y-80414943D01*
X133617101Y-82145056D01*
X133625972Y-82189658D01*
X133659766Y-82240234D01*
X133665923Y-82244348D01*
X133704183Y-82269913D01*
X133704184Y-82269914D01*
X133710342Y-82274028D01*
X133754943Y-82282900D01*
X134619882Y-82282900D01*
X135485056Y-82282899D01*
X135529658Y-82274028D01*
X135580234Y-82240234D01*
X135614028Y-82189658D01*
X135622900Y-82145057D01*
X135622899Y-80414944D01*
X135614028Y-80370342D01*
X135580234Y-80319766D01*
X135535818Y-80290088D01*
X135535816Y-80290086D01*
X135529658Y-80285972D01*
X135485057Y-80277100D01*
X134620118Y-80277100D01*
X133754944Y-80277101D01*
X133710342Y-80285972D01*
X133659766Y-80319766D01*
X133625972Y-80370342D01*
X133617100Y-80414943D01*
X132232900Y-80414943D01*
X132232900Y-79405032D01*
X132235462Y-79385569D01*
X132235732Y-79384561D01*
X132238294Y-79375000D01*
X132235732Y-79365438D01*
X132235732Y-79358419D01*
X132236375Y-79348603D01*
X132248035Y-79260038D01*
X132253116Y-79241076D01*
X132293701Y-79143095D01*
X132303517Y-79126094D01*
X132368077Y-79041958D01*
X132381958Y-79028077D01*
X132466094Y-78963517D01*
X132483095Y-78953701D01*
X132581076Y-78913116D01*
X132600038Y-78908035D01*
X132688603Y-78896375D01*
X132698419Y-78895732D01*
X132705438Y-78895732D01*
X132715000Y-78898294D01*
X132725570Y-78895462D01*
X132745032Y-78892900D01*
X151734968Y-78892900D01*
X151754430Y-78895462D01*
G37*
%TD.AperFunction*%
%TA.AperFunction,Conductor*%
G36*
X138585000Y-97781638D02*
G01*
X138609924Y-97804981D01*
X138650649Y-97865931D01*
X138656805Y-97870044D01*
X138666804Y-97876725D01*
X138678200Y-97886078D01*
X139962484Y-99170362D01*
X139984224Y-99216982D01*
X139984510Y-99223536D01*
X139984510Y-100310890D01*
X139966917Y-100359228D01*
X139922368Y-100384948D01*
X139876285Y-100378450D01*
X139817460Y-100349695D01*
X139817458Y-100349694D01*
X139812214Y-100347131D01*
X139806437Y-100346288D01*
X139806436Y-100346288D01*
X139793729Y-100344434D01*
X139743452Y-100337100D01*
X139276548Y-100337100D01*
X139273832Y-100337500D01*
X139273829Y-100337500D01*
X139212967Y-100346459D01*
X139212965Y-100346460D01*
X139207188Y-100347310D01*
X139155643Y-100372618D01*
X139107304Y-100396351D01*
X139107303Y-100396352D01*
X139101728Y-100399089D01*
X139097340Y-100403484D01*
X139097338Y-100403486D01*
X139060276Y-100440614D01*
X139018726Y-100482236D01*
X139015997Y-100487818D01*
X139015996Y-100487820D01*
X138969695Y-100582540D01*
X138967131Y-100587786D01*
X138966288Y-100593563D01*
X138966288Y-100593564D01*
X138960469Y-100633455D01*
X138936083Y-100678747D01*
X138886057Y-100697800D01*
X138547400Y-100697800D01*
X138499062Y-100680207D01*
X138473342Y-100635658D01*
X138472200Y-100622600D01*
X138472200Y-97846763D01*
X138489793Y-97798425D01*
X138534342Y-97772705D01*
X138585000Y-97781638D01*
G37*
%TD.AperFunction*%
%TA.AperFunction,Conductor*%
G36*
X141652633Y-94753126D02*
G01*
X141682138Y-94795263D01*
X141684700Y-94814726D01*
X141684700Y-95904079D01*
X141667107Y-95952417D01*
X141622558Y-95978137D01*
X141571900Y-95969204D01*
X141565832Y-95965301D01*
X141561879Y-95962482D01*
X141557482Y-95958092D01*
X141444454Y-95902843D01*
X141399584Y-95896297D01*
X141373518Y-95892494D01*
X141373513Y-95892494D01*
X141370815Y-95892100D01*
X141110905Y-95892100D01*
X140849186Y-95892101D01*
X140774905Y-95903034D01*
X140769661Y-95905609D01*
X140769660Y-95905609D01*
X140667550Y-95955743D01*
X140667549Y-95955744D01*
X140661974Y-95958481D01*
X140657586Y-95962876D01*
X140657584Y-95962878D01*
X140642352Y-95978137D01*
X140573092Y-96047518D01*
X140570363Y-96053102D01*
X140570361Y-96053104D01*
X140568033Y-96057867D01*
X140517843Y-96160546D01*
X140513907Y-96187526D01*
X140507760Y-96229663D01*
X140507100Y-96234185D01*
X140507101Y-96805814D01*
X140518034Y-96880095D01*
X140520609Y-96885339D01*
X140520609Y-96885340D01*
X140535254Y-96915167D01*
X140573481Y-96993026D01*
X140577876Y-96997414D01*
X140577878Y-96997416D01*
X140598202Y-97017704D01*
X140662518Y-97081908D01*
X140668102Y-97084637D01*
X140668104Y-97084639D01*
X140740997Y-97120269D01*
X140775546Y-97137157D01*
X140814854Y-97142892D01*
X140846482Y-97147506D01*
X140846487Y-97147506D01*
X140849185Y-97147900D01*
X141109095Y-97147900D01*
X141370814Y-97147899D01*
X141445095Y-97136966D01*
X141451330Y-97133905D01*
X141509466Y-97105361D01*
X141558026Y-97081519D01*
X141562416Y-97077121D01*
X141565724Y-97074753D01*
X141615268Y-97060920D01*
X141662114Y-97082169D01*
X141684341Y-97128559D01*
X141684700Y-97135898D01*
X141684700Y-99939892D01*
X141667107Y-99988230D01*
X141662674Y-99993067D01*
X141340665Y-100315075D01*
X141294045Y-100336814D01*
X141287491Y-100337100D01*
X140926548Y-100337100D01*
X140923832Y-100337500D01*
X140923829Y-100337500D01*
X140862967Y-100346459D01*
X140862965Y-100346460D01*
X140857188Y-100347310D01*
X140805643Y-100372618D01*
X140757304Y-100396351D01*
X140757303Y-100396352D01*
X140751728Y-100399089D01*
X140747340Y-100403484D01*
X140747338Y-100403486D01*
X140710276Y-100440614D01*
X140668726Y-100482236D01*
X140661670Y-100496671D01*
X140624637Y-100532371D01*
X140573319Y-100535915D01*
X140531730Y-100505643D01*
X140518910Y-100463646D01*
X140518910Y-99115439D01*
X140520355Y-99100768D01*
X140522701Y-99088974D01*
X140524146Y-99081710D01*
X140503407Y-98977454D01*
X140459259Y-98911381D01*
X140444351Y-98889069D01*
X140428195Y-98878274D01*
X140416800Y-98868922D01*
X139132516Y-97584638D01*
X139110776Y-97538018D01*
X139110490Y-97531464D01*
X139110490Y-97200822D01*
X139128083Y-97152484D01*
X139172632Y-97126764D01*
X139214772Y-97132705D01*
X139214871Y-97132385D01*
X139216856Y-97132998D01*
X139218711Y-97133260D01*
X139220447Y-97134108D01*
X139231463Y-97137513D01*
X139296530Y-97147006D01*
X139301963Y-97147400D01*
X139394341Y-97147400D01*
X139404498Y-97143703D01*
X139407600Y-97138331D01*
X139407600Y-97134140D01*
X139712400Y-97134140D01*
X139716097Y-97144297D01*
X139721469Y-97147399D01*
X139818018Y-97147399D01*
X139823488Y-97146998D01*
X139889168Y-97137331D01*
X139900193Y-97133905D01*
X140002155Y-97083845D01*
X140012120Y-97076711D01*
X140092104Y-96996585D01*
X140099225Y-96986603D01*
X140149109Y-96884551D01*
X140152513Y-96873537D01*
X140162006Y-96808470D01*
X140162400Y-96803037D01*
X140162400Y-96685659D01*
X140158703Y-96675502D01*
X140153331Y-96672400D01*
X139725659Y-96672400D01*
X139715502Y-96676097D01*
X139712400Y-96681469D01*
X139712400Y-97134140D01*
X139407600Y-97134140D01*
X139407600Y-96354341D01*
X139712400Y-96354341D01*
X139716097Y-96364498D01*
X139721469Y-96367600D01*
X140149140Y-96367600D01*
X140159297Y-96363903D01*
X140162399Y-96358531D01*
X140162399Y-96236982D01*
X140161998Y-96231512D01*
X140152331Y-96165832D01*
X140148905Y-96154807D01*
X140098845Y-96052845D01*
X140091711Y-96042880D01*
X140011585Y-95962896D01*
X140001603Y-95955775D01*
X139899551Y-95905891D01*
X139888537Y-95902487D01*
X139823470Y-95892994D01*
X139818037Y-95892600D01*
X139725659Y-95892600D01*
X139715502Y-95896297D01*
X139712400Y-95901669D01*
X139712400Y-96354341D01*
X139407600Y-96354341D01*
X139407600Y-95907380D01*
X139425193Y-95859042D01*
X139429626Y-95854206D01*
X140277896Y-95005936D01*
X140324516Y-94984196D01*
X140331070Y-94983910D01*
X141189561Y-94983910D01*
X141204232Y-94985355D01*
X141223290Y-94989146D01*
X141230554Y-94987701D01*
X141233596Y-94987096D01*
X141307258Y-94972443D01*
X141320283Y-94969852D01*
X141327547Y-94968407D01*
X141393619Y-94924259D01*
X141415931Y-94909351D01*
X141426726Y-94893195D01*
X141436078Y-94881800D01*
X141556326Y-94761552D01*
X141602946Y-94739812D01*
X141652633Y-94753126D01*
G37*
%TD.AperFunction*%
%TD*%
M02*
