%TF.GenerationSoftware,KiCad,Pcbnew,6.0.4+dfsg-1+b1*%
%TF.CreationDate,2022-04-30T09:27:05+08:00*%
%TF.ProjectId,gpioexp,6770696f-6578-4702-9e6b-696361645f70,c*%
%TF.SameCoordinates,Original*%
%TF.FileFunction,Copper,L2,Bot*%
%TF.FilePolarity,Positive*%
%FSLAX46Y46*%
G04 Gerber Fmt 4.6, Leading zero omitted, Abs format (unit mm)*
G04 Created by KiCad (PCBNEW 6.0.4+dfsg-1+b1) date 2022-04-30 09:27:05*
%MOMM*%
%LPD*%
G01*
G04 APERTURE LIST*
%TA.AperFunction,ComponentPad*%
%ADD10R,1.700000X1.700000*%
%TD*%
%TA.AperFunction,ComponentPad*%
%ADD11O,1.700000X1.700000*%
%TD*%
%TA.AperFunction,SMDPad,CuDef*%
%ADD12R,1.000000X1.500000*%
%TD*%
%TA.AperFunction,ViaPad*%
%ADD13C,0.700000*%
%TD*%
%TA.AperFunction,Conductor*%
%ADD14C,0.304800*%
%TD*%
%TA.AperFunction,Conductor*%
%ADD15C,0.228600*%
%TD*%
G04 APERTURE END LIST*
%TO.C,JP1*%
G36*
X141840000Y-107280000D02*
G01*
X141340000Y-107280000D01*
X141340000Y-106880000D01*
X141840000Y-106880000D01*
X141840000Y-107280000D01*
G37*
G36*
X141840000Y-106480000D02*
G01*
X141340000Y-106480000D01*
X141340000Y-106080000D01*
X141840000Y-106080000D01*
X141840000Y-106480000D01*
G37*
%TO.C,JP2*%
G36*
X141840000Y-110455000D02*
G01*
X141340000Y-110455000D01*
X141340000Y-110055000D01*
X141840000Y-110055000D01*
X141840000Y-110455000D01*
G37*
G36*
X141840000Y-109655000D02*
G01*
X141340000Y-109655000D01*
X141340000Y-109255000D01*
X141840000Y-109255000D01*
X141840000Y-109655000D01*
G37*
%TD*%
D10*
%TO.P,J1,1,Pin_1*%
%TO.N,P1_0*%
X134620000Y-81280000D03*
D11*
%TO.P,J1,2,Pin_2*%
%TO.N,P1_1*%
X134620000Y-83820000D03*
%TO.P,J1,3,Pin_3*%
%TO.N,P1_2*%
X134620000Y-86360000D03*
%TO.P,J1,4,Pin_4*%
%TO.N,P1_3*%
X134620000Y-88900000D03*
%TO.P,J1,5,Pin_5*%
%TO.N,P1_4*%
X134620000Y-91440000D03*
%TO.P,J1,6,Pin_6*%
%TO.N,P1_5*%
X134620000Y-93980000D03*
%TO.P,J1,7,Pin_7*%
%TO.N,P1_6*%
X134620000Y-96520000D03*
%TO.P,J1,8,Pin_8*%
%TO.N,P1_7*%
X134620000Y-99060000D03*
%TO.P,J1,9,Pin_9*%
%TO.N,SCL*%
X134620000Y-101600000D03*
%TO.P,J1,10,Pin_10*%
%TO.N,SDA*%
X134620000Y-104140000D03*
%TO.P,J1,11,Pin_11*%
%TO.N,VCC*%
X134620000Y-106680000D03*
%TO.P,J1,12,Pin_12*%
%TO.N,GND*%
X134620000Y-109220000D03*
%TD*%
D10*
%TO.P,J2,1,Pin_1*%
%TO.N,P0_7*%
X149860000Y-81280000D03*
D11*
%TO.P,J2,2,Pin_2*%
%TO.N,P0_6*%
X149860000Y-83820000D03*
%TO.P,J2,3,Pin_3*%
%TO.N,P0_5*%
X149860000Y-86360000D03*
%TO.P,J2,4,Pin_4*%
%TO.N,P0_4*%
X149860000Y-88900000D03*
%TO.P,J2,5,Pin_5*%
%TO.N,P0_3*%
X149860000Y-91440000D03*
%TO.P,J2,6,Pin_6*%
%TO.N,P0_2*%
X149860000Y-93980000D03*
%TO.P,J2,7,Pin_7*%
%TO.N,P0_1*%
X149860000Y-96520000D03*
%TO.P,J2,8,Pin_8*%
%TO.N,P0_0*%
X149860000Y-99060000D03*
%TO.P,J2,9,Pin_9*%
%TO.N,NRST*%
X149860000Y-101600000D03*
%TO.P,J2,10,Pin_10*%
%TO.N,INT*%
X149860000Y-104140000D03*
%TO.P,J2,11,Pin_11*%
%TO.N,VCC*%
X149860000Y-106680000D03*
%TO.P,J2,12,Pin_12*%
%TO.N,GND*%
X149860000Y-109220000D03*
%TD*%
D12*
%TO.P,JP1,1,A*%
%TO.N,VCC*%
X140940000Y-106680000D03*
%TO.P,JP1,2,C*%
%TO.N,AD0*%
X142240000Y-106680000D03*
%TO.P,JP1,3,B*%
%TO.N,GND*%
X143540000Y-106680000D03*
%TD*%
%TO.P,JP2,1,A*%
%TO.N,VCC*%
X140940000Y-109855000D03*
%TO.P,JP2,2,C*%
%TO.N,AD1*%
X142240000Y-109855000D03*
%TO.P,JP2,3,B*%
%TO.N,GND*%
X143540000Y-109855000D03*
%TD*%
D13*
%TO.N,GND*%
X142240000Y-80010000D03*
X144145000Y-101600000D03*
X147320000Y-80010000D03*
X137160000Y-99695000D03*
X140970000Y-97790000D03*
X140970000Y-99695000D03*
X144780000Y-80010000D03*
X142240000Y-92075000D03*
X137160000Y-110490000D03*
X145415000Y-110490000D03*
X139065000Y-99695000D03*
X137160000Y-80010000D03*
X139700000Y-80010000D03*
X139065000Y-110490000D03*
X144145000Y-103505000D03*
X147320000Y-110490000D03*
%TO.N,AD0*%
X137160000Y-97155000D03*
%TO.N,AD1*%
X146685000Y-99695000D03*
%TO.N,P1_3*%
X146685000Y-92075000D03*
%TO.N,P1_2*%
X146685000Y-93980000D03*
%TO.N,P1_1*%
X146685000Y-95885000D03*
%TO.N,P1_0*%
X146685000Y-97790000D03*
%TD*%
D14*
%TO.N,VCC*%
X140940000Y-106680000D02*
X134620000Y-106680000D01*
X140940000Y-106680000D02*
X140940000Y-109855000D01*
D15*
%TO.N,AD0*%
X140970000Y-98425000D02*
X142240000Y-99695000D01*
X142240000Y-99695000D02*
X142240000Y-106680000D01*
X138430000Y-98425000D02*
X137160000Y-97155000D01*
X140970000Y-98425000D02*
X138430000Y-98425000D01*
%TO.N,AD1*%
X142278101Y-108838299D02*
X142240000Y-108876400D01*
X142240000Y-108876400D02*
X142240000Y-109855000D01*
X146685000Y-99695000D02*
X146685000Y-105265062D01*
X143111763Y-108838299D02*
X142278101Y-108838299D01*
X146685000Y-105265062D02*
X143111763Y-108838299D01*
%TO.N,P1_3*%
X143510000Y-88900000D02*
X134620000Y-88900000D01*
X146685000Y-92075000D02*
X143510000Y-88900000D01*
%TO.N,P1_2*%
X147320000Y-93345000D02*
X146685000Y-93980000D01*
X143510000Y-86360000D02*
X147320000Y-90170000D01*
X147320000Y-90170000D02*
X147320000Y-93345000D01*
X134620000Y-86360000D02*
X143510000Y-86360000D01*
%TO.N,P1_1*%
X134620000Y-83820000D02*
X141508830Y-83820000D01*
X147701009Y-94868991D02*
X146685000Y-95885000D01*
X147701009Y-90012179D02*
X147701009Y-94868991D01*
X141508830Y-83820000D02*
X147701009Y-90012179D01*
%TO.N,P1_0*%
X139603830Y-81280000D02*
X134620000Y-81280000D01*
X148082020Y-89758190D02*
X139603830Y-81280000D01*
X146685000Y-97790000D02*
X148082020Y-96392980D01*
X148082020Y-96392980D02*
X148082020Y-89758190D01*
%TD*%
%TA.AperFunction,Conductor*%
%TO.N,GND*%
G36*
X151754430Y-78895462D02*
G01*
X151765000Y-78898294D01*
X151774562Y-78895732D01*
X151781581Y-78895732D01*
X151791397Y-78896375D01*
X151879962Y-78908035D01*
X151898924Y-78913116D01*
X151996905Y-78953701D01*
X152013906Y-78963517D01*
X152098042Y-79028077D01*
X152111923Y-79041958D01*
X152176483Y-79126094D01*
X152186299Y-79143095D01*
X152226884Y-79241076D01*
X152231965Y-79260038D01*
X152243625Y-79348603D01*
X152244268Y-79358419D01*
X152244268Y-79365438D01*
X152241706Y-79375000D01*
X152244268Y-79384561D01*
X152244538Y-79385569D01*
X152247100Y-79405032D01*
X152247100Y-111094968D01*
X152244538Y-111114430D01*
X152241706Y-111125000D01*
X152244268Y-111134562D01*
X152244268Y-111141581D01*
X152243625Y-111151397D01*
X152231965Y-111239962D01*
X152226884Y-111258924D01*
X152186299Y-111356905D01*
X152176483Y-111373906D01*
X152111923Y-111458042D01*
X152098042Y-111471923D01*
X152013906Y-111536483D01*
X151996905Y-111546299D01*
X151898924Y-111586884D01*
X151879962Y-111591965D01*
X151791397Y-111603625D01*
X151781581Y-111604268D01*
X151774562Y-111604268D01*
X151765000Y-111601706D01*
X151754431Y-111604538D01*
X151734968Y-111607100D01*
X132745032Y-111607100D01*
X132725569Y-111604538D01*
X132715000Y-111601706D01*
X132705438Y-111604268D01*
X132698419Y-111604268D01*
X132688603Y-111603625D01*
X132600038Y-111591965D01*
X132581076Y-111586884D01*
X132483095Y-111546299D01*
X132466094Y-111536483D01*
X132381958Y-111471923D01*
X132368077Y-111458042D01*
X132303517Y-111373906D01*
X132293701Y-111356905D01*
X132253116Y-111258924D01*
X132248035Y-111239962D01*
X132236375Y-111151397D01*
X132235732Y-111141581D01*
X132235732Y-111134562D01*
X132238294Y-111125000D01*
X132235462Y-111114430D01*
X132232900Y-111094968D01*
X132232900Y-109380318D01*
X133627492Y-109380318D01*
X133628990Y-109398160D01*
X133630312Y-109405364D01*
X133682470Y-109587261D01*
X133685164Y-109594063D01*
X133771657Y-109762363D01*
X133775623Y-109768518D01*
X133893164Y-109916817D01*
X133898240Y-109922074D01*
X134042355Y-110044725D01*
X134048353Y-110048894D01*
X134213537Y-110141211D01*
X134220250Y-110144144D01*
X134400210Y-110202616D01*
X134407358Y-110204188D01*
X134454434Y-110209802D01*
X134464957Y-110207334D01*
X134467600Y-110203801D01*
X134467600Y-110200421D01*
X134772400Y-110200421D01*
X134776097Y-110210578D01*
X134780403Y-110213064D01*
X134791238Y-110212230D01*
X134798449Y-110210959D01*
X134980701Y-110160073D01*
X134987534Y-110157422D01*
X135156428Y-110072108D01*
X135162611Y-110068184D01*
X135311720Y-109951687D01*
X135317023Y-109946637D01*
X135440664Y-109803397D01*
X135444886Y-109797412D01*
X135538354Y-109632880D01*
X135541328Y-109626200D01*
X135601059Y-109446641D01*
X135602680Y-109439508D01*
X135609495Y-109385556D01*
X135607100Y-109375014D01*
X135603656Y-109372400D01*
X134785659Y-109372400D01*
X134775502Y-109376097D01*
X134772400Y-109381469D01*
X134772400Y-110200421D01*
X134467600Y-110200421D01*
X134467600Y-109385659D01*
X134463903Y-109375502D01*
X134458531Y-109372400D01*
X133640086Y-109372400D01*
X133629929Y-109376097D01*
X133627492Y-109380318D01*
X132232900Y-109380318D01*
X132232900Y-109054421D01*
X133629843Y-109054421D01*
X133632386Y-109064930D01*
X133636007Y-109067600D01*
X134454341Y-109067600D01*
X134464498Y-109063903D01*
X134467600Y-109058531D01*
X134467600Y-109054341D01*
X134772400Y-109054341D01*
X134776097Y-109064498D01*
X134781469Y-109067600D01*
X135599048Y-109067600D01*
X135609205Y-109063903D01*
X135611547Y-109059847D01*
X135608427Y-109028024D01*
X135607001Y-109020828D01*
X135552312Y-108839688D01*
X135549524Y-108832922D01*
X135460684Y-108665839D01*
X135456639Y-108659751D01*
X135337041Y-108513109D01*
X135331878Y-108507910D01*
X135186078Y-108387294D01*
X135180016Y-108383205D01*
X135013557Y-108293201D01*
X135006813Y-108290366D01*
X134826047Y-108234410D01*
X134818880Y-108232939D01*
X134785587Y-108229440D01*
X134775100Y-108232055D01*
X134772400Y-108235771D01*
X134772400Y-109054341D01*
X134467600Y-109054341D01*
X134467600Y-108240543D01*
X134463903Y-108230386D01*
X134459766Y-108227997D01*
X134434918Y-108230258D01*
X134427732Y-108231629D01*
X134246208Y-108285055D01*
X134239421Y-108287797D01*
X134071721Y-108375468D01*
X134065603Y-108379472D01*
X133918128Y-108498044D01*
X133912903Y-108503161D01*
X133791266Y-108648122D01*
X133787132Y-108654160D01*
X133695975Y-108819975D01*
X133693088Y-108826711D01*
X133635874Y-109007074D01*
X133634351Y-109014239D01*
X133629843Y-109054421D01*
X132232900Y-109054421D01*
X132232900Y-106665930D01*
X133612345Y-106665930D01*
X133612653Y-106669598D01*
X133612653Y-106669601D01*
X133615889Y-106708138D01*
X133628803Y-106861919D01*
X133683015Y-107050979D01*
X133772916Y-107225908D01*
X133895083Y-107380044D01*
X133897877Y-107382422D01*
X133897878Y-107382423D01*
X133932691Y-107412051D01*
X134044862Y-107507516D01*
X134048063Y-107509305D01*
X134048066Y-107509307D01*
X134103404Y-107540234D01*
X134216547Y-107603467D01*
X134220044Y-107604603D01*
X134220048Y-107604605D01*
X134312615Y-107634681D01*
X134403600Y-107664244D01*
X134510984Y-107677049D01*
X134595237Y-107687096D01*
X134595239Y-107687096D01*
X134598895Y-107687532D01*
X134794994Y-107672443D01*
X134909061Y-107640595D01*
X134980883Y-107620542D01*
X134980885Y-107620541D01*
X134984428Y-107619552D01*
X135139383Y-107541279D01*
X135156697Y-107532533D01*
X135156698Y-107532532D01*
X135159981Y-107530874D01*
X135314966Y-107409786D01*
X135443480Y-107260901D01*
X135540628Y-107089890D01*
X135558301Y-107036762D01*
X135590252Y-106996450D01*
X135629656Y-106985300D01*
X140211901Y-106985300D01*
X140260239Y-107002893D01*
X140285959Y-107047442D01*
X140287101Y-107060500D01*
X140287101Y-107445056D01*
X140295972Y-107489658D01*
X140329766Y-107540234D01*
X140335923Y-107544348D01*
X140374183Y-107569913D01*
X140374184Y-107569914D01*
X140380342Y-107574028D01*
X140387606Y-107575473D01*
X140418805Y-107581679D01*
X140424943Y-107582900D01*
X140559500Y-107582900D01*
X140607838Y-107600493D01*
X140633558Y-107645042D01*
X140634700Y-107658100D01*
X140634700Y-108876901D01*
X140617107Y-108925239D01*
X140572558Y-108950959D01*
X140559500Y-108952101D01*
X140424944Y-108952101D01*
X140380342Y-108960972D01*
X140329766Y-108994766D01*
X140325652Y-109000923D01*
X140307544Y-109028024D01*
X140295972Y-109045342D01*
X140294527Y-109052606D01*
X140292162Y-109064498D01*
X140287100Y-109089943D01*
X140287101Y-110620056D01*
X140295972Y-110664658D01*
X140329766Y-110715234D01*
X140335923Y-110719348D01*
X140374183Y-110744913D01*
X140374184Y-110744914D01*
X140380342Y-110749028D01*
X140387606Y-110750473D01*
X140418805Y-110756679D01*
X140424943Y-110757900D01*
X140939930Y-110757900D01*
X141455056Y-110757899D01*
X141499658Y-110749028D01*
X141548221Y-110716579D01*
X141598187Y-110704352D01*
X141631779Y-110716579D01*
X141674183Y-110744913D01*
X141674184Y-110744914D01*
X141680342Y-110749028D01*
X141687606Y-110750473D01*
X141718805Y-110756679D01*
X141724943Y-110757900D01*
X142239930Y-110757900D01*
X142755056Y-110757899D01*
X142799658Y-110749028D01*
X142848670Y-110716279D01*
X142898636Y-110704052D01*
X142932229Y-110716279D01*
X142974377Y-110744442D01*
X142987802Y-110750003D01*
X143021363Y-110756679D01*
X143028684Y-110757400D01*
X143374341Y-110757400D01*
X143384498Y-110753703D01*
X143387600Y-110748331D01*
X143387600Y-110744141D01*
X143692400Y-110744141D01*
X143696097Y-110754298D01*
X143701469Y-110757400D01*
X144051316Y-110757400D01*
X144058637Y-110756679D01*
X144092198Y-110750003D01*
X144105623Y-110744442D01*
X144143720Y-110718986D01*
X144153986Y-110708720D01*
X144179442Y-110670623D01*
X144185003Y-110657198D01*
X144191679Y-110623637D01*
X144192400Y-110616316D01*
X144192400Y-110020659D01*
X144188703Y-110010502D01*
X144183331Y-110007400D01*
X143705659Y-110007400D01*
X143695502Y-110011097D01*
X143692400Y-110016469D01*
X143692400Y-110744141D01*
X143387600Y-110744141D01*
X143387600Y-109689341D01*
X143692400Y-109689341D01*
X143696097Y-109699498D01*
X143701469Y-109702600D01*
X144179141Y-109702600D01*
X144189298Y-109698903D01*
X144192400Y-109693531D01*
X144192400Y-109380318D01*
X148867492Y-109380318D01*
X148868990Y-109398160D01*
X148870312Y-109405364D01*
X148922470Y-109587261D01*
X148925164Y-109594063D01*
X149011657Y-109762363D01*
X149015623Y-109768518D01*
X149133164Y-109916817D01*
X149138240Y-109922074D01*
X149282355Y-110044725D01*
X149288353Y-110048894D01*
X149453537Y-110141211D01*
X149460250Y-110144144D01*
X149640210Y-110202616D01*
X149647358Y-110204188D01*
X149694434Y-110209802D01*
X149704957Y-110207334D01*
X149707600Y-110203801D01*
X149707600Y-110200421D01*
X150012400Y-110200421D01*
X150016097Y-110210578D01*
X150020403Y-110213064D01*
X150031238Y-110212230D01*
X150038449Y-110210959D01*
X150220701Y-110160073D01*
X150227534Y-110157422D01*
X150396428Y-110072108D01*
X150402611Y-110068184D01*
X150551720Y-109951687D01*
X150557023Y-109946637D01*
X150680664Y-109803397D01*
X150684886Y-109797412D01*
X150778354Y-109632880D01*
X150781328Y-109626200D01*
X150841059Y-109446641D01*
X150842680Y-109439508D01*
X150849495Y-109385556D01*
X150847100Y-109375014D01*
X150843656Y-109372400D01*
X150025659Y-109372400D01*
X150015502Y-109376097D01*
X150012400Y-109381469D01*
X150012400Y-110200421D01*
X149707600Y-110200421D01*
X149707600Y-109385659D01*
X149703903Y-109375502D01*
X149698531Y-109372400D01*
X148880086Y-109372400D01*
X148869929Y-109376097D01*
X148867492Y-109380318D01*
X144192400Y-109380318D01*
X144192400Y-109093684D01*
X144191679Y-109086363D01*
X144185325Y-109054421D01*
X148869843Y-109054421D01*
X148872386Y-109064930D01*
X148876007Y-109067600D01*
X149694341Y-109067600D01*
X149704498Y-109063903D01*
X149707600Y-109058531D01*
X149707600Y-109054341D01*
X150012400Y-109054341D01*
X150016097Y-109064498D01*
X150021469Y-109067600D01*
X150839048Y-109067600D01*
X150849205Y-109063903D01*
X150851547Y-109059847D01*
X150848427Y-109028024D01*
X150847001Y-109020828D01*
X150792312Y-108839688D01*
X150789524Y-108832922D01*
X150700684Y-108665839D01*
X150696639Y-108659751D01*
X150577041Y-108513109D01*
X150571878Y-108507910D01*
X150426078Y-108387294D01*
X150420016Y-108383205D01*
X150253557Y-108293201D01*
X150246813Y-108290366D01*
X150066047Y-108234410D01*
X150058880Y-108232939D01*
X150025587Y-108229440D01*
X150015100Y-108232055D01*
X150012400Y-108235771D01*
X150012400Y-109054341D01*
X149707600Y-109054341D01*
X149707600Y-108240543D01*
X149703903Y-108230386D01*
X149699766Y-108227997D01*
X149674918Y-108230258D01*
X149667732Y-108231629D01*
X149486208Y-108285055D01*
X149479421Y-108287797D01*
X149311721Y-108375468D01*
X149305603Y-108379472D01*
X149158128Y-108498044D01*
X149152903Y-108503161D01*
X149031266Y-108648122D01*
X149027132Y-108654160D01*
X148935975Y-108819975D01*
X148933088Y-108826711D01*
X148875874Y-109007074D01*
X148874351Y-109014239D01*
X148869843Y-109054421D01*
X144185325Y-109054421D01*
X144185003Y-109052802D01*
X144179442Y-109039377D01*
X144153986Y-109001280D01*
X144143720Y-108991014D01*
X144105623Y-108965558D01*
X144092198Y-108959997D01*
X144058637Y-108953321D01*
X144051316Y-108952600D01*
X143705659Y-108952600D01*
X143695502Y-108956297D01*
X143692400Y-108961669D01*
X143692400Y-109689341D01*
X143387600Y-109689341D01*
X143387600Y-108971487D01*
X143405193Y-108923149D01*
X143409626Y-108918313D01*
X145662009Y-106665930D01*
X148852345Y-106665930D01*
X148852653Y-106669598D01*
X148852653Y-106669601D01*
X148855889Y-106708138D01*
X148868803Y-106861919D01*
X148923015Y-107050979D01*
X149012916Y-107225908D01*
X149135083Y-107380044D01*
X149137877Y-107382422D01*
X149137878Y-107382423D01*
X149172691Y-107412051D01*
X149284862Y-107507516D01*
X149288063Y-107509305D01*
X149288066Y-107509307D01*
X149343404Y-107540234D01*
X149456547Y-107603467D01*
X149460044Y-107604603D01*
X149460048Y-107604605D01*
X149552615Y-107634681D01*
X149643600Y-107664244D01*
X149750984Y-107677049D01*
X149835237Y-107687096D01*
X149835239Y-107687096D01*
X149838895Y-107687532D01*
X150034994Y-107672443D01*
X150149061Y-107640595D01*
X150220883Y-107620542D01*
X150220885Y-107620541D01*
X150224428Y-107619552D01*
X150379383Y-107541279D01*
X150396697Y-107532533D01*
X150396698Y-107532532D01*
X150399981Y-107530874D01*
X150554966Y-107409786D01*
X150683480Y-107260901D01*
X150780628Y-107089890D01*
X150842710Y-106903266D01*
X150867360Y-106708138D01*
X150867753Y-106680000D01*
X150867548Y-106677907D01*
X150848921Y-106487927D01*
X150848920Y-106487922D01*
X150848561Y-106484260D01*
X150791714Y-106295975D01*
X150699379Y-106122318D01*
X150575072Y-105969903D01*
X150423528Y-105844535D01*
X150250520Y-105750990D01*
X150062637Y-105692830D01*
X149939766Y-105679916D01*
X149870690Y-105672656D01*
X149870689Y-105672656D01*
X149867035Y-105672272D01*
X149769101Y-105681184D01*
X149674824Y-105689764D01*
X149674823Y-105689764D01*
X149671166Y-105690097D01*
X149667641Y-105691134D01*
X149667638Y-105691135D01*
X149486019Y-105744589D01*
X149482489Y-105745628D01*
X149308192Y-105836748D01*
X149257375Y-105877606D01*
X149210936Y-105914944D01*
X149154912Y-105959988D01*
X149028489Y-106110653D01*
X148933739Y-106283004D01*
X148874269Y-106470476D01*
X148852345Y-106665930D01*
X145662009Y-106665930D01*
X146850087Y-105477852D01*
X146861483Y-105468499D01*
X146871485Y-105461816D01*
X146877641Y-105457703D01*
X146920536Y-105393505D01*
X146936697Y-105369319D01*
X146957435Y-105265062D01*
X146953645Y-105246008D01*
X146952200Y-105231337D01*
X146952200Y-104125930D01*
X148852345Y-104125930D01*
X148852653Y-104129598D01*
X148852653Y-104129601D01*
X148855889Y-104168138D01*
X148868803Y-104321919D01*
X148923015Y-104510979D01*
X149012916Y-104685908D01*
X149135083Y-104840044D01*
X149137877Y-104842422D01*
X149137878Y-104842423D01*
X149172691Y-104872051D01*
X149284862Y-104967516D01*
X149288063Y-104969305D01*
X149288066Y-104969307D01*
X149326656Y-104990874D01*
X149456547Y-105063467D01*
X149460044Y-105064603D01*
X149460048Y-105064605D01*
X149552615Y-105094681D01*
X149643600Y-105124244D01*
X149750984Y-105137049D01*
X149835237Y-105147096D01*
X149835239Y-105147096D01*
X149838895Y-105147532D01*
X150034994Y-105132443D01*
X150149061Y-105100595D01*
X150220883Y-105080542D01*
X150220885Y-105080541D01*
X150224428Y-105079552D01*
X150399981Y-104990874D01*
X150554966Y-104869786D01*
X150683480Y-104720901D01*
X150780628Y-104549890D01*
X150842710Y-104363266D01*
X150867360Y-104168138D01*
X150867753Y-104140000D01*
X150867548Y-104137907D01*
X150848921Y-103947927D01*
X150848920Y-103947922D01*
X150848561Y-103944260D01*
X150791714Y-103755975D01*
X150699379Y-103582318D01*
X150575072Y-103429903D01*
X150423528Y-103304535D01*
X150250520Y-103210990D01*
X150062637Y-103152830D01*
X149939766Y-103139916D01*
X149870690Y-103132656D01*
X149870689Y-103132656D01*
X149867035Y-103132272D01*
X149769101Y-103141184D01*
X149674824Y-103149764D01*
X149674823Y-103149764D01*
X149671166Y-103150097D01*
X149667641Y-103151134D01*
X149667638Y-103151135D01*
X149486019Y-103204589D01*
X149482489Y-103205628D01*
X149308192Y-103296748D01*
X149154912Y-103419988D01*
X149028489Y-103570653D01*
X148933739Y-103743004D01*
X148874269Y-103930476D01*
X148852345Y-104125930D01*
X146952200Y-104125930D01*
X146952200Y-101585930D01*
X148852345Y-101585930D01*
X148852653Y-101589598D01*
X148852653Y-101589601D01*
X148855889Y-101628138D01*
X148868803Y-101781919D01*
X148923015Y-101970979D01*
X149012916Y-102145908D01*
X149135083Y-102300044D01*
X149137877Y-102302422D01*
X149137878Y-102302423D01*
X149172691Y-102332051D01*
X149284862Y-102427516D01*
X149288063Y-102429305D01*
X149288066Y-102429307D01*
X149326656Y-102450874D01*
X149456547Y-102523467D01*
X149460044Y-102524603D01*
X149460048Y-102524605D01*
X149552615Y-102554681D01*
X149643600Y-102584244D01*
X149750984Y-102597049D01*
X149835237Y-102607096D01*
X149835239Y-102607096D01*
X149838895Y-102607532D01*
X150034994Y-102592443D01*
X150149061Y-102560595D01*
X150220883Y-102540542D01*
X150220885Y-102540541D01*
X150224428Y-102539552D01*
X150399981Y-102450874D01*
X150554966Y-102329786D01*
X150683480Y-102180901D01*
X150780628Y-102009890D01*
X150842710Y-101823266D01*
X150867360Y-101628138D01*
X150867753Y-101600000D01*
X150867548Y-101597907D01*
X150848921Y-101407927D01*
X150848920Y-101407922D01*
X150848561Y-101404260D01*
X150791714Y-101215975D01*
X150699379Y-101042318D01*
X150575072Y-100889903D01*
X150423528Y-100764535D01*
X150250520Y-100670990D01*
X150062637Y-100612830D01*
X149939766Y-100599916D01*
X149870690Y-100592656D01*
X149870689Y-100592656D01*
X149867035Y-100592272D01*
X149769100Y-100601185D01*
X149674824Y-100609764D01*
X149674823Y-100609764D01*
X149671166Y-100610097D01*
X149667641Y-100611134D01*
X149667638Y-100611135D01*
X149486019Y-100664589D01*
X149482489Y-100665628D01*
X149308192Y-100756748D01*
X149154912Y-100879988D01*
X149028489Y-101030653D01*
X148933739Y-101203004D01*
X148874269Y-101390476D01*
X148852345Y-101585930D01*
X146952200Y-101585930D01*
X146952200Y-100163187D01*
X146969793Y-100114849D01*
X146988052Y-100099103D01*
X147004970Y-100088716D01*
X147004973Y-100088714D01*
X147009539Y-100085910D01*
X147106210Y-99979110D01*
X147111795Y-99967584D01*
X147166682Y-99854296D01*
X147166682Y-99854295D01*
X147169020Y-99849470D01*
X147192919Y-99707413D01*
X147193071Y-99695000D01*
X147192659Y-99692120D01*
X147173409Y-99557704D01*
X147173408Y-99557700D01*
X147172649Y-99552401D01*
X147149897Y-99502359D01*
X147115245Y-99426147D01*
X147113026Y-99421266D01*
X147108538Y-99416057D01*
X147022487Y-99316190D01*
X147022484Y-99316187D01*
X147018993Y-99312136D01*
X147014502Y-99309225D01*
X146902604Y-99236697D01*
X146902603Y-99236697D01*
X146898111Y-99233785D01*
X146821912Y-99210997D01*
X146765232Y-99194045D01*
X146765229Y-99194045D01*
X146760098Y-99192510D01*
X146754743Y-99192477D01*
X146754741Y-99192477D01*
X146689524Y-99192079D01*
X146616047Y-99191630D01*
X146610897Y-99193102D01*
X146610896Y-99193102D01*
X146546793Y-99211423D01*
X146477539Y-99231215D01*
X146473013Y-99234071D01*
X146473010Y-99234072D01*
X146395043Y-99283266D01*
X146355709Y-99308084D01*
X146348550Y-99316190D01*
X146263897Y-99412041D01*
X146263895Y-99412044D01*
X146260351Y-99416057D01*
X146199129Y-99546454D01*
X146176967Y-99688793D01*
X146177661Y-99694100D01*
X146177661Y-99694103D01*
X146179021Y-99704500D01*
X146195645Y-99831630D01*
X146253662Y-99963484D01*
X146257107Y-99967582D01*
X146257108Y-99967584D01*
X146270138Y-99983085D01*
X146346354Y-100073755D01*
X146368830Y-100088716D01*
X146384269Y-100098993D01*
X146414759Y-100140423D01*
X146417800Y-100161593D01*
X146417800Y-105123237D01*
X146400207Y-105171575D01*
X146395774Y-105176411D01*
X144320774Y-107251410D01*
X144274154Y-107273150D01*
X144224467Y-107259836D01*
X144194962Y-107217699D01*
X144192400Y-107198236D01*
X144192400Y-106845659D01*
X144188703Y-106835502D01*
X144183331Y-106832400D01*
X143705659Y-106832400D01*
X143695502Y-106836097D01*
X143692400Y-106841469D01*
X143692400Y-107569141D01*
X143696097Y-107579298D01*
X143701469Y-107582400D01*
X143808236Y-107582400D01*
X143856574Y-107599993D01*
X143882294Y-107644542D01*
X143873361Y-107695200D01*
X143861410Y-107710774D01*
X143023111Y-108549073D01*
X142976491Y-108570813D01*
X142969937Y-108571099D01*
X142311830Y-108571099D01*
X142297159Y-108569654D01*
X142285365Y-108567308D01*
X142278101Y-108565863D01*
X142270837Y-108567308D01*
X142181107Y-108585157D01*
X142181105Y-108585158D01*
X142173845Y-108586602D01*
X142085460Y-108645658D01*
X142078509Y-108656061D01*
X142057762Y-108676808D01*
X142047359Y-108683759D01*
X142032451Y-108706071D01*
X141988303Y-108772143D01*
X141967564Y-108876400D01*
X141968139Y-108879291D01*
X141951416Y-108925239D01*
X141906867Y-108950959D01*
X141893809Y-108952101D01*
X141724944Y-108952101D01*
X141680342Y-108960972D01*
X141674184Y-108965087D01*
X141674182Y-108965088D01*
X141631779Y-108993421D01*
X141581813Y-109005648D01*
X141548221Y-108993421D01*
X141505817Y-108965087D01*
X141505816Y-108965086D01*
X141499658Y-108960972D01*
X141476156Y-108956297D01*
X141458682Y-108952821D01*
X141458681Y-108952821D01*
X141455057Y-108952100D01*
X141320500Y-108952100D01*
X141272162Y-108934507D01*
X141246442Y-108889958D01*
X141245300Y-108876900D01*
X141245300Y-107658099D01*
X141262893Y-107609761D01*
X141307442Y-107584041D01*
X141320500Y-107582899D01*
X141455056Y-107582899D01*
X141499658Y-107574028D01*
X141548221Y-107541579D01*
X141598187Y-107529352D01*
X141631779Y-107541579D01*
X141674183Y-107569913D01*
X141674184Y-107569914D01*
X141680342Y-107574028D01*
X141687606Y-107575473D01*
X141718805Y-107581679D01*
X141724943Y-107582900D01*
X142239930Y-107582900D01*
X142755056Y-107582899D01*
X142799658Y-107574028D01*
X142848670Y-107541279D01*
X142898636Y-107529052D01*
X142932229Y-107541279D01*
X142974377Y-107569442D01*
X142987802Y-107575003D01*
X143021363Y-107581679D01*
X143028684Y-107582400D01*
X143374341Y-107582400D01*
X143384498Y-107578703D01*
X143387600Y-107573331D01*
X143387600Y-106514341D01*
X143692400Y-106514341D01*
X143696097Y-106524498D01*
X143701469Y-106527600D01*
X144179141Y-106527600D01*
X144189298Y-106523903D01*
X144192400Y-106518531D01*
X144192400Y-105918684D01*
X144191679Y-105911363D01*
X144185003Y-105877802D01*
X144179442Y-105864377D01*
X144153986Y-105826280D01*
X144143720Y-105816014D01*
X144105623Y-105790558D01*
X144092198Y-105784997D01*
X144058637Y-105778321D01*
X144051316Y-105777600D01*
X143705659Y-105777600D01*
X143695502Y-105781297D01*
X143692400Y-105786669D01*
X143692400Y-106514341D01*
X143387600Y-106514341D01*
X143387600Y-105790859D01*
X143383903Y-105780702D01*
X143378531Y-105777600D01*
X143028684Y-105777600D01*
X143021363Y-105778321D01*
X142987802Y-105784997D01*
X142974377Y-105790558D01*
X142932229Y-105818721D01*
X142882264Y-105830948D01*
X142848670Y-105818721D01*
X142805817Y-105790087D01*
X142805816Y-105790086D01*
X142799658Y-105785972D01*
X142773165Y-105780702D01*
X142758682Y-105777821D01*
X142758681Y-105777821D01*
X142755057Y-105777100D01*
X142582400Y-105777100D01*
X142534062Y-105759507D01*
X142508342Y-105714958D01*
X142507200Y-105701900D01*
X142507200Y-99728725D01*
X142508645Y-99714054D01*
X142510990Y-99702265D01*
X142510990Y-99702264D01*
X142512435Y-99695000D01*
X142491697Y-99590743D01*
X142466077Y-99552401D01*
X142462819Y-99547524D01*
X142436755Y-99508516D01*
X142432641Y-99502359D01*
X142416482Y-99491562D01*
X142405087Y-99482210D01*
X141968807Y-99045930D01*
X148852345Y-99045930D01*
X148852653Y-99049598D01*
X148852653Y-99049601D01*
X148867904Y-99231215D01*
X148868803Y-99241919D01*
X148923015Y-99430979D01*
X149012916Y-99605908D01*
X149135083Y-99760044D01*
X149137877Y-99762422D01*
X149137878Y-99762423D01*
X149212948Y-99826312D01*
X149284862Y-99887516D01*
X149288063Y-99889305D01*
X149288066Y-99889307D01*
X149326656Y-99910874D01*
X149456547Y-99983467D01*
X149460044Y-99984603D01*
X149460048Y-99984605D01*
X149552615Y-100014681D01*
X149643600Y-100044244D01*
X149750984Y-100057049D01*
X149835237Y-100067096D01*
X149835239Y-100067096D01*
X149838895Y-100067532D01*
X150034994Y-100052443D01*
X150149061Y-100020595D01*
X150220883Y-100000542D01*
X150220885Y-100000541D01*
X150224428Y-99999552D01*
X150399981Y-99910874D01*
X150554966Y-99789786D01*
X150683480Y-99640901D01*
X150736526Y-99547524D01*
X150778810Y-99473091D01*
X150778812Y-99473088D01*
X150780628Y-99469890D01*
X150834454Y-99308084D01*
X150841548Y-99286760D01*
X150841549Y-99286757D01*
X150842710Y-99283266D01*
X150867360Y-99088138D01*
X150867753Y-99060000D01*
X150867548Y-99057907D01*
X150848921Y-98867927D01*
X150848920Y-98867922D01*
X150848561Y-98864260D01*
X150791714Y-98675975D01*
X150699379Y-98502318D01*
X150575072Y-98349903D01*
X150423528Y-98224535D01*
X150250520Y-98130990D01*
X150062637Y-98072830D01*
X149926140Y-98058484D01*
X149870690Y-98052656D01*
X149870689Y-98052656D01*
X149867035Y-98052272D01*
X149798775Y-98058484D01*
X149674824Y-98069764D01*
X149674823Y-98069764D01*
X149671166Y-98070097D01*
X149667641Y-98071134D01*
X149667638Y-98071135D01*
X149486019Y-98124589D01*
X149482489Y-98125628D01*
X149308192Y-98216748D01*
X149305328Y-98219051D01*
X149215176Y-98291535D01*
X149154912Y-98339988D01*
X149028489Y-98490653D01*
X148933739Y-98663004D01*
X148874269Y-98850476D01*
X148852345Y-99045930D01*
X141968807Y-99045930D01*
X141182788Y-98259910D01*
X141173435Y-98248514D01*
X141166754Y-98238515D01*
X141162641Y-98232359D01*
X141154437Y-98226877D01*
X141118797Y-98203064D01*
X141074257Y-98173303D01*
X140970000Y-98152564D01*
X140962736Y-98154009D01*
X140950942Y-98156355D01*
X140936271Y-98157800D01*
X138571825Y-98157800D01*
X138523487Y-98140207D01*
X138518651Y-98135774D01*
X137678396Y-97295518D01*
X137656656Y-97248898D01*
X137657412Y-97229868D01*
X137667919Y-97167413D01*
X137668071Y-97155000D01*
X137667659Y-97152120D01*
X137648409Y-97017704D01*
X137648408Y-97017700D01*
X137647649Y-97012401D01*
X137588026Y-96881266D01*
X137583538Y-96876057D01*
X137497487Y-96776190D01*
X137497484Y-96776187D01*
X137493993Y-96772136D01*
X137489502Y-96769225D01*
X137377604Y-96696697D01*
X137377603Y-96696697D01*
X137373111Y-96693785D01*
X137296912Y-96670997D01*
X137240232Y-96654045D01*
X137240229Y-96654045D01*
X137235098Y-96652510D01*
X137229743Y-96652477D01*
X137229741Y-96652477D01*
X137164524Y-96652079D01*
X137091047Y-96651630D01*
X137085897Y-96653102D01*
X137085896Y-96653102D01*
X137021793Y-96671422D01*
X136952539Y-96691215D01*
X136948013Y-96694071D01*
X136948010Y-96694072D01*
X136870043Y-96743266D01*
X136830709Y-96768084D01*
X136823550Y-96776190D01*
X136738897Y-96872041D01*
X136738895Y-96872044D01*
X136735351Y-96876057D01*
X136674129Y-97006454D01*
X136651967Y-97148793D01*
X136652661Y-97154100D01*
X136652661Y-97154103D01*
X136653159Y-97157909D01*
X136670645Y-97291630D01*
X136705513Y-97370874D01*
X136721452Y-97407097D01*
X136728662Y-97423484D01*
X136732107Y-97427582D01*
X136732108Y-97427584D01*
X136745459Y-97443467D01*
X136821354Y-97533755D01*
X136941270Y-97613577D01*
X137078769Y-97656535D01*
X137152871Y-97657893D01*
X137217436Y-97659077D01*
X137217438Y-97659077D01*
X137222798Y-97659175D01*
X137230024Y-97657205D01*
X137230593Y-97657050D01*
X137232463Y-97657205D01*
X137233284Y-97657103D01*
X137233305Y-97657275D01*
X137281856Y-97661308D01*
X137303549Y-97676427D01*
X138217210Y-98590087D01*
X138226562Y-98601482D01*
X138237359Y-98617641D01*
X138301557Y-98660536D01*
X138325743Y-98676697D01*
X138430000Y-98697435D01*
X138437264Y-98695990D01*
X138437265Y-98695990D01*
X138449054Y-98693645D01*
X138463725Y-98692200D01*
X140828174Y-98692200D01*
X140876512Y-98709793D01*
X140881348Y-98714226D01*
X141950774Y-99783651D01*
X141972514Y-99830271D01*
X141972800Y-99836825D01*
X141972800Y-105701901D01*
X141955207Y-105750239D01*
X141910658Y-105775959D01*
X141897600Y-105777101D01*
X141724944Y-105777101D01*
X141680342Y-105785972D01*
X141674184Y-105790087D01*
X141674182Y-105790088D01*
X141631779Y-105818421D01*
X141581813Y-105830648D01*
X141548221Y-105818421D01*
X141505817Y-105790087D01*
X141505816Y-105790086D01*
X141499658Y-105785972D01*
X141473165Y-105780702D01*
X141458682Y-105777821D01*
X141458681Y-105777821D01*
X141455057Y-105777100D01*
X140940070Y-105777100D01*
X140424944Y-105777101D01*
X140380342Y-105785972D01*
X140329766Y-105819766D01*
X140325652Y-105825923D01*
X140319556Y-105835047D01*
X140295972Y-105870342D01*
X140287100Y-105914943D01*
X140287100Y-106299500D01*
X140269507Y-106347838D01*
X140224958Y-106373558D01*
X140211900Y-106374700D01*
X135631331Y-106374700D01*
X135582993Y-106357107D01*
X135559341Y-106321236D01*
X135552776Y-106299492D01*
X135552776Y-106299491D01*
X135551714Y-106295975D01*
X135459379Y-106122318D01*
X135335072Y-105969903D01*
X135183528Y-105844535D01*
X135010520Y-105750990D01*
X134822637Y-105692830D01*
X134699766Y-105679916D01*
X134630690Y-105672656D01*
X134630689Y-105672656D01*
X134627035Y-105672272D01*
X134529101Y-105681184D01*
X134434824Y-105689764D01*
X134434823Y-105689764D01*
X134431166Y-105690097D01*
X134427641Y-105691134D01*
X134427638Y-105691135D01*
X134246019Y-105744589D01*
X134242489Y-105745628D01*
X134068192Y-105836748D01*
X134017375Y-105877606D01*
X133970936Y-105914944D01*
X133914912Y-105959988D01*
X133788489Y-106110653D01*
X133693739Y-106283004D01*
X133634269Y-106470476D01*
X133612345Y-106665930D01*
X132232900Y-106665930D01*
X132232900Y-104125930D01*
X133612345Y-104125930D01*
X133612653Y-104129598D01*
X133612653Y-104129601D01*
X133615889Y-104168138D01*
X133628803Y-104321919D01*
X133683015Y-104510979D01*
X133772916Y-104685908D01*
X133895083Y-104840044D01*
X133897877Y-104842422D01*
X133897878Y-104842423D01*
X133932691Y-104872051D01*
X134044862Y-104967516D01*
X134048063Y-104969305D01*
X134048066Y-104969307D01*
X134086656Y-104990874D01*
X134216547Y-105063467D01*
X134220044Y-105064603D01*
X134220048Y-105064605D01*
X134312615Y-105094681D01*
X134403600Y-105124244D01*
X134510984Y-105137049D01*
X134595237Y-105147096D01*
X134595239Y-105147096D01*
X134598895Y-105147532D01*
X134794994Y-105132443D01*
X134909061Y-105100595D01*
X134980883Y-105080542D01*
X134980885Y-105080541D01*
X134984428Y-105079552D01*
X135159981Y-104990874D01*
X135314966Y-104869786D01*
X135443480Y-104720901D01*
X135540628Y-104549890D01*
X135602710Y-104363266D01*
X135627360Y-104168138D01*
X135627753Y-104140000D01*
X135627548Y-104137907D01*
X135608921Y-103947927D01*
X135608920Y-103947922D01*
X135608561Y-103944260D01*
X135551714Y-103755975D01*
X135459379Y-103582318D01*
X135335072Y-103429903D01*
X135183528Y-103304535D01*
X135010520Y-103210990D01*
X134822637Y-103152830D01*
X134699766Y-103139916D01*
X134630690Y-103132656D01*
X134630689Y-103132656D01*
X134627035Y-103132272D01*
X134529101Y-103141184D01*
X134434824Y-103149764D01*
X134434823Y-103149764D01*
X134431166Y-103150097D01*
X134427641Y-103151134D01*
X134427638Y-103151135D01*
X134246019Y-103204589D01*
X134242489Y-103205628D01*
X134068192Y-103296748D01*
X133914912Y-103419988D01*
X133788489Y-103570653D01*
X133693739Y-103743004D01*
X133634269Y-103930476D01*
X133612345Y-104125930D01*
X132232900Y-104125930D01*
X132232900Y-101585930D01*
X133612345Y-101585930D01*
X133612653Y-101589598D01*
X133612653Y-101589601D01*
X133615889Y-101628138D01*
X133628803Y-101781919D01*
X133683015Y-101970979D01*
X133772916Y-102145908D01*
X133895083Y-102300044D01*
X133897877Y-102302422D01*
X133897878Y-102302423D01*
X133932691Y-102332051D01*
X134044862Y-102427516D01*
X134048063Y-102429305D01*
X134048066Y-102429307D01*
X134086656Y-102450874D01*
X134216547Y-102523467D01*
X134220044Y-102524603D01*
X134220048Y-102524605D01*
X134312615Y-102554681D01*
X134403600Y-102584244D01*
X134510984Y-102597049D01*
X134595237Y-102607096D01*
X134595239Y-102607096D01*
X134598895Y-102607532D01*
X134794994Y-102592443D01*
X134909061Y-102560595D01*
X134980883Y-102540542D01*
X134980885Y-102540541D01*
X134984428Y-102539552D01*
X135159981Y-102450874D01*
X135314966Y-102329786D01*
X135443480Y-102180901D01*
X135540628Y-102009890D01*
X135602710Y-101823266D01*
X135627360Y-101628138D01*
X135627753Y-101600000D01*
X135627548Y-101597907D01*
X135608921Y-101407927D01*
X135608920Y-101407922D01*
X135608561Y-101404260D01*
X135551714Y-101215975D01*
X135459379Y-101042318D01*
X135335072Y-100889903D01*
X135183528Y-100764535D01*
X135010520Y-100670990D01*
X134822637Y-100612830D01*
X134699766Y-100599916D01*
X134630690Y-100592656D01*
X134630689Y-100592656D01*
X134627035Y-100592272D01*
X134529100Y-100601185D01*
X134434824Y-100609764D01*
X134434823Y-100609764D01*
X134431166Y-100610097D01*
X134427641Y-100611134D01*
X134427638Y-100611135D01*
X134246019Y-100664589D01*
X134242489Y-100665628D01*
X134068192Y-100756748D01*
X133914912Y-100879988D01*
X133788489Y-101030653D01*
X133693739Y-101203004D01*
X133634269Y-101390476D01*
X133612345Y-101585930D01*
X132232900Y-101585930D01*
X132232900Y-99045930D01*
X133612345Y-99045930D01*
X133612653Y-99049598D01*
X133612653Y-99049601D01*
X133627904Y-99231215D01*
X133628803Y-99241919D01*
X133683015Y-99430979D01*
X133772916Y-99605908D01*
X133895083Y-99760044D01*
X133897877Y-99762422D01*
X133897878Y-99762423D01*
X133972948Y-99826312D01*
X134044862Y-99887516D01*
X134048063Y-99889305D01*
X134048066Y-99889307D01*
X134086656Y-99910874D01*
X134216547Y-99983467D01*
X134220044Y-99984603D01*
X134220048Y-99984605D01*
X134312615Y-100014681D01*
X134403600Y-100044244D01*
X134510984Y-100057049D01*
X134595237Y-100067096D01*
X134595239Y-100067096D01*
X134598895Y-100067532D01*
X134794994Y-100052443D01*
X134909061Y-100020595D01*
X134980883Y-100000542D01*
X134980885Y-100000541D01*
X134984428Y-99999552D01*
X135159981Y-99910874D01*
X135314966Y-99789786D01*
X135443480Y-99640901D01*
X135496526Y-99547524D01*
X135538810Y-99473091D01*
X135538812Y-99473088D01*
X135540628Y-99469890D01*
X135594454Y-99308084D01*
X135601548Y-99286760D01*
X135601549Y-99286757D01*
X135602710Y-99283266D01*
X135627360Y-99088138D01*
X135627753Y-99060000D01*
X135627548Y-99057907D01*
X135608921Y-98867927D01*
X135608920Y-98867922D01*
X135608561Y-98864260D01*
X135551714Y-98675975D01*
X135459379Y-98502318D01*
X135335072Y-98349903D01*
X135183528Y-98224535D01*
X135010520Y-98130990D01*
X134822637Y-98072830D01*
X134686140Y-98058484D01*
X134630690Y-98052656D01*
X134630689Y-98052656D01*
X134627035Y-98052272D01*
X134558775Y-98058484D01*
X134434824Y-98069764D01*
X134434823Y-98069764D01*
X134431166Y-98070097D01*
X134427641Y-98071134D01*
X134427638Y-98071135D01*
X134246019Y-98124589D01*
X134242489Y-98125628D01*
X134068192Y-98216748D01*
X134065328Y-98219051D01*
X133975176Y-98291535D01*
X133914912Y-98339988D01*
X133788489Y-98490653D01*
X133693739Y-98663004D01*
X133634269Y-98850476D01*
X133612345Y-99045930D01*
X132232900Y-99045930D01*
X132232900Y-96505930D01*
X133612345Y-96505930D01*
X133612653Y-96509598D01*
X133612653Y-96509601D01*
X133627904Y-96691215D01*
X133628803Y-96701919D01*
X133683015Y-96890979D01*
X133772916Y-97065908D01*
X133895083Y-97220044D01*
X133897877Y-97222422D01*
X133897878Y-97222423D01*
X133932691Y-97252051D01*
X134044862Y-97347516D01*
X134048063Y-97349305D01*
X134048066Y-97349307D01*
X134086656Y-97370874D01*
X134216547Y-97443467D01*
X134220044Y-97444603D01*
X134220048Y-97444605D01*
X134312615Y-97474681D01*
X134403600Y-97504244D01*
X134501390Y-97515905D01*
X134595237Y-97527096D01*
X134595239Y-97527096D01*
X134598895Y-97527532D01*
X134794994Y-97512443D01*
X134909061Y-97480595D01*
X134980883Y-97460542D01*
X134980885Y-97460541D01*
X134984428Y-97459552D01*
X135065539Y-97418580D01*
X135156697Y-97372533D01*
X135156698Y-97372532D01*
X135159981Y-97370874D01*
X135314966Y-97249786D01*
X135443480Y-97100901D01*
X135496526Y-97007524D01*
X135538810Y-96933091D01*
X135538812Y-96933088D01*
X135540628Y-96929890D01*
X135594454Y-96768084D01*
X135601548Y-96746760D01*
X135601549Y-96746757D01*
X135602710Y-96743266D01*
X135627360Y-96548138D01*
X135627753Y-96520000D01*
X135627548Y-96517907D01*
X135608921Y-96327927D01*
X135608920Y-96327922D01*
X135608561Y-96324260D01*
X135551714Y-96135975D01*
X135459379Y-95962318D01*
X135335072Y-95809903D01*
X135183528Y-95684535D01*
X135010520Y-95590990D01*
X134822637Y-95532830D01*
X134699766Y-95519916D01*
X134630690Y-95512656D01*
X134630689Y-95512656D01*
X134627035Y-95512272D01*
X134529100Y-95521185D01*
X134434824Y-95529764D01*
X134434823Y-95529764D01*
X134431166Y-95530097D01*
X134427641Y-95531134D01*
X134427638Y-95531135D01*
X134246019Y-95584589D01*
X134242489Y-95585628D01*
X134068192Y-95676748D01*
X133914912Y-95799988D01*
X133788489Y-95950653D01*
X133693739Y-96123004D01*
X133634269Y-96310476D01*
X133612345Y-96505930D01*
X132232900Y-96505930D01*
X132232900Y-93965930D01*
X133612345Y-93965930D01*
X133612653Y-93969598D01*
X133612653Y-93969601D01*
X133615889Y-94008138D01*
X133628803Y-94161919D01*
X133683015Y-94350979D01*
X133772916Y-94525908D01*
X133895083Y-94680044D01*
X133897877Y-94682422D01*
X133897878Y-94682423D01*
X133932691Y-94712051D01*
X134044862Y-94807516D01*
X134048063Y-94809305D01*
X134048066Y-94809307D01*
X134086656Y-94830874D01*
X134216547Y-94903467D01*
X134220044Y-94904603D01*
X134220048Y-94904605D01*
X134312615Y-94934681D01*
X134403600Y-94964244D01*
X134510984Y-94977049D01*
X134595237Y-94987096D01*
X134595239Y-94987096D01*
X134598895Y-94987532D01*
X134794994Y-94972443D01*
X134909061Y-94940595D01*
X134980883Y-94920542D01*
X134980885Y-94920541D01*
X134984428Y-94919552D01*
X135159981Y-94830874D01*
X135314966Y-94709786D01*
X135443480Y-94560901D01*
X135540628Y-94389890D01*
X135571669Y-94296578D01*
X135601548Y-94206760D01*
X135601549Y-94206757D01*
X135602710Y-94203266D01*
X135627360Y-94008138D01*
X135627620Y-93989500D01*
X135627724Y-93982099D01*
X135627724Y-93982093D01*
X135627753Y-93980000D01*
X135627471Y-93977120D01*
X135608921Y-93787927D01*
X135608920Y-93787922D01*
X135608561Y-93784260D01*
X135551714Y-93595975D01*
X135459379Y-93422318D01*
X135335072Y-93269903D01*
X135183528Y-93144535D01*
X135010520Y-93050990D01*
X134822637Y-92992830D01*
X134699766Y-92979916D01*
X134630690Y-92972656D01*
X134630689Y-92972656D01*
X134627035Y-92972272D01*
X134529101Y-92981184D01*
X134434824Y-92989764D01*
X134434823Y-92989764D01*
X134431166Y-92990097D01*
X134427641Y-92991134D01*
X134427638Y-92991135D01*
X134246019Y-93044589D01*
X134242489Y-93045628D01*
X134068192Y-93136748D01*
X134065328Y-93139051D01*
X133985575Y-93203174D01*
X133914912Y-93259988D01*
X133788489Y-93410653D01*
X133693739Y-93583004D01*
X133634269Y-93770476D01*
X133612345Y-93965930D01*
X132232900Y-93965930D01*
X132232900Y-91425930D01*
X133612345Y-91425930D01*
X133612653Y-91429598D01*
X133612653Y-91429601D01*
X133615889Y-91468138D01*
X133628803Y-91621919D01*
X133683015Y-91810979D01*
X133772916Y-91985908D01*
X133895083Y-92140044D01*
X133897877Y-92142422D01*
X133897878Y-92142423D01*
X133932691Y-92172051D01*
X134044862Y-92267516D01*
X134048063Y-92269305D01*
X134048066Y-92269307D01*
X134086656Y-92290874D01*
X134216547Y-92363467D01*
X134220044Y-92364603D01*
X134220048Y-92364605D01*
X134312615Y-92394681D01*
X134403600Y-92424244D01*
X134510984Y-92437049D01*
X134595237Y-92447096D01*
X134595239Y-92447096D01*
X134598895Y-92447532D01*
X134794994Y-92432443D01*
X134909061Y-92400595D01*
X134980883Y-92380542D01*
X134980885Y-92380541D01*
X134984428Y-92379552D01*
X135159981Y-92290874D01*
X135314966Y-92169786D01*
X135443480Y-92020901D01*
X135445299Y-92017699D01*
X135538810Y-91853091D01*
X135538812Y-91853088D01*
X135540628Y-91849890D01*
X135602710Y-91663266D01*
X135627360Y-91468138D01*
X135627753Y-91440000D01*
X135627548Y-91437907D01*
X135608921Y-91247927D01*
X135608920Y-91247922D01*
X135608561Y-91244260D01*
X135551714Y-91055975D01*
X135459379Y-90882318D01*
X135335072Y-90729903D01*
X135183528Y-90604535D01*
X135010520Y-90510990D01*
X134822637Y-90452830D01*
X134699766Y-90439916D01*
X134630690Y-90432656D01*
X134630689Y-90432656D01*
X134627035Y-90432272D01*
X134529101Y-90441184D01*
X134434824Y-90449764D01*
X134434823Y-90449764D01*
X134431166Y-90450097D01*
X134427641Y-90451134D01*
X134427638Y-90451135D01*
X134246019Y-90504589D01*
X134242489Y-90505628D01*
X134068192Y-90596748D01*
X133914912Y-90719988D01*
X133788489Y-90870653D01*
X133693739Y-91043004D01*
X133634269Y-91230476D01*
X133612345Y-91425930D01*
X132232900Y-91425930D01*
X132232900Y-88885930D01*
X133612345Y-88885930D01*
X133612653Y-88889598D01*
X133612653Y-88889601D01*
X133615889Y-88928138D01*
X133628803Y-89081919D01*
X133683015Y-89270979D01*
X133772916Y-89445908D01*
X133895083Y-89600044D01*
X133897877Y-89602422D01*
X133897878Y-89602423D01*
X133932691Y-89632051D01*
X134044862Y-89727516D01*
X134048063Y-89729305D01*
X134048066Y-89729307D01*
X134089625Y-89752533D01*
X134216547Y-89823467D01*
X134220044Y-89824603D01*
X134220048Y-89824605D01*
X134312615Y-89854681D01*
X134403600Y-89884244D01*
X134510984Y-89897049D01*
X134595237Y-89907096D01*
X134595239Y-89907096D01*
X134598895Y-89907532D01*
X134794994Y-89892443D01*
X134909061Y-89860595D01*
X134980883Y-89840542D01*
X134980885Y-89840541D01*
X134984428Y-89839552D01*
X135107777Y-89777244D01*
X135156697Y-89752533D01*
X135156698Y-89752532D01*
X135159981Y-89750874D01*
X135314966Y-89629786D01*
X135443480Y-89480901D01*
X135540628Y-89309890D01*
X135570976Y-89218660D01*
X135602926Y-89178350D01*
X135642330Y-89167200D01*
X143368174Y-89167200D01*
X143416512Y-89184793D01*
X143421348Y-89189226D01*
X146166659Y-91934537D01*
X146188399Y-91981157D01*
X146187790Y-91999280D01*
X146176967Y-92068793D01*
X146195645Y-92211630D01*
X146253662Y-92343484D01*
X146257107Y-92347582D01*
X146257108Y-92347584D01*
X146270459Y-92363467D01*
X146346354Y-92453755D01*
X146466270Y-92533577D01*
X146603769Y-92576535D01*
X146677871Y-92577893D01*
X146742436Y-92579077D01*
X146742438Y-92579077D01*
X146747798Y-92579175D01*
X146752969Y-92577765D01*
X146752971Y-92577765D01*
X146828695Y-92557120D01*
X146886779Y-92541285D01*
X146938253Y-92509680D01*
X146988650Y-92499380D01*
X147033878Y-92523885D01*
X147052800Y-92573764D01*
X147052800Y-93203174D01*
X147035207Y-93251512D01*
X147030774Y-93256348D01*
X146829309Y-93457813D01*
X146782689Y-93479553D01*
X146765135Y-93479017D01*
X146760098Y-93477510D01*
X146754746Y-93477477D01*
X146754744Y-93477477D01*
X146687370Y-93477066D01*
X146616047Y-93476630D01*
X146610897Y-93478102D01*
X146610896Y-93478102D01*
X146605819Y-93479553D01*
X146477539Y-93516215D01*
X146473013Y-93519071D01*
X146473010Y-93519072D01*
X146376799Y-93579777D01*
X146355709Y-93593084D01*
X146352164Y-93597097D01*
X146352165Y-93597097D01*
X146263897Y-93697041D01*
X146263895Y-93697044D01*
X146260351Y-93701057D01*
X146199129Y-93831454D01*
X146176967Y-93973793D01*
X146177661Y-93979100D01*
X146177661Y-93979103D01*
X146178053Y-93982099D01*
X146195645Y-94116630D01*
X146253662Y-94248484D01*
X146346354Y-94358755D01*
X146466270Y-94438577D01*
X146603769Y-94481535D01*
X146677871Y-94482893D01*
X146742436Y-94484077D01*
X146742438Y-94484077D01*
X146747798Y-94484175D01*
X146752969Y-94482765D01*
X146752971Y-94482765D01*
X146828695Y-94462120D01*
X146886779Y-94446285D01*
X146973414Y-94393091D01*
X147004970Y-94373716D01*
X147004973Y-94373714D01*
X147009539Y-94370910D01*
X147106210Y-94264110D01*
X147111795Y-94252584D01*
X147166682Y-94139296D01*
X147166682Y-94139295D01*
X147169020Y-94134470D01*
X147192919Y-93992413D01*
X147193071Y-93980000D01*
X147192183Y-93973793D01*
X147182094Y-93903353D01*
X147192657Y-93853009D01*
X147203360Y-93839518D01*
X147305435Y-93737443D01*
X147352055Y-93715703D01*
X147401742Y-93729017D01*
X147431247Y-93771154D01*
X147433809Y-93790617D01*
X147433809Y-94727165D01*
X147416216Y-94775503D01*
X147411783Y-94780339D01*
X146829309Y-95362813D01*
X146782689Y-95384553D01*
X146765135Y-95384017D01*
X146760098Y-95382510D01*
X146754746Y-95382477D01*
X146754744Y-95382477D01*
X146687370Y-95382066D01*
X146616047Y-95381630D01*
X146610897Y-95383102D01*
X146610896Y-95383102D01*
X146605819Y-95384553D01*
X146477539Y-95421215D01*
X146473013Y-95424071D01*
X146473010Y-95424072D01*
X146360237Y-95495227D01*
X146355709Y-95498084D01*
X146352164Y-95502097D01*
X146352165Y-95502097D01*
X146263897Y-95602041D01*
X146263895Y-95602044D01*
X146260351Y-95606057D01*
X146199129Y-95736454D01*
X146176967Y-95878793D01*
X146177661Y-95884100D01*
X146177661Y-95884103D01*
X146178159Y-95887909D01*
X146195645Y-96021630D01*
X146237580Y-96116935D01*
X146241795Y-96126513D01*
X146253662Y-96153484D01*
X146346354Y-96263755D01*
X146466270Y-96343577D01*
X146603769Y-96386535D01*
X146677871Y-96387893D01*
X146742436Y-96389077D01*
X146742438Y-96389077D01*
X146747798Y-96389175D01*
X146752969Y-96387765D01*
X146752971Y-96387765D01*
X146830391Y-96366658D01*
X146886779Y-96351285D01*
X146963256Y-96304328D01*
X147004970Y-96278716D01*
X147004973Y-96278714D01*
X147009539Y-96275910D01*
X147106210Y-96169110D01*
X147111795Y-96157584D01*
X147166682Y-96044296D01*
X147166682Y-96044295D01*
X147169020Y-96039470D01*
X147192919Y-95897413D01*
X147193071Y-95885000D01*
X147192183Y-95878793D01*
X147182094Y-95808353D01*
X147192657Y-95758009D01*
X147203360Y-95744518D01*
X147686446Y-95261432D01*
X147733066Y-95239692D01*
X147782753Y-95253006D01*
X147812258Y-95295143D01*
X147814820Y-95314606D01*
X147814820Y-96251154D01*
X147797227Y-96299492D01*
X147792794Y-96304328D01*
X146829309Y-97267813D01*
X146782689Y-97289553D01*
X146765135Y-97289017D01*
X146760098Y-97287510D01*
X146754746Y-97287477D01*
X146754744Y-97287477D01*
X146687370Y-97287066D01*
X146616047Y-97286630D01*
X146610897Y-97288102D01*
X146610896Y-97288102D01*
X146605819Y-97289553D01*
X146477539Y-97326215D01*
X146473013Y-97329071D01*
X146473010Y-97329072D01*
X146404129Y-97372533D01*
X146355709Y-97403084D01*
X146338732Y-97422307D01*
X146263897Y-97507041D01*
X146263895Y-97507044D01*
X146260351Y-97511057D01*
X146258075Y-97515905D01*
X146211467Y-97615176D01*
X146199129Y-97641454D01*
X146198305Y-97646744D01*
X146198305Y-97646745D01*
X146196385Y-97659077D01*
X146176967Y-97783793D01*
X146177661Y-97789100D01*
X146177661Y-97789103D01*
X146178159Y-97792909D01*
X146195645Y-97926630D01*
X146237580Y-98021935D01*
X146251098Y-98052656D01*
X146253662Y-98058484D01*
X146257107Y-98062582D01*
X146257108Y-98062584D01*
X146266797Y-98074110D01*
X146346354Y-98168755D01*
X146368830Y-98183716D01*
X146418454Y-98216748D01*
X146466270Y-98248577D01*
X146603769Y-98291535D01*
X146677871Y-98292893D01*
X146742436Y-98294077D01*
X146742438Y-98294077D01*
X146747798Y-98294175D01*
X146752969Y-98292765D01*
X146752971Y-98292765D01*
X146873482Y-98259910D01*
X146886779Y-98256285D01*
X146941334Y-98222788D01*
X147004970Y-98183716D01*
X147004973Y-98183714D01*
X147009539Y-98180910D01*
X147055709Y-98129903D01*
X147102612Y-98078085D01*
X147106210Y-98074110D01*
X147111795Y-98062584D01*
X147166682Y-97949296D01*
X147166682Y-97949295D01*
X147169020Y-97944470D01*
X147192919Y-97802413D01*
X147193071Y-97790000D01*
X147192183Y-97783793D01*
X147182094Y-97713353D01*
X147192657Y-97663009D01*
X147203360Y-97649518D01*
X148247110Y-96605768D01*
X148258506Y-96596415D01*
X148268505Y-96589734D01*
X148274661Y-96585621D01*
X148327908Y-96505930D01*
X148852345Y-96505930D01*
X148852653Y-96509598D01*
X148852653Y-96509601D01*
X148867904Y-96691215D01*
X148868803Y-96701919D01*
X148923015Y-96890979D01*
X149012916Y-97065908D01*
X149135083Y-97220044D01*
X149137877Y-97222422D01*
X149137878Y-97222423D01*
X149172691Y-97252051D01*
X149284862Y-97347516D01*
X149288063Y-97349305D01*
X149288066Y-97349307D01*
X149326656Y-97370874D01*
X149456547Y-97443467D01*
X149460044Y-97444603D01*
X149460048Y-97444605D01*
X149552615Y-97474681D01*
X149643600Y-97504244D01*
X149741390Y-97515905D01*
X149835237Y-97527096D01*
X149835239Y-97527096D01*
X149838895Y-97527532D01*
X150034994Y-97512443D01*
X150149061Y-97480595D01*
X150220883Y-97460542D01*
X150220885Y-97460541D01*
X150224428Y-97459552D01*
X150305539Y-97418580D01*
X150396697Y-97372533D01*
X150396698Y-97372532D01*
X150399981Y-97370874D01*
X150554966Y-97249786D01*
X150683480Y-97100901D01*
X150736526Y-97007524D01*
X150778810Y-96933091D01*
X150778812Y-96933088D01*
X150780628Y-96929890D01*
X150834454Y-96768084D01*
X150841548Y-96746760D01*
X150841549Y-96746757D01*
X150842710Y-96743266D01*
X150867360Y-96548138D01*
X150867753Y-96520000D01*
X150867548Y-96517907D01*
X150848921Y-96327927D01*
X150848920Y-96327922D01*
X150848561Y-96324260D01*
X150791714Y-96135975D01*
X150699379Y-95962318D01*
X150575072Y-95809903D01*
X150423528Y-95684535D01*
X150250520Y-95590990D01*
X150062637Y-95532830D01*
X149939766Y-95519916D01*
X149870690Y-95512656D01*
X149870689Y-95512656D01*
X149867035Y-95512272D01*
X149769100Y-95521185D01*
X149674824Y-95529764D01*
X149674823Y-95529764D01*
X149671166Y-95530097D01*
X149667641Y-95531134D01*
X149667638Y-95531135D01*
X149486019Y-95584589D01*
X149482489Y-95585628D01*
X149308192Y-95676748D01*
X149154912Y-95799988D01*
X149028489Y-95950653D01*
X148933739Y-96123004D01*
X148874269Y-96310476D01*
X148852345Y-96505930D01*
X148327908Y-96505930D01*
X148333717Y-96497236D01*
X148354456Y-96392980D01*
X148350665Y-96373922D01*
X148349220Y-96359251D01*
X148349220Y-93965930D01*
X148852345Y-93965930D01*
X148852653Y-93969598D01*
X148852653Y-93969601D01*
X148855889Y-94008138D01*
X148868803Y-94161919D01*
X148923015Y-94350979D01*
X149012916Y-94525908D01*
X149135083Y-94680044D01*
X149137877Y-94682422D01*
X149137878Y-94682423D01*
X149172691Y-94712051D01*
X149284862Y-94807516D01*
X149288063Y-94809305D01*
X149288066Y-94809307D01*
X149326656Y-94830874D01*
X149456547Y-94903467D01*
X149460044Y-94904603D01*
X149460048Y-94904605D01*
X149552615Y-94934681D01*
X149643600Y-94964244D01*
X149750984Y-94977049D01*
X149835237Y-94987096D01*
X149835239Y-94987096D01*
X149838895Y-94987532D01*
X150034994Y-94972443D01*
X150149061Y-94940595D01*
X150220883Y-94920542D01*
X150220885Y-94920541D01*
X150224428Y-94919552D01*
X150399981Y-94830874D01*
X150554966Y-94709786D01*
X150683480Y-94560901D01*
X150780628Y-94389890D01*
X150811669Y-94296578D01*
X150841548Y-94206760D01*
X150841549Y-94206757D01*
X150842710Y-94203266D01*
X150867360Y-94008138D01*
X150867620Y-93989500D01*
X150867724Y-93982099D01*
X150867724Y-93982093D01*
X150867753Y-93980000D01*
X150867471Y-93977120D01*
X150848921Y-93787927D01*
X150848920Y-93787922D01*
X150848561Y-93784260D01*
X150791714Y-93595975D01*
X150699379Y-93422318D01*
X150575072Y-93269903D01*
X150423528Y-93144535D01*
X150250520Y-93050990D01*
X150062637Y-92992830D01*
X149939766Y-92979916D01*
X149870690Y-92972656D01*
X149870689Y-92972656D01*
X149867035Y-92972272D01*
X149769101Y-92981184D01*
X149674824Y-92989764D01*
X149674823Y-92989764D01*
X149671166Y-92990097D01*
X149667641Y-92991134D01*
X149667638Y-92991135D01*
X149486019Y-93044589D01*
X149482489Y-93045628D01*
X149308192Y-93136748D01*
X149305328Y-93139051D01*
X149225575Y-93203174D01*
X149154912Y-93259988D01*
X149028489Y-93410653D01*
X148933739Y-93583004D01*
X148874269Y-93770476D01*
X148852345Y-93965930D01*
X148349220Y-93965930D01*
X148349220Y-91425930D01*
X148852345Y-91425930D01*
X148852653Y-91429598D01*
X148852653Y-91429601D01*
X148855889Y-91468138D01*
X148868803Y-91621919D01*
X148923015Y-91810979D01*
X149012916Y-91985908D01*
X149135083Y-92140044D01*
X149137877Y-92142422D01*
X149137878Y-92142423D01*
X149172691Y-92172051D01*
X149284862Y-92267516D01*
X149288063Y-92269305D01*
X149288066Y-92269307D01*
X149326656Y-92290874D01*
X149456547Y-92363467D01*
X149460044Y-92364603D01*
X149460048Y-92364605D01*
X149552615Y-92394681D01*
X149643600Y-92424244D01*
X149750984Y-92437049D01*
X149835237Y-92447096D01*
X149835239Y-92447096D01*
X149838895Y-92447532D01*
X150034994Y-92432443D01*
X150149061Y-92400595D01*
X150220883Y-92380542D01*
X150220885Y-92380541D01*
X150224428Y-92379552D01*
X150399981Y-92290874D01*
X150554966Y-92169786D01*
X150683480Y-92020901D01*
X150685299Y-92017699D01*
X150778810Y-91853091D01*
X150778812Y-91853088D01*
X150780628Y-91849890D01*
X150842710Y-91663266D01*
X150867360Y-91468138D01*
X150867753Y-91440000D01*
X150867548Y-91437907D01*
X150848921Y-91247927D01*
X150848920Y-91247922D01*
X150848561Y-91244260D01*
X150791714Y-91055975D01*
X150699379Y-90882318D01*
X150575072Y-90729903D01*
X150423528Y-90604535D01*
X150250520Y-90510990D01*
X150062637Y-90452830D01*
X149939766Y-90439916D01*
X149870690Y-90432656D01*
X149870689Y-90432656D01*
X149867035Y-90432272D01*
X149769101Y-90441184D01*
X149674824Y-90449764D01*
X149674823Y-90449764D01*
X149671166Y-90450097D01*
X149667641Y-90451134D01*
X149667638Y-90451135D01*
X149486019Y-90504589D01*
X149482489Y-90505628D01*
X149308192Y-90596748D01*
X149154912Y-90719988D01*
X149028489Y-90870653D01*
X148933739Y-91043004D01*
X148874269Y-91230476D01*
X148852345Y-91425930D01*
X148349220Y-91425930D01*
X148349220Y-89791915D01*
X148350665Y-89777244D01*
X148353010Y-89765455D01*
X148353010Y-89765454D01*
X148354455Y-89758190D01*
X148333717Y-89653933D01*
X148297709Y-89600044D01*
X148295786Y-89597166D01*
X148278776Y-89571707D01*
X148278774Y-89571705D01*
X148274661Y-89565549D01*
X148258502Y-89554752D01*
X148247107Y-89545400D01*
X147587637Y-88885930D01*
X148852345Y-88885930D01*
X148852653Y-88889598D01*
X148852653Y-88889601D01*
X148855889Y-88928138D01*
X148868803Y-89081919D01*
X148923015Y-89270979D01*
X149012916Y-89445908D01*
X149135083Y-89600044D01*
X149137877Y-89602422D01*
X149137878Y-89602423D01*
X149172691Y-89632051D01*
X149284862Y-89727516D01*
X149288063Y-89729305D01*
X149288066Y-89729307D01*
X149329625Y-89752533D01*
X149456547Y-89823467D01*
X149460044Y-89824603D01*
X149460048Y-89824605D01*
X149552615Y-89854681D01*
X149643600Y-89884244D01*
X149750984Y-89897049D01*
X149835237Y-89907096D01*
X149835239Y-89907096D01*
X149838895Y-89907532D01*
X150034994Y-89892443D01*
X150149061Y-89860595D01*
X150220883Y-89840542D01*
X150220885Y-89840541D01*
X150224428Y-89839552D01*
X150347777Y-89777244D01*
X150396697Y-89752533D01*
X150396698Y-89752532D01*
X150399981Y-89750874D01*
X150554966Y-89629786D01*
X150683480Y-89480901D01*
X150780628Y-89309890D01*
X150842710Y-89123266D01*
X150867360Y-88928138D01*
X150867753Y-88900000D01*
X150867548Y-88897907D01*
X150848921Y-88707927D01*
X150848920Y-88707922D01*
X150848561Y-88704260D01*
X150791714Y-88515975D01*
X150699379Y-88342318D01*
X150575072Y-88189903D01*
X150423528Y-88064535D01*
X150250520Y-87970990D01*
X150062637Y-87912830D01*
X149939766Y-87899916D01*
X149870690Y-87892656D01*
X149870689Y-87892656D01*
X149867035Y-87892272D01*
X149769101Y-87901184D01*
X149674824Y-87909764D01*
X149674823Y-87909764D01*
X149671166Y-87910097D01*
X149667641Y-87911134D01*
X149667638Y-87911135D01*
X149486019Y-87964589D01*
X149482489Y-87965628D01*
X149308192Y-88056748D01*
X149154912Y-88179988D01*
X149028489Y-88330653D01*
X148933739Y-88503004D01*
X148874269Y-88690476D01*
X148852345Y-88885930D01*
X147587637Y-88885930D01*
X145047638Y-86345930D01*
X148852345Y-86345930D01*
X148852653Y-86349598D01*
X148852653Y-86349601D01*
X148855889Y-86388138D01*
X148868803Y-86541919D01*
X148923015Y-86730979D01*
X149012916Y-86905908D01*
X149135083Y-87060044D01*
X149137877Y-87062422D01*
X149137878Y-87062423D01*
X149172691Y-87092051D01*
X149284862Y-87187516D01*
X149288063Y-87189305D01*
X149288066Y-87189307D01*
X149326656Y-87210874D01*
X149456547Y-87283467D01*
X149460044Y-87284603D01*
X149460048Y-87284605D01*
X149552615Y-87314681D01*
X149643600Y-87344244D01*
X149750984Y-87357049D01*
X149835237Y-87367096D01*
X149835239Y-87367096D01*
X149838895Y-87367532D01*
X150034994Y-87352443D01*
X150149061Y-87320595D01*
X150220883Y-87300542D01*
X150220885Y-87300541D01*
X150224428Y-87299552D01*
X150399981Y-87210874D01*
X150554966Y-87089786D01*
X150683480Y-86940901D01*
X150780628Y-86769890D01*
X150842710Y-86583266D01*
X150867360Y-86388138D01*
X150867753Y-86360000D01*
X150867548Y-86357907D01*
X150848921Y-86167927D01*
X150848920Y-86167922D01*
X150848561Y-86164260D01*
X150791714Y-85975975D01*
X150699379Y-85802318D01*
X150575072Y-85649903D01*
X150423528Y-85524535D01*
X150250520Y-85430990D01*
X150062637Y-85372830D01*
X149939766Y-85359916D01*
X149870690Y-85352656D01*
X149870689Y-85352656D01*
X149867035Y-85352272D01*
X149769101Y-85361184D01*
X149674824Y-85369764D01*
X149674823Y-85369764D01*
X149671166Y-85370097D01*
X149667641Y-85371134D01*
X149667638Y-85371135D01*
X149486019Y-85424589D01*
X149482489Y-85425628D01*
X149308192Y-85516748D01*
X149154912Y-85639988D01*
X149028489Y-85790653D01*
X148933739Y-85963004D01*
X148874269Y-86150476D01*
X148852345Y-86345930D01*
X145047638Y-86345930D01*
X142507638Y-83805930D01*
X148852345Y-83805930D01*
X148852653Y-83809598D01*
X148852653Y-83809601D01*
X148855889Y-83848138D01*
X148868803Y-84001919D01*
X148923015Y-84190979D01*
X149012916Y-84365908D01*
X149135083Y-84520044D01*
X149137877Y-84522422D01*
X149137878Y-84522423D01*
X149172691Y-84552051D01*
X149284862Y-84647516D01*
X149288063Y-84649305D01*
X149288066Y-84649307D01*
X149326656Y-84670874D01*
X149456547Y-84743467D01*
X149460044Y-84744603D01*
X149460048Y-84744605D01*
X149552615Y-84774681D01*
X149643600Y-84804244D01*
X149750984Y-84817049D01*
X149835237Y-84827096D01*
X149835239Y-84827096D01*
X149838895Y-84827532D01*
X150034994Y-84812443D01*
X150149061Y-84780595D01*
X150220883Y-84760542D01*
X150220885Y-84760541D01*
X150224428Y-84759552D01*
X150399981Y-84670874D01*
X150554966Y-84549786D01*
X150683480Y-84400901D01*
X150780628Y-84229890D01*
X150842710Y-84043266D01*
X150867360Y-83848138D01*
X150867753Y-83820000D01*
X150867548Y-83817907D01*
X150848921Y-83627927D01*
X150848920Y-83627922D01*
X150848561Y-83624260D01*
X150791714Y-83435975D01*
X150699379Y-83262318D01*
X150575072Y-83109903D01*
X150423528Y-82984535D01*
X150250520Y-82890990D01*
X150062637Y-82832830D01*
X149939766Y-82819916D01*
X149870690Y-82812656D01*
X149870689Y-82812656D01*
X149867035Y-82812272D01*
X149769101Y-82821184D01*
X149674824Y-82829764D01*
X149674823Y-82829764D01*
X149671166Y-82830097D01*
X149667641Y-82831134D01*
X149667638Y-82831135D01*
X149486019Y-82884589D01*
X149482489Y-82885628D01*
X149308192Y-82976748D01*
X149154912Y-83099988D01*
X149028489Y-83250653D01*
X148933739Y-83423004D01*
X148874269Y-83610476D01*
X148852345Y-83805930D01*
X142507638Y-83805930D01*
X139816618Y-81114910D01*
X139807265Y-81103514D01*
X139800584Y-81093515D01*
X139796471Y-81087359D01*
X139790314Y-81083245D01*
X139761578Y-81064045D01*
X139761576Y-81064044D01*
X139708087Y-81028303D01*
X139603830Y-81007564D01*
X139596566Y-81009009D01*
X139584772Y-81011355D01*
X139570101Y-81012800D01*
X135698099Y-81012800D01*
X135649761Y-80995207D01*
X135624041Y-80950658D01*
X135622899Y-80937600D01*
X135622899Y-80414944D01*
X135622899Y-80414943D01*
X148857100Y-80414943D01*
X148857101Y-82145056D01*
X148865972Y-82189658D01*
X148899766Y-82240234D01*
X148905923Y-82244348D01*
X148944183Y-82269913D01*
X148944184Y-82269914D01*
X148950342Y-82274028D01*
X148994943Y-82282900D01*
X149859882Y-82282900D01*
X150725056Y-82282899D01*
X150769658Y-82274028D01*
X150820234Y-82240234D01*
X150854028Y-82189658D01*
X150862900Y-82145057D01*
X150862899Y-80414944D01*
X150854028Y-80370342D01*
X150820234Y-80319766D01*
X150775818Y-80290088D01*
X150775816Y-80290086D01*
X150769658Y-80285972D01*
X150725057Y-80277100D01*
X149860118Y-80277100D01*
X148994944Y-80277101D01*
X148950342Y-80285972D01*
X148899766Y-80319766D01*
X148865972Y-80370342D01*
X148857100Y-80414943D01*
X135622899Y-80414943D01*
X135614028Y-80370342D01*
X135580234Y-80319766D01*
X135535818Y-80290088D01*
X135535816Y-80290086D01*
X135529658Y-80285972D01*
X135485057Y-80277100D01*
X134620118Y-80277100D01*
X133754944Y-80277101D01*
X133710342Y-80285972D01*
X133659766Y-80319766D01*
X133625972Y-80370342D01*
X133617100Y-80414943D01*
X133617101Y-82145056D01*
X133625972Y-82189658D01*
X133659766Y-82240234D01*
X133665923Y-82244348D01*
X133704183Y-82269913D01*
X133704184Y-82269914D01*
X133710342Y-82274028D01*
X133754943Y-82282900D01*
X134619882Y-82282900D01*
X135485056Y-82282899D01*
X135529658Y-82274028D01*
X135580234Y-82240234D01*
X135614028Y-82189658D01*
X135622900Y-82145057D01*
X135622900Y-81622400D01*
X135640493Y-81574062D01*
X135685042Y-81548342D01*
X135698100Y-81547200D01*
X139462004Y-81547200D01*
X139510342Y-81564793D01*
X139515178Y-81569226D01*
X141370378Y-83424426D01*
X141392118Y-83471046D01*
X141378804Y-83520733D01*
X141336667Y-83550238D01*
X141317204Y-83552800D01*
X135642834Y-83552800D01*
X135594496Y-83535207D01*
X135570844Y-83499336D01*
X135551714Y-83435975D01*
X135459379Y-83262318D01*
X135335072Y-83109903D01*
X135183528Y-82984535D01*
X135010520Y-82890990D01*
X134822637Y-82832830D01*
X134699766Y-82819916D01*
X134630690Y-82812656D01*
X134630689Y-82812656D01*
X134627035Y-82812272D01*
X134529101Y-82821184D01*
X134434824Y-82829764D01*
X134434823Y-82829764D01*
X134431166Y-82830097D01*
X134427641Y-82831134D01*
X134427638Y-82831135D01*
X134246019Y-82884589D01*
X134242489Y-82885628D01*
X134068192Y-82976748D01*
X133914912Y-83099988D01*
X133788489Y-83250653D01*
X133693739Y-83423004D01*
X133634269Y-83610476D01*
X133612345Y-83805930D01*
X133612653Y-83809598D01*
X133612653Y-83809601D01*
X133615889Y-83848138D01*
X133628803Y-84001919D01*
X133683015Y-84190979D01*
X133772916Y-84365908D01*
X133895083Y-84520044D01*
X133897877Y-84522422D01*
X133897878Y-84522423D01*
X133932691Y-84552051D01*
X134044862Y-84647516D01*
X134048063Y-84649305D01*
X134048066Y-84649307D01*
X134086656Y-84670874D01*
X134216547Y-84743467D01*
X134220044Y-84744603D01*
X134220048Y-84744605D01*
X134312615Y-84774681D01*
X134403600Y-84804244D01*
X134510984Y-84817049D01*
X134595237Y-84827096D01*
X134595239Y-84827096D01*
X134598895Y-84827532D01*
X134794994Y-84812443D01*
X134909061Y-84780595D01*
X134980883Y-84760542D01*
X134980885Y-84760541D01*
X134984428Y-84759552D01*
X135159981Y-84670874D01*
X135314966Y-84549786D01*
X135443480Y-84400901D01*
X135540628Y-84229890D01*
X135570976Y-84138660D01*
X135602926Y-84098350D01*
X135642330Y-84087200D01*
X141367004Y-84087200D01*
X141415342Y-84104793D01*
X141420178Y-84109226D01*
X143275378Y-85964426D01*
X143297118Y-86011046D01*
X143283804Y-86060733D01*
X143241667Y-86090238D01*
X143222204Y-86092800D01*
X135642834Y-86092800D01*
X135594496Y-86075207D01*
X135570844Y-86039336D01*
X135551714Y-85975975D01*
X135459379Y-85802318D01*
X135335072Y-85649903D01*
X135183528Y-85524535D01*
X135010520Y-85430990D01*
X134822637Y-85372830D01*
X134699766Y-85359916D01*
X134630690Y-85352656D01*
X134630689Y-85352656D01*
X134627035Y-85352272D01*
X134529101Y-85361184D01*
X134434824Y-85369764D01*
X134434823Y-85369764D01*
X134431166Y-85370097D01*
X134427641Y-85371134D01*
X134427638Y-85371135D01*
X134246019Y-85424589D01*
X134242489Y-85425628D01*
X134068192Y-85516748D01*
X133914912Y-85639988D01*
X133788489Y-85790653D01*
X133693739Y-85963004D01*
X133634269Y-86150476D01*
X133612345Y-86345930D01*
X133612653Y-86349598D01*
X133612653Y-86349601D01*
X133615889Y-86388138D01*
X133628803Y-86541919D01*
X133683015Y-86730979D01*
X133772916Y-86905908D01*
X133895083Y-87060044D01*
X133897877Y-87062422D01*
X133897878Y-87062423D01*
X133932691Y-87092051D01*
X134044862Y-87187516D01*
X134048063Y-87189305D01*
X134048066Y-87189307D01*
X134086656Y-87210874D01*
X134216547Y-87283467D01*
X134220044Y-87284603D01*
X134220048Y-87284605D01*
X134312615Y-87314681D01*
X134403600Y-87344244D01*
X134510984Y-87357049D01*
X134595237Y-87367096D01*
X134595239Y-87367096D01*
X134598895Y-87367532D01*
X134794994Y-87352443D01*
X134909061Y-87320595D01*
X134980883Y-87300542D01*
X134980885Y-87300541D01*
X134984428Y-87299552D01*
X135159981Y-87210874D01*
X135314966Y-87089786D01*
X135443480Y-86940901D01*
X135540628Y-86769890D01*
X135570976Y-86678660D01*
X135602926Y-86638350D01*
X135642330Y-86627200D01*
X143368174Y-86627200D01*
X143416512Y-86644793D01*
X143421348Y-86649226D01*
X147030774Y-90258652D01*
X147052514Y-90305272D01*
X147052800Y-90311826D01*
X147052800Y-91575692D01*
X147035207Y-91624030D01*
X146990658Y-91649750D01*
X146936699Y-91638796D01*
X146898111Y-91613785D01*
X146821912Y-91590997D01*
X146765232Y-91574045D01*
X146765229Y-91574045D01*
X146760098Y-91572510D01*
X146754743Y-91572477D01*
X146754741Y-91572477D01*
X146689524Y-91572079D01*
X146616047Y-91571630D01*
X146610895Y-91573102D01*
X146605591Y-91573829D01*
X146605255Y-91571377D01*
X146563300Y-91568399D01*
X146540784Y-91552906D01*
X143722788Y-88734910D01*
X143713435Y-88723514D01*
X143706754Y-88713515D01*
X143702641Y-88707359D01*
X143692721Y-88700731D01*
X143667748Y-88684045D01*
X143667746Y-88684044D01*
X143614257Y-88648303D01*
X143510000Y-88627564D01*
X143502736Y-88629009D01*
X143490942Y-88631355D01*
X143476271Y-88632800D01*
X135642834Y-88632800D01*
X135594496Y-88615207D01*
X135570844Y-88579336D01*
X135552776Y-88519494D01*
X135551714Y-88515975D01*
X135459379Y-88342318D01*
X135335072Y-88189903D01*
X135183528Y-88064535D01*
X135010520Y-87970990D01*
X134822637Y-87912830D01*
X134699766Y-87899916D01*
X134630690Y-87892656D01*
X134630689Y-87892656D01*
X134627035Y-87892272D01*
X134529101Y-87901184D01*
X134434824Y-87909764D01*
X134434823Y-87909764D01*
X134431166Y-87910097D01*
X134427641Y-87911134D01*
X134427638Y-87911135D01*
X134246019Y-87964589D01*
X134242489Y-87965628D01*
X134068192Y-88056748D01*
X133914912Y-88179988D01*
X133788489Y-88330653D01*
X133693739Y-88503004D01*
X133634269Y-88690476D01*
X133612345Y-88885930D01*
X132232900Y-88885930D01*
X132232900Y-79405032D01*
X132235462Y-79385569D01*
X132235732Y-79384561D01*
X132238294Y-79375000D01*
X132235732Y-79365438D01*
X132235732Y-79358419D01*
X132236375Y-79348603D01*
X132248035Y-79260038D01*
X132253116Y-79241076D01*
X132293701Y-79143095D01*
X132303517Y-79126094D01*
X132368077Y-79041958D01*
X132381958Y-79028077D01*
X132466094Y-78963517D01*
X132483095Y-78953701D01*
X132581076Y-78913116D01*
X132600038Y-78908035D01*
X132688603Y-78896375D01*
X132698419Y-78895732D01*
X132705438Y-78895732D01*
X132715000Y-78898294D01*
X132725570Y-78895462D01*
X132745032Y-78892900D01*
X151734968Y-78892900D01*
X151754430Y-78895462D01*
G37*
%TD.AperFunction*%
%TD*%
M02*
