%TF.GenerationSoftware,KiCad,Pcbnew,6.0.4+dfsg-1+b1*%
%TF.CreationDate,2022-04-30T09:27:05+08:00*%
%TF.ProjectId,gpioexp,6770696f-6578-4702-9e6b-696361645f70,c*%
%TF.SameCoordinates,Original*%
%TF.FileFunction,Soldermask,Top*%
%TF.FilePolarity,Negative*%
%FSLAX46Y46*%
G04 Gerber Fmt 4.6, Leading zero omitted, Abs format (unit mm)*
G04 Created by KiCad (PCBNEW 6.0.4+dfsg-1+b1) date 2022-04-30 09:27:05*
%MOMM*%
%LPD*%
G01*
G04 APERTURE LIST*
G04 Aperture macros list*
%AMRoundRect*
0 Rectangle with rounded corners*
0 $1 Rounding radius*
0 $2 $3 $4 $5 $6 $7 $8 $9 X,Y pos of 4 corners*
0 Add a 4 corners polygon primitive as box body*
4,1,4,$2,$3,$4,$5,$6,$7,$8,$9,$2,$3,0*
0 Add four circle primitives for the rounded corners*
1,1,$1+$1,$2,$3*
1,1,$1+$1,$4,$5*
1,1,$1+$1,$6,$7*
1,1,$1+$1,$8,$9*
0 Add four rect primitives between the rounded corners*
20,1,$1+$1,$2,$3,$4,$5,0*
20,1,$1+$1,$4,$5,$6,$7,0*
20,1,$1+$1,$6,$7,$8,$9,0*
20,1,$1+$1,$8,$9,$2,$3,0*%
G04 Aperture macros list end*
%ADD10RoundRect,0.250000X0.200000X0.275000X-0.200000X0.275000X-0.200000X-0.275000X0.200000X-0.275000X0*%
%ADD11RoundRect,0.275000X0.225000X0.250000X-0.225000X0.250000X-0.225000X-0.250000X0.225000X-0.250000X0*%
%ADD12RoundRect,0.112500X0.350000X0.062500X-0.350000X0.062500X-0.350000X-0.062500X0.350000X-0.062500X0*%
%ADD13RoundRect,0.112500X0.062500X0.350000X-0.062500X0.350000X-0.062500X-0.350000X0.062500X-0.350000X0*%
%ADD14RoundRect,0.050000X1.300000X1.300000X-1.300000X1.300000X-1.300000X-1.300000X1.300000X-1.300000X0*%
%ADD15RoundRect,0.050000X0.850000X0.850000X-0.850000X0.850000X-0.850000X-0.850000X0.850000X-0.850000X0*%
%ADD16O,1.800000X1.800000*%
G04 APERTURE END LIST*
D10*
%TO.C,R1*%
X141160000Y-100965000D03*
X139510000Y-100965000D03*
%TD*%
%TO.C,R2*%
X141160000Y-102870000D03*
X139510000Y-102870000D03*
%TD*%
D11*
%TO.C,C2*%
X141110000Y-96520000D03*
X139560000Y-96520000D03*
%TD*%
%TO.C,C1*%
X141110000Y-104775000D03*
X139560000Y-104775000D03*
%TD*%
D12*
%TO.C,U1*%
X144177500Y-93325000D03*
X144177500Y-92825000D03*
X144177500Y-92325000D03*
X144177500Y-91825000D03*
X144177500Y-91325000D03*
X144177500Y-90825000D03*
D13*
X143490000Y-90137500D03*
X142990000Y-90137500D03*
X142490000Y-90137500D03*
X141990000Y-90137500D03*
X141490000Y-90137500D03*
X140990000Y-90137500D03*
D12*
X140302500Y-90825000D03*
X140302500Y-91325000D03*
X140302500Y-91825000D03*
X140302500Y-92325000D03*
X140302500Y-92825000D03*
X140302500Y-93325000D03*
D13*
X140990000Y-94012500D03*
X141490000Y-94012500D03*
X141990000Y-94012500D03*
X142490000Y-94012500D03*
X142990000Y-94012500D03*
X143490000Y-94012500D03*
D14*
X142240000Y-92075000D03*
%TD*%
D15*
%TO.C,J1*%
X134620000Y-81280000D03*
D16*
X134620000Y-83820000D03*
X134620000Y-86360000D03*
X134620000Y-88900000D03*
X134620000Y-91440000D03*
X134620000Y-93980000D03*
X134620000Y-96520000D03*
X134620000Y-99060000D03*
X134620000Y-101600000D03*
X134620000Y-104140000D03*
X134620000Y-106680000D03*
X134620000Y-109220000D03*
%TD*%
D15*
%TO.C,J2*%
X149860000Y-81280000D03*
D16*
X149860000Y-83820000D03*
X149860000Y-86360000D03*
X149860000Y-88900000D03*
X149860000Y-91440000D03*
X149860000Y-93980000D03*
X149860000Y-96520000D03*
X149860000Y-99060000D03*
X149860000Y-101600000D03*
X149860000Y-104140000D03*
X149860000Y-106680000D03*
X149860000Y-109220000D03*
%TD*%
M02*
