%TF.GenerationSoftware,KiCad,Pcbnew,6.0.4+dfsg-1+b1*%
%TF.CreationDate,2022-04-30T09:27:05+08:00*%
%TF.ProjectId,gpioexp,6770696f-6578-4702-9e6b-696361645f70,c*%
%TF.SameCoordinates,Original*%
%TF.FileFunction,Legend,Top*%
%TF.FilePolarity,Positive*%
%FSLAX46Y46*%
G04 Gerber Fmt 4.6, Leading zero omitted, Abs format (unit mm)*
G04 Created by KiCad (PCBNEW 6.0.4+dfsg-1+b1) date 2022-04-30 09:27:05*
%MOMM*%
%LPD*%
G01*
G04 APERTURE LIST*
%ADD10C,0.150000*%
%ADD11C,0.120000*%
G04 APERTURE END LIST*
D10*
X136225595Y-84272380D02*
X136225595Y-83272380D01*
X136606547Y-83272380D01*
X136701785Y-83320000D01*
X136749404Y-83367619D01*
X136797023Y-83462857D01*
X136797023Y-83605714D01*
X136749404Y-83700952D01*
X136701785Y-83748571D01*
X136606547Y-83796190D01*
X136225595Y-83796190D01*
X137749404Y-84272380D02*
X137177976Y-84272380D01*
X137463690Y-84272380D02*
X137463690Y-83272380D01*
X137368452Y-83415238D01*
X137273214Y-83510476D01*
X137177976Y-83558095D01*
X138701785Y-84272380D02*
X138130357Y-84272380D01*
X138416071Y-84272380D02*
X138416071Y-83272380D01*
X138320833Y-83415238D01*
X138225595Y-83510476D01*
X138130357Y-83558095D01*
X136225595Y-86812380D02*
X136225595Y-85812380D01*
X136606547Y-85812380D01*
X136701785Y-85860000D01*
X136749404Y-85907619D01*
X136797023Y-86002857D01*
X136797023Y-86145714D01*
X136749404Y-86240952D01*
X136701785Y-86288571D01*
X136606547Y-86336190D01*
X136225595Y-86336190D01*
X137749404Y-86812380D02*
X137177976Y-86812380D01*
X137463690Y-86812380D02*
X137463690Y-85812380D01*
X137368452Y-85955238D01*
X137273214Y-86050476D01*
X137177976Y-86098095D01*
X138130357Y-85907619D02*
X138177976Y-85860000D01*
X138273214Y-85812380D01*
X138511309Y-85812380D01*
X138606547Y-85860000D01*
X138654166Y-85907619D01*
X138701785Y-86002857D01*
X138701785Y-86098095D01*
X138654166Y-86240952D01*
X138082738Y-86812380D01*
X138701785Y-86812380D01*
X136225595Y-89352380D02*
X136225595Y-88352380D01*
X136606547Y-88352380D01*
X136701785Y-88400000D01*
X136749404Y-88447619D01*
X136797023Y-88542857D01*
X136797023Y-88685714D01*
X136749404Y-88780952D01*
X136701785Y-88828571D01*
X136606547Y-88876190D01*
X136225595Y-88876190D01*
X137749404Y-89352380D02*
X137177976Y-89352380D01*
X137463690Y-89352380D02*
X137463690Y-88352380D01*
X137368452Y-88495238D01*
X137273214Y-88590476D01*
X137177976Y-88638095D01*
X138082738Y-88352380D02*
X138701785Y-88352380D01*
X138368452Y-88733333D01*
X138511309Y-88733333D01*
X138606547Y-88780952D01*
X138654166Y-88828571D01*
X138701785Y-88923809D01*
X138701785Y-89161904D01*
X138654166Y-89257142D01*
X138606547Y-89304761D01*
X138511309Y-89352380D01*
X138225595Y-89352380D01*
X138130357Y-89304761D01*
X138082738Y-89257142D01*
X136225595Y-91892380D02*
X136225595Y-90892380D01*
X136606547Y-90892380D01*
X136701785Y-90940000D01*
X136749404Y-90987619D01*
X136797023Y-91082857D01*
X136797023Y-91225714D01*
X136749404Y-91320952D01*
X136701785Y-91368571D01*
X136606547Y-91416190D01*
X136225595Y-91416190D01*
X137749404Y-91892380D02*
X137177976Y-91892380D01*
X137463690Y-91892380D02*
X137463690Y-90892380D01*
X137368452Y-91035238D01*
X137273214Y-91130476D01*
X137177976Y-91178095D01*
X138606547Y-91225714D02*
X138606547Y-91892380D01*
X138368452Y-90844761D02*
X138130357Y-91559047D01*
X138749404Y-91559047D01*
X136225595Y-94432380D02*
X136225595Y-93432380D01*
X136606547Y-93432380D01*
X136701785Y-93480000D01*
X136749404Y-93527619D01*
X136797023Y-93622857D01*
X136797023Y-93765714D01*
X136749404Y-93860952D01*
X136701785Y-93908571D01*
X136606547Y-93956190D01*
X136225595Y-93956190D01*
X137749404Y-94432380D02*
X137177976Y-94432380D01*
X137463690Y-94432380D02*
X137463690Y-93432380D01*
X137368452Y-93575238D01*
X137273214Y-93670476D01*
X137177976Y-93718095D01*
X138654166Y-93432380D02*
X138177976Y-93432380D01*
X138130357Y-93908571D01*
X138177976Y-93860952D01*
X138273214Y-93813333D01*
X138511309Y-93813333D01*
X138606547Y-93860952D01*
X138654166Y-93908571D01*
X138701785Y-94003809D01*
X138701785Y-94241904D01*
X138654166Y-94337142D01*
X138606547Y-94384761D01*
X138511309Y-94432380D01*
X138273214Y-94432380D01*
X138177976Y-94384761D01*
X138130357Y-94337142D01*
X136225595Y-96972380D02*
X136225595Y-95972380D01*
X136606547Y-95972380D01*
X136701785Y-96020000D01*
X136749404Y-96067619D01*
X136797023Y-96162857D01*
X136797023Y-96305714D01*
X136749404Y-96400952D01*
X136701785Y-96448571D01*
X136606547Y-96496190D01*
X136225595Y-96496190D01*
X137749404Y-96972380D02*
X137177976Y-96972380D01*
X137463690Y-96972380D02*
X137463690Y-95972380D01*
X137368452Y-96115238D01*
X137273214Y-96210476D01*
X137177976Y-96258095D01*
X138606547Y-95972380D02*
X138416071Y-95972380D01*
X138320833Y-96020000D01*
X138273214Y-96067619D01*
X138177976Y-96210476D01*
X138130357Y-96400952D01*
X138130357Y-96781904D01*
X138177976Y-96877142D01*
X138225595Y-96924761D01*
X138320833Y-96972380D01*
X138511309Y-96972380D01*
X138606547Y-96924761D01*
X138654166Y-96877142D01*
X138701785Y-96781904D01*
X138701785Y-96543809D01*
X138654166Y-96448571D01*
X138606547Y-96400952D01*
X138511309Y-96353333D01*
X138320833Y-96353333D01*
X138225595Y-96400952D01*
X138177976Y-96448571D01*
X138130357Y-96543809D01*
X136225595Y-99512380D02*
X136225595Y-98512380D01*
X136606547Y-98512380D01*
X136701785Y-98560000D01*
X136749404Y-98607619D01*
X136797023Y-98702857D01*
X136797023Y-98845714D01*
X136749404Y-98940952D01*
X136701785Y-98988571D01*
X136606547Y-99036190D01*
X136225595Y-99036190D01*
X137749404Y-99512380D02*
X137177976Y-99512380D01*
X137463690Y-99512380D02*
X137463690Y-98512380D01*
X137368452Y-98655238D01*
X137273214Y-98750476D01*
X137177976Y-98798095D01*
X138082738Y-98512380D02*
X138749404Y-98512380D01*
X138320833Y-99512380D01*
X136177976Y-102004761D02*
X136320833Y-102052380D01*
X136558928Y-102052380D01*
X136654166Y-102004761D01*
X136701785Y-101957142D01*
X136749404Y-101861904D01*
X136749404Y-101766666D01*
X136701785Y-101671428D01*
X136654166Y-101623809D01*
X136558928Y-101576190D01*
X136368452Y-101528571D01*
X136273214Y-101480952D01*
X136225595Y-101433333D01*
X136177976Y-101338095D01*
X136177976Y-101242857D01*
X136225595Y-101147619D01*
X136273214Y-101100000D01*
X136368452Y-101052380D01*
X136606547Y-101052380D01*
X136749404Y-101100000D01*
X137749404Y-101957142D02*
X137701785Y-102004761D01*
X137558928Y-102052380D01*
X137463690Y-102052380D01*
X137320833Y-102004761D01*
X137225595Y-101909523D01*
X137177976Y-101814285D01*
X137130357Y-101623809D01*
X137130357Y-101480952D01*
X137177976Y-101290476D01*
X137225595Y-101195238D01*
X137320833Y-101100000D01*
X137463690Y-101052380D01*
X137558928Y-101052380D01*
X137701785Y-101100000D01*
X137749404Y-101147619D01*
X138654166Y-102052380D02*
X138177976Y-102052380D01*
X138177976Y-101052380D01*
X136177976Y-104544761D02*
X136320833Y-104592380D01*
X136558928Y-104592380D01*
X136654166Y-104544761D01*
X136701785Y-104497142D01*
X136749404Y-104401904D01*
X136749404Y-104306666D01*
X136701785Y-104211428D01*
X136654166Y-104163809D01*
X136558928Y-104116190D01*
X136368452Y-104068571D01*
X136273214Y-104020952D01*
X136225595Y-103973333D01*
X136177976Y-103878095D01*
X136177976Y-103782857D01*
X136225595Y-103687619D01*
X136273214Y-103640000D01*
X136368452Y-103592380D01*
X136606547Y-103592380D01*
X136749404Y-103640000D01*
X137177976Y-104592380D02*
X137177976Y-103592380D01*
X137416071Y-103592380D01*
X137558928Y-103640000D01*
X137654166Y-103735238D01*
X137701785Y-103830476D01*
X137749404Y-104020952D01*
X137749404Y-104163809D01*
X137701785Y-104354285D01*
X137654166Y-104449523D01*
X137558928Y-104544761D01*
X137416071Y-104592380D01*
X137177976Y-104592380D01*
X138130357Y-104306666D02*
X138606547Y-104306666D01*
X138035119Y-104592380D02*
X138368452Y-103592380D01*
X138701785Y-104592380D01*
X136082738Y-106132380D02*
X136416071Y-107132380D01*
X136749404Y-106132380D01*
X137654166Y-107037142D02*
X137606547Y-107084761D01*
X137463690Y-107132380D01*
X137368452Y-107132380D01*
X137225595Y-107084761D01*
X137130357Y-106989523D01*
X137082738Y-106894285D01*
X137035119Y-106703809D01*
X137035119Y-106560952D01*
X137082738Y-106370476D01*
X137130357Y-106275238D01*
X137225595Y-106180000D01*
X137368452Y-106132380D01*
X137463690Y-106132380D01*
X137606547Y-106180000D01*
X137654166Y-106227619D01*
X138654166Y-107037142D02*
X138606547Y-107084761D01*
X138463690Y-107132380D01*
X138368452Y-107132380D01*
X138225595Y-107084761D01*
X138130357Y-106989523D01*
X138082738Y-106894285D01*
X138035119Y-106703809D01*
X138035119Y-106560952D01*
X138082738Y-106370476D01*
X138130357Y-106275238D01*
X138225595Y-106180000D01*
X138368452Y-106132380D01*
X138463690Y-106132380D01*
X138606547Y-106180000D01*
X138654166Y-106227619D01*
X136749404Y-108720000D02*
X136654166Y-108672380D01*
X136511309Y-108672380D01*
X136368452Y-108720000D01*
X136273214Y-108815238D01*
X136225595Y-108910476D01*
X136177976Y-109100952D01*
X136177976Y-109243809D01*
X136225595Y-109434285D01*
X136273214Y-109529523D01*
X136368452Y-109624761D01*
X136511309Y-109672380D01*
X136606547Y-109672380D01*
X136749404Y-109624761D01*
X136797023Y-109577142D01*
X136797023Y-109243809D01*
X136606547Y-109243809D01*
X137225595Y-109672380D02*
X137225595Y-108672380D01*
X137797023Y-109672380D01*
X137797023Y-108672380D01*
X138273214Y-109672380D02*
X138273214Y-108672380D01*
X138511309Y-108672380D01*
X138654166Y-108720000D01*
X138749404Y-108815238D01*
X138797023Y-108910476D01*
X138844642Y-109100952D01*
X138844642Y-109243809D01*
X138797023Y-109434285D01*
X138749404Y-109529523D01*
X138654166Y-109624761D01*
X138511309Y-109672380D01*
X138273214Y-109672380D01*
X146206785Y-108720000D02*
X146111547Y-108672380D01*
X145968690Y-108672380D01*
X145825833Y-108720000D01*
X145730595Y-108815238D01*
X145682976Y-108910476D01*
X145635357Y-109100952D01*
X145635357Y-109243809D01*
X145682976Y-109434285D01*
X145730595Y-109529523D01*
X145825833Y-109624761D01*
X145968690Y-109672380D01*
X146063928Y-109672380D01*
X146206785Y-109624761D01*
X146254404Y-109577142D01*
X146254404Y-109243809D01*
X146063928Y-109243809D01*
X146682976Y-109672380D02*
X146682976Y-108672380D01*
X147254404Y-109672380D01*
X147254404Y-108672380D01*
X147730595Y-109672380D02*
X147730595Y-108672380D01*
X147968690Y-108672380D01*
X148111547Y-108720000D01*
X148206785Y-108815238D01*
X148254404Y-108910476D01*
X148302023Y-109100952D01*
X148302023Y-109243809D01*
X148254404Y-109434285D01*
X148206785Y-109529523D01*
X148111547Y-109624761D01*
X147968690Y-109672380D01*
X147730595Y-109672380D01*
X145730595Y-106132380D02*
X146063928Y-107132380D01*
X146397261Y-106132380D01*
X147302023Y-107037142D02*
X147254404Y-107084761D01*
X147111547Y-107132380D01*
X147016309Y-107132380D01*
X146873452Y-107084761D01*
X146778214Y-106989523D01*
X146730595Y-106894285D01*
X146682976Y-106703809D01*
X146682976Y-106560952D01*
X146730595Y-106370476D01*
X146778214Y-106275238D01*
X146873452Y-106180000D01*
X147016309Y-106132380D01*
X147111547Y-106132380D01*
X147254404Y-106180000D01*
X147302023Y-106227619D01*
X148302023Y-107037142D02*
X148254404Y-107084761D01*
X148111547Y-107132380D01*
X148016309Y-107132380D01*
X147873452Y-107084761D01*
X147778214Y-106989523D01*
X147730595Y-106894285D01*
X147682976Y-106703809D01*
X147682976Y-106560952D01*
X147730595Y-106370476D01*
X147778214Y-106275238D01*
X147873452Y-106180000D01*
X148016309Y-106132380D01*
X148111547Y-106132380D01*
X148254404Y-106180000D01*
X148302023Y-106227619D01*
X146444880Y-104592380D02*
X146444880Y-103592380D01*
X146921071Y-104592380D02*
X146921071Y-103592380D01*
X147492500Y-104592380D01*
X147492500Y-103592380D01*
X147825833Y-103592380D02*
X148397261Y-103592380D01*
X148111547Y-104592380D02*
X148111547Y-103592380D01*
X145778214Y-100770000D02*
X146778214Y-100770000D01*
X146587738Y-102052380D02*
X146254404Y-101576190D01*
X146016309Y-102052380D02*
X146016309Y-101052380D01*
X146397261Y-101052380D01*
X146492500Y-101100000D01*
X146540119Y-101147619D01*
X146587738Y-101242857D01*
X146587738Y-101385714D01*
X146540119Y-101480952D01*
X146492500Y-101528571D01*
X146397261Y-101576190D01*
X146016309Y-101576190D01*
X146778214Y-100770000D02*
X147730595Y-100770000D01*
X146968690Y-102004761D02*
X147111547Y-102052380D01*
X147349642Y-102052380D01*
X147444880Y-102004761D01*
X147492500Y-101957142D01*
X147540119Y-101861904D01*
X147540119Y-101766666D01*
X147492500Y-101671428D01*
X147444880Y-101623809D01*
X147349642Y-101576190D01*
X147159166Y-101528571D01*
X147063928Y-101480952D01*
X147016309Y-101433333D01*
X146968690Y-101338095D01*
X146968690Y-101242857D01*
X147016309Y-101147619D01*
X147063928Y-101100000D01*
X147159166Y-101052380D01*
X147397261Y-101052380D01*
X147540119Y-101100000D01*
X147730595Y-100770000D02*
X148492500Y-100770000D01*
X147825833Y-101052380D02*
X148397261Y-101052380D01*
X148111547Y-102052380D02*
X148111547Y-101052380D01*
X145825833Y-99512380D02*
X145825833Y-98512380D01*
X146206785Y-98512380D01*
X146302023Y-98560000D01*
X146349642Y-98607619D01*
X146397261Y-98702857D01*
X146397261Y-98845714D01*
X146349642Y-98940952D01*
X146302023Y-98988571D01*
X146206785Y-99036190D01*
X145825833Y-99036190D01*
X147016309Y-98512380D02*
X147111547Y-98512380D01*
X147206785Y-98560000D01*
X147254404Y-98607619D01*
X147302023Y-98702857D01*
X147349642Y-98893333D01*
X147349642Y-99131428D01*
X147302023Y-99321904D01*
X147254404Y-99417142D01*
X147206785Y-99464761D01*
X147111547Y-99512380D01*
X147016309Y-99512380D01*
X146921071Y-99464761D01*
X146873452Y-99417142D01*
X146825833Y-99321904D01*
X146778214Y-99131428D01*
X146778214Y-98893333D01*
X146825833Y-98702857D01*
X146873452Y-98607619D01*
X146921071Y-98560000D01*
X147016309Y-98512380D01*
X147968690Y-98512380D02*
X148063928Y-98512380D01*
X148159166Y-98560000D01*
X148206785Y-98607619D01*
X148254404Y-98702857D01*
X148302023Y-98893333D01*
X148302023Y-99131428D01*
X148254404Y-99321904D01*
X148206785Y-99417142D01*
X148159166Y-99464761D01*
X148063928Y-99512380D01*
X147968690Y-99512380D01*
X147873452Y-99464761D01*
X147825833Y-99417142D01*
X147778214Y-99321904D01*
X147730595Y-99131428D01*
X147730595Y-98893333D01*
X147778214Y-98702857D01*
X147825833Y-98607619D01*
X147873452Y-98560000D01*
X147968690Y-98512380D01*
X145825833Y-96972380D02*
X145825833Y-95972380D01*
X146206785Y-95972380D01*
X146302023Y-96020000D01*
X146349642Y-96067619D01*
X146397261Y-96162857D01*
X146397261Y-96305714D01*
X146349642Y-96400952D01*
X146302023Y-96448571D01*
X146206785Y-96496190D01*
X145825833Y-96496190D01*
X147016309Y-95972380D02*
X147111547Y-95972380D01*
X147206785Y-96020000D01*
X147254404Y-96067619D01*
X147302023Y-96162857D01*
X147349642Y-96353333D01*
X147349642Y-96591428D01*
X147302023Y-96781904D01*
X147254404Y-96877142D01*
X147206785Y-96924761D01*
X147111547Y-96972380D01*
X147016309Y-96972380D01*
X146921071Y-96924761D01*
X146873452Y-96877142D01*
X146825833Y-96781904D01*
X146778214Y-96591428D01*
X146778214Y-96353333D01*
X146825833Y-96162857D01*
X146873452Y-96067619D01*
X146921071Y-96020000D01*
X147016309Y-95972380D01*
X148302023Y-96972380D02*
X147730595Y-96972380D01*
X148016309Y-96972380D02*
X148016309Y-95972380D01*
X147921071Y-96115238D01*
X147825833Y-96210476D01*
X147730595Y-96258095D01*
X145825833Y-94432380D02*
X145825833Y-93432380D01*
X146206785Y-93432380D01*
X146302023Y-93480000D01*
X146349642Y-93527619D01*
X146397261Y-93622857D01*
X146397261Y-93765714D01*
X146349642Y-93860952D01*
X146302023Y-93908571D01*
X146206785Y-93956190D01*
X145825833Y-93956190D01*
X147016309Y-93432380D02*
X147111547Y-93432380D01*
X147206785Y-93480000D01*
X147254404Y-93527619D01*
X147302023Y-93622857D01*
X147349642Y-93813333D01*
X147349642Y-94051428D01*
X147302023Y-94241904D01*
X147254404Y-94337142D01*
X147206785Y-94384761D01*
X147111547Y-94432380D01*
X147016309Y-94432380D01*
X146921071Y-94384761D01*
X146873452Y-94337142D01*
X146825833Y-94241904D01*
X146778214Y-94051428D01*
X146778214Y-93813333D01*
X146825833Y-93622857D01*
X146873452Y-93527619D01*
X146921071Y-93480000D01*
X147016309Y-93432380D01*
X147730595Y-93527619D02*
X147778214Y-93480000D01*
X147873452Y-93432380D01*
X148111547Y-93432380D01*
X148206785Y-93480000D01*
X148254404Y-93527619D01*
X148302023Y-93622857D01*
X148302023Y-93718095D01*
X148254404Y-93860952D01*
X147682976Y-94432380D01*
X148302023Y-94432380D01*
X145825833Y-91892380D02*
X145825833Y-90892380D01*
X146206785Y-90892380D01*
X146302023Y-90940000D01*
X146349642Y-90987619D01*
X146397261Y-91082857D01*
X146397261Y-91225714D01*
X146349642Y-91320952D01*
X146302023Y-91368571D01*
X146206785Y-91416190D01*
X145825833Y-91416190D01*
X147016309Y-90892380D02*
X147111547Y-90892380D01*
X147206785Y-90940000D01*
X147254404Y-90987619D01*
X147302023Y-91082857D01*
X147349642Y-91273333D01*
X147349642Y-91511428D01*
X147302023Y-91701904D01*
X147254404Y-91797142D01*
X147206785Y-91844761D01*
X147111547Y-91892380D01*
X147016309Y-91892380D01*
X146921071Y-91844761D01*
X146873452Y-91797142D01*
X146825833Y-91701904D01*
X146778214Y-91511428D01*
X146778214Y-91273333D01*
X146825833Y-91082857D01*
X146873452Y-90987619D01*
X146921071Y-90940000D01*
X147016309Y-90892380D01*
X147682976Y-90892380D02*
X148302023Y-90892380D01*
X147968690Y-91273333D01*
X148111547Y-91273333D01*
X148206785Y-91320952D01*
X148254404Y-91368571D01*
X148302023Y-91463809D01*
X148302023Y-91701904D01*
X148254404Y-91797142D01*
X148206785Y-91844761D01*
X148111547Y-91892380D01*
X147825833Y-91892380D01*
X147730595Y-91844761D01*
X147682976Y-91797142D01*
X145825833Y-89352380D02*
X145825833Y-88352380D01*
X146206785Y-88352380D01*
X146302023Y-88400000D01*
X146349642Y-88447619D01*
X146397261Y-88542857D01*
X146397261Y-88685714D01*
X146349642Y-88780952D01*
X146302023Y-88828571D01*
X146206785Y-88876190D01*
X145825833Y-88876190D01*
X147016309Y-88352380D02*
X147111547Y-88352380D01*
X147206785Y-88400000D01*
X147254404Y-88447619D01*
X147302023Y-88542857D01*
X147349642Y-88733333D01*
X147349642Y-88971428D01*
X147302023Y-89161904D01*
X147254404Y-89257142D01*
X147206785Y-89304761D01*
X147111547Y-89352380D01*
X147016309Y-89352380D01*
X146921071Y-89304761D01*
X146873452Y-89257142D01*
X146825833Y-89161904D01*
X146778214Y-88971428D01*
X146778214Y-88733333D01*
X146825833Y-88542857D01*
X146873452Y-88447619D01*
X146921071Y-88400000D01*
X147016309Y-88352380D01*
X148206785Y-88685714D02*
X148206785Y-89352380D01*
X147968690Y-88304761D02*
X147730595Y-89019047D01*
X148349642Y-89019047D01*
X145825833Y-86812380D02*
X145825833Y-85812380D01*
X146206785Y-85812380D01*
X146302023Y-85860000D01*
X146349642Y-85907619D01*
X146397261Y-86002857D01*
X146397261Y-86145714D01*
X146349642Y-86240952D01*
X146302023Y-86288571D01*
X146206785Y-86336190D01*
X145825833Y-86336190D01*
X147016309Y-85812380D02*
X147111547Y-85812380D01*
X147206785Y-85860000D01*
X147254404Y-85907619D01*
X147302023Y-86002857D01*
X147349642Y-86193333D01*
X147349642Y-86431428D01*
X147302023Y-86621904D01*
X147254404Y-86717142D01*
X147206785Y-86764761D01*
X147111547Y-86812380D01*
X147016309Y-86812380D01*
X146921071Y-86764761D01*
X146873452Y-86717142D01*
X146825833Y-86621904D01*
X146778214Y-86431428D01*
X146778214Y-86193333D01*
X146825833Y-86002857D01*
X146873452Y-85907619D01*
X146921071Y-85860000D01*
X147016309Y-85812380D01*
X148254404Y-85812380D02*
X147778214Y-85812380D01*
X147730595Y-86288571D01*
X147778214Y-86240952D01*
X147873452Y-86193333D01*
X148111547Y-86193333D01*
X148206785Y-86240952D01*
X148254404Y-86288571D01*
X148302023Y-86383809D01*
X148302023Y-86621904D01*
X148254404Y-86717142D01*
X148206785Y-86764761D01*
X148111547Y-86812380D01*
X147873452Y-86812380D01*
X147778214Y-86764761D01*
X147730595Y-86717142D01*
X145825833Y-84272380D02*
X145825833Y-83272380D01*
X146206785Y-83272380D01*
X146302023Y-83320000D01*
X146349642Y-83367619D01*
X146397261Y-83462857D01*
X146397261Y-83605714D01*
X146349642Y-83700952D01*
X146302023Y-83748571D01*
X146206785Y-83796190D01*
X145825833Y-83796190D01*
X147016309Y-83272380D02*
X147111547Y-83272380D01*
X147206785Y-83320000D01*
X147254404Y-83367619D01*
X147302023Y-83462857D01*
X147349642Y-83653333D01*
X147349642Y-83891428D01*
X147302023Y-84081904D01*
X147254404Y-84177142D01*
X147206785Y-84224761D01*
X147111547Y-84272380D01*
X147016309Y-84272380D01*
X146921071Y-84224761D01*
X146873452Y-84177142D01*
X146825833Y-84081904D01*
X146778214Y-83891428D01*
X146778214Y-83653333D01*
X146825833Y-83462857D01*
X146873452Y-83367619D01*
X146921071Y-83320000D01*
X147016309Y-83272380D01*
X148206785Y-83272380D02*
X148016309Y-83272380D01*
X147921071Y-83320000D01*
X147873452Y-83367619D01*
X147778214Y-83510476D01*
X147730595Y-83700952D01*
X147730595Y-84081904D01*
X147778214Y-84177142D01*
X147825833Y-84224761D01*
X147921071Y-84272380D01*
X148111547Y-84272380D01*
X148206785Y-84224761D01*
X148254404Y-84177142D01*
X148302023Y-84081904D01*
X148302023Y-83843809D01*
X148254404Y-83748571D01*
X148206785Y-83700952D01*
X148111547Y-83653333D01*
X147921071Y-83653333D01*
X147825833Y-83700952D01*
X147778214Y-83748571D01*
X147730595Y-83843809D01*
X145825833Y-81732380D02*
X145825833Y-80732380D01*
X146206785Y-80732380D01*
X146302023Y-80780000D01*
X146349642Y-80827619D01*
X146397261Y-80922857D01*
X146397261Y-81065714D01*
X146349642Y-81160952D01*
X146302023Y-81208571D01*
X146206785Y-81256190D01*
X145825833Y-81256190D01*
X147016309Y-80732380D02*
X147111547Y-80732380D01*
X147206785Y-80780000D01*
X147254404Y-80827619D01*
X147302023Y-80922857D01*
X147349642Y-81113333D01*
X147349642Y-81351428D01*
X147302023Y-81541904D01*
X147254404Y-81637142D01*
X147206785Y-81684761D01*
X147111547Y-81732380D01*
X147016309Y-81732380D01*
X146921071Y-81684761D01*
X146873452Y-81637142D01*
X146825833Y-81541904D01*
X146778214Y-81351428D01*
X146778214Y-81113333D01*
X146825833Y-80922857D01*
X146873452Y-80827619D01*
X146921071Y-80780000D01*
X147016309Y-80732380D01*
X147682976Y-80732380D02*
X148349642Y-80732380D01*
X147921071Y-81732380D01*
X143683333Y-80297976D02*
X143683333Y-80774166D01*
X143397619Y-80202738D02*
X144397619Y-80536071D01*
X143397619Y-80869404D01*
X144397619Y-81107500D02*
X143397619Y-81345595D01*
X144111904Y-81536071D01*
X143397619Y-81726547D01*
X144397619Y-81964642D01*
X143397619Y-82393214D02*
X143397619Y-82583690D01*
X143445238Y-82678928D01*
X143492857Y-82726547D01*
X143635714Y-82821785D01*
X143826190Y-82869404D01*
X144207142Y-82869404D01*
X144302380Y-82821785D01*
X144350000Y-82774166D01*
X144397619Y-82678928D01*
X144397619Y-82488452D01*
X144350000Y-82393214D01*
X144302380Y-82345595D01*
X144207142Y-82297976D01*
X143969047Y-82297976D01*
X143873809Y-82345595D01*
X143826190Y-82393214D01*
X143778571Y-82488452D01*
X143778571Y-82678928D01*
X143826190Y-82774166D01*
X143873809Y-82821785D01*
X143969047Y-82869404D01*
X144397619Y-83774166D02*
X144397619Y-83297976D01*
X143921428Y-83250357D01*
X143969047Y-83297976D01*
X144016666Y-83393214D01*
X144016666Y-83631309D01*
X143969047Y-83726547D01*
X143921428Y-83774166D01*
X143826190Y-83821785D01*
X143588095Y-83821785D01*
X143492857Y-83774166D01*
X143445238Y-83726547D01*
X143397619Y-83631309D01*
X143397619Y-83393214D01*
X143445238Y-83297976D01*
X143492857Y-83250357D01*
X144302380Y-84202738D02*
X144350000Y-84250357D01*
X144397619Y-84345595D01*
X144397619Y-84583690D01*
X144350000Y-84678928D01*
X144302380Y-84726547D01*
X144207142Y-84774166D01*
X144111904Y-84774166D01*
X143969047Y-84726547D01*
X143397619Y-84155119D01*
X143397619Y-84774166D01*
X144397619Y-85107500D02*
X144397619Y-85726547D01*
X144016666Y-85393214D01*
X144016666Y-85536071D01*
X143969047Y-85631309D01*
X143921428Y-85678928D01*
X143826190Y-85726547D01*
X143588095Y-85726547D01*
X143492857Y-85678928D01*
X143445238Y-85631309D01*
X143397619Y-85536071D01*
X143397619Y-85250357D01*
X143445238Y-85155119D01*
X143492857Y-85107500D01*
X143921428Y-86488452D02*
X143873809Y-86631309D01*
X143826190Y-86678928D01*
X143730952Y-86726547D01*
X143588095Y-86726547D01*
X143492857Y-86678928D01*
X143445238Y-86631309D01*
X143397619Y-86536071D01*
X143397619Y-86155119D01*
X144397619Y-86155119D01*
X144397619Y-86488452D01*
X144350000Y-86583690D01*
X144302380Y-86631309D01*
X144207142Y-86678928D01*
X144111904Y-86678928D01*
X144016666Y-86631309D01*
X143969047Y-86583690D01*
X143921428Y-86488452D01*
X143921428Y-86155119D01*
X142311428Y-80678928D02*
X142263809Y-80821785D01*
X142216190Y-80869404D01*
X142120952Y-80917023D01*
X141978095Y-80917023D01*
X141882857Y-80869404D01*
X141835238Y-80821785D01*
X141787619Y-80726547D01*
X141787619Y-80345595D01*
X142787619Y-80345595D01*
X142787619Y-80678928D01*
X142740000Y-80774166D01*
X142692380Y-80821785D01*
X142597142Y-80869404D01*
X142501904Y-80869404D01*
X142406666Y-80821785D01*
X142359047Y-80774166D01*
X142311428Y-80678928D01*
X142311428Y-80345595D01*
X141787619Y-81345595D02*
X142454285Y-81345595D01*
X142263809Y-81345595D02*
X142359047Y-81393214D01*
X142406666Y-81440833D01*
X142454285Y-81536071D01*
X142454285Y-81631309D01*
X141835238Y-82345595D02*
X141787619Y-82250357D01*
X141787619Y-82059880D01*
X141835238Y-81964642D01*
X141930476Y-81917023D01*
X142311428Y-81917023D01*
X142406666Y-81964642D01*
X142454285Y-82059880D01*
X142454285Y-82250357D01*
X142406666Y-82345595D01*
X142311428Y-82393214D01*
X142216190Y-82393214D01*
X142120952Y-81917023D01*
X141787619Y-83250357D02*
X142311428Y-83250357D01*
X142406666Y-83202738D01*
X142454285Y-83107500D01*
X142454285Y-82917023D01*
X142406666Y-82821785D01*
X141835238Y-83250357D02*
X141787619Y-83155119D01*
X141787619Y-82917023D01*
X141835238Y-82821785D01*
X141930476Y-82774166D01*
X142025714Y-82774166D01*
X142120952Y-82821785D01*
X142168571Y-82917023D01*
X142168571Y-83155119D01*
X142216190Y-83250357D01*
X141787619Y-83726547D02*
X142787619Y-83726547D01*
X142168571Y-83821785D02*
X141787619Y-84107500D01*
X142454285Y-84107500D02*
X142073333Y-83726547D01*
X141787619Y-84678928D02*
X141835238Y-84583690D01*
X141882857Y-84536071D01*
X141978095Y-84488452D01*
X142263809Y-84488452D01*
X142359047Y-84536071D01*
X142406666Y-84583690D01*
X142454285Y-84678928D01*
X142454285Y-84821785D01*
X142406666Y-84917023D01*
X142359047Y-84964642D01*
X142263809Y-85012261D01*
X141978095Y-85012261D01*
X141882857Y-84964642D01*
X141835238Y-84917023D01*
X141787619Y-84821785D01*
X141787619Y-84678928D01*
X142454285Y-85869404D02*
X141787619Y-85869404D01*
X142454285Y-85440833D02*
X141930476Y-85440833D01*
X141835238Y-85488452D01*
X141787619Y-85583690D01*
X141787619Y-85726547D01*
X141835238Y-85821785D01*
X141882857Y-85869404D01*
X142454285Y-86202738D02*
X142454285Y-86583690D01*
X142787619Y-86345595D02*
X141930476Y-86345595D01*
X141835238Y-86393214D01*
X141787619Y-86488452D01*
X141787619Y-86583690D01*
X140177619Y-80345595D02*
X140844285Y-80345595D01*
X140653809Y-80345595D02*
X140749047Y-80393214D01*
X140796666Y-80440833D01*
X140844285Y-80536071D01*
X140844285Y-80631309D01*
X140225238Y-81345595D02*
X140177619Y-81250357D01*
X140177619Y-81059880D01*
X140225238Y-80964642D01*
X140320476Y-80917023D01*
X140701428Y-80917023D01*
X140796666Y-80964642D01*
X140844285Y-81059880D01*
X140844285Y-81250357D01*
X140796666Y-81345595D01*
X140701428Y-81393214D01*
X140606190Y-81393214D01*
X140510952Y-80917023D01*
X140844285Y-81726547D02*
X140177619Y-81964642D01*
X140844285Y-82202738D01*
X140225238Y-83774166D02*
X140177619Y-83678928D01*
X140177619Y-83488452D01*
X140225238Y-83393214D01*
X140272857Y-83345595D01*
X140368095Y-83297976D01*
X140653809Y-83297976D01*
X140749047Y-83345595D01*
X140796666Y-83393214D01*
X140844285Y-83488452D01*
X140844285Y-83678928D01*
X140796666Y-83774166D01*
X136225595Y-81732380D02*
X136225595Y-80732380D01*
X136606547Y-80732380D01*
X136701785Y-80780000D01*
X136749404Y-80827619D01*
X136797023Y-80922857D01*
X136797023Y-81065714D01*
X136749404Y-81160952D01*
X136701785Y-81208571D01*
X136606547Y-81256190D01*
X136225595Y-81256190D01*
X137749404Y-81732380D02*
X137177976Y-81732380D01*
X137463690Y-81732380D02*
X137463690Y-80732380D01*
X137368452Y-80875238D01*
X137273214Y-80970476D01*
X137177976Y-81018095D01*
X138368452Y-80732380D02*
X138463690Y-80732380D01*
X138558928Y-80780000D01*
X138606547Y-80827619D01*
X138654166Y-80922857D01*
X138701785Y-81113333D01*
X138701785Y-81351428D01*
X138654166Y-81541904D01*
X138606547Y-81637142D01*
X138558928Y-81684761D01*
X138463690Y-81732380D01*
X138368452Y-81732380D01*
X138273214Y-81684761D01*
X138225595Y-81637142D01*
X138177976Y-81541904D01*
X138130357Y-81351428D01*
X138130357Y-81113333D01*
X138177976Y-80922857D01*
X138225595Y-80827619D01*
X138273214Y-80780000D01*
X138368452Y-80732380D01*
%TO.C,R1*%
X142708333Y-101417380D02*
X142375000Y-100941190D01*
X142136904Y-101417380D02*
X142136904Y-100417380D01*
X142517857Y-100417380D01*
X142613095Y-100465000D01*
X142660714Y-100512619D01*
X142708333Y-100607857D01*
X142708333Y-100750714D01*
X142660714Y-100845952D01*
X142613095Y-100893571D01*
X142517857Y-100941190D01*
X142136904Y-100941190D01*
X143660714Y-101417380D02*
X143089285Y-101417380D01*
X143375000Y-101417380D02*
X143375000Y-100417380D01*
X143279761Y-100560238D01*
X143184523Y-100655476D01*
X143089285Y-100703095D01*
%TO.C,R2*%
X142708333Y-103322380D02*
X142375000Y-102846190D01*
X142136904Y-103322380D02*
X142136904Y-102322380D01*
X142517857Y-102322380D01*
X142613095Y-102370000D01*
X142660714Y-102417619D01*
X142708333Y-102512857D01*
X142708333Y-102655714D01*
X142660714Y-102750952D01*
X142613095Y-102798571D01*
X142517857Y-102846190D01*
X142136904Y-102846190D01*
X143089285Y-102417619D02*
X143136904Y-102370000D01*
X143232142Y-102322380D01*
X143470238Y-102322380D01*
X143565476Y-102370000D01*
X143613095Y-102417619D01*
X143660714Y-102512857D01*
X143660714Y-102608095D01*
X143613095Y-102750952D01*
X143041666Y-103322380D01*
X143660714Y-103322380D01*
%TO.C,C2*%
X140168333Y-98274142D02*
X140120714Y-98321761D01*
X139977857Y-98369380D01*
X139882619Y-98369380D01*
X139739761Y-98321761D01*
X139644523Y-98226523D01*
X139596904Y-98131285D01*
X139549285Y-97940809D01*
X139549285Y-97797952D01*
X139596904Y-97607476D01*
X139644523Y-97512238D01*
X139739761Y-97417000D01*
X139882619Y-97369380D01*
X139977857Y-97369380D01*
X140120714Y-97417000D01*
X140168333Y-97464619D01*
X140549285Y-97464619D02*
X140596904Y-97417000D01*
X140692142Y-97369380D01*
X140930238Y-97369380D01*
X141025476Y-97417000D01*
X141073095Y-97464619D01*
X141120714Y-97559857D01*
X141120714Y-97655095D01*
X141073095Y-97797952D01*
X140501666Y-98369380D01*
X141120714Y-98369380D01*
%TO.C,C1*%
X142708333Y-105132142D02*
X142660714Y-105179761D01*
X142517857Y-105227380D01*
X142422619Y-105227380D01*
X142279761Y-105179761D01*
X142184523Y-105084523D01*
X142136904Y-104989285D01*
X142089285Y-104798809D01*
X142089285Y-104655952D01*
X142136904Y-104465476D01*
X142184523Y-104370238D01*
X142279761Y-104275000D01*
X142422619Y-104227380D01*
X142517857Y-104227380D01*
X142660714Y-104275000D01*
X142708333Y-104322619D01*
X143660714Y-105227380D02*
X143089285Y-105227380D01*
X143375000Y-105227380D02*
X143375000Y-104227380D01*
X143279761Y-104370238D01*
X143184523Y-104465476D01*
X143089285Y-104513095D01*
%TO.C,U1*%
X141478095Y-94827380D02*
X141478095Y-95636904D01*
X141525714Y-95732142D01*
X141573333Y-95779761D01*
X141668571Y-95827380D01*
X141859047Y-95827380D01*
X141954285Y-95779761D01*
X142001904Y-95732142D01*
X142049523Y-95636904D01*
X142049523Y-94827380D01*
X143049523Y-95827380D02*
X142478095Y-95827380D01*
X142763809Y-95827380D02*
X142763809Y-94827380D01*
X142668571Y-94970238D01*
X142573333Y-95065476D01*
X142478095Y-95113095D01*
D11*
%TO.C,R1*%
X140572258Y-101487500D02*
X140097742Y-101487500D01*
X140572258Y-100442500D02*
X140097742Y-100442500D01*
%TO.C,R2*%
X140572258Y-103392500D02*
X140097742Y-103392500D01*
X140572258Y-102347500D02*
X140097742Y-102347500D01*
%TO.C,C2*%
X140475580Y-96010000D02*
X140194420Y-96010000D01*
X140475580Y-97030000D02*
X140194420Y-97030000D01*
%TO.C,C1*%
X140475580Y-105285000D02*
X140194420Y-105285000D01*
X140475580Y-104265000D02*
X140194420Y-104265000D01*
%TO.C,U1*%
X140605000Y-94185000D02*
X140130000Y-94185000D01*
X140605000Y-89965000D02*
X140130000Y-89965000D01*
X143875000Y-94185000D02*
X144350000Y-94185000D01*
X144350000Y-89965000D02*
X144350000Y-90440000D01*
X140130000Y-89965000D02*
X140130000Y-90440000D01*
X143875000Y-89965000D02*
X144350000Y-89965000D01*
X140130000Y-94185000D02*
X140130000Y-93710000D01*
%TD*%
M02*
