%TF.GenerationSoftware,KiCad,Pcbnew,5.1.6+dfsg1-1*%
%TF.CreationDate,2020-07-12T14:16:47+08:00*%
%TF.ProjectId,gpioexp,6770696f-6578-4702-9e6b-696361645f70,a*%
%TF.SameCoordinates,Original*%
%TF.FileFunction,Copper,L2,Bot*%
%TF.FilePolarity,Positive*%
%FSLAX46Y46*%
G04 Gerber Fmt 4.6, Leading zero omitted, Abs format (unit mm)*
G04 Created by KiCad (PCBNEW 5.1.6+dfsg1-1) date 2020-07-12 14:16:47*
%MOMM*%
%LPD*%
G01*
G04 APERTURE LIST*
%TA.AperFunction,EtchedComponent*%
%ADD10C,0.100000*%
%TD*%
%TA.AperFunction,SMDPad,CuDef*%
%ADD11R,1.000000X1.500000*%
%TD*%
%TA.AperFunction,ComponentPad*%
%ADD12O,1.700000X1.700000*%
%TD*%
%TA.AperFunction,ComponentPad*%
%ADD13R,1.700000X1.700000*%
%TD*%
%TA.AperFunction,ViaPad*%
%ADD14C,0.700000*%
%TD*%
%TA.AperFunction,Conductor*%
%ADD15C,0.304800*%
%TD*%
%TA.AperFunction,Conductor*%
%ADD16C,0.228600*%
%TD*%
%TA.AperFunction,Conductor*%
%ADD17C,0.152400*%
%TD*%
G04 APERTURE END LIST*
D10*
%TO.C,JP2*%
G36*
X141340000Y-110455000D02*
G01*
X141840000Y-110455000D01*
X141840000Y-110055000D01*
X141340000Y-110055000D01*
X141340000Y-110455000D01*
G37*
G36*
X141340000Y-109655000D02*
G01*
X141840000Y-109655000D01*
X141840000Y-109255000D01*
X141340000Y-109255000D01*
X141340000Y-109655000D01*
G37*
%TO.C,JP1*%
G36*
X141340000Y-107280000D02*
G01*
X141840000Y-107280000D01*
X141840000Y-106880000D01*
X141340000Y-106880000D01*
X141340000Y-107280000D01*
G37*
G36*
X141340000Y-106480000D02*
G01*
X141840000Y-106480000D01*
X141840000Y-106080000D01*
X141340000Y-106080000D01*
X141340000Y-106480000D01*
G37*
%TD*%
D11*
%TO.P,JP2,2*%
%TO.N,AD1*%
X142240000Y-109855000D03*
%TO.P,JP2,3*%
%TO.N,GND*%
X143540000Y-109855000D03*
%TO.P,JP2,1*%
%TO.N,VCC*%
X140940000Y-109855000D03*
%TD*%
%TO.P,JP1,2*%
%TO.N,AD0*%
X142240000Y-106680000D03*
%TO.P,JP1,3*%
%TO.N,GND*%
X143540000Y-106680000D03*
%TO.P,JP1,1*%
%TO.N,VCC*%
X140940000Y-106680000D03*
%TD*%
D12*
%TO.P,J2,12*%
%TO.N,GND*%
X149860000Y-109220000D03*
%TO.P,J2,11*%
%TO.N,VCC*%
X149860000Y-106680000D03*
%TO.P,J2,10*%
%TO.N,INT*%
X149860000Y-104140000D03*
%TO.P,J2,9*%
%TO.N,NRST*%
X149860000Y-101600000D03*
%TO.P,J2,8*%
%TO.N,P0_0*%
X149860000Y-99060000D03*
%TO.P,J2,7*%
%TO.N,P0_1*%
X149860000Y-96520000D03*
%TO.P,J2,6*%
%TO.N,P0_2*%
X149860000Y-93980000D03*
%TO.P,J2,5*%
%TO.N,P0_3*%
X149860000Y-91440000D03*
%TO.P,J2,4*%
%TO.N,P0_4*%
X149860000Y-88900000D03*
%TO.P,J2,3*%
%TO.N,P0_5*%
X149860000Y-86360000D03*
%TO.P,J2,2*%
%TO.N,P0_6*%
X149860000Y-83820000D03*
D13*
%TO.P,J2,1*%
%TO.N,P0_7*%
X149860000Y-81280000D03*
%TD*%
D12*
%TO.P,J1,12*%
%TO.N,GND*%
X134620000Y-109220000D03*
%TO.P,J1,11*%
%TO.N,VCC*%
X134620000Y-106680000D03*
%TO.P,J1,10*%
%TO.N,SDA*%
X134620000Y-104140000D03*
%TO.P,J1,9*%
%TO.N,SCL*%
X134620000Y-101600000D03*
%TO.P,J1,8*%
%TO.N,P1_7*%
X134620000Y-99060000D03*
%TO.P,J1,7*%
%TO.N,P1_6*%
X134620000Y-96520000D03*
%TO.P,J1,6*%
%TO.N,P1_5*%
X134620000Y-93980000D03*
%TO.P,J1,5*%
%TO.N,P1_4*%
X134620000Y-91440000D03*
%TO.P,J1,4*%
%TO.N,P1_3*%
X134620000Y-88900000D03*
%TO.P,J1,3*%
%TO.N,P1_2*%
X134620000Y-86360000D03*
%TO.P,J1,2*%
%TO.N,P1_1*%
X134620000Y-83820000D03*
D13*
%TO.P,J1,1*%
%TO.N,P1_0*%
X134620000Y-81280000D03*
%TD*%
D14*
%TO.N,GND*%
X142240000Y-92075000D03*
X140335000Y-95885000D03*
X142240000Y-80010000D03*
X144780000Y-80010000D03*
X139700000Y-80010000D03*
X137160000Y-80010000D03*
X147320000Y-80010000D03*
X144145000Y-101600000D03*
X144145000Y-103505000D03*
X147320000Y-110490000D03*
X145415000Y-110490000D03*
X139065000Y-110490000D03*
X137160000Y-110490000D03*
X138430000Y-97790000D03*
%TO.N,AD0*%
X138430000Y-95885000D03*
%TO.N,AD1*%
X146685000Y-99695000D03*
%TO.N,P1_3*%
X146685000Y-92075000D03*
%TO.N,P1_2*%
X146685000Y-93980000D03*
%TO.N,P1_1*%
X146685000Y-95885000D03*
%TO.N,P1_0*%
X146685000Y-97790000D03*
%TD*%
D15*
%TO.N,VCC*%
X140940000Y-106680000D02*
X140940000Y-109855000D01*
X140940000Y-106680000D02*
X134620000Y-106680000D01*
D16*
%TO.N,AD0*%
X142240000Y-99695000D02*
X142240000Y-106680000D01*
X138430000Y-95885000D02*
X142240000Y-99695000D01*
%TO.N,AD1*%
X142240000Y-108876400D02*
X142240000Y-109855000D01*
X142278101Y-108838299D02*
X142240000Y-108876400D01*
X143111763Y-108838299D02*
X142278101Y-108838299D01*
X146685000Y-105265062D02*
X143111763Y-108838299D01*
X146685000Y-99695000D02*
X146685000Y-105265062D01*
%TO.N,P1_3*%
X146685000Y-92075000D02*
X143510000Y-88900000D01*
X143510000Y-88900000D02*
X134620000Y-88900000D01*
%TO.N,P1_2*%
X134620000Y-86360000D02*
X143510000Y-86360000D01*
X143510000Y-86360000D02*
X147320000Y-90170000D01*
X147320000Y-93345000D02*
X146685000Y-93980000D01*
X147320000Y-90170000D02*
X147320000Y-93345000D01*
%TO.N,P1_1*%
X134620000Y-83820000D02*
X141508830Y-83820000D01*
X141508830Y-83820000D02*
X147701009Y-90012179D01*
X147701009Y-90012179D02*
X147701009Y-94868991D01*
X147701009Y-94868991D02*
X146685000Y-95885000D01*
%TO.N,P1_0*%
X148082020Y-96392980D02*
X148082020Y-89758190D01*
X146685000Y-97790000D02*
X148082020Y-96392980D01*
X148082020Y-89758190D02*
X139603830Y-81280000D01*
X139603830Y-81280000D02*
X134620000Y-81280000D01*
%TD*%
D17*
%TO.N,GND*%
G36*
X151838847Y-79002057D02*
G01*
X151909878Y-79023502D01*
X151975392Y-79058337D01*
X152032892Y-79105234D01*
X152080187Y-79162404D01*
X152115477Y-79227672D01*
X152137418Y-79298554D01*
X152146400Y-79384005D01*
X152146401Y-111112585D01*
X152137943Y-111198848D01*
X152116499Y-111269875D01*
X152081665Y-111335389D01*
X152034768Y-111392890D01*
X151977598Y-111440186D01*
X151912328Y-111475477D01*
X151841446Y-111497418D01*
X151755995Y-111506400D01*
X132727405Y-111506400D01*
X132641152Y-111497943D01*
X132570125Y-111476499D01*
X132504611Y-111441665D01*
X132447110Y-111394768D01*
X132399814Y-111337598D01*
X132364523Y-111272328D01*
X132342582Y-111201446D01*
X132333600Y-111115995D01*
X132333600Y-109463570D01*
X133569261Y-109463570D01*
X133611019Y-109601240D01*
X133704783Y-109790757D01*
X133833718Y-109958340D01*
X133992869Y-110097549D01*
X134176120Y-110203034D01*
X134376429Y-110270742D01*
X134543800Y-110238759D01*
X134543800Y-109296200D01*
X134696200Y-109296200D01*
X134696200Y-110238759D01*
X134863571Y-110270742D01*
X135063880Y-110203034D01*
X135247131Y-110097549D01*
X135406282Y-109958340D01*
X135535217Y-109790757D01*
X135628981Y-109601240D01*
X135670739Y-109463570D01*
X135638604Y-109296200D01*
X134696200Y-109296200D01*
X134543800Y-109296200D01*
X133601396Y-109296200D01*
X133569261Y-109463570D01*
X132333600Y-109463570D01*
X132333600Y-108976430D01*
X133569261Y-108976430D01*
X133601396Y-109143800D01*
X134543800Y-109143800D01*
X134543800Y-108201241D01*
X134696200Y-108201241D01*
X134696200Y-109143800D01*
X135638604Y-109143800D01*
X135670739Y-108976430D01*
X135628981Y-108838760D01*
X135535217Y-108649243D01*
X135406282Y-108481660D01*
X135247131Y-108342451D01*
X135063880Y-108236966D01*
X134863571Y-108169258D01*
X134696200Y-108201241D01*
X134543800Y-108201241D01*
X134376429Y-108169258D01*
X134176120Y-108236966D01*
X133992869Y-108342451D01*
X133833718Y-108481660D01*
X133704783Y-108649243D01*
X133611019Y-108838760D01*
X133569261Y-108976430D01*
X132333600Y-108976430D01*
X132333600Y-106573767D01*
X133541400Y-106573767D01*
X133541400Y-106786233D01*
X133582850Y-106994616D01*
X133664157Y-107190909D01*
X133782197Y-107367567D01*
X133932433Y-107517803D01*
X134109091Y-107635843D01*
X134305384Y-107717150D01*
X134513767Y-107758600D01*
X134726233Y-107758600D01*
X134934616Y-107717150D01*
X135130909Y-107635843D01*
X135307567Y-107517803D01*
X135457803Y-107367567D01*
X135575843Y-107190909D01*
X135629653Y-107061000D01*
X140210294Y-107061000D01*
X140210294Y-107430000D01*
X140214708Y-107474813D01*
X140227779Y-107517905D01*
X140249006Y-107557618D01*
X140277573Y-107592427D01*
X140312382Y-107620994D01*
X140352095Y-107642221D01*
X140395187Y-107655292D01*
X140440000Y-107659706D01*
X140559000Y-107659706D01*
X140559001Y-108875294D01*
X140440000Y-108875294D01*
X140395187Y-108879708D01*
X140352095Y-108892779D01*
X140312382Y-108914006D01*
X140277573Y-108942573D01*
X140249006Y-108977382D01*
X140227779Y-109017095D01*
X140214708Y-109060187D01*
X140210294Y-109105000D01*
X140210294Y-110605000D01*
X140214708Y-110649813D01*
X140227779Y-110692905D01*
X140249006Y-110732618D01*
X140277573Y-110767427D01*
X140312382Y-110795994D01*
X140352095Y-110817221D01*
X140395187Y-110830292D01*
X140440000Y-110834706D01*
X141440000Y-110834706D01*
X141484813Y-110830292D01*
X141527905Y-110817221D01*
X141567618Y-110795994D01*
X141590000Y-110777626D01*
X141612382Y-110795994D01*
X141652095Y-110817221D01*
X141695187Y-110830292D01*
X141740000Y-110834706D01*
X142740000Y-110834706D01*
X142784813Y-110830292D01*
X142827905Y-110817221D01*
X142867618Y-110795994D01*
X142890000Y-110777626D01*
X142912382Y-110795994D01*
X142952095Y-110817221D01*
X142995187Y-110830292D01*
X143040000Y-110834706D01*
X143406650Y-110833600D01*
X143463800Y-110776450D01*
X143463800Y-109931200D01*
X143616200Y-109931200D01*
X143616200Y-110776450D01*
X143673350Y-110833600D01*
X144040000Y-110834706D01*
X144084813Y-110830292D01*
X144127905Y-110817221D01*
X144167618Y-110795994D01*
X144202427Y-110767427D01*
X144230994Y-110732618D01*
X144252221Y-110692905D01*
X144265292Y-110649813D01*
X144269706Y-110605000D01*
X144268600Y-109988350D01*
X144211450Y-109931200D01*
X143616200Y-109931200D01*
X143463800Y-109931200D01*
X143443800Y-109931200D01*
X143443800Y-109778800D01*
X143463800Y-109778800D01*
X143463800Y-109758800D01*
X143616200Y-109758800D01*
X143616200Y-109778800D01*
X144211450Y-109778800D01*
X144268600Y-109721650D01*
X144269062Y-109463570D01*
X148809261Y-109463570D01*
X148851019Y-109601240D01*
X148944783Y-109790757D01*
X149073718Y-109958340D01*
X149232869Y-110097549D01*
X149416120Y-110203034D01*
X149616429Y-110270742D01*
X149783800Y-110238759D01*
X149783800Y-109296200D01*
X149936200Y-109296200D01*
X149936200Y-110238759D01*
X150103571Y-110270742D01*
X150303880Y-110203034D01*
X150487131Y-110097549D01*
X150646282Y-109958340D01*
X150775217Y-109790757D01*
X150868981Y-109601240D01*
X150910739Y-109463570D01*
X150878604Y-109296200D01*
X149936200Y-109296200D01*
X149783800Y-109296200D01*
X148841396Y-109296200D01*
X148809261Y-109463570D01*
X144269062Y-109463570D01*
X144269706Y-109105000D01*
X144265292Y-109060187D01*
X144252221Y-109017095D01*
X144230994Y-108977382D01*
X144230213Y-108976430D01*
X148809261Y-108976430D01*
X148841396Y-109143800D01*
X149783800Y-109143800D01*
X149783800Y-108201241D01*
X149936200Y-108201241D01*
X149936200Y-109143800D01*
X150878604Y-109143800D01*
X150910739Y-108976430D01*
X150868981Y-108838760D01*
X150775217Y-108649243D01*
X150646282Y-108481660D01*
X150487131Y-108342451D01*
X150303880Y-108236966D01*
X150103571Y-108169258D01*
X149936200Y-108201241D01*
X149783800Y-108201241D01*
X149616429Y-108169258D01*
X149416120Y-108236966D01*
X149232869Y-108342451D01*
X149073718Y-108481660D01*
X148944783Y-108649243D01*
X148851019Y-108838760D01*
X148809261Y-108976430D01*
X144230213Y-108976430D01*
X144202427Y-108942573D01*
X144167618Y-108914006D01*
X144127905Y-108892779D01*
X144084813Y-108879708D01*
X144040000Y-108875294D01*
X143673350Y-108876400D01*
X143616202Y-108933548D01*
X143616202Y-108876400D01*
X143558595Y-108876400D01*
X145861228Y-106573767D01*
X148781400Y-106573767D01*
X148781400Y-106786233D01*
X148822850Y-106994616D01*
X148904157Y-107190909D01*
X149022197Y-107367567D01*
X149172433Y-107517803D01*
X149349091Y-107635843D01*
X149545384Y-107717150D01*
X149753767Y-107758600D01*
X149966233Y-107758600D01*
X150174616Y-107717150D01*
X150370909Y-107635843D01*
X150547567Y-107517803D01*
X150697803Y-107367567D01*
X150815843Y-107190909D01*
X150897150Y-106994616D01*
X150938600Y-106786233D01*
X150938600Y-106573767D01*
X150897150Y-106365384D01*
X150815843Y-106169091D01*
X150697803Y-105992433D01*
X150547567Y-105842197D01*
X150370909Y-105724157D01*
X150174616Y-105642850D01*
X149966233Y-105601400D01*
X149753767Y-105601400D01*
X149545384Y-105642850D01*
X149349091Y-105724157D01*
X149172433Y-105842197D01*
X149022197Y-105992433D01*
X148904157Y-106169091D01*
X148822850Y-106365384D01*
X148781400Y-106573767D01*
X145861228Y-106573767D01*
X146915557Y-105519439D01*
X146928640Y-105508702D01*
X146971490Y-105456489D01*
X147003331Y-105396919D01*
X147022938Y-105332282D01*
X147027900Y-105281905D01*
X147027900Y-105281898D01*
X147029558Y-105265063D01*
X147027900Y-105248228D01*
X147027900Y-104033767D01*
X148781400Y-104033767D01*
X148781400Y-104246233D01*
X148822850Y-104454616D01*
X148904157Y-104650909D01*
X149022197Y-104827567D01*
X149172433Y-104977803D01*
X149349091Y-105095843D01*
X149545384Y-105177150D01*
X149753767Y-105218600D01*
X149966233Y-105218600D01*
X150174616Y-105177150D01*
X150370909Y-105095843D01*
X150547567Y-104977803D01*
X150697803Y-104827567D01*
X150815843Y-104650909D01*
X150897150Y-104454616D01*
X150938600Y-104246233D01*
X150938600Y-104033767D01*
X150897150Y-103825384D01*
X150815843Y-103629091D01*
X150697803Y-103452433D01*
X150547567Y-103302197D01*
X150370909Y-103184157D01*
X150174616Y-103102850D01*
X149966233Y-103061400D01*
X149753767Y-103061400D01*
X149545384Y-103102850D01*
X149349091Y-103184157D01*
X149172433Y-103302197D01*
X149022197Y-103452433D01*
X148904157Y-103629091D01*
X148822850Y-103825384D01*
X148781400Y-104033767D01*
X147027900Y-104033767D01*
X147027900Y-101493767D01*
X148781400Y-101493767D01*
X148781400Y-101706233D01*
X148822850Y-101914616D01*
X148904157Y-102110909D01*
X149022197Y-102287567D01*
X149172433Y-102437803D01*
X149349091Y-102555843D01*
X149545384Y-102637150D01*
X149753767Y-102678600D01*
X149966233Y-102678600D01*
X150174616Y-102637150D01*
X150370909Y-102555843D01*
X150547567Y-102437803D01*
X150697803Y-102287567D01*
X150815843Y-102110909D01*
X150897150Y-101914616D01*
X150938600Y-101706233D01*
X150938600Y-101493767D01*
X150897150Y-101285384D01*
X150815843Y-101089091D01*
X150697803Y-100912433D01*
X150547567Y-100762197D01*
X150370909Y-100644157D01*
X150174616Y-100562850D01*
X149966233Y-100521400D01*
X149753767Y-100521400D01*
X149545384Y-100562850D01*
X149349091Y-100644157D01*
X149172433Y-100762197D01*
X149022197Y-100912433D01*
X148904157Y-101089091D01*
X148822850Y-101285384D01*
X148781400Y-101493767D01*
X147027900Y-101493767D01*
X147027900Y-100161758D01*
X147053836Y-100144428D01*
X147134428Y-100063836D01*
X147197749Y-99969070D01*
X147241365Y-99863772D01*
X147263600Y-99751987D01*
X147263600Y-99638013D01*
X147241365Y-99526228D01*
X147197749Y-99420930D01*
X147134428Y-99326164D01*
X147053836Y-99245572D01*
X146959070Y-99182251D01*
X146853772Y-99138635D01*
X146741987Y-99116400D01*
X146628013Y-99116400D01*
X146516228Y-99138635D01*
X146410930Y-99182251D01*
X146316164Y-99245572D01*
X146235572Y-99326164D01*
X146172251Y-99420930D01*
X146128635Y-99526228D01*
X146106400Y-99638013D01*
X146106400Y-99751987D01*
X146128635Y-99863772D01*
X146172251Y-99969070D01*
X146235572Y-100063836D01*
X146316164Y-100144428D01*
X146342100Y-100161758D01*
X146342101Y-105123027D01*
X144269286Y-107195843D01*
X144268600Y-106813350D01*
X144211450Y-106756200D01*
X143616200Y-106756200D01*
X143616200Y-107601450D01*
X143673350Y-107658600D01*
X143806128Y-107659001D01*
X142969730Y-108495399D01*
X142294944Y-108495399D01*
X142278101Y-108493740D01*
X142261258Y-108495399D01*
X142210881Y-108500361D01*
X142146244Y-108519968D01*
X142086674Y-108551809D01*
X142034461Y-108594659D01*
X142023720Y-108607747D01*
X142009444Y-108622023D01*
X141996360Y-108632761D01*
X141953510Y-108684974D01*
X141921669Y-108744544D01*
X141902062Y-108809181D01*
X141897100Y-108859558D01*
X141897100Y-108859565D01*
X141895551Y-108875294D01*
X141740000Y-108875294D01*
X141695187Y-108879708D01*
X141652095Y-108892779D01*
X141612382Y-108914006D01*
X141590000Y-108932374D01*
X141567618Y-108914006D01*
X141527905Y-108892779D01*
X141484813Y-108879708D01*
X141440000Y-108875294D01*
X141321000Y-108875294D01*
X141321000Y-107659706D01*
X141440000Y-107659706D01*
X141484813Y-107655292D01*
X141527905Y-107642221D01*
X141567618Y-107620994D01*
X141590000Y-107602626D01*
X141612382Y-107620994D01*
X141652095Y-107642221D01*
X141695187Y-107655292D01*
X141740000Y-107659706D01*
X142740000Y-107659706D01*
X142784813Y-107655292D01*
X142827905Y-107642221D01*
X142867618Y-107620994D01*
X142890000Y-107602626D01*
X142912382Y-107620994D01*
X142952095Y-107642221D01*
X142995187Y-107655292D01*
X143040000Y-107659706D01*
X143406650Y-107658600D01*
X143463800Y-107601450D01*
X143463800Y-106756200D01*
X143443800Y-106756200D01*
X143443800Y-106603800D01*
X143463800Y-106603800D01*
X143463800Y-105758550D01*
X143616200Y-105758550D01*
X143616200Y-106603800D01*
X144211450Y-106603800D01*
X144268600Y-106546650D01*
X144269706Y-105930000D01*
X144265292Y-105885187D01*
X144252221Y-105842095D01*
X144230994Y-105802382D01*
X144202427Y-105767573D01*
X144167618Y-105739006D01*
X144127905Y-105717779D01*
X144084813Y-105704708D01*
X144040000Y-105700294D01*
X143673350Y-105701400D01*
X143616200Y-105758550D01*
X143463800Y-105758550D01*
X143406650Y-105701400D01*
X143040000Y-105700294D01*
X142995187Y-105704708D01*
X142952095Y-105717779D01*
X142912382Y-105739006D01*
X142890000Y-105757374D01*
X142867618Y-105739006D01*
X142827905Y-105717779D01*
X142784813Y-105704708D01*
X142740000Y-105700294D01*
X142582900Y-105700294D01*
X142582900Y-99711843D01*
X142584559Y-99695000D01*
X142577938Y-99627780D01*
X142558331Y-99563143D01*
X142526490Y-99503573D01*
X142494376Y-99464443D01*
X142483639Y-99451360D01*
X142470556Y-99440623D01*
X141983700Y-98953767D01*
X148781400Y-98953767D01*
X148781400Y-99166233D01*
X148822850Y-99374616D01*
X148904157Y-99570909D01*
X149022197Y-99747567D01*
X149172433Y-99897803D01*
X149349091Y-100015843D01*
X149545384Y-100097150D01*
X149753767Y-100138600D01*
X149966233Y-100138600D01*
X150174616Y-100097150D01*
X150370909Y-100015843D01*
X150547567Y-99897803D01*
X150697803Y-99747567D01*
X150815843Y-99570909D01*
X150897150Y-99374616D01*
X150938600Y-99166233D01*
X150938600Y-98953767D01*
X150897150Y-98745384D01*
X150815843Y-98549091D01*
X150697803Y-98372433D01*
X150547567Y-98222197D01*
X150370909Y-98104157D01*
X150174616Y-98022850D01*
X149966233Y-97981400D01*
X149753767Y-97981400D01*
X149545384Y-98022850D01*
X149349091Y-98104157D01*
X149172433Y-98222197D01*
X149022197Y-98372433D01*
X148904157Y-98549091D01*
X148822850Y-98745384D01*
X148781400Y-98953767D01*
X141983700Y-98953767D01*
X139002514Y-95972581D01*
X139008600Y-95941987D01*
X139008600Y-95828013D01*
X138986365Y-95716228D01*
X138942749Y-95610930D01*
X138879428Y-95516164D01*
X138798836Y-95435572D01*
X138704070Y-95372251D01*
X138598772Y-95328635D01*
X138486987Y-95306400D01*
X138373013Y-95306400D01*
X138261228Y-95328635D01*
X138155930Y-95372251D01*
X138061164Y-95435572D01*
X137980572Y-95516164D01*
X137917251Y-95610930D01*
X137873635Y-95716228D01*
X137851400Y-95828013D01*
X137851400Y-95941987D01*
X137873635Y-96053772D01*
X137917251Y-96159070D01*
X137980572Y-96253836D01*
X138061164Y-96334428D01*
X138155930Y-96397749D01*
X138261228Y-96441365D01*
X138373013Y-96463600D01*
X138486987Y-96463600D01*
X138517581Y-96457514D01*
X141897100Y-99837033D01*
X141897101Y-105700294D01*
X141740000Y-105700294D01*
X141695187Y-105704708D01*
X141652095Y-105717779D01*
X141612382Y-105739006D01*
X141590000Y-105757374D01*
X141567618Y-105739006D01*
X141527905Y-105717779D01*
X141484813Y-105704708D01*
X141440000Y-105700294D01*
X140440000Y-105700294D01*
X140395187Y-105704708D01*
X140352095Y-105717779D01*
X140312382Y-105739006D01*
X140277573Y-105767573D01*
X140249006Y-105802382D01*
X140227779Y-105842095D01*
X140214708Y-105885187D01*
X140210294Y-105930000D01*
X140210294Y-106299000D01*
X135629653Y-106299000D01*
X135575843Y-106169091D01*
X135457803Y-105992433D01*
X135307567Y-105842197D01*
X135130909Y-105724157D01*
X134934616Y-105642850D01*
X134726233Y-105601400D01*
X134513767Y-105601400D01*
X134305384Y-105642850D01*
X134109091Y-105724157D01*
X133932433Y-105842197D01*
X133782197Y-105992433D01*
X133664157Y-106169091D01*
X133582850Y-106365384D01*
X133541400Y-106573767D01*
X132333600Y-106573767D01*
X132333600Y-104033767D01*
X133541400Y-104033767D01*
X133541400Y-104246233D01*
X133582850Y-104454616D01*
X133664157Y-104650909D01*
X133782197Y-104827567D01*
X133932433Y-104977803D01*
X134109091Y-105095843D01*
X134305384Y-105177150D01*
X134513767Y-105218600D01*
X134726233Y-105218600D01*
X134934616Y-105177150D01*
X135130909Y-105095843D01*
X135307567Y-104977803D01*
X135457803Y-104827567D01*
X135575843Y-104650909D01*
X135657150Y-104454616D01*
X135698600Y-104246233D01*
X135698600Y-104033767D01*
X135657150Y-103825384D01*
X135575843Y-103629091D01*
X135457803Y-103452433D01*
X135307567Y-103302197D01*
X135130909Y-103184157D01*
X134934616Y-103102850D01*
X134726233Y-103061400D01*
X134513767Y-103061400D01*
X134305384Y-103102850D01*
X134109091Y-103184157D01*
X133932433Y-103302197D01*
X133782197Y-103452433D01*
X133664157Y-103629091D01*
X133582850Y-103825384D01*
X133541400Y-104033767D01*
X132333600Y-104033767D01*
X132333600Y-101493767D01*
X133541400Y-101493767D01*
X133541400Y-101706233D01*
X133582850Y-101914616D01*
X133664157Y-102110909D01*
X133782197Y-102287567D01*
X133932433Y-102437803D01*
X134109091Y-102555843D01*
X134305384Y-102637150D01*
X134513767Y-102678600D01*
X134726233Y-102678600D01*
X134934616Y-102637150D01*
X135130909Y-102555843D01*
X135307567Y-102437803D01*
X135457803Y-102287567D01*
X135575843Y-102110909D01*
X135657150Y-101914616D01*
X135698600Y-101706233D01*
X135698600Y-101493767D01*
X135657150Y-101285384D01*
X135575843Y-101089091D01*
X135457803Y-100912433D01*
X135307567Y-100762197D01*
X135130909Y-100644157D01*
X134934616Y-100562850D01*
X134726233Y-100521400D01*
X134513767Y-100521400D01*
X134305384Y-100562850D01*
X134109091Y-100644157D01*
X133932433Y-100762197D01*
X133782197Y-100912433D01*
X133664157Y-101089091D01*
X133582850Y-101285384D01*
X133541400Y-101493767D01*
X132333600Y-101493767D01*
X132333600Y-98953767D01*
X133541400Y-98953767D01*
X133541400Y-99166233D01*
X133582850Y-99374616D01*
X133664157Y-99570909D01*
X133782197Y-99747567D01*
X133932433Y-99897803D01*
X134109091Y-100015843D01*
X134305384Y-100097150D01*
X134513767Y-100138600D01*
X134726233Y-100138600D01*
X134934616Y-100097150D01*
X135130909Y-100015843D01*
X135307567Y-99897803D01*
X135457803Y-99747567D01*
X135575843Y-99570909D01*
X135657150Y-99374616D01*
X135698600Y-99166233D01*
X135698600Y-98953767D01*
X135657150Y-98745384D01*
X135575843Y-98549091D01*
X135457803Y-98372433D01*
X135307567Y-98222197D01*
X135130909Y-98104157D01*
X134934616Y-98022850D01*
X134726233Y-97981400D01*
X134513767Y-97981400D01*
X134305384Y-98022850D01*
X134109091Y-98104157D01*
X133932433Y-98222197D01*
X133782197Y-98372433D01*
X133664157Y-98549091D01*
X133582850Y-98745384D01*
X133541400Y-98953767D01*
X132333600Y-98953767D01*
X132333600Y-96413767D01*
X133541400Y-96413767D01*
X133541400Y-96626233D01*
X133582850Y-96834616D01*
X133664157Y-97030909D01*
X133782197Y-97207567D01*
X133932433Y-97357803D01*
X134109091Y-97475843D01*
X134305384Y-97557150D01*
X134513767Y-97598600D01*
X134726233Y-97598600D01*
X134934616Y-97557150D01*
X135130909Y-97475843D01*
X135307567Y-97357803D01*
X135457803Y-97207567D01*
X135575843Y-97030909D01*
X135657150Y-96834616D01*
X135698600Y-96626233D01*
X135698600Y-96413767D01*
X135657150Y-96205384D01*
X135575843Y-96009091D01*
X135457803Y-95832433D01*
X135307567Y-95682197D01*
X135130909Y-95564157D01*
X134934616Y-95482850D01*
X134726233Y-95441400D01*
X134513767Y-95441400D01*
X134305384Y-95482850D01*
X134109091Y-95564157D01*
X133932433Y-95682197D01*
X133782197Y-95832433D01*
X133664157Y-96009091D01*
X133582850Y-96205384D01*
X133541400Y-96413767D01*
X132333600Y-96413767D01*
X132333600Y-93873767D01*
X133541400Y-93873767D01*
X133541400Y-94086233D01*
X133582850Y-94294616D01*
X133664157Y-94490909D01*
X133782197Y-94667567D01*
X133932433Y-94817803D01*
X134109091Y-94935843D01*
X134305384Y-95017150D01*
X134513767Y-95058600D01*
X134726233Y-95058600D01*
X134934616Y-95017150D01*
X135130909Y-94935843D01*
X135307567Y-94817803D01*
X135457803Y-94667567D01*
X135575843Y-94490909D01*
X135657150Y-94294616D01*
X135698600Y-94086233D01*
X135698600Y-93873767D01*
X135657150Y-93665384D01*
X135575843Y-93469091D01*
X135457803Y-93292433D01*
X135307567Y-93142197D01*
X135130909Y-93024157D01*
X134934616Y-92942850D01*
X134726233Y-92901400D01*
X134513767Y-92901400D01*
X134305384Y-92942850D01*
X134109091Y-93024157D01*
X133932433Y-93142197D01*
X133782197Y-93292433D01*
X133664157Y-93469091D01*
X133582850Y-93665384D01*
X133541400Y-93873767D01*
X132333600Y-93873767D01*
X132333600Y-91333767D01*
X133541400Y-91333767D01*
X133541400Y-91546233D01*
X133582850Y-91754616D01*
X133664157Y-91950909D01*
X133782197Y-92127567D01*
X133932433Y-92277803D01*
X134109091Y-92395843D01*
X134305384Y-92477150D01*
X134513767Y-92518600D01*
X134726233Y-92518600D01*
X134934616Y-92477150D01*
X135130909Y-92395843D01*
X135307567Y-92277803D01*
X135457803Y-92127567D01*
X135575843Y-91950909D01*
X135657150Y-91754616D01*
X135698600Y-91546233D01*
X135698600Y-91333767D01*
X135657150Y-91125384D01*
X135575843Y-90929091D01*
X135457803Y-90752433D01*
X135307567Y-90602197D01*
X135130909Y-90484157D01*
X134934616Y-90402850D01*
X134726233Y-90361400D01*
X134513767Y-90361400D01*
X134305384Y-90402850D01*
X134109091Y-90484157D01*
X133932433Y-90602197D01*
X133782197Y-90752433D01*
X133664157Y-90929091D01*
X133582850Y-91125384D01*
X133541400Y-91333767D01*
X132333600Y-91333767D01*
X132333600Y-80430000D01*
X133540294Y-80430000D01*
X133540294Y-82130000D01*
X133544708Y-82174813D01*
X133557779Y-82217905D01*
X133579006Y-82257618D01*
X133607573Y-82292427D01*
X133642382Y-82320994D01*
X133682095Y-82342221D01*
X133725187Y-82355292D01*
X133770000Y-82359706D01*
X135470000Y-82359706D01*
X135514813Y-82355292D01*
X135557905Y-82342221D01*
X135597618Y-82320994D01*
X135632427Y-82292427D01*
X135660994Y-82257618D01*
X135682221Y-82217905D01*
X135695292Y-82174813D01*
X135699706Y-82130000D01*
X135699706Y-81622900D01*
X139461797Y-81622900D01*
X141315997Y-83477100D01*
X135645434Y-83477100D01*
X135575843Y-83309091D01*
X135457803Y-83132433D01*
X135307567Y-82982197D01*
X135130909Y-82864157D01*
X134934616Y-82782850D01*
X134726233Y-82741400D01*
X134513767Y-82741400D01*
X134305384Y-82782850D01*
X134109091Y-82864157D01*
X133932433Y-82982197D01*
X133782197Y-83132433D01*
X133664157Y-83309091D01*
X133582850Y-83505384D01*
X133541400Y-83713767D01*
X133541400Y-83926233D01*
X133582850Y-84134616D01*
X133664157Y-84330909D01*
X133782197Y-84507567D01*
X133932433Y-84657803D01*
X134109091Y-84775843D01*
X134305384Y-84857150D01*
X134513767Y-84898600D01*
X134726233Y-84898600D01*
X134934616Y-84857150D01*
X135130909Y-84775843D01*
X135307567Y-84657803D01*
X135457803Y-84507567D01*
X135575843Y-84330909D01*
X135645434Y-84162900D01*
X141366797Y-84162900D01*
X143220997Y-86017100D01*
X135645434Y-86017100D01*
X135575843Y-85849091D01*
X135457803Y-85672433D01*
X135307567Y-85522197D01*
X135130909Y-85404157D01*
X134934616Y-85322850D01*
X134726233Y-85281400D01*
X134513767Y-85281400D01*
X134305384Y-85322850D01*
X134109091Y-85404157D01*
X133932433Y-85522197D01*
X133782197Y-85672433D01*
X133664157Y-85849091D01*
X133582850Y-86045384D01*
X133541400Y-86253767D01*
X133541400Y-86466233D01*
X133582850Y-86674616D01*
X133664157Y-86870909D01*
X133782197Y-87047567D01*
X133932433Y-87197803D01*
X134109091Y-87315843D01*
X134305384Y-87397150D01*
X134513767Y-87438600D01*
X134726233Y-87438600D01*
X134934616Y-87397150D01*
X135130909Y-87315843D01*
X135307567Y-87197803D01*
X135457803Y-87047567D01*
X135575843Y-86870909D01*
X135645434Y-86702900D01*
X143367967Y-86702900D01*
X146977100Y-90312033D01*
X146977100Y-91574299D01*
X146959070Y-91562251D01*
X146853772Y-91518635D01*
X146741987Y-91496400D01*
X146628013Y-91496400D01*
X146597419Y-91502485D01*
X143764381Y-88669448D01*
X143753640Y-88656360D01*
X143701427Y-88613510D01*
X143641857Y-88581669D01*
X143577220Y-88562062D01*
X143526843Y-88557100D01*
X143526835Y-88557100D01*
X143510000Y-88555442D01*
X143493165Y-88557100D01*
X135645434Y-88557100D01*
X135575843Y-88389091D01*
X135457803Y-88212433D01*
X135307567Y-88062197D01*
X135130909Y-87944157D01*
X134934616Y-87862850D01*
X134726233Y-87821400D01*
X134513767Y-87821400D01*
X134305384Y-87862850D01*
X134109091Y-87944157D01*
X133932433Y-88062197D01*
X133782197Y-88212433D01*
X133664157Y-88389091D01*
X133582850Y-88585384D01*
X133541400Y-88793767D01*
X133541400Y-89006233D01*
X133582850Y-89214616D01*
X133664157Y-89410909D01*
X133782197Y-89587567D01*
X133932433Y-89737803D01*
X134109091Y-89855843D01*
X134305384Y-89937150D01*
X134513767Y-89978600D01*
X134726233Y-89978600D01*
X134934616Y-89937150D01*
X135130909Y-89855843D01*
X135307567Y-89737803D01*
X135457803Y-89587567D01*
X135575843Y-89410909D01*
X135645434Y-89242900D01*
X143367967Y-89242900D01*
X146112485Y-91987419D01*
X146106400Y-92018013D01*
X146106400Y-92131987D01*
X146128635Y-92243772D01*
X146172251Y-92349070D01*
X146235572Y-92443836D01*
X146316164Y-92524428D01*
X146410930Y-92587749D01*
X146516228Y-92631365D01*
X146628013Y-92653600D01*
X146741987Y-92653600D01*
X146853772Y-92631365D01*
X146959070Y-92587749D01*
X146977101Y-92575701D01*
X146977101Y-93202966D01*
X146772581Y-93407486D01*
X146741987Y-93401400D01*
X146628013Y-93401400D01*
X146516228Y-93423635D01*
X146410930Y-93467251D01*
X146316164Y-93530572D01*
X146235572Y-93611164D01*
X146172251Y-93705930D01*
X146128635Y-93811228D01*
X146106400Y-93923013D01*
X146106400Y-94036987D01*
X146128635Y-94148772D01*
X146172251Y-94254070D01*
X146235572Y-94348836D01*
X146316164Y-94429428D01*
X146410930Y-94492749D01*
X146516228Y-94536365D01*
X146628013Y-94558600D01*
X146741987Y-94558600D01*
X146853772Y-94536365D01*
X146959070Y-94492749D01*
X147053836Y-94429428D01*
X147134428Y-94348836D01*
X147197749Y-94254070D01*
X147241365Y-94148772D01*
X147263600Y-94036987D01*
X147263600Y-93923013D01*
X147257514Y-93892419D01*
X147358110Y-93791823D01*
X147358110Y-94726957D01*
X146772581Y-95312486D01*
X146741987Y-95306400D01*
X146628013Y-95306400D01*
X146516228Y-95328635D01*
X146410930Y-95372251D01*
X146316164Y-95435572D01*
X146235572Y-95516164D01*
X146172251Y-95610930D01*
X146128635Y-95716228D01*
X146106400Y-95828013D01*
X146106400Y-95941987D01*
X146128635Y-96053772D01*
X146172251Y-96159070D01*
X146235572Y-96253836D01*
X146316164Y-96334428D01*
X146410930Y-96397749D01*
X146516228Y-96441365D01*
X146628013Y-96463600D01*
X146741987Y-96463600D01*
X146853772Y-96441365D01*
X146959070Y-96397749D01*
X147053836Y-96334428D01*
X147134428Y-96253836D01*
X147197749Y-96159070D01*
X147241365Y-96053772D01*
X147263600Y-95941987D01*
X147263600Y-95828013D01*
X147257514Y-95797419D01*
X147739120Y-95315813D01*
X147739120Y-96250947D01*
X146772581Y-97217486D01*
X146741987Y-97211400D01*
X146628013Y-97211400D01*
X146516228Y-97233635D01*
X146410930Y-97277251D01*
X146316164Y-97340572D01*
X146235572Y-97421164D01*
X146172251Y-97515930D01*
X146128635Y-97621228D01*
X146106400Y-97733013D01*
X146106400Y-97846987D01*
X146128635Y-97958772D01*
X146172251Y-98064070D01*
X146235572Y-98158836D01*
X146316164Y-98239428D01*
X146410930Y-98302749D01*
X146516228Y-98346365D01*
X146628013Y-98368600D01*
X146741987Y-98368600D01*
X146853772Y-98346365D01*
X146959070Y-98302749D01*
X147053836Y-98239428D01*
X147134428Y-98158836D01*
X147197749Y-98064070D01*
X147241365Y-97958772D01*
X147263600Y-97846987D01*
X147263600Y-97733013D01*
X147257514Y-97702419D01*
X148312576Y-96647357D01*
X148325659Y-96636620D01*
X148368510Y-96584407D01*
X148400351Y-96524837D01*
X148419958Y-96460200D01*
X148424531Y-96413767D01*
X148781400Y-96413767D01*
X148781400Y-96626233D01*
X148822850Y-96834616D01*
X148904157Y-97030909D01*
X149022197Y-97207567D01*
X149172433Y-97357803D01*
X149349091Y-97475843D01*
X149545384Y-97557150D01*
X149753767Y-97598600D01*
X149966233Y-97598600D01*
X150174616Y-97557150D01*
X150370909Y-97475843D01*
X150547567Y-97357803D01*
X150697803Y-97207567D01*
X150815843Y-97030909D01*
X150897150Y-96834616D01*
X150938600Y-96626233D01*
X150938600Y-96413767D01*
X150897150Y-96205384D01*
X150815843Y-96009091D01*
X150697803Y-95832433D01*
X150547567Y-95682197D01*
X150370909Y-95564157D01*
X150174616Y-95482850D01*
X149966233Y-95441400D01*
X149753767Y-95441400D01*
X149545384Y-95482850D01*
X149349091Y-95564157D01*
X149172433Y-95682197D01*
X149022197Y-95832433D01*
X148904157Y-96009091D01*
X148822850Y-96205384D01*
X148781400Y-96413767D01*
X148424531Y-96413767D01*
X148424920Y-96409823D01*
X148424920Y-96409822D01*
X148426579Y-96392980D01*
X148424920Y-96376137D01*
X148424920Y-93873767D01*
X148781400Y-93873767D01*
X148781400Y-94086233D01*
X148822850Y-94294616D01*
X148904157Y-94490909D01*
X149022197Y-94667567D01*
X149172433Y-94817803D01*
X149349091Y-94935843D01*
X149545384Y-95017150D01*
X149753767Y-95058600D01*
X149966233Y-95058600D01*
X150174616Y-95017150D01*
X150370909Y-94935843D01*
X150547567Y-94817803D01*
X150697803Y-94667567D01*
X150815843Y-94490909D01*
X150897150Y-94294616D01*
X150938600Y-94086233D01*
X150938600Y-93873767D01*
X150897150Y-93665384D01*
X150815843Y-93469091D01*
X150697803Y-93292433D01*
X150547567Y-93142197D01*
X150370909Y-93024157D01*
X150174616Y-92942850D01*
X149966233Y-92901400D01*
X149753767Y-92901400D01*
X149545384Y-92942850D01*
X149349091Y-93024157D01*
X149172433Y-93142197D01*
X149022197Y-93292433D01*
X148904157Y-93469091D01*
X148822850Y-93665384D01*
X148781400Y-93873767D01*
X148424920Y-93873767D01*
X148424920Y-91333767D01*
X148781400Y-91333767D01*
X148781400Y-91546233D01*
X148822850Y-91754616D01*
X148904157Y-91950909D01*
X149022197Y-92127567D01*
X149172433Y-92277803D01*
X149349091Y-92395843D01*
X149545384Y-92477150D01*
X149753767Y-92518600D01*
X149966233Y-92518600D01*
X150174616Y-92477150D01*
X150370909Y-92395843D01*
X150547567Y-92277803D01*
X150697803Y-92127567D01*
X150815843Y-91950909D01*
X150897150Y-91754616D01*
X150938600Y-91546233D01*
X150938600Y-91333767D01*
X150897150Y-91125384D01*
X150815843Y-90929091D01*
X150697803Y-90752433D01*
X150547567Y-90602197D01*
X150370909Y-90484157D01*
X150174616Y-90402850D01*
X149966233Y-90361400D01*
X149753767Y-90361400D01*
X149545384Y-90402850D01*
X149349091Y-90484157D01*
X149172433Y-90602197D01*
X149022197Y-90752433D01*
X148904157Y-90929091D01*
X148822850Y-91125384D01*
X148781400Y-91333767D01*
X148424920Y-91333767D01*
X148424920Y-89775024D01*
X148426578Y-89758189D01*
X148424920Y-89741354D01*
X148424920Y-89741347D01*
X148419958Y-89690970D01*
X148400351Y-89626333D01*
X148368510Y-89566763D01*
X148325660Y-89514550D01*
X148312577Y-89503813D01*
X147602531Y-88793767D01*
X148781400Y-88793767D01*
X148781400Y-89006233D01*
X148822850Y-89214616D01*
X148904157Y-89410909D01*
X149022197Y-89587567D01*
X149172433Y-89737803D01*
X149349091Y-89855843D01*
X149545384Y-89937150D01*
X149753767Y-89978600D01*
X149966233Y-89978600D01*
X150174616Y-89937150D01*
X150370909Y-89855843D01*
X150547567Y-89737803D01*
X150697803Y-89587567D01*
X150815843Y-89410909D01*
X150897150Y-89214616D01*
X150938600Y-89006233D01*
X150938600Y-88793767D01*
X150897150Y-88585384D01*
X150815843Y-88389091D01*
X150697803Y-88212433D01*
X150547567Y-88062197D01*
X150370909Y-87944157D01*
X150174616Y-87862850D01*
X149966233Y-87821400D01*
X149753767Y-87821400D01*
X149545384Y-87862850D01*
X149349091Y-87944157D01*
X149172433Y-88062197D01*
X149022197Y-88212433D01*
X148904157Y-88389091D01*
X148822850Y-88585384D01*
X148781400Y-88793767D01*
X147602531Y-88793767D01*
X145062531Y-86253767D01*
X148781400Y-86253767D01*
X148781400Y-86466233D01*
X148822850Y-86674616D01*
X148904157Y-86870909D01*
X149022197Y-87047567D01*
X149172433Y-87197803D01*
X149349091Y-87315843D01*
X149545384Y-87397150D01*
X149753767Y-87438600D01*
X149966233Y-87438600D01*
X150174616Y-87397150D01*
X150370909Y-87315843D01*
X150547567Y-87197803D01*
X150697803Y-87047567D01*
X150815843Y-86870909D01*
X150897150Y-86674616D01*
X150938600Y-86466233D01*
X150938600Y-86253767D01*
X150897150Y-86045384D01*
X150815843Y-85849091D01*
X150697803Y-85672433D01*
X150547567Y-85522197D01*
X150370909Y-85404157D01*
X150174616Y-85322850D01*
X149966233Y-85281400D01*
X149753767Y-85281400D01*
X149545384Y-85322850D01*
X149349091Y-85404157D01*
X149172433Y-85522197D01*
X149022197Y-85672433D01*
X148904157Y-85849091D01*
X148822850Y-86045384D01*
X148781400Y-86253767D01*
X145062531Y-86253767D01*
X142522531Y-83713767D01*
X148781400Y-83713767D01*
X148781400Y-83926233D01*
X148822850Y-84134616D01*
X148904157Y-84330909D01*
X149022197Y-84507567D01*
X149172433Y-84657803D01*
X149349091Y-84775843D01*
X149545384Y-84857150D01*
X149753767Y-84898600D01*
X149966233Y-84898600D01*
X150174616Y-84857150D01*
X150370909Y-84775843D01*
X150547567Y-84657803D01*
X150697803Y-84507567D01*
X150815843Y-84330909D01*
X150897150Y-84134616D01*
X150938600Y-83926233D01*
X150938600Y-83713767D01*
X150897150Y-83505384D01*
X150815843Y-83309091D01*
X150697803Y-83132433D01*
X150547567Y-82982197D01*
X150370909Y-82864157D01*
X150174616Y-82782850D01*
X149966233Y-82741400D01*
X149753767Y-82741400D01*
X149545384Y-82782850D01*
X149349091Y-82864157D01*
X149172433Y-82982197D01*
X149022197Y-83132433D01*
X148904157Y-83309091D01*
X148822850Y-83505384D01*
X148781400Y-83713767D01*
X142522531Y-83713767D01*
X139858211Y-81049448D01*
X139847470Y-81036360D01*
X139795257Y-80993510D01*
X139735687Y-80961669D01*
X139671050Y-80942062D01*
X139620673Y-80937100D01*
X139620665Y-80937100D01*
X139603830Y-80935442D01*
X139586995Y-80937100D01*
X135699706Y-80937100D01*
X135699706Y-80430000D01*
X148780294Y-80430000D01*
X148780294Y-82130000D01*
X148784708Y-82174813D01*
X148797779Y-82217905D01*
X148819006Y-82257618D01*
X148847573Y-82292427D01*
X148882382Y-82320994D01*
X148922095Y-82342221D01*
X148965187Y-82355292D01*
X149010000Y-82359706D01*
X150710000Y-82359706D01*
X150754813Y-82355292D01*
X150797905Y-82342221D01*
X150837618Y-82320994D01*
X150872427Y-82292427D01*
X150900994Y-82257618D01*
X150922221Y-82217905D01*
X150935292Y-82174813D01*
X150939706Y-82130000D01*
X150939706Y-80430000D01*
X150935292Y-80385187D01*
X150922221Y-80342095D01*
X150900994Y-80302382D01*
X150872427Y-80267573D01*
X150837618Y-80239006D01*
X150797905Y-80217779D01*
X150754813Y-80204708D01*
X150710000Y-80200294D01*
X149010000Y-80200294D01*
X148965187Y-80204708D01*
X148922095Y-80217779D01*
X148882382Y-80239006D01*
X148847573Y-80267573D01*
X148819006Y-80302382D01*
X148797779Y-80342095D01*
X148784708Y-80385187D01*
X148780294Y-80430000D01*
X135699706Y-80430000D01*
X135695292Y-80385187D01*
X135682221Y-80342095D01*
X135660994Y-80302382D01*
X135632427Y-80267573D01*
X135597618Y-80239006D01*
X135557905Y-80217779D01*
X135514813Y-80204708D01*
X135470000Y-80200294D01*
X133770000Y-80200294D01*
X133725187Y-80204708D01*
X133682095Y-80217779D01*
X133642382Y-80239006D01*
X133607573Y-80267573D01*
X133579006Y-80302382D01*
X133557779Y-80342095D01*
X133544708Y-80385187D01*
X133540294Y-80430000D01*
X132333600Y-80430000D01*
X132333600Y-79387405D01*
X132342057Y-79301153D01*
X132363502Y-79230122D01*
X132398337Y-79164608D01*
X132445234Y-79107108D01*
X132502404Y-79059813D01*
X132567672Y-79024523D01*
X132638554Y-79002582D01*
X132724005Y-78993600D01*
X151752595Y-78993600D01*
X151838847Y-79002057D01*
G37*
X151838847Y-79002057D02*
X151909878Y-79023502D01*
X151975392Y-79058337D01*
X152032892Y-79105234D01*
X152080187Y-79162404D01*
X152115477Y-79227672D01*
X152137418Y-79298554D01*
X152146400Y-79384005D01*
X152146401Y-111112585D01*
X152137943Y-111198848D01*
X152116499Y-111269875D01*
X152081665Y-111335389D01*
X152034768Y-111392890D01*
X151977598Y-111440186D01*
X151912328Y-111475477D01*
X151841446Y-111497418D01*
X151755995Y-111506400D01*
X132727405Y-111506400D01*
X132641152Y-111497943D01*
X132570125Y-111476499D01*
X132504611Y-111441665D01*
X132447110Y-111394768D01*
X132399814Y-111337598D01*
X132364523Y-111272328D01*
X132342582Y-111201446D01*
X132333600Y-111115995D01*
X132333600Y-109463570D01*
X133569261Y-109463570D01*
X133611019Y-109601240D01*
X133704783Y-109790757D01*
X133833718Y-109958340D01*
X133992869Y-110097549D01*
X134176120Y-110203034D01*
X134376429Y-110270742D01*
X134543800Y-110238759D01*
X134543800Y-109296200D01*
X134696200Y-109296200D01*
X134696200Y-110238759D01*
X134863571Y-110270742D01*
X135063880Y-110203034D01*
X135247131Y-110097549D01*
X135406282Y-109958340D01*
X135535217Y-109790757D01*
X135628981Y-109601240D01*
X135670739Y-109463570D01*
X135638604Y-109296200D01*
X134696200Y-109296200D01*
X134543800Y-109296200D01*
X133601396Y-109296200D01*
X133569261Y-109463570D01*
X132333600Y-109463570D01*
X132333600Y-108976430D01*
X133569261Y-108976430D01*
X133601396Y-109143800D01*
X134543800Y-109143800D01*
X134543800Y-108201241D01*
X134696200Y-108201241D01*
X134696200Y-109143800D01*
X135638604Y-109143800D01*
X135670739Y-108976430D01*
X135628981Y-108838760D01*
X135535217Y-108649243D01*
X135406282Y-108481660D01*
X135247131Y-108342451D01*
X135063880Y-108236966D01*
X134863571Y-108169258D01*
X134696200Y-108201241D01*
X134543800Y-108201241D01*
X134376429Y-108169258D01*
X134176120Y-108236966D01*
X133992869Y-108342451D01*
X133833718Y-108481660D01*
X133704783Y-108649243D01*
X133611019Y-108838760D01*
X133569261Y-108976430D01*
X132333600Y-108976430D01*
X132333600Y-106573767D01*
X133541400Y-106573767D01*
X133541400Y-106786233D01*
X133582850Y-106994616D01*
X133664157Y-107190909D01*
X133782197Y-107367567D01*
X133932433Y-107517803D01*
X134109091Y-107635843D01*
X134305384Y-107717150D01*
X134513767Y-107758600D01*
X134726233Y-107758600D01*
X134934616Y-107717150D01*
X135130909Y-107635843D01*
X135307567Y-107517803D01*
X135457803Y-107367567D01*
X135575843Y-107190909D01*
X135629653Y-107061000D01*
X140210294Y-107061000D01*
X140210294Y-107430000D01*
X140214708Y-107474813D01*
X140227779Y-107517905D01*
X140249006Y-107557618D01*
X140277573Y-107592427D01*
X140312382Y-107620994D01*
X140352095Y-107642221D01*
X140395187Y-107655292D01*
X140440000Y-107659706D01*
X140559000Y-107659706D01*
X140559001Y-108875294D01*
X140440000Y-108875294D01*
X140395187Y-108879708D01*
X140352095Y-108892779D01*
X140312382Y-108914006D01*
X140277573Y-108942573D01*
X140249006Y-108977382D01*
X140227779Y-109017095D01*
X140214708Y-109060187D01*
X140210294Y-109105000D01*
X140210294Y-110605000D01*
X140214708Y-110649813D01*
X140227779Y-110692905D01*
X140249006Y-110732618D01*
X140277573Y-110767427D01*
X140312382Y-110795994D01*
X140352095Y-110817221D01*
X140395187Y-110830292D01*
X140440000Y-110834706D01*
X141440000Y-110834706D01*
X141484813Y-110830292D01*
X141527905Y-110817221D01*
X141567618Y-110795994D01*
X141590000Y-110777626D01*
X141612382Y-110795994D01*
X141652095Y-110817221D01*
X141695187Y-110830292D01*
X141740000Y-110834706D01*
X142740000Y-110834706D01*
X142784813Y-110830292D01*
X142827905Y-110817221D01*
X142867618Y-110795994D01*
X142890000Y-110777626D01*
X142912382Y-110795994D01*
X142952095Y-110817221D01*
X142995187Y-110830292D01*
X143040000Y-110834706D01*
X143406650Y-110833600D01*
X143463800Y-110776450D01*
X143463800Y-109931200D01*
X143616200Y-109931200D01*
X143616200Y-110776450D01*
X143673350Y-110833600D01*
X144040000Y-110834706D01*
X144084813Y-110830292D01*
X144127905Y-110817221D01*
X144167618Y-110795994D01*
X144202427Y-110767427D01*
X144230994Y-110732618D01*
X144252221Y-110692905D01*
X144265292Y-110649813D01*
X144269706Y-110605000D01*
X144268600Y-109988350D01*
X144211450Y-109931200D01*
X143616200Y-109931200D01*
X143463800Y-109931200D01*
X143443800Y-109931200D01*
X143443800Y-109778800D01*
X143463800Y-109778800D01*
X143463800Y-109758800D01*
X143616200Y-109758800D01*
X143616200Y-109778800D01*
X144211450Y-109778800D01*
X144268600Y-109721650D01*
X144269062Y-109463570D01*
X148809261Y-109463570D01*
X148851019Y-109601240D01*
X148944783Y-109790757D01*
X149073718Y-109958340D01*
X149232869Y-110097549D01*
X149416120Y-110203034D01*
X149616429Y-110270742D01*
X149783800Y-110238759D01*
X149783800Y-109296200D01*
X149936200Y-109296200D01*
X149936200Y-110238759D01*
X150103571Y-110270742D01*
X150303880Y-110203034D01*
X150487131Y-110097549D01*
X150646282Y-109958340D01*
X150775217Y-109790757D01*
X150868981Y-109601240D01*
X150910739Y-109463570D01*
X150878604Y-109296200D01*
X149936200Y-109296200D01*
X149783800Y-109296200D01*
X148841396Y-109296200D01*
X148809261Y-109463570D01*
X144269062Y-109463570D01*
X144269706Y-109105000D01*
X144265292Y-109060187D01*
X144252221Y-109017095D01*
X144230994Y-108977382D01*
X144230213Y-108976430D01*
X148809261Y-108976430D01*
X148841396Y-109143800D01*
X149783800Y-109143800D01*
X149783800Y-108201241D01*
X149936200Y-108201241D01*
X149936200Y-109143800D01*
X150878604Y-109143800D01*
X150910739Y-108976430D01*
X150868981Y-108838760D01*
X150775217Y-108649243D01*
X150646282Y-108481660D01*
X150487131Y-108342451D01*
X150303880Y-108236966D01*
X150103571Y-108169258D01*
X149936200Y-108201241D01*
X149783800Y-108201241D01*
X149616429Y-108169258D01*
X149416120Y-108236966D01*
X149232869Y-108342451D01*
X149073718Y-108481660D01*
X148944783Y-108649243D01*
X148851019Y-108838760D01*
X148809261Y-108976430D01*
X144230213Y-108976430D01*
X144202427Y-108942573D01*
X144167618Y-108914006D01*
X144127905Y-108892779D01*
X144084813Y-108879708D01*
X144040000Y-108875294D01*
X143673350Y-108876400D01*
X143616202Y-108933548D01*
X143616202Y-108876400D01*
X143558595Y-108876400D01*
X145861228Y-106573767D01*
X148781400Y-106573767D01*
X148781400Y-106786233D01*
X148822850Y-106994616D01*
X148904157Y-107190909D01*
X149022197Y-107367567D01*
X149172433Y-107517803D01*
X149349091Y-107635843D01*
X149545384Y-107717150D01*
X149753767Y-107758600D01*
X149966233Y-107758600D01*
X150174616Y-107717150D01*
X150370909Y-107635843D01*
X150547567Y-107517803D01*
X150697803Y-107367567D01*
X150815843Y-107190909D01*
X150897150Y-106994616D01*
X150938600Y-106786233D01*
X150938600Y-106573767D01*
X150897150Y-106365384D01*
X150815843Y-106169091D01*
X150697803Y-105992433D01*
X150547567Y-105842197D01*
X150370909Y-105724157D01*
X150174616Y-105642850D01*
X149966233Y-105601400D01*
X149753767Y-105601400D01*
X149545384Y-105642850D01*
X149349091Y-105724157D01*
X149172433Y-105842197D01*
X149022197Y-105992433D01*
X148904157Y-106169091D01*
X148822850Y-106365384D01*
X148781400Y-106573767D01*
X145861228Y-106573767D01*
X146915557Y-105519439D01*
X146928640Y-105508702D01*
X146971490Y-105456489D01*
X147003331Y-105396919D01*
X147022938Y-105332282D01*
X147027900Y-105281905D01*
X147027900Y-105281898D01*
X147029558Y-105265063D01*
X147027900Y-105248228D01*
X147027900Y-104033767D01*
X148781400Y-104033767D01*
X148781400Y-104246233D01*
X148822850Y-104454616D01*
X148904157Y-104650909D01*
X149022197Y-104827567D01*
X149172433Y-104977803D01*
X149349091Y-105095843D01*
X149545384Y-105177150D01*
X149753767Y-105218600D01*
X149966233Y-105218600D01*
X150174616Y-105177150D01*
X150370909Y-105095843D01*
X150547567Y-104977803D01*
X150697803Y-104827567D01*
X150815843Y-104650909D01*
X150897150Y-104454616D01*
X150938600Y-104246233D01*
X150938600Y-104033767D01*
X150897150Y-103825384D01*
X150815843Y-103629091D01*
X150697803Y-103452433D01*
X150547567Y-103302197D01*
X150370909Y-103184157D01*
X150174616Y-103102850D01*
X149966233Y-103061400D01*
X149753767Y-103061400D01*
X149545384Y-103102850D01*
X149349091Y-103184157D01*
X149172433Y-103302197D01*
X149022197Y-103452433D01*
X148904157Y-103629091D01*
X148822850Y-103825384D01*
X148781400Y-104033767D01*
X147027900Y-104033767D01*
X147027900Y-101493767D01*
X148781400Y-101493767D01*
X148781400Y-101706233D01*
X148822850Y-101914616D01*
X148904157Y-102110909D01*
X149022197Y-102287567D01*
X149172433Y-102437803D01*
X149349091Y-102555843D01*
X149545384Y-102637150D01*
X149753767Y-102678600D01*
X149966233Y-102678600D01*
X150174616Y-102637150D01*
X150370909Y-102555843D01*
X150547567Y-102437803D01*
X150697803Y-102287567D01*
X150815843Y-102110909D01*
X150897150Y-101914616D01*
X150938600Y-101706233D01*
X150938600Y-101493767D01*
X150897150Y-101285384D01*
X150815843Y-101089091D01*
X150697803Y-100912433D01*
X150547567Y-100762197D01*
X150370909Y-100644157D01*
X150174616Y-100562850D01*
X149966233Y-100521400D01*
X149753767Y-100521400D01*
X149545384Y-100562850D01*
X149349091Y-100644157D01*
X149172433Y-100762197D01*
X149022197Y-100912433D01*
X148904157Y-101089091D01*
X148822850Y-101285384D01*
X148781400Y-101493767D01*
X147027900Y-101493767D01*
X147027900Y-100161758D01*
X147053836Y-100144428D01*
X147134428Y-100063836D01*
X147197749Y-99969070D01*
X147241365Y-99863772D01*
X147263600Y-99751987D01*
X147263600Y-99638013D01*
X147241365Y-99526228D01*
X147197749Y-99420930D01*
X147134428Y-99326164D01*
X147053836Y-99245572D01*
X146959070Y-99182251D01*
X146853772Y-99138635D01*
X146741987Y-99116400D01*
X146628013Y-99116400D01*
X146516228Y-99138635D01*
X146410930Y-99182251D01*
X146316164Y-99245572D01*
X146235572Y-99326164D01*
X146172251Y-99420930D01*
X146128635Y-99526228D01*
X146106400Y-99638013D01*
X146106400Y-99751987D01*
X146128635Y-99863772D01*
X146172251Y-99969070D01*
X146235572Y-100063836D01*
X146316164Y-100144428D01*
X146342100Y-100161758D01*
X146342101Y-105123027D01*
X144269286Y-107195843D01*
X144268600Y-106813350D01*
X144211450Y-106756200D01*
X143616200Y-106756200D01*
X143616200Y-107601450D01*
X143673350Y-107658600D01*
X143806128Y-107659001D01*
X142969730Y-108495399D01*
X142294944Y-108495399D01*
X142278101Y-108493740D01*
X142261258Y-108495399D01*
X142210881Y-108500361D01*
X142146244Y-108519968D01*
X142086674Y-108551809D01*
X142034461Y-108594659D01*
X142023720Y-108607747D01*
X142009444Y-108622023D01*
X141996360Y-108632761D01*
X141953510Y-108684974D01*
X141921669Y-108744544D01*
X141902062Y-108809181D01*
X141897100Y-108859558D01*
X141897100Y-108859565D01*
X141895551Y-108875294D01*
X141740000Y-108875294D01*
X141695187Y-108879708D01*
X141652095Y-108892779D01*
X141612382Y-108914006D01*
X141590000Y-108932374D01*
X141567618Y-108914006D01*
X141527905Y-108892779D01*
X141484813Y-108879708D01*
X141440000Y-108875294D01*
X141321000Y-108875294D01*
X141321000Y-107659706D01*
X141440000Y-107659706D01*
X141484813Y-107655292D01*
X141527905Y-107642221D01*
X141567618Y-107620994D01*
X141590000Y-107602626D01*
X141612382Y-107620994D01*
X141652095Y-107642221D01*
X141695187Y-107655292D01*
X141740000Y-107659706D01*
X142740000Y-107659706D01*
X142784813Y-107655292D01*
X142827905Y-107642221D01*
X142867618Y-107620994D01*
X142890000Y-107602626D01*
X142912382Y-107620994D01*
X142952095Y-107642221D01*
X142995187Y-107655292D01*
X143040000Y-107659706D01*
X143406650Y-107658600D01*
X143463800Y-107601450D01*
X143463800Y-106756200D01*
X143443800Y-106756200D01*
X143443800Y-106603800D01*
X143463800Y-106603800D01*
X143463800Y-105758550D01*
X143616200Y-105758550D01*
X143616200Y-106603800D01*
X144211450Y-106603800D01*
X144268600Y-106546650D01*
X144269706Y-105930000D01*
X144265292Y-105885187D01*
X144252221Y-105842095D01*
X144230994Y-105802382D01*
X144202427Y-105767573D01*
X144167618Y-105739006D01*
X144127905Y-105717779D01*
X144084813Y-105704708D01*
X144040000Y-105700294D01*
X143673350Y-105701400D01*
X143616200Y-105758550D01*
X143463800Y-105758550D01*
X143406650Y-105701400D01*
X143040000Y-105700294D01*
X142995187Y-105704708D01*
X142952095Y-105717779D01*
X142912382Y-105739006D01*
X142890000Y-105757374D01*
X142867618Y-105739006D01*
X142827905Y-105717779D01*
X142784813Y-105704708D01*
X142740000Y-105700294D01*
X142582900Y-105700294D01*
X142582900Y-99711843D01*
X142584559Y-99695000D01*
X142577938Y-99627780D01*
X142558331Y-99563143D01*
X142526490Y-99503573D01*
X142494376Y-99464443D01*
X142483639Y-99451360D01*
X142470556Y-99440623D01*
X141983700Y-98953767D01*
X148781400Y-98953767D01*
X148781400Y-99166233D01*
X148822850Y-99374616D01*
X148904157Y-99570909D01*
X149022197Y-99747567D01*
X149172433Y-99897803D01*
X149349091Y-100015843D01*
X149545384Y-100097150D01*
X149753767Y-100138600D01*
X149966233Y-100138600D01*
X150174616Y-100097150D01*
X150370909Y-100015843D01*
X150547567Y-99897803D01*
X150697803Y-99747567D01*
X150815843Y-99570909D01*
X150897150Y-99374616D01*
X150938600Y-99166233D01*
X150938600Y-98953767D01*
X150897150Y-98745384D01*
X150815843Y-98549091D01*
X150697803Y-98372433D01*
X150547567Y-98222197D01*
X150370909Y-98104157D01*
X150174616Y-98022850D01*
X149966233Y-97981400D01*
X149753767Y-97981400D01*
X149545384Y-98022850D01*
X149349091Y-98104157D01*
X149172433Y-98222197D01*
X149022197Y-98372433D01*
X148904157Y-98549091D01*
X148822850Y-98745384D01*
X148781400Y-98953767D01*
X141983700Y-98953767D01*
X139002514Y-95972581D01*
X139008600Y-95941987D01*
X139008600Y-95828013D01*
X138986365Y-95716228D01*
X138942749Y-95610930D01*
X138879428Y-95516164D01*
X138798836Y-95435572D01*
X138704070Y-95372251D01*
X138598772Y-95328635D01*
X138486987Y-95306400D01*
X138373013Y-95306400D01*
X138261228Y-95328635D01*
X138155930Y-95372251D01*
X138061164Y-95435572D01*
X137980572Y-95516164D01*
X137917251Y-95610930D01*
X137873635Y-95716228D01*
X137851400Y-95828013D01*
X137851400Y-95941987D01*
X137873635Y-96053772D01*
X137917251Y-96159070D01*
X137980572Y-96253836D01*
X138061164Y-96334428D01*
X138155930Y-96397749D01*
X138261228Y-96441365D01*
X138373013Y-96463600D01*
X138486987Y-96463600D01*
X138517581Y-96457514D01*
X141897100Y-99837033D01*
X141897101Y-105700294D01*
X141740000Y-105700294D01*
X141695187Y-105704708D01*
X141652095Y-105717779D01*
X141612382Y-105739006D01*
X141590000Y-105757374D01*
X141567618Y-105739006D01*
X141527905Y-105717779D01*
X141484813Y-105704708D01*
X141440000Y-105700294D01*
X140440000Y-105700294D01*
X140395187Y-105704708D01*
X140352095Y-105717779D01*
X140312382Y-105739006D01*
X140277573Y-105767573D01*
X140249006Y-105802382D01*
X140227779Y-105842095D01*
X140214708Y-105885187D01*
X140210294Y-105930000D01*
X140210294Y-106299000D01*
X135629653Y-106299000D01*
X135575843Y-106169091D01*
X135457803Y-105992433D01*
X135307567Y-105842197D01*
X135130909Y-105724157D01*
X134934616Y-105642850D01*
X134726233Y-105601400D01*
X134513767Y-105601400D01*
X134305384Y-105642850D01*
X134109091Y-105724157D01*
X133932433Y-105842197D01*
X133782197Y-105992433D01*
X133664157Y-106169091D01*
X133582850Y-106365384D01*
X133541400Y-106573767D01*
X132333600Y-106573767D01*
X132333600Y-104033767D01*
X133541400Y-104033767D01*
X133541400Y-104246233D01*
X133582850Y-104454616D01*
X133664157Y-104650909D01*
X133782197Y-104827567D01*
X133932433Y-104977803D01*
X134109091Y-105095843D01*
X134305384Y-105177150D01*
X134513767Y-105218600D01*
X134726233Y-105218600D01*
X134934616Y-105177150D01*
X135130909Y-105095843D01*
X135307567Y-104977803D01*
X135457803Y-104827567D01*
X135575843Y-104650909D01*
X135657150Y-104454616D01*
X135698600Y-104246233D01*
X135698600Y-104033767D01*
X135657150Y-103825384D01*
X135575843Y-103629091D01*
X135457803Y-103452433D01*
X135307567Y-103302197D01*
X135130909Y-103184157D01*
X134934616Y-103102850D01*
X134726233Y-103061400D01*
X134513767Y-103061400D01*
X134305384Y-103102850D01*
X134109091Y-103184157D01*
X133932433Y-103302197D01*
X133782197Y-103452433D01*
X133664157Y-103629091D01*
X133582850Y-103825384D01*
X133541400Y-104033767D01*
X132333600Y-104033767D01*
X132333600Y-101493767D01*
X133541400Y-101493767D01*
X133541400Y-101706233D01*
X133582850Y-101914616D01*
X133664157Y-102110909D01*
X133782197Y-102287567D01*
X133932433Y-102437803D01*
X134109091Y-102555843D01*
X134305384Y-102637150D01*
X134513767Y-102678600D01*
X134726233Y-102678600D01*
X134934616Y-102637150D01*
X135130909Y-102555843D01*
X135307567Y-102437803D01*
X135457803Y-102287567D01*
X135575843Y-102110909D01*
X135657150Y-101914616D01*
X135698600Y-101706233D01*
X135698600Y-101493767D01*
X135657150Y-101285384D01*
X135575843Y-101089091D01*
X135457803Y-100912433D01*
X135307567Y-100762197D01*
X135130909Y-100644157D01*
X134934616Y-100562850D01*
X134726233Y-100521400D01*
X134513767Y-100521400D01*
X134305384Y-100562850D01*
X134109091Y-100644157D01*
X133932433Y-100762197D01*
X133782197Y-100912433D01*
X133664157Y-101089091D01*
X133582850Y-101285384D01*
X133541400Y-101493767D01*
X132333600Y-101493767D01*
X132333600Y-98953767D01*
X133541400Y-98953767D01*
X133541400Y-99166233D01*
X133582850Y-99374616D01*
X133664157Y-99570909D01*
X133782197Y-99747567D01*
X133932433Y-99897803D01*
X134109091Y-100015843D01*
X134305384Y-100097150D01*
X134513767Y-100138600D01*
X134726233Y-100138600D01*
X134934616Y-100097150D01*
X135130909Y-100015843D01*
X135307567Y-99897803D01*
X135457803Y-99747567D01*
X135575843Y-99570909D01*
X135657150Y-99374616D01*
X135698600Y-99166233D01*
X135698600Y-98953767D01*
X135657150Y-98745384D01*
X135575843Y-98549091D01*
X135457803Y-98372433D01*
X135307567Y-98222197D01*
X135130909Y-98104157D01*
X134934616Y-98022850D01*
X134726233Y-97981400D01*
X134513767Y-97981400D01*
X134305384Y-98022850D01*
X134109091Y-98104157D01*
X133932433Y-98222197D01*
X133782197Y-98372433D01*
X133664157Y-98549091D01*
X133582850Y-98745384D01*
X133541400Y-98953767D01*
X132333600Y-98953767D01*
X132333600Y-96413767D01*
X133541400Y-96413767D01*
X133541400Y-96626233D01*
X133582850Y-96834616D01*
X133664157Y-97030909D01*
X133782197Y-97207567D01*
X133932433Y-97357803D01*
X134109091Y-97475843D01*
X134305384Y-97557150D01*
X134513767Y-97598600D01*
X134726233Y-97598600D01*
X134934616Y-97557150D01*
X135130909Y-97475843D01*
X135307567Y-97357803D01*
X135457803Y-97207567D01*
X135575843Y-97030909D01*
X135657150Y-96834616D01*
X135698600Y-96626233D01*
X135698600Y-96413767D01*
X135657150Y-96205384D01*
X135575843Y-96009091D01*
X135457803Y-95832433D01*
X135307567Y-95682197D01*
X135130909Y-95564157D01*
X134934616Y-95482850D01*
X134726233Y-95441400D01*
X134513767Y-95441400D01*
X134305384Y-95482850D01*
X134109091Y-95564157D01*
X133932433Y-95682197D01*
X133782197Y-95832433D01*
X133664157Y-96009091D01*
X133582850Y-96205384D01*
X133541400Y-96413767D01*
X132333600Y-96413767D01*
X132333600Y-93873767D01*
X133541400Y-93873767D01*
X133541400Y-94086233D01*
X133582850Y-94294616D01*
X133664157Y-94490909D01*
X133782197Y-94667567D01*
X133932433Y-94817803D01*
X134109091Y-94935843D01*
X134305384Y-95017150D01*
X134513767Y-95058600D01*
X134726233Y-95058600D01*
X134934616Y-95017150D01*
X135130909Y-94935843D01*
X135307567Y-94817803D01*
X135457803Y-94667567D01*
X135575843Y-94490909D01*
X135657150Y-94294616D01*
X135698600Y-94086233D01*
X135698600Y-93873767D01*
X135657150Y-93665384D01*
X135575843Y-93469091D01*
X135457803Y-93292433D01*
X135307567Y-93142197D01*
X135130909Y-93024157D01*
X134934616Y-92942850D01*
X134726233Y-92901400D01*
X134513767Y-92901400D01*
X134305384Y-92942850D01*
X134109091Y-93024157D01*
X133932433Y-93142197D01*
X133782197Y-93292433D01*
X133664157Y-93469091D01*
X133582850Y-93665384D01*
X133541400Y-93873767D01*
X132333600Y-93873767D01*
X132333600Y-91333767D01*
X133541400Y-91333767D01*
X133541400Y-91546233D01*
X133582850Y-91754616D01*
X133664157Y-91950909D01*
X133782197Y-92127567D01*
X133932433Y-92277803D01*
X134109091Y-92395843D01*
X134305384Y-92477150D01*
X134513767Y-92518600D01*
X134726233Y-92518600D01*
X134934616Y-92477150D01*
X135130909Y-92395843D01*
X135307567Y-92277803D01*
X135457803Y-92127567D01*
X135575843Y-91950909D01*
X135657150Y-91754616D01*
X135698600Y-91546233D01*
X135698600Y-91333767D01*
X135657150Y-91125384D01*
X135575843Y-90929091D01*
X135457803Y-90752433D01*
X135307567Y-90602197D01*
X135130909Y-90484157D01*
X134934616Y-90402850D01*
X134726233Y-90361400D01*
X134513767Y-90361400D01*
X134305384Y-90402850D01*
X134109091Y-90484157D01*
X133932433Y-90602197D01*
X133782197Y-90752433D01*
X133664157Y-90929091D01*
X133582850Y-91125384D01*
X133541400Y-91333767D01*
X132333600Y-91333767D01*
X132333600Y-80430000D01*
X133540294Y-80430000D01*
X133540294Y-82130000D01*
X133544708Y-82174813D01*
X133557779Y-82217905D01*
X133579006Y-82257618D01*
X133607573Y-82292427D01*
X133642382Y-82320994D01*
X133682095Y-82342221D01*
X133725187Y-82355292D01*
X133770000Y-82359706D01*
X135470000Y-82359706D01*
X135514813Y-82355292D01*
X135557905Y-82342221D01*
X135597618Y-82320994D01*
X135632427Y-82292427D01*
X135660994Y-82257618D01*
X135682221Y-82217905D01*
X135695292Y-82174813D01*
X135699706Y-82130000D01*
X135699706Y-81622900D01*
X139461797Y-81622900D01*
X141315997Y-83477100D01*
X135645434Y-83477100D01*
X135575843Y-83309091D01*
X135457803Y-83132433D01*
X135307567Y-82982197D01*
X135130909Y-82864157D01*
X134934616Y-82782850D01*
X134726233Y-82741400D01*
X134513767Y-82741400D01*
X134305384Y-82782850D01*
X134109091Y-82864157D01*
X133932433Y-82982197D01*
X133782197Y-83132433D01*
X133664157Y-83309091D01*
X133582850Y-83505384D01*
X133541400Y-83713767D01*
X133541400Y-83926233D01*
X133582850Y-84134616D01*
X133664157Y-84330909D01*
X133782197Y-84507567D01*
X133932433Y-84657803D01*
X134109091Y-84775843D01*
X134305384Y-84857150D01*
X134513767Y-84898600D01*
X134726233Y-84898600D01*
X134934616Y-84857150D01*
X135130909Y-84775843D01*
X135307567Y-84657803D01*
X135457803Y-84507567D01*
X135575843Y-84330909D01*
X135645434Y-84162900D01*
X141366797Y-84162900D01*
X143220997Y-86017100D01*
X135645434Y-86017100D01*
X135575843Y-85849091D01*
X135457803Y-85672433D01*
X135307567Y-85522197D01*
X135130909Y-85404157D01*
X134934616Y-85322850D01*
X134726233Y-85281400D01*
X134513767Y-85281400D01*
X134305384Y-85322850D01*
X134109091Y-85404157D01*
X133932433Y-85522197D01*
X133782197Y-85672433D01*
X133664157Y-85849091D01*
X133582850Y-86045384D01*
X133541400Y-86253767D01*
X133541400Y-86466233D01*
X133582850Y-86674616D01*
X133664157Y-86870909D01*
X133782197Y-87047567D01*
X133932433Y-87197803D01*
X134109091Y-87315843D01*
X134305384Y-87397150D01*
X134513767Y-87438600D01*
X134726233Y-87438600D01*
X134934616Y-87397150D01*
X135130909Y-87315843D01*
X135307567Y-87197803D01*
X135457803Y-87047567D01*
X135575843Y-86870909D01*
X135645434Y-86702900D01*
X143367967Y-86702900D01*
X146977100Y-90312033D01*
X146977100Y-91574299D01*
X146959070Y-91562251D01*
X146853772Y-91518635D01*
X146741987Y-91496400D01*
X146628013Y-91496400D01*
X146597419Y-91502485D01*
X143764381Y-88669448D01*
X143753640Y-88656360D01*
X143701427Y-88613510D01*
X143641857Y-88581669D01*
X143577220Y-88562062D01*
X143526843Y-88557100D01*
X143526835Y-88557100D01*
X143510000Y-88555442D01*
X143493165Y-88557100D01*
X135645434Y-88557100D01*
X135575843Y-88389091D01*
X135457803Y-88212433D01*
X135307567Y-88062197D01*
X135130909Y-87944157D01*
X134934616Y-87862850D01*
X134726233Y-87821400D01*
X134513767Y-87821400D01*
X134305384Y-87862850D01*
X134109091Y-87944157D01*
X133932433Y-88062197D01*
X133782197Y-88212433D01*
X133664157Y-88389091D01*
X133582850Y-88585384D01*
X133541400Y-88793767D01*
X133541400Y-89006233D01*
X133582850Y-89214616D01*
X133664157Y-89410909D01*
X133782197Y-89587567D01*
X133932433Y-89737803D01*
X134109091Y-89855843D01*
X134305384Y-89937150D01*
X134513767Y-89978600D01*
X134726233Y-89978600D01*
X134934616Y-89937150D01*
X135130909Y-89855843D01*
X135307567Y-89737803D01*
X135457803Y-89587567D01*
X135575843Y-89410909D01*
X135645434Y-89242900D01*
X143367967Y-89242900D01*
X146112485Y-91987419D01*
X146106400Y-92018013D01*
X146106400Y-92131987D01*
X146128635Y-92243772D01*
X146172251Y-92349070D01*
X146235572Y-92443836D01*
X146316164Y-92524428D01*
X146410930Y-92587749D01*
X146516228Y-92631365D01*
X146628013Y-92653600D01*
X146741987Y-92653600D01*
X146853772Y-92631365D01*
X146959070Y-92587749D01*
X146977101Y-92575701D01*
X146977101Y-93202966D01*
X146772581Y-93407486D01*
X146741987Y-93401400D01*
X146628013Y-93401400D01*
X146516228Y-93423635D01*
X146410930Y-93467251D01*
X146316164Y-93530572D01*
X146235572Y-93611164D01*
X146172251Y-93705930D01*
X146128635Y-93811228D01*
X146106400Y-93923013D01*
X146106400Y-94036987D01*
X146128635Y-94148772D01*
X146172251Y-94254070D01*
X146235572Y-94348836D01*
X146316164Y-94429428D01*
X146410930Y-94492749D01*
X146516228Y-94536365D01*
X146628013Y-94558600D01*
X146741987Y-94558600D01*
X146853772Y-94536365D01*
X146959070Y-94492749D01*
X147053836Y-94429428D01*
X147134428Y-94348836D01*
X147197749Y-94254070D01*
X147241365Y-94148772D01*
X147263600Y-94036987D01*
X147263600Y-93923013D01*
X147257514Y-93892419D01*
X147358110Y-93791823D01*
X147358110Y-94726957D01*
X146772581Y-95312486D01*
X146741987Y-95306400D01*
X146628013Y-95306400D01*
X146516228Y-95328635D01*
X146410930Y-95372251D01*
X146316164Y-95435572D01*
X146235572Y-95516164D01*
X146172251Y-95610930D01*
X146128635Y-95716228D01*
X146106400Y-95828013D01*
X146106400Y-95941987D01*
X146128635Y-96053772D01*
X146172251Y-96159070D01*
X146235572Y-96253836D01*
X146316164Y-96334428D01*
X146410930Y-96397749D01*
X146516228Y-96441365D01*
X146628013Y-96463600D01*
X146741987Y-96463600D01*
X146853772Y-96441365D01*
X146959070Y-96397749D01*
X147053836Y-96334428D01*
X147134428Y-96253836D01*
X147197749Y-96159070D01*
X147241365Y-96053772D01*
X147263600Y-95941987D01*
X147263600Y-95828013D01*
X147257514Y-95797419D01*
X147739120Y-95315813D01*
X147739120Y-96250947D01*
X146772581Y-97217486D01*
X146741987Y-97211400D01*
X146628013Y-97211400D01*
X146516228Y-97233635D01*
X146410930Y-97277251D01*
X146316164Y-97340572D01*
X146235572Y-97421164D01*
X146172251Y-97515930D01*
X146128635Y-97621228D01*
X146106400Y-97733013D01*
X146106400Y-97846987D01*
X146128635Y-97958772D01*
X146172251Y-98064070D01*
X146235572Y-98158836D01*
X146316164Y-98239428D01*
X146410930Y-98302749D01*
X146516228Y-98346365D01*
X146628013Y-98368600D01*
X146741987Y-98368600D01*
X146853772Y-98346365D01*
X146959070Y-98302749D01*
X147053836Y-98239428D01*
X147134428Y-98158836D01*
X147197749Y-98064070D01*
X147241365Y-97958772D01*
X147263600Y-97846987D01*
X147263600Y-97733013D01*
X147257514Y-97702419D01*
X148312576Y-96647357D01*
X148325659Y-96636620D01*
X148368510Y-96584407D01*
X148400351Y-96524837D01*
X148419958Y-96460200D01*
X148424531Y-96413767D01*
X148781400Y-96413767D01*
X148781400Y-96626233D01*
X148822850Y-96834616D01*
X148904157Y-97030909D01*
X149022197Y-97207567D01*
X149172433Y-97357803D01*
X149349091Y-97475843D01*
X149545384Y-97557150D01*
X149753767Y-97598600D01*
X149966233Y-97598600D01*
X150174616Y-97557150D01*
X150370909Y-97475843D01*
X150547567Y-97357803D01*
X150697803Y-97207567D01*
X150815843Y-97030909D01*
X150897150Y-96834616D01*
X150938600Y-96626233D01*
X150938600Y-96413767D01*
X150897150Y-96205384D01*
X150815843Y-96009091D01*
X150697803Y-95832433D01*
X150547567Y-95682197D01*
X150370909Y-95564157D01*
X150174616Y-95482850D01*
X149966233Y-95441400D01*
X149753767Y-95441400D01*
X149545384Y-95482850D01*
X149349091Y-95564157D01*
X149172433Y-95682197D01*
X149022197Y-95832433D01*
X148904157Y-96009091D01*
X148822850Y-96205384D01*
X148781400Y-96413767D01*
X148424531Y-96413767D01*
X148424920Y-96409823D01*
X148424920Y-96409822D01*
X148426579Y-96392980D01*
X148424920Y-96376137D01*
X148424920Y-93873767D01*
X148781400Y-93873767D01*
X148781400Y-94086233D01*
X148822850Y-94294616D01*
X148904157Y-94490909D01*
X149022197Y-94667567D01*
X149172433Y-94817803D01*
X149349091Y-94935843D01*
X149545384Y-95017150D01*
X149753767Y-95058600D01*
X149966233Y-95058600D01*
X150174616Y-95017150D01*
X150370909Y-94935843D01*
X150547567Y-94817803D01*
X150697803Y-94667567D01*
X150815843Y-94490909D01*
X150897150Y-94294616D01*
X150938600Y-94086233D01*
X150938600Y-93873767D01*
X150897150Y-93665384D01*
X150815843Y-93469091D01*
X150697803Y-93292433D01*
X150547567Y-93142197D01*
X150370909Y-93024157D01*
X150174616Y-92942850D01*
X149966233Y-92901400D01*
X149753767Y-92901400D01*
X149545384Y-92942850D01*
X149349091Y-93024157D01*
X149172433Y-93142197D01*
X149022197Y-93292433D01*
X148904157Y-93469091D01*
X148822850Y-93665384D01*
X148781400Y-93873767D01*
X148424920Y-93873767D01*
X148424920Y-91333767D01*
X148781400Y-91333767D01*
X148781400Y-91546233D01*
X148822850Y-91754616D01*
X148904157Y-91950909D01*
X149022197Y-92127567D01*
X149172433Y-92277803D01*
X149349091Y-92395843D01*
X149545384Y-92477150D01*
X149753767Y-92518600D01*
X149966233Y-92518600D01*
X150174616Y-92477150D01*
X150370909Y-92395843D01*
X150547567Y-92277803D01*
X150697803Y-92127567D01*
X150815843Y-91950909D01*
X150897150Y-91754616D01*
X150938600Y-91546233D01*
X150938600Y-91333767D01*
X150897150Y-91125384D01*
X150815843Y-90929091D01*
X150697803Y-90752433D01*
X150547567Y-90602197D01*
X150370909Y-90484157D01*
X150174616Y-90402850D01*
X149966233Y-90361400D01*
X149753767Y-90361400D01*
X149545384Y-90402850D01*
X149349091Y-90484157D01*
X149172433Y-90602197D01*
X149022197Y-90752433D01*
X148904157Y-90929091D01*
X148822850Y-91125384D01*
X148781400Y-91333767D01*
X148424920Y-91333767D01*
X148424920Y-89775024D01*
X148426578Y-89758189D01*
X148424920Y-89741354D01*
X148424920Y-89741347D01*
X148419958Y-89690970D01*
X148400351Y-89626333D01*
X148368510Y-89566763D01*
X148325660Y-89514550D01*
X148312577Y-89503813D01*
X147602531Y-88793767D01*
X148781400Y-88793767D01*
X148781400Y-89006233D01*
X148822850Y-89214616D01*
X148904157Y-89410909D01*
X149022197Y-89587567D01*
X149172433Y-89737803D01*
X149349091Y-89855843D01*
X149545384Y-89937150D01*
X149753767Y-89978600D01*
X149966233Y-89978600D01*
X150174616Y-89937150D01*
X150370909Y-89855843D01*
X150547567Y-89737803D01*
X150697803Y-89587567D01*
X150815843Y-89410909D01*
X150897150Y-89214616D01*
X150938600Y-89006233D01*
X150938600Y-88793767D01*
X150897150Y-88585384D01*
X150815843Y-88389091D01*
X150697803Y-88212433D01*
X150547567Y-88062197D01*
X150370909Y-87944157D01*
X150174616Y-87862850D01*
X149966233Y-87821400D01*
X149753767Y-87821400D01*
X149545384Y-87862850D01*
X149349091Y-87944157D01*
X149172433Y-88062197D01*
X149022197Y-88212433D01*
X148904157Y-88389091D01*
X148822850Y-88585384D01*
X148781400Y-88793767D01*
X147602531Y-88793767D01*
X145062531Y-86253767D01*
X148781400Y-86253767D01*
X148781400Y-86466233D01*
X148822850Y-86674616D01*
X148904157Y-86870909D01*
X149022197Y-87047567D01*
X149172433Y-87197803D01*
X149349091Y-87315843D01*
X149545384Y-87397150D01*
X149753767Y-87438600D01*
X149966233Y-87438600D01*
X150174616Y-87397150D01*
X150370909Y-87315843D01*
X150547567Y-87197803D01*
X150697803Y-87047567D01*
X150815843Y-86870909D01*
X150897150Y-86674616D01*
X150938600Y-86466233D01*
X150938600Y-86253767D01*
X150897150Y-86045384D01*
X150815843Y-85849091D01*
X150697803Y-85672433D01*
X150547567Y-85522197D01*
X150370909Y-85404157D01*
X150174616Y-85322850D01*
X149966233Y-85281400D01*
X149753767Y-85281400D01*
X149545384Y-85322850D01*
X149349091Y-85404157D01*
X149172433Y-85522197D01*
X149022197Y-85672433D01*
X148904157Y-85849091D01*
X148822850Y-86045384D01*
X148781400Y-86253767D01*
X145062531Y-86253767D01*
X142522531Y-83713767D01*
X148781400Y-83713767D01*
X148781400Y-83926233D01*
X148822850Y-84134616D01*
X148904157Y-84330909D01*
X149022197Y-84507567D01*
X149172433Y-84657803D01*
X149349091Y-84775843D01*
X149545384Y-84857150D01*
X149753767Y-84898600D01*
X149966233Y-84898600D01*
X150174616Y-84857150D01*
X150370909Y-84775843D01*
X150547567Y-84657803D01*
X150697803Y-84507567D01*
X150815843Y-84330909D01*
X150897150Y-84134616D01*
X150938600Y-83926233D01*
X150938600Y-83713767D01*
X150897150Y-83505384D01*
X150815843Y-83309091D01*
X150697803Y-83132433D01*
X150547567Y-82982197D01*
X150370909Y-82864157D01*
X150174616Y-82782850D01*
X149966233Y-82741400D01*
X149753767Y-82741400D01*
X149545384Y-82782850D01*
X149349091Y-82864157D01*
X149172433Y-82982197D01*
X149022197Y-83132433D01*
X148904157Y-83309091D01*
X148822850Y-83505384D01*
X148781400Y-83713767D01*
X142522531Y-83713767D01*
X139858211Y-81049448D01*
X139847470Y-81036360D01*
X139795257Y-80993510D01*
X139735687Y-80961669D01*
X139671050Y-80942062D01*
X139620673Y-80937100D01*
X139620665Y-80937100D01*
X139603830Y-80935442D01*
X139586995Y-80937100D01*
X135699706Y-80937100D01*
X135699706Y-80430000D01*
X148780294Y-80430000D01*
X148780294Y-82130000D01*
X148784708Y-82174813D01*
X148797779Y-82217905D01*
X148819006Y-82257618D01*
X148847573Y-82292427D01*
X148882382Y-82320994D01*
X148922095Y-82342221D01*
X148965187Y-82355292D01*
X149010000Y-82359706D01*
X150710000Y-82359706D01*
X150754813Y-82355292D01*
X150797905Y-82342221D01*
X150837618Y-82320994D01*
X150872427Y-82292427D01*
X150900994Y-82257618D01*
X150922221Y-82217905D01*
X150935292Y-82174813D01*
X150939706Y-82130000D01*
X150939706Y-80430000D01*
X150935292Y-80385187D01*
X150922221Y-80342095D01*
X150900994Y-80302382D01*
X150872427Y-80267573D01*
X150837618Y-80239006D01*
X150797905Y-80217779D01*
X150754813Y-80204708D01*
X150710000Y-80200294D01*
X149010000Y-80200294D01*
X148965187Y-80204708D01*
X148922095Y-80217779D01*
X148882382Y-80239006D01*
X148847573Y-80267573D01*
X148819006Y-80302382D01*
X148797779Y-80342095D01*
X148784708Y-80385187D01*
X148780294Y-80430000D01*
X135699706Y-80430000D01*
X135695292Y-80385187D01*
X135682221Y-80342095D01*
X135660994Y-80302382D01*
X135632427Y-80267573D01*
X135597618Y-80239006D01*
X135557905Y-80217779D01*
X135514813Y-80204708D01*
X135470000Y-80200294D01*
X133770000Y-80200294D01*
X133725187Y-80204708D01*
X133682095Y-80217779D01*
X133642382Y-80239006D01*
X133607573Y-80267573D01*
X133579006Y-80302382D01*
X133557779Y-80342095D01*
X133544708Y-80385187D01*
X133540294Y-80430000D01*
X132333600Y-80430000D01*
X132333600Y-79387405D01*
X132342057Y-79301153D01*
X132363502Y-79230122D01*
X132398337Y-79164608D01*
X132445234Y-79107108D01*
X132502404Y-79059813D01*
X132567672Y-79024523D01*
X132638554Y-79002582D01*
X132724005Y-78993600D01*
X151752595Y-78993600D01*
X151838847Y-79002057D01*
%TD*%
M02*
