%TF.GenerationSoftware,KiCad,Pcbnew,5.1.6+dfsg1-1*%
%TF.CreationDate,2020-07-12T14:16:47+08:00*%
%TF.ProjectId,gpioexp,6770696f-6578-4702-9e6b-696361645f70,a*%
%TF.SameCoordinates,Original*%
%TF.FileFunction,Legend,Bot*%
%TF.FilePolarity,Positive*%
%FSLAX46Y46*%
G04 Gerber Fmt 4.6, Leading zero omitted, Abs format (unit mm)*
G04 Created by KiCad (PCBNEW 5.1.6+dfsg1-1) date 2020-07-12 14:16:47*
%MOMM*%
%LPD*%
G01*
G04 APERTURE LIST*
%ADD10C,0.150000*%
%ADD11C,0.120000*%
G04 APERTURE END LIST*
D10*
X142406666Y-98836309D02*
X142406666Y-99312500D01*
X142692380Y-98741071D02*
X141692380Y-99074404D01*
X142692380Y-99407738D01*
X142692380Y-99741071D02*
X141692380Y-99741071D01*
X141692380Y-99979166D01*
X141740000Y-100122023D01*
X141835238Y-100217261D01*
X141930476Y-100264880D01*
X142120952Y-100312500D01*
X142263809Y-100312500D01*
X142454285Y-100264880D01*
X142549523Y-100217261D01*
X142644761Y-100122023D01*
X142692380Y-99979166D01*
X142692380Y-99741071D01*
X141692380Y-100931547D02*
X141692380Y-101026785D01*
X141740000Y-101122023D01*
X141787619Y-101169642D01*
X141882857Y-101217261D01*
X142073333Y-101264880D01*
X142311428Y-101264880D01*
X142501904Y-101217261D01*
X142597142Y-101169642D01*
X142644761Y-101122023D01*
X142692380Y-101026785D01*
X142692380Y-100931547D01*
X142644761Y-100836309D01*
X142597142Y-100788690D01*
X142501904Y-100741071D01*
X142311428Y-100693452D01*
X142073333Y-100693452D01*
X141882857Y-100741071D01*
X141787619Y-100788690D01*
X141740000Y-100836309D01*
X141692380Y-100931547D01*
X141644761Y-102407738D02*
X142930476Y-101550595D01*
X142406666Y-102693452D02*
X142406666Y-103169642D01*
X142692380Y-102598214D02*
X141692380Y-102931547D01*
X142692380Y-103264880D01*
X142692380Y-103598214D02*
X141692380Y-103598214D01*
X141692380Y-103836309D01*
X141740000Y-103979166D01*
X141835238Y-104074404D01*
X141930476Y-104122023D01*
X142120952Y-104169642D01*
X142263809Y-104169642D01*
X142454285Y-104122023D01*
X142549523Y-104074404D01*
X142644761Y-103979166D01*
X142692380Y-103836309D01*
X142692380Y-103598214D01*
X142692380Y-105122023D02*
X142692380Y-104550595D01*
X142692380Y-104836309D02*
X141692380Y-104836309D01*
X141835238Y-104741071D01*
X141930476Y-104645833D01*
X141978095Y-104550595D01*
X140422380Y-102550595D02*
X141422380Y-102883928D01*
X140422380Y-103217261D01*
X141327142Y-104122023D02*
X141374761Y-104074404D01*
X141422380Y-103931547D01*
X141422380Y-103836309D01*
X141374761Y-103693452D01*
X141279523Y-103598214D01*
X141184285Y-103550595D01*
X140993809Y-103502976D01*
X140850952Y-103502976D01*
X140660476Y-103550595D01*
X140565238Y-103598214D01*
X140470000Y-103693452D01*
X140422380Y-103836309D01*
X140422380Y-103931547D01*
X140470000Y-104074404D01*
X140517619Y-104122023D01*
X141327142Y-105122023D02*
X141374761Y-105074404D01*
X141422380Y-104931547D01*
X141422380Y-104836309D01*
X141374761Y-104693452D01*
X141279523Y-104598214D01*
X141184285Y-104550595D01*
X140993809Y-104502976D01*
X140850952Y-104502976D01*
X140660476Y-104550595D01*
X140565238Y-104598214D01*
X140470000Y-104693452D01*
X140422380Y-104836309D01*
X140422380Y-104931547D01*
X140470000Y-105074404D01*
X140517619Y-105122023D01*
X143010000Y-103026785D02*
X142962380Y-102931547D01*
X142962380Y-102788690D01*
X143010000Y-102645833D01*
X143105238Y-102550595D01*
X143200476Y-102502976D01*
X143390952Y-102455357D01*
X143533809Y-102455357D01*
X143724285Y-102502976D01*
X143819523Y-102550595D01*
X143914761Y-102645833D01*
X143962380Y-102788690D01*
X143962380Y-102883928D01*
X143914761Y-103026785D01*
X143867142Y-103074404D01*
X143533809Y-103074404D01*
X143533809Y-102883928D01*
X143962380Y-103502976D02*
X142962380Y-103502976D01*
X143962380Y-104074404D01*
X142962380Y-104074404D01*
X143962380Y-104550595D02*
X142962380Y-104550595D01*
X142962380Y-104788690D01*
X143010000Y-104931547D01*
X143105238Y-105026785D01*
X143200476Y-105074404D01*
X143390952Y-105122023D01*
X143533809Y-105122023D01*
X143724285Y-105074404D01*
X143819523Y-105026785D01*
X143914761Y-104931547D01*
X143962380Y-104788690D01*
X143962380Y-104550595D01*
X143597380Y-80631309D02*
X144311666Y-80631309D01*
X144454523Y-80583690D01*
X144549761Y-80488452D01*
X144597380Y-80345595D01*
X144597380Y-80250357D01*
X144597380Y-81583690D02*
X144597380Y-81107500D01*
X143597380Y-81107500D01*
X144502142Y-82488452D02*
X144549761Y-82440833D01*
X144597380Y-82297976D01*
X144597380Y-82202738D01*
X144549761Y-82059880D01*
X144454523Y-81964642D01*
X144359285Y-81917023D01*
X144168809Y-81869404D01*
X144025952Y-81869404D01*
X143835476Y-81917023D01*
X143740238Y-81964642D01*
X143645000Y-82059880D01*
X143597380Y-82202738D01*
X143597380Y-82297976D01*
X143645000Y-82440833D01*
X143692619Y-82488452D01*
X143597380Y-83202738D02*
X144311666Y-83202738D01*
X144454523Y-83155119D01*
X144549761Y-83059880D01*
X144597380Y-82917023D01*
X144597380Y-82821785D01*
X144597380Y-84155119D02*
X144597380Y-83678928D01*
X143597380Y-83678928D01*
X144502142Y-85059880D02*
X144549761Y-85012261D01*
X144597380Y-84869404D01*
X144597380Y-84774166D01*
X144549761Y-84631309D01*
X144454523Y-84536071D01*
X144359285Y-84488452D01*
X144168809Y-84440833D01*
X144025952Y-84440833D01*
X143835476Y-84488452D01*
X143740238Y-84536071D01*
X143645000Y-84631309D01*
X143597380Y-84774166D01*
X143597380Y-84869404D01*
X143645000Y-85012261D01*
X143692619Y-85059880D01*
X143597380Y-85774166D02*
X144311666Y-85774166D01*
X144454523Y-85726547D01*
X144549761Y-85631309D01*
X144597380Y-85488452D01*
X144597380Y-85393214D01*
X144597380Y-86726547D02*
X144597380Y-86250357D01*
X143597380Y-86250357D01*
X144502142Y-87631309D02*
X144549761Y-87583690D01*
X144597380Y-87440833D01*
X144597380Y-87345595D01*
X144549761Y-87202738D01*
X144454523Y-87107500D01*
X144359285Y-87059880D01*
X144168809Y-87012261D01*
X144025952Y-87012261D01*
X143835476Y-87059880D01*
X143740238Y-87107500D01*
X143645000Y-87202738D01*
X143597380Y-87345595D01*
X143597380Y-87440833D01*
X143645000Y-87583690D01*
X143692619Y-87631309D01*
X143597380Y-88345595D02*
X144311666Y-88345595D01*
X144454523Y-88297976D01*
X144549761Y-88202738D01*
X144597380Y-88059880D01*
X144597380Y-87964642D01*
X144597380Y-89297976D02*
X144597380Y-88821785D01*
X143597380Y-88821785D01*
X144502142Y-90202738D02*
X144549761Y-90155119D01*
X144597380Y-90012261D01*
X144597380Y-89917023D01*
X144549761Y-89774166D01*
X144454523Y-89678928D01*
X144359285Y-89631309D01*
X144168809Y-89583690D01*
X144025952Y-89583690D01*
X143835476Y-89631309D01*
X143740238Y-89678928D01*
X143645000Y-89774166D01*
X143597380Y-89917023D01*
X143597380Y-90012261D01*
X143645000Y-90155119D01*
X143692619Y-90202738D01*
X140311666Y-80297976D02*
X140311666Y-80774166D01*
X140597380Y-80202738D02*
X139597380Y-80536071D01*
X140597380Y-80869404D01*
X139597380Y-81107500D02*
X140597380Y-81345595D01*
X139883095Y-81536071D01*
X140597380Y-81726547D01*
X139597380Y-81964642D01*
X140597380Y-82393214D02*
X140597380Y-82583690D01*
X140549761Y-82678928D01*
X140502142Y-82726547D01*
X140359285Y-82821785D01*
X140168809Y-82869404D01*
X139787857Y-82869404D01*
X139692619Y-82821785D01*
X139645000Y-82774166D01*
X139597380Y-82678928D01*
X139597380Y-82488452D01*
X139645000Y-82393214D01*
X139692619Y-82345595D01*
X139787857Y-82297976D01*
X140025952Y-82297976D01*
X140121190Y-82345595D01*
X140168809Y-82393214D01*
X140216428Y-82488452D01*
X140216428Y-82678928D01*
X140168809Y-82774166D01*
X140121190Y-82821785D01*
X140025952Y-82869404D01*
X139597380Y-83774166D02*
X139597380Y-83297976D01*
X140073571Y-83250357D01*
X140025952Y-83297976D01*
X139978333Y-83393214D01*
X139978333Y-83631309D01*
X140025952Y-83726547D01*
X140073571Y-83774166D01*
X140168809Y-83821785D01*
X140406904Y-83821785D01*
X140502142Y-83774166D01*
X140549761Y-83726547D01*
X140597380Y-83631309D01*
X140597380Y-83393214D01*
X140549761Y-83297976D01*
X140502142Y-83250357D01*
X139692619Y-84202738D02*
X139645000Y-84250357D01*
X139597380Y-84345595D01*
X139597380Y-84583690D01*
X139645000Y-84678928D01*
X139692619Y-84726547D01*
X139787857Y-84774166D01*
X139883095Y-84774166D01*
X140025952Y-84726547D01*
X140597380Y-84155119D01*
X140597380Y-84774166D01*
X139597380Y-85107500D02*
X139597380Y-85726547D01*
X139978333Y-85393214D01*
X139978333Y-85536071D01*
X140025952Y-85631309D01*
X140073571Y-85678928D01*
X140168809Y-85726547D01*
X140406904Y-85726547D01*
X140502142Y-85678928D01*
X140549761Y-85631309D01*
X140597380Y-85536071D01*
X140597380Y-85250357D01*
X140549761Y-85155119D01*
X140502142Y-85107500D01*
X139645000Y-87440833D02*
X139597380Y-87345595D01*
X139597380Y-87202738D01*
X139645000Y-87059880D01*
X139740238Y-86964642D01*
X139835476Y-86917023D01*
X140025952Y-86869404D01*
X140168809Y-86869404D01*
X140359285Y-86917023D01*
X140454523Y-86964642D01*
X140549761Y-87059880D01*
X140597380Y-87202738D01*
X140597380Y-87297976D01*
X140549761Y-87440833D01*
X140502142Y-87488452D01*
X140168809Y-87488452D01*
X140168809Y-87297976D01*
X140597380Y-87917023D02*
X139597380Y-87917023D01*
X139597380Y-88297976D01*
X139645000Y-88393214D01*
X139692619Y-88440833D01*
X139787857Y-88488452D01*
X139930714Y-88488452D01*
X140025952Y-88440833D01*
X140073571Y-88393214D01*
X140121190Y-88297976D01*
X140121190Y-87917023D01*
X140597380Y-88917023D02*
X139597380Y-88917023D01*
X139597380Y-89583690D02*
X139597380Y-89774166D01*
X139645000Y-89869404D01*
X139740238Y-89964642D01*
X139930714Y-90012261D01*
X140264047Y-90012261D01*
X140454523Y-89964642D01*
X140549761Y-89869404D01*
X140597380Y-89774166D01*
X140597380Y-89583690D01*
X140549761Y-89488452D01*
X140454523Y-89393214D01*
X140264047Y-89345595D01*
X139930714Y-89345595D01*
X139740238Y-89393214D01*
X139645000Y-89488452D01*
X139597380Y-89583690D01*
X141723571Y-80345595D02*
X141723571Y-80678928D01*
X142247380Y-80821785D02*
X142247380Y-80345595D01*
X141247380Y-80345595D01*
X141247380Y-80821785D01*
X142247380Y-81155119D02*
X141580714Y-81678928D01*
X141580714Y-81155119D02*
X142247380Y-81678928D01*
X141580714Y-82059880D02*
X142580714Y-82059880D01*
X141628333Y-82059880D02*
X141580714Y-82155119D01*
X141580714Y-82345595D01*
X141628333Y-82440833D01*
X141675952Y-82488452D01*
X141771190Y-82536071D01*
X142056904Y-82536071D01*
X142152142Y-82488452D01*
X142199761Y-82440833D01*
X142247380Y-82345595D01*
X142247380Y-82155119D01*
X142199761Y-82059880D01*
X142247380Y-83393214D02*
X141723571Y-83393214D01*
X141628333Y-83345595D01*
X141580714Y-83250357D01*
X141580714Y-83059880D01*
X141628333Y-82964642D01*
X142199761Y-83393214D02*
X142247380Y-83297976D01*
X142247380Y-83059880D01*
X142199761Y-82964642D01*
X142104523Y-82917023D01*
X142009285Y-82917023D01*
X141914047Y-82964642D01*
X141866428Y-83059880D01*
X141866428Y-83297976D01*
X141818809Y-83393214D01*
X141580714Y-83869404D02*
X142247380Y-83869404D01*
X141675952Y-83869404D02*
X141628333Y-83917023D01*
X141580714Y-84012261D01*
X141580714Y-84155119D01*
X141628333Y-84250357D01*
X141723571Y-84297976D01*
X142247380Y-84297976D01*
X142247380Y-85202738D02*
X141247380Y-85202738D01*
X142199761Y-85202738D02*
X142247380Y-85107500D01*
X142247380Y-84917023D01*
X142199761Y-84821785D01*
X142152142Y-84774166D01*
X142056904Y-84726547D01*
X141771190Y-84726547D01*
X141675952Y-84774166D01*
X141628333Y-84821785D01*
X141580714Y-84917023D01*
X141580714Y-85107500D01*
X141628333Y-85202738D01*
X142199761Y-86059880D02*
X142247380Y-85964642D01*
X142247380Y-85774166D01*
X142199761Y-85678928D01*
X142104523Y-85631309D01*
X141723571Y-85631309D01*
X141628333Y-85678928D01*
X141580714Y-85774166D01*
X141580714Y-85964642D01*
X141628333Y-86059880D01*
X141723571Y-86107500D01*
X141818809Y-86107500D01*
X141914047Y-85631309D01*
X142247380Y-86536071D02*
X141580714Y-86536071D01*
X141771190Y-86536071D02*
X141675952Y-86583690D01*
X141628333Y-86631309D01*
X141580714Y-86726547D01*
X141580714Y-86821785D01*
X142199761Y-87202738D02*
X142247380Y-87202738D01*
X142342619Y-87155119D01*
X142390238Y-87107500D01*
X142247380Y-88393214D02*
X141580714Y-88393214D01*
X141771190Y-88393214D02*
X141675952Y-88440833D01*
X141628333Y-88488452D01*
X141580714Y-88583690D01*
X141580714Y-88678928D01*
X142199761Y-89393214D02*
X142247380Y-89297976D01*
X142247380Y-89107500D01*
X142199761Y-89012261D01*
X142104523Y-88964642D01*
X141723571Y-88964642D01*
X141628333Y-89012261D01*
X141580714Y-89107500D01*
X141580714Y-89297976D01*
X141628333Y-89393214D01*
X141723571Y-89440833D01*
X141818809Y-89440833D01*
X141914047Y-88964642D01*
X141580714Y-89774166D02*
X142247380Y-90012261D01*
X141580714Y-90250357D01*
X142247380Y-91821785D02*
X141723571Y-91821785D01*
X141628333Y-91774166D01*
X141580714Y-91678928D01*
X141580714Y-91488452D01*
X141628333Y-91393214D01*
X142199761Y-91821785D02*
X142247380Y-91726547D01*
X142247380Y-91488452D01*
X142199761Y-91393214D01*
X142104523Y-91345595D01*
X142009285Y-91345595D01*
X141914047Y-91393214D01*
X141866428Y-91488452D01*
X141866428Y-91726547D01*
X141818809Y-91821785D01*
X138609166Y-81732380D02*
X138609166Y-80732380D01*
X138228214Y-80732380D01*
X138132976Y-80780000D01*
X138085357Y-80827619D01*
X138037738Y-80922857D01*
X138037738Y-81065714D01*
X138085357Y-81160952D01*
X138132976Y-81208571D01*
X138228214Y-81256190D01*
X138609166Y-81256190D01*
X137085357Y-81732380D02*
X137656785Y-81732380D01*
X137371071Y-81732380D02*
X137371071Y-80732380D01*
X137466309Y-80875238D01*
X137561547Y-80970476D01*
X137656785Y-81018095D01*
X136466309Y-80732380D02*
X136371071Y-80732380D01*
X136275833Y-80780000D01*
X136228214Y-80827619D01*
X136180595Y-80922857D01*
X136132976Y-81113333D01*
X136132976Y-81351428D01*
X136180595Y-81541904D01*
X136228214Y-81637142D01*
X136275833Y-81684761D01*
X136371071Y-81732380D01*
X136466309Y-81732380D01*
X136561547Y-81684761D01*
X136609166Y-81637142D01*
X136656785Y-81541904D01*
X136704404Y-81351428D01*
X136704404Y-81113333D01*
X136656785Y-80922857D01*
X136609166Y-80827619D01*
X136561547Y-80780000D01*
X136466309Y-80732380D01*
X138609166Y-84272380D02*
X138609166Y-83272380D01*
X138228214Y-83272380D01*
X138132976Y-83320000D01*
X138085357Y-83367619D01*
X138037738Y-83462857D01*
X138037738Y-83605714D01*
X138085357Y-83700952D01*
X138132976Y-83748571D01*
X138228214Y-83796190D01*
X138609166Y-83796190D01*
X137085357Y-84272380D02*
X137656785Y-84272380D01*
X137371071Y-84272380D02*
X137371071Y-83272380D01*
X137466309Y-83415238D01*
X137561547Y-83510476D01*
X137656785Y-83558095D01*
X136132976Y-84272380D02*
X136704404Y-84272380D01*
X136418690Y-84272380D02*
X136418690Y-83272380D01*
X136513928Y-83415238D01*
X136609166Y-83510476D01*
X136704404Y-83558095D01*
X138609166Y-86812380D02*
X138609166Y-85812380D01*
X138228214Y-85812380D01*
X138132976Y-85860000D01*
X138085357Y-85907619D01*
X138037738Y-86002857D01*
X138037738Y-86145714D01*
X138085357Y-86240952D01*
X138132976Y-86288571D01*
X138228214Y-86336190D01*
X138609166Y-86336190D01*
X137085357Y-86812380D02*
X137656785Y-86812380D01*
X137371071Y-86812380D02*
X137371071Y-85812380D01*
X137466309Y-85955238D01*
X137561547Y-86050476D01*
X137656785Y-86098095D01*
X136704404Y-85907619D02*
X136656785Y-85860000D01*
X136561547Y-85812380D01*
X136323452Y-85812380D01*
X136228214Y-85860000D01*
X136180595Y-85907619D01*
X136132976Y-86002857D01*
X136132976Y-86098095D01*
X136180595Y-86240952D01*
X136752023Y-86812380D01*
X136132976Y-86812380D01*
X138609166Y-89352380D02*
X138609166Y-88352380D01*
X138228214Y-88352380D01*
X138132976Y-88400000D01*
X138085357Y-88447619D01*
X138037738Y-88542857D01*
X138037738Y-88685714D01*
X138085357Y-88780952D01*
X138132976Y-88828571D01*
X138228214Y-88876190D01*
X138609166Y-88876190D01*
X137085357Y-89352380D02*
X137656785Y-89352380D01*
X137371071Y-89352380D02*
X137371071Y-88352380D01*
X137466309Y-88495238D01*
X137561547Y-88590476D01*
X137656785Y-88638095D01*
X136752023Y-88352380D02*
X136132976Y-88352380D01*
X136466309Y-88733333D01*
X136323452Y-88733333D01*
X136228214Y-88780952D01*
X136180595Y-88828571D01*
X136132976Y-88923809D01*
X136132976Y-89161904D01*
X136180595Y-89257142D01*
X136228214Y-89304761D01*
X136323452Y-89352380D01*
X136609166Y-89352380D01*
X136704404Y-89304761D01*
X136752023Y-89257142D01*
X138609166Y-91892380D02*
X138609166Y-90892380D01*
X138228214Y-90892380D01*
X138132976Y-90940000D01*
X138085357Y-90987619D01*
X138037738Y-91082857D01*
X138037738Y-91225714D01*
X138085357Y-91320952D01*
X138132976Y-91368571D01*
X138228214Y-91416190D01*
X138609166Y-91416190D01*
X137085357Y-91892380D02*
X137656785Y-91892380D01*
X137371071Y-91892380D02*
X137371071Y-90892380D01*
X137466309Y-91035238D01*
X137561547Y-91130476D01*
X137656785Y-91178095D01*
X136228214Y-91225714D02*
X136228214Y-91892380D01*
X136466309Y-90844761D02*
X136704404Y-91559047D01*
X136085357Y-91559047D01*
X138609166Y-94432380D02*
X138609166Y-93432380D01*
X138228214Y-93432380D01*
X138132976Y-93480000D01*
X138085357Y-93527619D01*
X138037738Y-93622857D01*
X138037738Y-93765714D01*
X138085357Y-93860952D01*
X138132976Y-93908571D01*
X138228214Y-93956190D01*
X138609166Y-93956190D01*
X137085357Y-94432380D02*
X137656785Y-94432380D01*
X137371071Y-94432380D02*
X137371071Y-93432380D01*
X137466309Y-93575238D01*
X137561547Y-93670476D01*
X137656785Y-93718095D01*
X136180595Y-93432380D02*
X136656785Y-93432380D01*
X136704404Y-93908571D01*
X136656785Y-93860952D01*
X136561547Y-93813333D01*
X136323452Y-93813333D01*
X136228214Y-93860952D01*
X136180595Y-93908571D01*
X136132976Y-94003809D01*
X136132976Y-94241904D01*
X136180595Y-94337142D01*
X136228214Y-94384761D01*
X136323452Y-94432380D01*
X136561547Y-94432380D01*
X136656785Y-94384761D01*
X136704404Y-94337142D01*
X138609166Y-96972380D02*
X138609166Y-95972380D01*
X138228214Y-95972380D01*
X138132976Y-96020000D01*
X138085357Y-96067619D01*
X138037738Y-96162857D01*
X138037738Y-96305714D01*
X138085357Y-96400952D01*
X138132976Y-96448571D01*
X138228214Y-96496190D01*
X138609166Y-96496190D01*
X137085357Y-96972380D02*
X137656785Y-96972380D01*
X137371071Y-96972380D02*
X137371071Y-95972380D01*
X137466309Y-96115238D01*
X137561547Y-96210476D01*
X137656785Y-96258095D01*
X136228214Y-95972380D02*
X136418690Y-95972380D01*
X136513928Y-96020000D01*
X136561547Y-96067619D01*
X136656785Y-96210476D01*
X136704404Y-96400952D01*
X136704404Y-96781904D01*
X136656785Y-96877142D01*
X136609166Y-96924761D01*
X136513928Y-96972380D01*
X136323452Y-96972380D01*
X136228214Y-96924761D01*
X136180595Y-96877142D01*
X136132976Y-96781904D01*
X136132976Y-96543809D01*
X136180595Y-96448571D01*
X136228214Y-96400952D01*
X136323452Y-96353333D01*
X136513928Y-96353333D01*
X136609166Y-96400952D01*
X136656785Y-96448571D01*
X136704404Y-96543809D01*
X138609166Y-99512380D02*
X138609166Y-98512380D01*
X138228214Y-98512380D01*
X138132976Y-98560000D01*
X138085357Y-98607619D01*
X138037738Y-98702857D01*
X138037738Y-98845714D01*
X138085357Y-98940952D01*
X138132976Y-98988571D01*
X138228214Y-99036190D01*
X138609166Y-99036190D01*
X137085357Y-99512380D02*
X137656785Y-99512380D01*
X137371071Y-99512380D02*
X137371071Y-98512380D01*
X137466309Y-98655238D01*
X137561547Y-98750476D01*
X137656785Y-98798095D01*
X136752023Y-98512380D02*
X136085357Y-98512380D01*
X136513928Y-99512380D01*
X138513928Y-102004761D02*
X138371071Y-102052380D01*
X138132976Y-102052380D01*
X138037738Y-102004761D01*
X137990119Y-101957142D01*
X137942500Y-101861904D01*
X137942500Y-101766666D01*
X137990119Y-101671428D01*
X138037738Y-101623809D01*
X138132976Y-101576190D01*
X138323452Y-101528571D01*
X138418690Y-101480952D01*
X138466309Y-101433333D01*
X138513928Y-101338095D01*
X138513928Y-101242857D01*
X138466309Y-101147619D01*
X138418690Y-101100000D01*
X138323452Y-101052380D01*
X138085357Y-101052380D01*
X137942500Y-101100000D01*
X136942500Y-101957142D02*
X136990119Y-102004761D01*
X137132976Y-102052380D01*
X137228214Y-102052380D01*
X137371071Y-102004761D01*
X137466309Y-101909523D01*
X137513928Y-101814285D01*
X137561547Y-101623809D01*
X137561547Y-101480952D01*
X137513928Y-101290476D01*
X137466309Y-101195238D01*
X137371071Y-101100000D01*
X137228214Y-101052380D01*
X137132976Y-101052380D01*
X136990119Y-101100000D01*
X136942500Y-101147619D01*
X136037738Y-102052380D02*
X136513928Y-102052380D01*
X136513928Y-101052380D01*
X138561547Y-104544761D02*
X138418690Y-104592380D01*
X138180595Y-104592380D01*
X138085357Y-104544761D01*
X138037738Y-104497142D01*
X137990119Y-104401904D01*
X137990119Y-104306666D01*
X138037738Y-104211428D01*
X138085357Y-104163809D01*
X138180595Y-104116190D01*
X138371071Y-104068571D01*
X138466309Y-104020952D01*
X138513928Y-103973333D01*
X138561547Y-103878095D01*
X138561547Y-103782857D01*
X138513928Y-103687619D01*
X138466309Y-103640000D01*
X138371071Y-103592380D01*
X138132976Y-103592380D01*
X137990119Y-103640000D01*
X137561547Y-104592380D02*
X137561547Y-103592380D01*
X137323452Y-103592380D01*
X137180595Y-103640000D01*
X137085357Y-103735238D01*
X137037738Y-103830476D01*
X136990119Y-104020952D01*
X136990119Y-104163809D01*
X137037738Y-104354285D01*
X137085357Y-104449523D01*
X137180595Y-104544761D01*
X137323452Y-104592380D01*
X137561547Y-104592380D01*
X136609166Y-104306666D02*
X136132976Y-104306666D01*
X136704404Y-104592380D02*
X136371071Y-103592380D01*
X136037738Y-104592380D01*
X138704404Y-106132380D02*
X138371071Y-107132380D01*
X138037738Y-106132380D01*
X137132976Y-107037142D02*
X137180595Y-107084761D01*
X137323452Y-107132380D01*
X137418690Y-107132380D01*
X137561547Y-107084761D01*
X137656785Y-106989523D01*
X137704404Y-106894285D01*
X137752023Y-106703809D01*
X137752023Y-106560952D01*
X137704404Y-106370476D01*
X137656785Y-106275238D01*
X137561547Y-106180000D01*
X137418690Y-106132380D01*
X137323452Y-106132380D01*
X137180595Y-106180000D01*
X137132976Y-106227619D01*
X136132976Y-107037142D02*
X136180595Y-107084761D01*
X136323452Y-107132380D01*
X136418690Y-107132380D01*
X136561547Y-107084761D01*
X136656785Y-106989523D01*
X136704404Y-106894285D01*
X136752023Y-106703809D01*
X136752023Y-106560952D01*
X136704404Y-106370476D01*
X136656785Y-106275238D01*
X136561547Y-106180000D01*
X136418690Y-106132380D01*
X136323452Y-106132380D01*
X136180595Y-106180000D01*
X136132976Y-106227619D01*
X138228214Y-108720000D02*
X138323452Y-108672380D01*
X138466309Y-108672380D01*
X138609166Y-108720000D01*
X138704404Y-108815238D01*
X138752023Y-108910476D01*
X138799642Y-109100952D01*
X138799642Y-109243809D01*
X138752023Y-109434285D01*
X138704404Y-109529523D01*
X138609166Y-109624761D01*
X138466309Y-109672380D01*
X138371071Y-109672380D01*
X138228214Y-109624761D01*
X138180595Y-109577142D01*
X138180595Y-109243809D01*
X138371071Y-109243809D01*
X137752023Y-109672380D02*
X137752023Y-108672380D01*
X137180595Y-109672380D01*
X137180595Y-108672380D01*
X136704404Y-109672380D02*
X136704404Y-108672380D01*
X136466309Y-108672380D01*
X136323452Y-108720000D01*
X136228214Y-108815238D01*
X136180595Y-108910476D01*
X136132976Y-109100952D01*
X136132976Y-109243809D01*
X136180595Y-109434285D01*
X136228214Y-109529523D01*
X136323452Y-109624761D01*
X136466309Y-109672380D01*
X136704404Y-109672380D01*
X147775595Y-108720000D02*
X147870833Y-108672380D01*
X148013690Y-108672380D01*
X148156547Y-108720000D01*
X148251785Y-108815238D01*
X148299404Y-108910476D01*
X148347023Y-109100952D01*
X148347023Y-109243809D01*
X148299404Y-109434285D01*
X148251785Y-109529523D01*
X148156547Y-109624761D01*
X148013690Y-109672380D01*
X147918452Y-109672380D01*
X147775595Y-109624761D01*
X147727976Y-109577142D01*
X147727976Y-109243809D01*
X147918452Y-109243809D01*
X147299404Y-109672380D02*
X147299404Y-108672380D01*
X146727976Y-109672380D01*
X146727976Y-108672380D01*
X146251785Y-109672380D02*
X146251785Y-108672380D01*
X146013690Y-108672380D01*
X145870833Y-108720000D01*
X145775595Y-108815238D01*
X145727976Y-108910476D01*
X145680357Y-109100952D01*
X145680357Y-109243809D01*
X145727976Y-109434285D01*
X145775595Y-109529523D01*
X145870833Y-109624761D01*
X146013690Y-109672380D01*
X146251785Y-109672380D01*
X148442261Y-106132380D02*
X148108928Y-107132380D01*
X147775595Y-106132380D01*
X146870833Y-107037142D02*
X146918452Y-107084761D01*
X147061309Y-107132380D01*
X147156547Y-107132380D01*
X147299404Y-107084761D01*
X147394642Y-106989523D01*
X147442261Y-106894285D01*
X147489880Y-106703809D01*
X147489880Y-106560952D01*
X147442261Y-106370476D01*
X147394642Y-106275238D01*
X147299404Y-106180000D01*
X147156547Y-106132380D01*
X147061309Y-106132380D01*
X146918452Y-106180000D01*
X146870833Y-106227619D01*
X145870833Y-107037142D02*
X145918452Y-107084761D01*
X146061309Y-107132380D01*
X146156547Y-107132380D01*
X146299404Y-107084761D01*
X146394642Y-106989523D01*
X146442261Y-106894285D01*
X146489880Y-106703809D01*
X146489880Y-106560952D01*
X146442261Y-106370476D01*
X146394642Y-106275238D01*
X146299404Y-106180000D01*
X146156547Y-106132380D01*
X146061309Y-106132380D01*
X145918452Y-106180000D01*
X145870833Y-106227619D01*
X148299405Y-104592380D02*
X148299405Y-103592380D01*
X147823214Y-104592380D02*
X147823214Y-103592380D01*
X147251786Y-104592380D01*
X147251786Y-103592380D01*
X146918452Y-103592380D02*
X146347024Y-103592380D01*
X146632738Y-104592380D02*
X146632738Y-103592380D01*
X148537499Y-100685000D02*
X147537499Y-100685000D01*
X147727975Y-102052380D02*
X148061309Y-101576190D01*
X148299404Y-102052380D02*
X148299404Y-101052380D01*
X147918452Y-101052380D01*
X147823214Y-101100000D01*
X147775594Y-101147619D01*
X147727975Y-101242857D01*
X147727975Y-101385714D01*
X147775594Y-101480952D01*
X147823214Y-101528571D01*
X147918452Y-101576190D01*
X148299404Y-101576190D01*
X147537499Y-100685000D02*
X146585118Y-100685000D01*
X147347023Y-102004761D02*
X147204166Y-102052380D01*
X146966071Y-102052380D01*
X146870833Y-102004761D01*
X146823214Y-101957142D01*
X146775594Y-101861904D01*
X146775594Y-101766666D01*
X146823214Y-101671428D01*
X146870833Y-101623809D01*
X146966071Y-101576190D01*
X147156547Y-101528571D01*
X147251785Y-101480952D01*
X147299404Y-101433333D01*
X147347023Y-101338095D01*
X147347023Y-101242857D01*
X147299404Y-101147619D01*
X147251785Y-101100000D01*
X147156547Y-101052380D01*
X146918452Y-101052380D01*
X146775594Y-101100000D01*
X146585118Y-100685000D02*
X145823214Y-100685000D01*
X146489880Y-101052380D02*
X145918452Y-101052380D01*
X146204166Y-102052380D02*
X146204166Y-101052380D01*
X148299404Y-99512380D02*
X148299404Y-98512380D01*
X147918452Y-98512380D01*
X147823214Y-98560000D01*
X147775595Y-98607619D01*
X147727976Y-98702857D01*
X147727976Y-98845714D01*
X147775595Y-98940952D01*
X147823214Y-98988571D01*
X147918452Y-99036190D01*
X148299404Y-99036190D01*
X147108928Y-98512380D02*
X147013690Y-98512380D01*
X146918452Y-98560000D01*
X146870833Y-98607619D01*
X146823214Y-98702857D01*
X146775595Y-98893333D01*
X146775595Y-99131428D01*
X146823214Y-99321904D01*
X146870833Y-99417142D01*
X146918452Y-99464761D01*
X147013690Y-99512380D01*
X147108928Y-99512380D01*
X147204166Y-99464761D01*
X147251785Y-99417142D01*
X147299404Y-99321904D01*
X147347023Y-99131428D01*
X147347023Y-98893333D01*
X147299404Y-98702857D01*
X147251785Y-98607619D01*
X147204166Y-98560000D01*
X147108928Y-98512380D01*
X146156547Y-98512380D02*
X146061309Y-98512380D01*
X145966071Y-98560000D01*
X145918452Y-98607619D01*
X145870833Y-98702857D01*
X145823214Y-98893333D01*
X145823214Y-99131428D01*
X145870833Y-99321904D01*
X145918452Y-99417142D01*
X145966071Y-99464761D01*
X146061309Y-99512380D01*
X146156547Y-99512380D01*
X146251785Y-99464761D01*
X146299404Y-99417142D01*
X146347023Y-99321904D01*
X146394642Y-99131428D01*
X146394642Y-98893333D01*
X146347023Y-98702857D01*
X146299404Y-98607619D01*
X146251785Y-98560000D01*
X146156547Y-98512380D01*
X148299404Y-96972380D02*
X148299404Y-95972380D01*
X147918452Y-95972380D01*
X147823214Y-96020000D01*
X147775595Y-96067619D01*
X147727976Y-96162857D01*
X147727976Y-96305714D01*
X147775595Y-96400952D01*
X147823214Y-96448571D01*
X147918452Y-96496190D01*
X148299404Y-96496190D01*
X147108928Y-95972380D02*
X147013690Y-95972380D01*
X146918452Y-96020000D01*
X146870833Y-96067619D01*
X146823214Y-96162857D01*
X146775595Y-96353333D01*
X146775595Y-96591428D01*
X146823214Y-96781904D01*
X146870833Y-96877142D01*
X146918452Y-96924761D01*
X147013690Y-96972380D01*
X147108928Y-96972380D01*
X147204166Y-96924761D01*
X147251785Y-96877142D01*
X147299404Y-96781904D01*
X147347023Y-96591428D01*
X147347023Y-96353333D01*
X147299404Y-96162857D01*
X147251785Y-96067619D01*
X147204166Y-96020000D01*
X147108928Y-95972380D01*
X145823214Y-96972380D02*
X146394642Y-96972380D01*
X146108928Y-96972380D02*
X146108928Y-95972380D01*
X146204166Y-96115238D01*
X146299404Y-96210476D01*
X146394642Y-96258095D01*
X148299404Y-94432380D02*
X148299404Y-93432380D01*
X147918452Y-93432380D01*
X147823214Y-93480000D01*
X147775595Y-93527619D01*
X147727976Y-93622857D01*
X147727976Y-93765714D01*
X147775595Y-93860952D01*
X147823214Y-93908571D01*
X147918452Y-93956190D01*
X148299404Y-93956190D01*
X147108928Y-93432380D02*
X147013690Y-93432380D01*
X146918452Y-93480000D01*
X146870833Y-93527619D01*
X146823214Y-93622857D01*
X146775595Y-93813333D01*
X146775595Y-94051428D01*
X146823214Y-94241904D01*
X146870833Y-94337142D01*
X146918452Y-94384761D01*
X147013690Y-94432380D01*
X147108928Y-94432380D01*
X147204166Y-94384761D01*
X147251785Y-94337142D01*
X147299404Y-94241904D01*
X147347023Y-94051428D01*
X147347023Y-93813333D01*
X147299404Y-93622857D01*
X147251785Y-93527619D01*
X147204166Y-93480000D01*
X147108928Y-93432380D01*
X146394642Y-93527619D02*
X146347023Y-93480000D01*
X146251785Y-93432380D01*
X146013690Y-93432380D01*
X145918452Y-93480000D01*
X145870833Y-93527619D01*
X145823214Y-93622857D01*
X145823214Y-93718095D01*
X145870833Y-93860952D01*
X146442261Y-94432380D01*
X145823214Y-94432380D01*
X148299404Y-91892380D02*
X148299404Y-90892380D01*
X147918452Y-90892380D01*
X147823214Y-90940000D01*
X147775595Y-90987619D01*
X147727976Y-91082857D01*
X147727976Y-91225714D01*
X147775595Y-91320952D01*
X147823214Y-91368571D01*
X147918452Y-91416190D01*
X148299404Y-91416190D01*
X147108928Y-90892380D02*
X147013690Y-90892380D01*
X146918452Y-90940000D01*
X146870833Y-90987619D01*
X146823214Y-91082857D01*
X146775595Y-91273333D01*
X146775595Y-91511428D01*
X146823214Y-91701904D01*
X146870833Y-91797142D01*
X146918452Y-91844761D01*
X147013690Y-91892380D01*
X147108928Y-91892380D01*
X147204166Y-91844761D01*
X147251785Y-91797142D01*
X147299404Y-91701904D01*
X147347023Y-91511428D01*
X147347023Y-91273333D01*
X147299404Y-91082857D01*
X147251785Y-90987619D01*
X147204166Y-90940000D01*
X147108928Y-90892380D01*
X146442261Y-90892380D02*
X145823214Y-90892380D01*
X146156547Y-91273333D01*
X146013690Y-91273333D01*
X145918452Y-91320952D01*
X145870833Y-91368571D01*
X145823214Y-91463809D01*
X145823214Y-91701904D01*
X145870833Y-91797142D01*
X145918452Y-91844761D01*
X146013690Y-91892380D01*
X146299404Y-91892380D01*
X146394642Y-91844761D01*
X146442261Y-91797142D01*
X148299404Y-89352380D02*
X148299404Y-88352380D01*
X147918452Y-88352380D01*
X147823214Y-88400000D01*
X147775595Y-88447619D01*
X147727976Y-88542857D01*
X147727976Y-88685714D01*
X147775595Y-88780952D01*
X147823214Y-88828571D01*
X147918452Y-88876190D01*
X148299404Y-88876190D01*
X147108928Y-88352380D02*
X147013690Y-88352380D01*
X146918452Y-88400000D01*
X146870833Y-88447619D01*
X146823214Y-88542857D01*
X146775595Y-88733333D01*
X146775595Y-88971428D01*
X146823214Y-89161904D01*
X146870833Y-89257142D01*
X146918452Y-89304761D01*
X147013690Y-89352380D01*
X147108928Y-89352380D01*
X147204166Y-89304761D01*
X147251785Y-89257142D01*
X147299404Y-89161904D01*
X147347023Y-88971428D01*
X147347023Y-88733333D01*
X147299404Y-88542857D01*
X147251785Y-88447619D01*
X147204166Y-88400000D01*
X147108928Y-88352380D01*
X145918452Y-88685714D02*
X145918452Y-89352380D01*
X146156547Y-88304761D02*
X146394642Y-89019047D01*
X145775595Y-89019047D01*
X148299404Y-86812380D02*
X148299404Y-85812380D01*
X147918452Y-85812380D01*
X147823214Y-85860000D01*
X147775595Y-85907619D01*
X147727976Y-86002857D01*
X147727976Y-86145714D01*
X147775595Y-86240952D01*
X147823214Y-86288571D01*
X147918452Y-86336190D01*
X148299404Y-86336190D01*
X147108928Y-85812380D02*
X147013690Y-85812380D01*
X146918452Y-85860000D01*
X146870833Y-85907619D01*
X146823214Y-86002857D01*
X146775595Y-86193333D01*
X146775595Y-86431428D01*
X146823214Y-86621904D01*
X146870833Y-86717142D01*
X146918452Y-86764761D01*
X147013690Y-86812380D01*
X147108928Y-86812380D01*
X147204166Y-86764761D01*
X147251785Y-86717142D01*
X147299404Y-86621904D01*
X147347023Y-86431428D01*
X147347023Y-86193333D01*
X147299404Y-86002857D01*
X147251785Y-85907619D01*
X147204166Y-85860000D01*
X147108928Y-85812380D01*
X145870833Y-85812380D02*
X146347023Y-85812380D01*
X146394642Y-86288571D01*
X146347023Y-86240952D01*
X146251785Y-86193333D01*
X146013690Y-86193333D01*
X145918452Y-86240952D01*
X145870833Y-86288571D01*
X145823214Y-86383809D01*
X145823214Y-86621904D01*
X145870833Y-86717142D01*
X145918452Y-86764761D01*
X146013690Y-86812380D01*
X146251785Y-86812380D01*
X146347023Y-86764761D01*
X146394642Y-86717142D01*
X148299404Y-84272380D02*
X148299404Y-83272380D01*
X147918452Y-83272380D01*
X147823214Y-83320000D01*
X147775595Y-83367619D01*
X147727976Y-83462857D01*
X147727976Y-83605714D01*
X147775595Y-83700952D01*
X147823214Y-83748571D01*
X147918452Y-83796190D01*
X148299404Y-83796190D01*
X147108928Y-83272380D02*
X147013690Y-83272380D01*
X146918452Y-83320000D01*
X146870833Y-83367619D01*
X146823214Y-83462857D01*
X146775595Y-83653333D01*
X146775595Y-83891428D01*
X146823214Y-84081904D01*
X146870833Y-84177142D01*
X146918452Y-84224761D01*
X147013690Y-84272380D01*
X147108928Y-84272380D01*
X147204166Y-84224761D01*
X147251785Y-84177142D01*
X147299404Y-84081904D01*
X147347023Y-83891428D01*
X147347023Y-83653333D01*
X147299404Y-83462857D01*
X147251785Y-83367619D01*
X147204166Y-83320000D01*
X147108928Y-83272380D01*
X145918452Y-83272380D02*
X146108928Y-83272380D01*
X146204166Y-83320000D01*
X146251785Y-83367619D01*
X146347023Y-83510476D01*
X146394642Y-83700952D01*
X146394642Y-84081904D01*
X146347023Y-84177142D01*
X146299404Y-84224761D01*
X146204166Y-84272380D01*
X146013690Y-84272380D01*
X145918452Y-84224761D01*
X145870833Y-84177142D01*
X145823214Y-84081904D01*
X145823214Y-83843809D01*
X145870833Y-83748571D01*
X145918452Y-83700952D01*
X146013690Y-83653333D01*
X146204166Y-83653333D01*
X146299404Y-83700952D01*
X146347023Y-83748571D01*
X146394642Y-83843809D01*
X148299404Y-81732380D02*
X148299404Y-80732380D01*
X147918452Y-80732380D01*
X147823214Y-80780000D01*
X147775595Y-80827619D01*
X147727976Y-80922857D01*
X147727976Y-81065714D01*
X147775595Y-81160952D01*
X147823214Y-81208571D01*
X147918452Y-81256190D01*
X148299404Y-81256190D01*
X147108928Y-80732380D02*
X147013690Y-80732380D01*
X146918452Y-80780000D01*
X146870833Y-80827619D01*
X146823214Y-80922857D01*
X146775595Y-81113333D01*
X146775595Y-81351428D01*
X146823214Y-81541904D01*
X146870833Y-81637142D01*
X146918452Y-81684761D01*
X147013690Y-81732380D01*
X147108928Y-81732380D01*
X147204166Y-81684761D01*
X147251785Y-81637142D01*
X147299404Y-81541904D01*
X147347023Y-81351428D01*
X147347023Y-81113333D01*
X147299404Y-80922857D01*
X147251785Y-80827619D01*
X147204166Y-80780000D01*
X147108928Y-80732380D01*
X146442261Y-80732380D02*
X145775595Y-80732380D01*
X146204166Y-81732380D01*
D11*
%TO.C,JP2*%
X140940000Y-108655000D02*
X141240000Y-108355000D01*
X140640000Y-108355000D02*
X141240000Y-108355000D01*
X140940000Y-108655000D02*
X140640000Y-108355000D01*
X140190000Y-108855000D02*
X140190000Y-110855000D01*
X144290000Y-108855000D02*
X140190000Y-108855000D01*
X144290000Y-110855000D02*
X144290000Y-108855000D01*
X140190000Y-110855000D02*
X144290000Y-110855000D01*
%TO.C,JP1*%
X140940000Y-105480000D02*
X141240000Y-105180000D01*
X140640000Y-105180000D02*
X141240000Y-105180000D01*
X140940000Y-105480000D02*
X140640000Y-105180000D01*
X140190000Y-105680000D02*
X140190000Y-107680000D01*
X144290000Y-105680000D02*
X140190000Y-105680000D01*
X144290000Y-107680000D02*
X144290000Y-105680000D01*
X140190000Y-107680000D02*
X144290000Y-107680000D01*
%TO.C,J2*%
X151190000Y-110550000D02*
X148530000Y-110550000D01*
X151190000Y-82550000D02*
X151190000Y-110550000D01*
X148530000Y-82550000D02*
X148530000Y-110550000D01*
X151190000Y-82550000D02*
X148530000Y-82550000D01*
X151190000Y-81280000D02*
X151190000Y-79950000D01*
X151190000Y-79950000D02*
X149860000Y-79950000D01*
%TO.C,J1*%
X135950000Y-110550000D02*
X133290000Y-110550000D01*
X135950000Y-82550000D02*
X135950000Y-110550000D01*
X133290000Y-82550000D02*
X133290000Y-110550000D01*
X135950000Y-82550000D02*
X133290000Y-82550000D01*
X135950000Y-81280000D02*
X135950000Y-79950000D01*
X135950000Y-79950000D02*
X134620000Y-79950000D01*
%TD*%
M02*
