M48
; DRILL file {KiCad 5.1.6+dfsg1-1} date Sun Jul 12 14:16:45 2020
; FORMAT={-:-/ absolute / inch / decimal}
; #@! TF.CreationDate,2020-07-12T14:16:45+08:00
; #@! TF.GenerationSoftware,Kicad,Pcbnew,5.1.6+dfsg1-1
; #@! TF.FileFunction,Plated,1,2,PTH
FMAT,2
INCH
T1C0.0138
T2C0.0394
%
G90
G05
T1
X5.4Y-3.15
X5.4Y-4.35
X5.45Y-3.775
X5.45Y-3.85
X5.475Y-4.35
X5.5Y-3.15
X5.525Y-3.775
X5.6Y-3.15
X5.6Y-3.625
X5.675Y-4.0
X5.675Y-4.075
X5.7Y-3.15
X5.725Y-4.35
X5.775Y-3.625
X5.775Y-3.7
X5.775Y-3.775
X5.775Y-3.85
X5.775Y-3.925
X5.8Y-3.15
X5.8Y-4.35
T2
X5.9Y-3.2
X5.9Y-3.3
X5.9Y-3.4
X5.9Y-3.5
X5.9Y-3.6
X5.9Y-3.7
X5.9Y-3.8
X5.9Y-3.9
X5.9Y-4.0
X5.9Y-4.1
X5.9Y-4.2
X5.9Y-4.3
X5.3Y-3.2
X5.3Y-3.3
X5.3Y-3.4
X5.3Y-3.5
X5.3Y-3.6
X5.3Y-3.7
X5.3Y-3.8
X5.3Y-3.9
X5.3Y-4.0
X5.3Y-4.1
X5.3Y-4.2
X5.3Y-4.3
T0
M30
